<svg width="118" height="107" viewBox="0 0 118 107" fill="none" xmlns="http://www.w3.org/2000/svg">
<path fill-rule="evenodd" clip-rule="evenodd" d="M73.6371 40.5197L73.6363 40.5209C73.5988 40.5778 73.5605 40.6358 73.5215 40.695C73.5608 40.6354 73.5993 40.577 73.6371 40.5197Z" fill="#212121"/>
<path fill-rule="evenodd" clip-rule="evenodd" d="M64.3333 24C64.3333 26.9455 61.9455 29.3333 58.9999 29.3333C56.0544 29.3333 53.6666 26.9455 53.6666 24C53.6666 21.0545 56.0544 18.6667 58.9999 18.6667C61.9455 18.6667 64.3333 21.0545 64.3333 24ZM57.5617 22.5617C58.1865 21.9369 58.3132 21.0505 57.8445 20.5818C57.3759 20.1132 56.4895 20.2398 55.8646 20.8647C55.2398 21.4895 55.1132 22.3759 55.5818 22.8446C56.0504 23.3132 56.9369 23.1866 57.5617 22.5617Z" fill="#1679AB"/>
<path fill-rule="evenodd" clip-rule="evenodd" d="M58.9999 29.3333C61.9455 29.3333 64.3333 26.9455 64.3333 24C64.3333 21.0545 61.9455 18.6667 58.9999 18.6667C56.0544 18.6667 53.6666 21.0545 53.6666 24C53.6666 26.9455 56.0544 29.3333 58.9999 29.3333ZM57.5617 22.5617C58.1865 21.9369 58.3132 21.0505 57.8445 20.5818C57.3759 20.1132 56.4895 20.2398 55.8646 20.8647C55.2398 21.4895 55.1132 22.3759 55.5818 22.8446C56.0504 23.3132 56.9369 23.1866 57.5617 22.5617Z" fill="#212121"/>
<path d="M40.8666 24.973C40.8666 15.0149 48.9803 6.93332 58.9999 6.93332C69.0196 6.93332 77.1333 15.0149 77.1333 24.973C77.1333 27.7057 76.5232 30.2938 75.4321 32.6125C75.1812 33.1455 75.41 33.7809 75.943 34.0318C76.476 34.2826 77.1115 34.0539 77.3623 33.5209C78.5843 30.9242 79.2666 28.0265 79.2666 24.973C79.2666 13.8268 70.188 4.79999 58.9999 4.79999C47.8119 4.79999 38.7333 13.8268 38.7333 24.973C38.7333 28.0265 39.4156 30.9242 40.6376 33.5209C40.8884 34.0539 41.5239 34.2826 42.0569 34.0318C42.5899 33.7809 42.8187 33.1455 42.5678 32.6125C41.4767 30.2938 40.8666 27.7057 40.8666 24.973Z" fill="#1679AB"/>
<path fill-rule="evenodd" clip-rule="evenodd" d="M58.9999 9.06665C50.0259 9.06665 42.7333 16.2741 42.7333 25.1866C42.7333 27.3707 43.6468 30.0545 44.9256 32.7844C46.2203 35.5481 47.9554 38.4938 49.7316 41.2433C53.2857 46.7446 57.0608 51.5466 57.9654 52.6815C58.4981 53.3498 59.5018 53.3498 60.0345 52.6815C60.9391 51.5466 64.7142 46.7446 68.2682 41.2433C70.0445 38.4938 71.7796 35.5481 73.0742 32.7844C74.3531 30.0545 75.2666 27.3707 75.2666 25.1866C75.2666 16.2741 67.974 9.06665 58.9999 9.06665ZM58.9999 11.2C51.1845 11.2 44.8666 17.4717 44.8666 25.1866C44.8666 26.8773 45.604 29.2035 46.8575 31.8794C48.0952 34.5216 49.774 37.3775 51.5236 40.0857C54.4601 44.6312 57.5566 48.7003 58.9999 50.548C60.4433 48.7003 63.5398 44.6312 66.4763 40.0857C68.2259 37.3775 69.9047 34.5216 71.1424 31.8794C72.3959 29.2035 73.1333 26.8773 73.1333 25.1866C73.1333 17.4717 66.8153 11.2 58.9999 11.2Z" fill="#1679AB"/>
<path d="M44.1802 36.2495C43.8762 35.7449 43.2207 35.5823 42.7161 35.8864C42.2115 36.1904 42.0489 36.8459 42.353 37.3505C43.0259 38.4672 43.5192 39.2132 44.0514 40.018C44.4595 40.6352 44.8905 41.287 45.4429 42.167C45.7561 42.666 46.4144 42.8166 46.9134 42.5034C47.4123 42.1903 47.563 41.5319 47.2498 41.0329C46.6226 40.0337 46.1871 39.3773 45.7886 38.7767C45.2941 38.0313 44.8565 37.3718 44.1802 36.2495Z" fill="#1679AB"/>
<path d="M75.6469 37.3505C75.9509 36.8459 75.7884 36.1904 75.2838 35.8864C74.7792 35.5823 74.1237 35.7449 73.8196 36.2495C72.9937 37.6202 72.5582 38.2805 71.874 39.3181L71.8733 39.3191L71.8728 39.3197C71.5692 39.7801 71.2166 40.3148 70.7591 41.0188C70.4382 41.5128 70.5784 42.1734 71.0724 42.4944C71.5663 42.8154 72.227 42.6752 72.548 42.1812C72.9335 41.5879 73.2467 41.1118 73.5215 40.695L73.6363 40.5209L73.6371 40.5197C74.3341 39.4628 74.7978 38.7598 75.6469 37.3505Z" fill="#1679AB"/>
<path d="M76.8301 50.6116C77.2415 50.1899 77.2332 49.5146 76.8115 49.1032C76.3899 48.6918 75.7145 48.7001 75.3031 49.1217C69.2112 55.3656 61.2073 57.2305 54.777 57.0556C51.5606 56.9682 48.7956 56.3708 46.9202 55.5989C45.9749 55.2099 45.3171 54.8016 44.9363 54.442C44.6328 54.1555 44.6031 54.0032 44.6011 53.9721C44.7687 53.1829 45.4359 52.546 46.4311 52.122C47.439 51.6925 48.4837 51.616 48.9523 51.7157C49.5285 51.8384 50.0951 51.4708 50.2178 50.8946C50.3404 50.3184 49.9728 49.7519 49.3966 49.6292C48.3936 49.4156 46.8952 49.6052 45.5948 50.1594C44.2845 50.7177 42.879 51.7795 42.5112 53.5437C42.3011 54.5516 42.8476 55.4039 43.4716 55.9932C44.1152 56.6008 45.0356 57.1303 46.1082 57.5717C48.2685 58.4608 51.2976 59.0951 54.719 59.1882C61.5644 59.3743 70.2117 57.3949 76.8301 50.6116Z" fill="#1679AB"/>
<path fill-rule="evenodd" clip-rule="evenodd" d="M66.4666 24C66.4666 28.1237 63.1237 31.4667 58.9999 31.4667C54.8762 31.4667 51.5333 28.1237 51.5333 24C51.5333 19.8763 54.8762 16.5333 58.9999 16.5333C63.1237 16.5333 66.4666 19.8763 66.4666 24ZM58.9999 29.3333C61.9455 29.3333 64.3333 26.9455 64.3333 24C64.3333 21.0545 61.9455 18.6667 58.9999 18.6667C56.0544 18.6667 53.6666 21.0545 53.6666 24C53.6666 26.9455 56.0544 29.3333 58.9999 29.3333Z" fill="#1679AB"/>
<path d="M13.1993 89.1094C13.069 88.6875 12.8894 88.3099 12.6602 87.9766C12.4362 87.638 12.1654 87.349 11.8477 87.1094C11.5352 86.8698 11.1758 86.6901 10.7696 86.5703C10.3633 86.4453 9.92061 86.3828 9.44144 86.3828C8.58207 86.3828 7.81644 86.599 7.14457 87.0313C6.47269 87.4635 5.94405 88.099 5.55863 88.9375C5.17842 89.7708 4.98832 90.7865 4.98832 91.9844C4.98832 93.1927 5.17842 94.2161 5.55863 95.0547C5.93884 95.8932 6.46749 96.5312 7.14457 96.9687C7.82165 97.401 8.60811 97.6172 9.50394 97.6172C10.3164 97.6172 11.0196 97.4609 11.6133 97.1484C12.2123 96.8359 12.6732 96.3932 12.9961 95.8203C13.319 95.2422 13.4805 94.5651 13.4805 93.7891L14.1368 93.8906H9.79301V91.625H16.2852V93.5469C16.2852 94.9167 15.9935 96.1016 15.4102 97.1016C14.8269 98.1016 14.0248 98.8724 13.0039 99.4141C11.9831 99.9505 10.8112 100.219 9.48832 100.219C8.01436 100.219 6.72009 99.888 5.60551 99.2266C4.49613 98.5599 3.62894 97.6146 3.00394 96.3906C2.38415 95.1615 2.07426 93.7031 2.07426 92.0156C2.07426 90.724 2.25655 89.5703 2.62113 88.5547C2.99092 87.5391 3.50655 86.6771 4.16801 85.9687C4.82947 85.2552 5.60551 84.7135 6.49613 84.3437C7.38676 83.9687 8.35551 83.7812 9.40238 83.7812C10.2878 83.7812 11.1133 83.9115 11.8789 84.1719C12.6446 84.4271 13.3243 84.7917 13.918 85.2656C14.517 85.7396 15.0092 86.3021 15.3946 86.9531C15.78 87.6042 16.0326 88.3229 16.1524 89.1094H13.1993ZM18.0829 100V88H20.8251V90H20.9501C21.1689 89.3073 21.5439 88.7734 22.0751 88.3984C22.6116 88.0182 23.2236 87.8281 23.9111 87.8281C24.0673 87.8281 24.2418 87.8359 24.4345 87.8516C24.6324 87.862 24.7965 87.8802 24.9267 87.9062V90.5078C24.8069 90.4661 24.6168 90.4297 24.3564 90.3984C24.1012 90.362 23.8538 90.3437 23.6142 90.3437C23.0986 90.3437 22.635 90.4557 22.2236 90.6797C21.8173 90.8984 21.497 91.2031 21.2626 91.5937C21.0282 91.9844 20.9111 92.4349 20.9111 92.9453V100H18.0829ZM30.6658 100.234C29.4939 100.234 28.4783 99.9766 27.6189 99.4609C26.7596 98.9453 26.0929 98.224 25.6189 97.2969C25.1502 96.3698 24.9158 95.2865 24.9158 94.0469C24.9158 92.8073 25.1502 91.7214 25.6189 90.7891C26.0929 89.8568 26.7596 89.1328 27.6189 88.6172C28.4783 88.1016 29.4939 87.8438 30.6658 87.8438C31.8377 87.8438 32.8533 88.1016 33.7127 88.6172C34.5721 89.1328 35.2361 89.8568 35.7049 90.7891C36.1788 91.7214 36.4158 92.8073 36.4158 94.0469C36.4158 95.2865 36.1788 96.3698 35.7049 97.2969C35.2361 98.224 34.5721 98.9453 33.7127 99.4609C32.8533 99.9766 31.8377 100.234 30.6658 100.234ZM30.6814 97.9687C31.3169 97.9687 31.8481 97.7943 32.2752 97.4453C32.7023 97.0911 33.02 96.6172 33.2283 96.0234C33.4419 95.4297 33.5486 94.7682 33.5486 94.0391C33.5486 93.3047 33.4419 92.6406 33.2283 92.0469C33.02 91.4479 32.7023 90.9714 32.2752 90.6172C31.8481 90.263 31.3169 90.0859 30.6814 90.0859C30.0304 90.0859 29.4887 90.263 29.0564 90.6172C28.6294 90.9714 28.309 91.4479 28.0955 92.0469C27.8872 92.6406 27.783 93.3047 27.783 94.0391C27.783 94.7682 27.8872 95.4297 28.0955 96.0234C28.309 96.6172 28.6294 97.0911 29.0564 97.4453C29.4887 97.7943 30.0304 97.9687 30.6814 97.9687ZM45.5846 94.9531V88H48.4128V100H45.6706V97.8672H45.5456C45.2748 98.5391 44.8294 99.0885 44.2096 99.5156C43.5951 99.9427 42.8373 100.156 41.9362 100.156C41.1498 100.156 40.4544 99.9818 39.8503 99.6328C39.2513 99.2786 38.7826 98.7656 38.444 98.0938C38.1055 97.4167 37.9362 96.599 37.9362 95.6406V88H40.7643V95.2031C40.7643 95.9635 40.9727 96.5677 41.3893 97.0156C41.806 97.4635 42.3529 97.6875 43.03 97.6875C43.4466 97.6875 43.8503 97.5859 44.2409 97.3828C44.6315 97.1797 44.9518 96.8776 45.2018 96.4766C45.457 96.0703 45.5846 95.5625 45.5846 94.9531ZM50.441 104.5V88H53.2222V89.9844H53.3863C53.5321 89.6927 53.7379 89.3828 54.0035 89.0547C54.2691 88.7214 54.6285 88.4375 55.0816 88.2031C55.5347 87.9635 56.1129 87.8438 56.816 87.8438C57.7431 87.8438 58.579 88.0807 59.3238 88.5547C60.0738 89.0234 60.6675 89.7187 61.105 90.6406C61.5477 91.5573 61.7691 92.6823 61.7691 94.0156C61.7691 95.3333 61.553 96.4531 61.1207 97.375C60.6884 98.2969 60.0998 99 59.355 99.4844C58.6102 99.9688 57.7665 100.211 56.8238 100.211C56.1363 100.211 55.566 100.096 55.1129 99.8672C54.6597 99.638 54.2951 99.362 54.0191 99.0391C53.7483 98.7109 53.5373 98.401 53.3863 98.1094H53.2691V104.5H50.441ZM53.2144 94C53.2144 94.776 53.3238 95.4557 53.5425 96.0391C53.7665 96.6224 54.0868 97.0781 54.5035 97.4062C54.9254 97.7292 55.4358 97.8906 56.0347 97.8906C56.6597 97.8906 57.1832 97.724 57.605 97.3906C58.0269 97.0521 58.3446 96.5911 58.5582 96.0078C58.7769 95.4193 58.8863 94.75 58.8863 94C58.8863 93.2552 58.7795 92.5937 58.566 92.0156C58.3524 91.4375 58.0347 90.9844 57.6129 90.6562C57.191 90.3281 56.6649 90.1641 56.0347 90.1641C55.4306 90.1641 54.9175 90.3229 54.4957 90.6406C54.0738 90.9583 53.7535 91.4036 53.5347 91.9766C53.3212 92.5495 53.2144 93.224 53.2144 94ZM61.852 86.4297V84H74.6176V86.4297H69.6723V100H66.7973V86.4297H61.852ZM74.8275 100V88H77.5696V90H77.6946C77.9134 89.3073 78.2884 88.7734 78.8196 88.3984C79.3561 88.0182 79.9681 87.8281 80.6556 87.8281C80.8118 87.8281 80.9863 87.8359 81.179 87.8516C81.3769 87.862 81.541 87.8802 81.6712 87.9062V90.5078C81.5514 90.4661 81.3613 90.4297 81.1009 90.3984C80.8457 90.362 80.5983 90.3437 80.3587 90.3437C79.8431 90.3437 79.3795 90.4557 78.9681 90.6797C78.5618 90.8984 78.2415 91.2031 78.0071 91.5937C77.7728 91.9844 77.6556 92.4349 77.6556 92.9453V100H74.8275ZM85.9084 100.242C85.148 100.242 84.4631 100.107 83.8537 99.8359C83.2495 99.5599 82.7704 99.1536 82.4162 98.6172C82.0672 98.0807 81.8928 97.4193 81.8928 96.6328C81.8928 95.9557 82.0178 95.3958 82.2678 94.9531C82.5178 94.5104 82.8589 94.1562 83.2912 93.8906C83.7235 93.625 84.2105 93.4245 84.7521 93.2891C85.299 93.1484 85.8641 93.0469 86.4475 92.9844C87.1506 92.9115 87.7209 92.8464 88.1584 92.7891C88.5959 92.7266 88.9136 92.6328 89.1115 92.5078C89.3146 92.3776 89.4162 92.1771 89.4162 91.9062V91.8594C89.4162 91.2708 89.2417 90.8151 88.8928 90.4922C88.5438 90.1693 88.0412 90.0078 87.385 90.0078C86.6922 90.0078 86.1428 90.1589 85.7365 90.4609C85.3355 90.763 85.0646 91.1198 84.924 91.5312L82.2834 91.1562C82.4917 90.4271 82.8355 89.8177 83.3146 89.3281C83.7938 88.8333 84.3797 88.4635 85.0725 88.2187C85.7652 87.9688 86.5308 87.8438 87.3693 87.8438C87.9475 87.8438 88.523 87.9115 89.0959 88.0469C89.6688 88.1823 90.1922 88.4062 90.6662 88.7187C91.1402 89.026 91.5204 89.4453 91.8068 89.9766C92.0985 90.5078 92.2443 91.1719 92.2443 91.9687V100H89.5256V98.3516H89.4318C89.26 98.6849 89.0178 98.9974 88.7053 99.2891C88.398 99.5755 88.01 99.8073 87.5412 99.9844C87.0777 100.156 86.5334 100.242 85.9084 100.242ZM86.6428 98.1641C87.2105 98.1641 87.7027 98.0521 88.1193 97.8281C88.536 97.599 88.8563 97.2969 89.0803 96.9219C89.3094 96.5469 89.424 96.138 89.424 95.6953V94.2812C89.3355 94.3542 89.1844 94.4219 88.9709 94.4844C88.7626 94.5469 88.5282 94.6016 88.2678 94.6484C88.0074 94.6953 87.7495 94.737 87.4943 94.7734C87.2391 94.8099 87.0178 94.8411 86.8303 94.8672C86.4084 94.9245 86.0308 95.0182 85.6975 95.1484C85.3641 95.2786 85.1011 95.4609 84.9084 95.6953C84.7157 95.9245 84.6193 96.2214 84.6193 96.5859C84.6193 97.1068 84.8094 97.5 85.1896 97.7656C85.5699 98.0312 86.0542 98.1641 86.6428 98.1641ZM99.4425 100.234C98.2445 100.234 97.2159 99.9714 96.3565 99.4453C95.5024 98.9193 94.8435 98.1927 94.38 97.2656C93.9216 96.3333 93.6925 95.2604 93.6925 94.0469C93.6925 92.8281 93.9268 91.7526 94.3956 90.8203C94.8643 89.8828 95.5258 89.1536 96.38 88.6328C97.2393 88.1068 98.255 87.8438 99.4268 87.8438C100.401 87.8438 101.263 88.0234 102.013 88.3828C102.768 88.737 103.37 89.2396 103.817 89.8906C104.265 90.5365 104.521 91.2917 104.583 92.1562H101.88C101.771 91.5781 101.51 91.0964 101.099 90.7109C100.692 90.3203 100.148 90.125 99.4659 90.125C98.8878 90.125 98.38 90.2812 97.9425 90.5937C97.505 90.901 97.1638 91.3437 96.919 91.9219C96.6794 92.5 96.5596 93.1927 96.5596 94C96.5596 94.8177 96.6794 95.5208 96.919 96.1094C97.1586 96.6927 97.4945 97.1432 97.9268 97.4609C98.3643 97.7734 98.8774 97.9297 99.4659 97.9297C99.8826 97.9297 100.255 97.8516 100.583 97.6953C100.916 97.5339 101.195 97.3021 101.419 97C101.643 96.6979 101.797 96.3307 101.88 95.8984H104.583C104.515 96.7474 104.265 97.5 103.833 98.1562C103.401 98.8073 102.812 99.3177 102.067 99.6875C101.323 100.052 100.448 100.234 99.4425 100.234ZM108.603 96.2344L108.596 92.8203H109.049L113.361 88H116.666L111.361 93.9062H110.775L108.603 96.2344ZM106.025 100V84H108.853V100H106.025ZM113.557 100L109.65 94.5391L111.557 92.5469L116.939 100H113.557Z" fill="#1679AB"/>
</svg>
