<svg width="594" height="115" viewBox="0 0 594 115" fill="none" xmlns="http://www.w3.org/2000/svg">
<path d="M549.298 0C553.779 0 556.997 3.32585 556.997 7.91323V80.8526C556.997 85.4399 553.664 88.7658 549.298 88.7658C544.816 88.7658 541.483 85.3253 541.483 80.8526V7.91323C541.483 3.44053 544.816 0 549.298 0ZM591.472 75.4624C593.31 77.6414 594 79.4763 594 81.1966C594 85.3253 590.667 88.6511 586.53 88.6511C584.002 88.6511 581.934 87.5043 580.21 85.3253L561.938 64.5674C560.215 62.503 559.525 60.7828 559.525 58.9478C559.525 57.2276 560.215 55.5073 561.938 53.443L578.831 32.5704C580.555 30.3914 582.738 29.3592 585.151 29.3592C589.288 29.3592 592.621 32.6851 592.621 36.8137C592.621 38.534 591.931 40.3689 590.093 42.5479L576.303 58.7185L591.472 75.4624Z" fill="#1679AB"/>
<path d="M507.612 88.7653C490.49 88.7653 477.159 75.5766 477.159 58.9474C477.159 42.3181 490.49 29.3588 507.612 29.3588C517.265 29.3588 526.228 33.9461 530.595 40.5978C531.629 42.2034 531.974 43.465 531.974 44.7265C531.974 48.5111 528.871 51.6076 525.079 51.6076C522.896 51.6076 521.172 50.9195 519.793 49.1992C516.92 45.7587 512.898 43.465 507.842 43.465C499.108 43.465 492.903 49.8873 492.903 58.9474C492.903 68.1221 499.108 74.5445 507.842 74.5445C512.783 74.5445 516.69 72.2508 519.793 68.8102C521.402 66.9753 523.011 66.4019 525.079 66.4019C528.871 66.4019 531.974 69.4983 531.974 73.2829C531.974 74.6591 531.629 75.806 530.71 77.1822C525.999 84.4073 517.725 88.7653 507.612 88.7653Z" fill="#1679AB"/>
<path d="M443.153 29.3588C458.781 29.3588 467.745 38.1895 467.745 53.6719V80.9668C467.745 85.4395 464.527 88.6506 460.275 88.6506C456.483 88.6506 453.495 86.1276 452.806 82.687C448.669 86.5863 442.923 88.7653 436.143 88.7653C424.421 88.7653 416.492 81.8843 416.492 71.792C416.492 61.5851 424.651 55.2775 437.981 55.2775H452.231V52.7544C452.231 46.4467 448.439 42.7768 441.544 42.7768C437.522 42.7768 433.959 44.1531 430.627 47.0202C428.788 48.3964 427.524 48.8551 426.03 48.8551C422.238 48.8551 419.365 45.988 419.365 42.5475C419.365 40.3685 420.514 38.3042 422.583 36.3545C427.409 31.8818 434.879 29.3588 443.153 29.3588ZM440.28 77.4116C447.06 77.4116 452.231 72.5948 452.231 66.1725V65.4844H440.05C434.879 65.4844 432.121 67.434 432.121 71.2186C432.121 75.0032 435.223 77.4116 440.28 77.4116Z" fill="#1679AB"/>
<path d="M407.997 29.9322C412.133 29.9322 415.006 32.6846 415.006 36.9279C415.006 41.0566 412.133 43.9237 407.767 44.3824C399.493 44.9559 394.436 50.346 394.436 59.062V80.8521C394.436 85.4395 391.104 88.7653 386.737 88.7653C382.255 88.7653 378.923 85.3248 378.923 80.8521V37.1573C378.923 32.6846 382.255 29.3588 386.622 29.3588C390.644 29.3588 393.747 32.3406 394.092 36.3545C397.654 32.3406 402.595 29.9322 407.997 29.9322Z" fill="#1679AB"/>
<path d="M364.442 74.9329C368.579 74.9329 371.222 77.4559 371.222 81.2405C371.222 84.1076 369.728 86.2866 367.315 87.4335C365.131 88.351 362.603 88.9244 359.271 88.9244C344.447 88.9244 336.518 81.4699 336.518 67.5931V43.8534H333.3C329.508 43.8534 326.635 41.1009 326.635 37.3164C326.635 33.5318 329.508 30.7793 333.3 30.7793H336.518V22.9808C336.518 18.5081 339.735 15.1823 344.332 15.1823C348.699 15.1823 352.031 18.5081 352.031 22.9808V30.7793H362.488C366.281 30.7793 369.039 33.5318 369.039 37.3164C369.039 41.1009 366.281 43.8534 362.488 43.8534H352.031V66.2169C352.031 72.5245 355.019 75.0476 362.259 75.0476C363.178 75.0476 363.867 74.9329 364.442 74.9329Z" fill="#1679AB"/>
<path d="M295.963 29.3585C311.936 29.3585 323.543 41.7444 323.543 58.9471C323.543 76.1497 311.936 88.765 295.963 88.765C288.838 88.765 282.863 86.242 278.955 81.884V107.201C278.955 111.674 275.623 115 271.256 115C266.774 115 263.442 111.674 263.442 107.201V36.9276C263.442 32.5696 266.774 29.2438 271.141 29.2438C275.278 29.2438 278.381 32.3403 278.611 36.5836C282.518 31.9962 288.608 29.3585 295.963 29.3585ZM293.09 74.6588C301.594 74.6588 307.799 68.1218 307.799 59.0617C307.799 49.887 301.709 43.35 293.09 43.35C284.471 43.35 278.726 49.6576 278.726 58.9471C278.726 68.2365 284.586 74.6588 293.09 74.6588Z" fill="#1679AB"/>
<path d="M224.821 88.7653C209.308 88.7653 198.506 77.985 198.506 62.3879V37.1573C198.506 32.6846 201.838 29.3588 206.32 29.3588C210.687 29.3588 214.019 32.6846 214.019 37.1573V63.6494C214.019 69.9571 218.501 74.5445 224.821 74.5445C231.027 74.5445 235.394 69.9571 235.394 63.6494V37.1573C235.394 32.6846 238.611 29.3588 243.208 29.3588C247.575 29.3588 250.907 32.6846 250.907 37.1573V62.3879C250.907 77.985 240.105 88.7653 224.821 88.7653Z" fill="#1679AB"/>
<path d="M158.699 29.3588C175.706 29.3588 189.267 42.4328 189.267 58.9474C189.267 75.4619 175.706 88.6506 158.584 88.6506C141.577 88.6506 128.246 75.5766 128.246 58.9474C128.246 42.3181 141.577 29.3588 158.699 29.3588ZM158.699 43.465C150.195 43.465 143.99 50.002 143.99 59.062C143.99 68.0074 150.195 74.4298 158.699 74.4298C167.088 74.4298 173.408 67.8927 173.408 59.062C173.408 50.1167 167.088 43.465 158.699 43.465Z" fill="#1679AB"/>
<path d="M119.406 29.9322C123.543 29.9322 126.416 32.6846 126.416 36.9279C126.416 41.0566 123.543 43.9237 119.176 44.3824C110.902 44.9559 105.846 50.346 105.846 59.062V80.8521C105.846 85.4395 102.513 88.7653 98.1465 88.7653C93.6648 88.7653 90.3323 85.3248 90.3323 80.8521V37.1573C90.3323 32.6846 93.6648 29.3588 98.0316 29.3588C102.054 29.3588 105.156 32.3406 105.501 36.3545C109.064 32.3406 114.005 29.9322 119.406 29.9322Z" fill="#1679AB"/>
<ellipse cx="42.8173" cy="113.709" rx="10.6403" ry="1.05956" fill="#1679AB"/>
<path d="M35.6165 46.0548C36.3542 46.7924 36.1548 48.1878 35.1713 49.1713C34.1878 50.1548 32.7924 50.3542 32.0548 49.6165C31.3171 48.8789 31.5165 47.4835 32.5 46.5C33.4835 45.5165 34.8789 45.3171 35.6165 46.0548Z" fill="#1679AB"/>
<path fill-rule="evenodd" clip-rule="evenodd" d="M0 55.4426C0 32.5965 17.7272 14.9589 40.6345 14.9589C50.9945 14.9589 61.3546 19.2203 67.5707 25.9676C70.9089 29.1637 72.2903 31.6495 72.2903 34.3721C72.2903 38.2784 69.0671 41.5929 65.1533 41.5929C62.736 41.5929 60.8942 40.6459 58.5919 38.0417C53.4119 32.3597 47.7714 29.7555 40.4043 29.7555C26.0153 29.7555 14.9372 38.0417 15.452 55.4426C15.5589 59.055 16.0005 61.1801 17.2462 64.2811C18.6589 67.0048 21.219 71.2602 24.5744 75.7717C26.719 78.6552 29.1884 81.6433 31.8908 84.4029C40.7803 94.7882 42.5921 94.1812 48.9213 86.5203C49.4142 85.9236 49.9545 85.3637 50.4937 84.8084C52.1369 83.1157 53.7027 80.9766 55.1422 79.0101C55.704 78.2426 56.2466 77.5013 56.767 76.8232C59.5625 72.4943 65.6809 61.9239 65.6809 56.3986C65.6809 53.7422 64.8959 53.2109 62.477 53.2109C60.341 53.2109 58.5919 54.474 58.5919 57.4611C57.4062 63.648 50.8238 72.5 40 72.5C31.8908 72.5 21.9664 66.1554 21.7988 54.1775C21.6801 45.6923 28 35.6627 40.4043 35.6627C46.1082 35.6627 50.6697 37.484 56.5 44.5C58.5005 46.4735 60.7975 47.9854 64.0789 47.8981C66.0748 47.8451 67.5858 46.7729 69.1018 45.6971C71.3406 44.1084 73.5904 42.512 77.4287 44.1792C85.9909 47.8981 81.5226 69.1617 72.2903 82.4072C71.9997 82.8241 71.6697 83.3232 71.2843 83.9062C68.7679 87.7122 63.889 95.0915 52.2171 106.461C46.5163 112.014 38.1296 111.825 32.5274 106.461C30.2788 104.308 28.1459 102.397 26.091 100.555L26.09 100.554L26.089 100.554L26.0879 100.553C19.3798 94.5424 13.5015 89.2756 7.13753 78.7621C2.61631 72.2274 0 64.2193 0 55.4426ZM40 66C47.1797 66 52 61.1797 52 54C52 46.8203 47.1797 42 40 42C32.8203 42 28 46.8203 28 54C28 61.1797 32.8203 66 40 66Z" fill="#1679AB"/>
<path fill-rule="evenodd" clip-rule="evenodd" d="M52 54C52 61.1797 47.1797 66 40 66C32.8203 66 28 61.1797 28 54C28 46.8203 32.8203 42 40 42C47.1797 42 52 46.8203 52 54ZM35.1713 49.1713C36.1548 48.1878 36.3542 46.7924 35.6165 46.0548C34.8789 45.3171 33.4835 45.5165 32.5 46.5C31.5165 47.4835 31.3171 48.8789 32.0548 49.6165C32.7924 50.3542 34.1878 50.1548 35.1713 49.1713Z" fill="white"/>
</svg>
