<svg width="372" height="318" viewBox="0 0 372 318" fill="none" xmlns="http://www.w3.org/2000/svg">
<path opacity="0.1" d="M178.5 169C170.739 171.589 162.423 171.433 155 168C150.65 165.988 146.566 162.673 143.5 159L132.972 178.673L263.468 231.719L281.974 199.414L191 163C186.988 165.391 182.888 167.537 178.5 169Z" fill="#4285F4"/>
<path opacity="0.3" d="M240.479 228.181C245.797 227.705 251.702 228.132 255.578 231.794C255.969 232.163 256.32 232.56 256.65 232.97L263.614 231.732L133.287 178.715L91.3076 186.092L215.635 235.96C223.239 231.65 231.767 228.96 240.479 228.181Z" fill="#4285F4"/>
<path opacity="0.1" d="M222.656 238.59L200.429 252.875L161.86 277.656L79.4537 245.019L30.5771 225.66L91.1109 185.782L215.232 235.614L222.656 238.59Z" fill="#4285F4"/>
<path d="M240.405 228.34C231.704 229.097 223.188 231.708 215.595 235.892L223.016 238.787L256.553 232.99C256.223 232.591 255.872 232.206 255.482 231.848C251.611 228.293 245.715 227.878 240.405 228.34Z" fill="#4285F4"/>
<path opacity="0.1" d="M255.896 125.004C255.821 131.301 257.294 137.253 254.487 143.352C251.605 149.614 245.747 154.495 239.002 156.084C237.798 156.368 236.586 156.545 235.368 156.652L323.14 191.436L323.558 191.359L342 159.421L255.896 125.004Z" fill="#4285F4"/>
<path opacity="0.3" d="M207.713 155.544C201.6 156.603 196.257 159.839 190.878 163.058L281.855 199.21L322.932 191.579L235.307 156.686C226.226 157.485 216.804 153.968 207.713 155.544ZM191.47 139.229L235.307 156.686C236.523 156.579 237.733 156.401 238.935 156.117C245.669 154.522 251.517 149.626 254.394 143.345C257.197 137.227 255.726 131.255 255.8 124.939L210.213 106.629L191.47 139.229Z" fill="#4285F4"/>
<path d="M191.807 139.166L150.5 147L191.235 163.167C196.578 159.921 201.885 156.658 207.957 155.589C216.988 154 226.347 157.547 235.368 156.741L191.823 139.139L191.807 139.166Z" fill="#4285F4"/>
<path d="M178.531 169.298C170.824 171.885 162.136 171.399 154.764 167.968C150.444 165.958 146.545 162.67 143.5 159L150.301 146.912L190.878 163.068C186.894 165.457 182.889 167.836 178.531 169.298Z" fill="#4285F4"/>
<path d="M232.465 137.927C232.342 137.927 232.241 137.831 232.236 137.708C232.23 137.581 232.329 137.474 232.456 137.469C233.5 137.426 234.554 137.298 235.68 137.077C235.804 137.058 235.925 137.134 235.95 137.259C235.974 137.383 235.893 137.504 235.768 137.528C234.636 137.75 233.527 137.884 232.475 137.927C232.472 137.927 232.468 137.927 232.465 137.927ZM229.152 137.73C228.046 137.542 226.968 137.233 225.95 136.812C225.832 136.763 225.776 136.629 225.825 136.512C225.874 136.395 226.009 136.338 226.126 136.388C227.113 136.796 228.157 137.095 229.23 137.278C229.355 137.299 229.439 137.418 229.418 137.542C229.395 137.673 229.268 137.753 229.152 137.73ZM238.835 136.266C239.783 135.97 240.791 135.612 241.917 135.174C242.036 135.126 242.169 135.185 242.216 135.304C242.262 135.422 242.203 135.555 242.085 135.601C240.948 136.044 239.93 136.404 238.973 136.704C238.677 136.795 238.55 136.355 238.835 136.266ZM223.047 135.17C222.118 134.47 221.333 133.666 220.713 132.78C220.641 132.676 220.666 132.533 220.77 132.46C220.875 132.389 221.018 132.413 221.091 132.517C221.683 133.364 222.434 134.133 223.324 134.803C223.425 134.88 223.446 135.024 223.369 135.125C223.291 135.227 223.146 135.245 223.047 135.17ZM244.829 134.23C244.779 134.113 244.834 133.978 244.951 133.929C246.125 133.428 247.063 133.026 247.98 132.65C248.097 132.6 248.232 132.657 248.28 132.775C248.329 132.892 248.272 133.026 248.155 133.074C247.213 133.462 246.365 133.825 245.13 134.351C245.011 134.4 244.878 134.345 244.829 134.23ZM266.908 132.093C266 131.566 265.002 131.14 263.945 130.824C263.823 130.788 263.754 130.66 263.79 130.538C263.826 130.417 263.956 130.346 264.076 130.385C265.169 130.71 266.199 131.151 267.14 131.696C267.249 131.759 267.287 131.9 267.223 132.009C267.158 132.12 267.017 132.155 266.908 132.093ZM250.917 131.759C250.875 131.64 250.937 131.509 251.057 131.466C252.188 131.068 253.221 130.752 254.218 130.499C254.34 130.469 254.466 130.542 254.497 130.665C254.528 130.788 254.454 130.913 254.331 130.944C253.348 131.193 252.327 131.505 251.211 131.899C251.094 131.94 250.96 131.881 250.917 131.759ZM257.501 130.346C257.386 130.346 257.286 130.26 257.273 130.143C257.258 130.018 257.349 129.904 257.475 129.889C258.705 129.747 259.842 129.724 260.798 129.789C261.084 129.809 261.091 130.241 260.766 130.248C259.732 130.175 258.574 130.224 257.528 130.345C257.519 130.346 257.51 130.346 257.501 130.346Z" fill="#212121"/>
<path d="M222.879 239.138L158.215 213.189C158.046 213.121 157.965 212.93 158.033 212.762C158.101 212.594 158.294 212.514 158.46 212.58L223.124 238.53C223.293 238.598 223.374 238.788 223.306 238.956C223.239 239.124 223.048 239.206 222.879 239.138Z" fill="#212121"/>
<path d="M45.5571 232.246L30.2072 226.169C29.9606 226.072 29.9259 225.737 30.1475 225.591L58.5421 206.895C58.6936 206.794 58.897 206.837 58.9975 206.988C59.0973 207.139 59.0556 207.343 58.9041 207.442L31.0359 225.792L45.7998 231.636C45.9683 231.703 46.0507 231.894 45.984 232.062C45.9187 232.226 45.7325 232.314 45.5571 232.246Z" fill="#212121"/>
<g opacity="0.3">
<path d="M200.707 253.153L162.019 278L79.3584 245.277C81.6392 240.838 85.1031 237.015 89.3096 234.32C93.3586 231.729 98.4131 230.182 103.001 231.605C107.563 233.015 110.744 236.989 114.306 240.156C124.659 249.369 140.276 252.229 153.231 247.291C157.661 245.599 161.749 243.094 166.206 241.481C170.662 239.861 175.776 239.205 180.048 241.251C187.513 244.816 187.72 252.213 200.707 253.153Z" fill="#4285F4"/>
</g>
<path d="M149.635 248.447C149.587 248.273 149.69 248.092 149.865 248.044C150.745 247.804 151.62 247.527 152.468 247.223C152.639 247.163 152.827 247.25 152.889 247.421C152.95 247.591 152.861 247.779 152.691 247.841C151.827 248.151 150.935 248.432 150.039 248.677C149.857 248.725 149.682 248.618 149.635 248.447Z" fill="#212121"/>
<path d="M137.468 249.933C128.678 249.381 120.375 245.996 114.088 240.4C110.572 237.274 107.368 233.298 102.904 231.918C98.9525 230.693 94.0629 231.669 89.4876 234.596C89.3342 234.694 89.1317 234.649 89.0335 234.496C88.9356 234.344 88.9799 234.142 89.1326 234.044C93.8723 231.012 98.9624 230.009 103.099 231.292C107.739 232.726 110.98 236.759 114.525 239.911C120.703 245.409 128.865 248.736 137.509 249.279C137.69 249.29 137.828 249.446 137.816 249.626C137.805 249.814 137.637 249.948 137.468 249.933Z" fill="#212121"/>
<path d="M282.116 199.588C282.076 199.588 282.035 199.58 281.995 199.565L241.953 183.699C241.784 183.632 241.702 183.442 241.768 183.273C241.835 183.105 242.027 183.025 242.195 183.09L282.238 198.955C282.406 199.023 282.489 199.213 282.422 199.381C282.371 199.51 282.247 199.588 282.116 199.588Z" fill="#212121"/>
<path d="M211.422 221.231C211.295 221.226 211.197 221.119 211.202 220.992C211.208 220.866 211.321 220.778 211.442 220.773C212.517 220.82 213.619 220.828 214.711 220.797C214.713 220.797 214.715 220.797 214.717 220.797C214.841 220.797 214.944 220.896 214.947 221.02C214.951 221.147 214.851 221.252 214.723 221.256C213.564 221.288 212.46 221.277 211.422 221.231ZM217.767 220.837C217.754 220.711 217.847 220.599 217.973 220.586C219.049 220.478 220.139 220.329 221.212 220.144C221.335 220.118 221.456 220.206 221.478 220.331C221.5 220.456 221.416 220.574 221.291 220.596C220.206 220.783 219.106 220.934 218.019 221.043C217.885 221.054 217.779 220.958 217.767 220.837ZM208.13 220.969C207.039 220.841 205.941 220.672 204.866 220.465C204.741 220.44 204.659 220.32 204.683 220.196C204.708 220.072 204.829 219.994 204.953 220.014C206.017 220.219 207.104 220.387 208.183 220.513C208.488 220.548 208.428 221.011 208.13 220.969ZM224.243 219.748C224.212 219.625 224.287 219.5 224.411 219.47C225.464 219.208 226.521 218.905 227.552 218.568C227.673 218.529 227.803 218.594 227.842 218.715C227.882 218.836 227.816 218.965 227.695 219.005C226.654 219.345 225.586 219.651 224.522 219.915C224.399 219.945 224.274 219.872 224.243 219.748ZM201.652 219.671C200.524 219.317 199.488 218.896 198.573 218.421C198.46 218.362 198.416 218.224 198.475 218.111C198.534 218 198.673 217.956 198.786 218.014C199.677 218.477 200.688 218.887 201.79 219.233C202.076 219.322 201.947 219.761 201.652 219.671ZM230.493 217.739C230.445 217.621 230.501 217.487 230.619 217.439C231.591 217.038 232.652 216.574 233.567 216.059C233.678 215.996 233.819 216.036 233.88 216.147C233.943 216.257 233.904 216.397 233.793 216.459C232.862 216.983 231.786 217.456 230.794 217.863C230.683 217.91 230.544 217.86 230.493 217.739ZM195.827 216.529C194.973 215.739 194.295 214.841 193.813 213.859C193.757 213.745 193.804 213.607 193.918 213.552C194.032 213.495 194.17 213.543 194.226 213.657C194.683 214.588 195.327 215.441 196.14 216.192C196.233 216.278 196.239 216.423 196.153 216.517C196.067 216.609 195.92 216.615 195.827 216.529ZM236.164 214.492C236.075 214.402 236.077 214.256 236.168 214.168C237.021 213.334 237.585 212.447 237.844 211.531C237.878 211.41 238.004 211.339 238.128 211.372C238.251 211.407 238.322 211.534 238.287 211.656C238.006 212.65 237.401 213.605 236.489 214.496C236.398 214.584 236.253 214.582 236.164 214.492ZM237.62 208.479C237.269 207.654 236.685 206.828 235.784 205.881C235.696 205.789 235.7 205.644 235.792 205.556C235.884 205.469 236.03 205.473 236.117 205.565C237.058 206.553 237.67 207.422 238.044 208.3C238.093 208.416 238.039 208.552 237.922 208.601C237.806 208.649 237.671 208.597 237.62 208.479ZM233.42 203.617C232.598 202.828 231.834 202.021 231.148 201.218C231.066 201.122 231.078 200.978 231.174 200.895C231.27 200.814 231.416 200.823 231.499 200.921C232.174 201.712 232.928 202.508 233.739 203.287C233.831 203.375 233.834 203.52 233.745 203.612C233.659 203.701 233.512 203.706 233.42 203.617ZM229.152 198.581C228.525 197.63 227.981 196.658 227.537 195.689C227.484 195.573 227.535 195.437 227.651 195.384C227.766 195.333 227.903 195.382 227.955 195.498C228.39 196.445 228.922 197.397 229.537 198.328C229.606 198.434 229.577 198.576 229.471 198.646C229.367 198.715 229.223 198.687 229.152 198.581ZM226.431 192.561C226.164 191.486 226.014 190.378 225.984 189.269C225.981 189.143 226.081 189.037 226.208 189.034C226.211 189.034 226.212 189.034 226.214 189.034C226.339 189.034 226.441 189.132 226.444 189.257C226.473 190.334 226.618 191.408 226.877 192.451C226.908 192.574 226.833 192.698 226.709 192.729C226.586 192.758 226.461 192.684 226.431 192.561ZM277.78 191.204C277.654 191.204 277.551 191.102 277.55 190.976C277.549 190.849 277.652 190.746 277.779 190.745C278.868 190.739 279.963 190.676 281.035 190.559C281.157 190.538 281.275 190.636 281.289 190.762C281.303 190.888 281.211 191.002 281.085 191.015C279.998 191.134 278.886 191.198 277.782 191.204H277.78ZM274.499 191.054C274.492 191.054 274.484 191.054 274.476 191.053C273.383 190.948 272.282 190.784 271.204 190.567C271.079 190.542 270.999 190.421 271.024 190.296C271.049 190.172 271.17 190.091 271.295 190.117C272.358 190.331 273.443 190.492 274.521 190.596C274.647 190.608 274.74 190.72 274.727 190.847C274.716 190.966 274.616 191.054 274.499 191.054ZM284.077 190.312C284.051 190.188 284.129 190.066 284.254 190.039C284.927 189.894 285.595 189.725 286.241 189.538C286.363 189.5 286.49 189.573 286.526 189.695C286.562 189.816 286.491 189.944 286.369 189.979C285.713 190.169 285.034 190.34 284.351 190.487C284.235 190.515 284.106 190.441 284.077 190.312ZM267.999 189.746C266.948 189.419 265.904 189.031 264.898 188.594C264.781 188.544 264.728 188.409 264.779 188.292C264.829 188.176 264.966 188.123 265.081 188.173C266.073 188.603 267.101 188.986 268.137 189.308C268.258 189.346 268.325 189.475 268.287 189.596C268.249 189.718 268.119 189.783 267.999 189.746ZM261.931 187.141C261.062 186.669 260.129 186.128 259.08 185.485C258.972 185.419 258.938 185.278 259.004 185.17C259.07 185.061 259.213 185.028 259.321 185.095C260.363 185.732 261.289 186.27 262.15 186.737C262.262 186.798 262.304 186.937 262.243 187.048C262.182 187.161 262.042 187.2 261.931 187.141ZM226.45 186.229C226.325 186.203 226.245 186.082 226.271 185.958C226.5 184.838 226.863 183.777 227.35 182.808C227.406 182.694 227.544 182.65 227.658 182.705C227.772 182.762 227.818 182.899 227.761 183.013C227.293 183.947 226.943 184.969 226.721 186.05C226.696 186.175 226.573 186.254 226.45 186.229ZM256.297 183.734C255.385 183.152 254.463 182.562 253.523 181.982C253.415 181.915 253.382 181.774 253.448 181.665C253.515 181.558 253.657 181.524 253.765 181.591C254.672 182.151 255.591 182.738 256.545 183.347C256.652 183.415 256.683 183.557 256.615 183.664C256.546 183.772 256.402 183.801 256.297 183.734ZM229.278 180.402C229.187 180.315 229.184 180.169 229.272 180.078C230.033 179.291 230.927 178.611 231.929 178.056C232.041 177.993 232.18 178.034 232.242 178.145C232.304 178.256 232.264 178.395 232.153 178.457C231.19 178.99 230.333 179.642 229.604 180.397C229.517 180.486 229.371 180.491 229.278 180.402ZM250.811 180.354C250.608 180.354 250.087 179.894 247.78 178.864C247.664 178.812 247.612 178.677 247.664 178.561C247.716 178.445 247.853 178.394 247.968 178.445C248.915 178.868 249.882 179.352 250.923 179.923C251.13 180.038 251.049 180.354 250.811 180.354ZM244.737 177.704C243.67 177.371 242.606 177.124 241.575 176.968C241.449 176.949 241.362 176.832 241.381 176.707C241.401 176.581 241.522 176.493 241.643 176.515C242.698 176.673 243.785 176.926 244.875 177.266C244.996 177.304 245.064 177.433 245.026 177.554C244.987 177.676 244.857 177.741 244.737 177.704ZM234.865 177.109C234.833 176.987 234.906 176.861 235.029 176.828C236.081 176.553 237.189 176.388 238.322 176.338C238.442 176.336 238.556 176.431 238.562 176.557C238.568 176.684 238.47 176.791 238.343 176.796C237.242 176.845 236.166 177.005 235.146 177.273C235.028 177.304 234.898 177.235 234.865 177.109Z" fill="#212121"/>
<path d="M185.307 237.89C185.332 237.892 185.345 237.893 185.345 237.893C185.341 237.893 185.328 237.892 185.307 237.89Z" fill="white"/>
<path d="M66.1716 228.341C66.1716 228.341 65.8096 228.523 65.5439 228.947C65.2775 229.37 65.0718 229.635 65.2985 230.13C65.5252 230.625 69.7218 234.917 72.5929 236.069C75.4648 237.22 86.8783 239.75 87.3118 239.594C87.7442 239.436 88.0219 238.343 87.5674 237.922C87.1121 237.501 66.1716 228.341 66.1716 228.341Z" fill="black" fill-opacity="0.08"/>
<path d="M66.1716 228.341C66.1716 228.341 67.0859 224.985 69.6907 224.227C71.206 223.785 72.9249 224.198 74.2001 224.61C75.1144 224.906 75.8013 225.202 76.0205 225.182C76.544 225.136 77.1728 223.181 77.9144 223.263C78.6564 223.346 80.7192 224.132 80.7192 224.132L83.8036 224.4L89.5894 230.204C89.5894 230.204 90.0747 230.474 89.8656 231.809C89.6572 233.144 88.3352 237.651 87.5674 237.922C86.7992 238.193 75.9212 235.723 72.7454 233.894C69.5689 232.064 66.0389 229.046 66.1716 228.341Z" fill="#212121"/>
<path d="M77.0617 229.531L76.9916 229.482C76.9886 229.474 76.6659 228.617 75.4942 227.441C74.3168 226.259 72.5994 225.332 72.5818 225.323C72.5462 225.304 72.5323 225.259 72.5518 225.223C72.5713 225.187 72.6167 225.173 72.6519 225.192C72.6695 225.202 74.406 226.138 75.5995 227.337C76.7967 228.539 77.1179 229.396 77.131 229.432C77.1452 229.47 77.1254 229.512 77.0871 229.527L77.0617 229.531Z" fill="black" fill-opacity="0.87"/>
<path d="M71.1099 224.035C70.6284 224.035 70.1476 224.09 69.6855 224.225C69.6855 224.225 69.6878 224.225 69.6923 224.226C70.154 224.092 70.6351 224.037 71.1162 224.037C72.2138 224.037 73.3144 224.324 74.2006 224.611C74.4573 224.693 74.696 224.777 74.9115 224.853C74.6945 224.776 74.4539 224.692 74.195 224.608C73.3088 224.322 72.2078 224.035 71.1099 224.035ZM77.8639 223.259C77.1418 223.259 76.5288 225.135 76.0158 225.181C76.0087 225.182 76.0012 225.182 75.9933 225.182C75.9165 225.182 75.7962 225.152 75.6392 225.104C75.7992 225.153 75.9214 225.183 75.9989 225.183C76.0068 225.183 76.0143 225.183 76.0214 225.182C76.5344 225.137 77.1482 223.26 77.8696 223.26C77.8849 223.26 77.8999 223.261 77.9153 223.263C78.6572 223.346 80.7201 224.132 80.7201 224.132L80.7208 224.13L80.7152 224.13C80.7152 224.13 78.6516 223.344 77.9096 223.261C77.8943 223.259 77.8789 223.259 77.8639 223.259Z" fill="black" fill-opacity="0.87"/>
<path d="M77.0606 229.531L76.9905 229.482C76.9875 229.474 76.6648 228.617 75.4931 227.441C74.3157 226.259 72.5983 225.332 72.5807 225.323C72.5451 225.304 72.5312 225.259 72.5507 225.223C72.5642 225.198 72.5901 225.184 72.6167 225.184C72.6283 225.184 72.6399 225.187 72.6508 225.192C72.6684 225.202 74.4049 226.138 75.5984 227.337C76.7956 228.539 77.1168 229.396 77.1299 229.432C77.1441 229.47 77.1243 229.512 77.086 229.527L77.0606 229.531ZM77.8673 223.261C77.146 223.261 76.5322 225.136 76.0192 225.182C76.0121 225.183 76.0046 225.183 75.9967 225.183C75.9191 225.183 75.7966 225.154 75.637 225.103C75.4451 225.044 75.1985 224.954 74.9096 224.852C74.6942 224.776 74.4555 224.693 74.1988 224.61C73.3125 224.323 72.212 224.036 71.1144 224.036C70.6332 224.036 70.1521 224.092 69.6904 224.226C69.828 224.267 72.0535 224.953 73.7555 226.538C75.5122 228.174 76.2781 229.717 76.6109 230.781C76.6974 231.057 76.8698 231.173 77.0677 231.173C77.6301 231.173 78.3976 230.238 77.973 229.425C77.3997 228.327 75.4833 226.478 75.1562 225.895C75.0374 225.684 75.1742 225.62 75.4136 225.62C75.5987 225.62 75.8449 225.658 76.0814 225.697C76.3178 225.735 76.5449 225.773 76.6918 225.773C76.7312 225.773 76.7653 225.77 76.7915 225.764C76.799 225.762 76.8076 225.761 76.8177 225.761C77.2749 225.761 80.2825 227.564 80.6995 227.738C80.7171 227.745 80.7288 227.749 80.7351 227.749C80.8873 227.749 78.1446 225.825 77.8201 225.262C77.5983 224.878 78.4493 224.415 79.4686 224.415C80.0078 224.415 80.5935 224.545 81.093 224.884C82.5368 225.864 82.7905 226.836 82.7905 226.836L82.8036 226.825C82.967 226.519 83.088 226.196 83.0659 225.862C83.0007 224.866 80.7183 224.132 80.7183 224.132C80.7183 224.132 78.655 223.347 77.9134 223.264C77.8977 223.262 77.8827 223.261 77.8673 223.261Z" fill="#212121"/>
<path d="M72.6178 225.184C72.5912 225.184 72.5653 225.198 72.5518 225.223C72.5323 225.258 72.5462 225.303 72.5818 225.323C72.5994 225.332 74.3164 226.259 75.4942 227.441C76.6659 228.617 76.9886 229.474 76.9916 229.482L77.0617 229.531L77.0871 229.527C77.1254 229.512 77.1452 229.47 77.131 229.432C77.1179 229.396 76.7971 228.539 75.5995 227.336C74.406 226.138 72.6695 225.202 72.6519 225.192C72.641 225.186 72.6294 225.184 72.6178 225.184Z" fill="#2884B2" fill-opacity="0.04"/>
<path d="M89.5897 230.2L89.5886 230.204C89.5886 230.204 90.074 230.474 89.8649 231.808C89.77 232.417 89.4435 233.684 89.0439 234.908C89.4443 233.683 89.7708 232.414 89.866 231.805C90.0733 230.482 89.5984 230.205 89.5897 230.2Z" fill="black" fill-opacity="0.87"/>
<path d="M89.5884 230.204C89.5884 230.204 89.0293 230.654 87.9227 230.654C87.8774 230.654 87.8313 230.654 87.7841 230.652C87.862 230.719 88.767 231.529 88.2547 232.789C87.7192 234.107 85.2959 233.089 82.7717 234.019C80.5376 234.841 76.1889 234.889 75.2165 234.889C75.0925 234.889 75.0235 234.889 75.0205 234.889C79.1421 236.399 86.0142 237.939 87.3726 237.939C87.4626 237.939 87.5278 237.932 87.5671 237.918C87.9849 237.771 88.5669 236.37 89.0439 234.909C89.4434 233.684 89.7698 232.417 89.8646 231.809C90.0737 230.474 89.5884 230.204 89.5884 230.204Z" fill="#212121"/>
<path d="M81.8276 221.182L80.7188 224.132C80.7188 224.132 83.0012 224.866 83.0664 225.861C83.1324 226.856 81.931 227.751 82.1251 228.365C82.32 228.979 85.6138 230.337 87.1996 230.594C88.7855 230.851 89.5885 230.204 89.5885 230.204L91.6004 224.853L81.8276 221.182Z" fill="#F4BB96"/>
<path d="M81.6508 221.653L81.4229 222.26L81.6508 221.653Z" fill="black" fill-opacity="0.87"/>
<path d="M81.6507 221.653L81.4229 222.26C81.4266 222.271 81.762 223.258 85.2694 224.921C87.8565 226.148 89.7639 226.312 90.5973 226.312C90.9001 226.312 91.0612 226.29 91.0612 226.29L91.4026 225.382C88.4411 225.293 84.4143 224.578 81.7223 221.729C81.6983 221.704 81.6743 221.679 81.6507 221.653Z" fill="#EE9961"/>
<path d="M162.889 201C162.889 201 163.207 201.247 163.714 201.311C164.22 201.375 164.552 201.45 164.924 201.047C165.297 200.644 167.618 195.167 167.529 192.148C167.441 189.128 165.168 177.958 164.844 177.637C164.52 177.317 163.381 177.515 163.17 178.091C162.959 178.666 162.889 201 162.889 201Z" fill="black" fill-opacity="0.08"/>
<path d="M162.889 201C162.889 201 159.366 201.554 157.592 199.55C155.819 197.547 156.169 193.984 155.911 193.538C155.654 193.091 153.563 193.329 153.338 192.636C153.114 191.944 153.011 189.791 153.011 189.791L152.006 186.942L155.099 179.438C155.099 179.438 155.155 178.897 156.493 178.539C157.832 178.181 162.602 177.519 163.17 178.091C163.737 178.662 165.849 189.332 165.424 192.899C165.001 196.466 163.604 200.831 162.889 201Z" fill="#212121"/>
<path d="M157.368 196.603H157.362C157.321 196.6 157.291 196.563 157.294 196.523C157.296 196.503 157.468 194.579 158.107 193.031C158.749 191.477 159.423 190.843 159.451 190.817L159.556 190.821L159.552 190.926C159.545 190.932 158.872 191.568 158.244 193.087C157.614 194.615 157.444 196.517 157.442 196.536C157.439 196.574 157.406 196.603 157.368 196.603Z" fill="black" fill-opacity="0.87"/>
<path d="M153.119 191.268C153.171 191.805 153.244 192.352 153.338 192.643C153.563 193.335 155.654 193.097 155.911 193.544C156.168 193.99 155.819 197.552 157.592 199.556C157.592 199.556 157.591 199.554 157.591 199.549C155.819 197.545 156.168 193.983 155.911 193.538C155.654 193.091 153.563 193.329 153.338 192.636C153.244 192.347 153.171 191.803 153.119 191.268ZM153.01 189.791H153.009L153.01 189.796C153.01 189.793 153.01 189.791 153.01 189.791Z" fill="black" fill-opacity="0.87"/>
<path d="M157.362 196.604C157.321 196.6 157.291 196.564 157.295 196.523C157.297 196.504 157.469 194.579 158.107 193.031C158.749 191.477 159.422 190.843 159.451 190.817L159.555 190.821L159.552 190.925C159.545 190.932 158.872 191.568 158.245 193.087C157.614 194.615 157.444 196.518 157.443 196.537C157.439 196.575 157.407 196.604 157.369 196.604L157.362 196.604ZM154.483 186.836C154.201 186.836 153.924 186.876 153.679 187.001C152.771 187.464 153.011 189.791 153.011 189.791C153.011 189.791 153.011 189.793 153.011 189.796L153.012 189.797C153.012 189.797 153.046 190.523 153.119 191.268C153.172 191.803 153.244 192.347 153.338 192.637C153.563 193.329 155.654 193.092 155.911 193.538C156.169 193.984 155.819 197.546 157.591 199.549C157.574 199.412 157.311 197.155 158.106 194.997C158.927 192.769 160.063 191.461 160.927 190.732C161.52 190.231 160.812 189.656 160.052 189.656C159.706 189.656 159.349 189.775 159.1 190.074C158.302 191.03 157.347 193.486 156.933 194.014C156.876 194.086 156.824 194.118 156.777 194.118C156.475 194.118 156.334 192.855 156.143 192.615C155.923 192.337 156.412 188.79 156.404 188.339C156.404 188.312 156.401 188.299 156.395 188.299C156.31 188.299 155.641 191.399 155.252 191.907C155.197 191.979 155.12 192.013 155.029 192.013C154.443 192.013 153.276 190.608 153.564 189.152C153.897 187.47 154.706 186.849 154.706 186.849L154.691 186.843C154.622 186.838 154.552 186.836 154.483 186.836Z" fill="#212121"/>
<path d="M159.451 190.817C159.423 190.843 158.749 191.477 158.107 193.031C157.468 194.579 157.296 196.504 157.294 196.523C157.291 196.563 157.321 196.6 157.362 196.603H157.368C157.406 196.603 157.439 196.574 157.442 196.536C157.444 196.517 157.614 194.614 158.244 193.087C158.872 191.568 159.545 190.932 159.552 190.925L159.555 190.821L159.451 190.817Z" fill="#2884B2" fill-opacity="0.04"/>
<path d="M160.525 177.93C158.987 178.055 157.224 178.343 156.491 178.54C155.152 178.898 155.096 179.438 155.096 179.438V179.439L155.099 179.438C155.099 179.438 155.156 178.897 156.494 178.539C157.226 178.343 158.988 178.056 160.525 177.93Z" fill="black" fill-opacity="0.87"/>
<path d="M161.863 177.867C161.465 177.867 161.006 177.891 160.526 177.93C158.989 178.056 157.227 178.343 156.494 178.539C155.155 178.897 155.1 179.438 155.1 179.438C155.1 179.438 155.805 179.777 156.256 180.858C156.286 180.762 156.678 179.628 158.07 179.569C158.087 179.569 158.104 179.568 158.121 179.568C159.526 179.568 159.579 182.097 161.458 183.939C163.355 185.799 165.422 190.448 165.432 190.471C165.154 185.912 163.635 178.562 163.166 178.09C163.007 177.93 162.516 177.867 161.863 177.867Z" fill="#212121"/>
<path d="M149.79 190.007L153.011 189.791C153.011 189.791 152.771 187.465 153.678 187.001C154.14 186.765 154.712 186.831 155.227 186.897C155.724 186.961 156.168 187.025 156.413 186.817C156.91 186.394 156.843 182.915 156.439 181.401C156.034 179.888 155.099 179.438 155.099 179.438L149.256 179.831L149.79 190.007Z" fill="#F4BB96"/>
<path d="M150.825 179.725L150.045 179.777L150.045 179.778L150.826 179.725L150.825 179.725Z" fill="black" fill-opacity="0.87"/>
<path d="M150.825 179.725L150.045 179.778C150.561 182.18 151.093 186.039 150.4 189.967L150.967 189.928C150.967 189.928 151.765 189.243 151.899 185.427C152.031 181.643 150.845 179.756 150.825 179.725Z" fill="#EE9961"/>
<path d="M129.168 180.523C130.605 181.461 132.331 181.451 133.12 181.402C140.89 180.914 149.396 177.319 149.396 177.319C149.396 177.319 149.624 177.984 149.893 179.1C150.686 182.421 151.832 189.753 148.39 195.564C148.39 195.564 145.817 196.221 142.257 196.944L142.254 196.946L142.202 196.957C141.214 197.158 140.15 197.362 139.048 197.561C134.095 198.443 128.576 199.219 124.96 198.664C123.797 198.486 123.075 197.996 123.053 197.993C120.455 191.258 121.019 183.374 129.168 180.523Z" fill="#212121"/>
<path d="M110.685 182.377L105.916 198.145C101.407 195.563 96.5801 193.525 91.6094 191.883L95.1341 182.764L102.773 159.914L121.847 159.413C121.847 159.413 122.622 160.032 123.435 161.497C123.718 161.999 124.003 162.604 124.26 163.318L124.268 163.342C124.796 164.788 125.218 166.683 125.288 169.099C125.399 172.815 125.741 178.372 129.166 180.523C126.092 185.944 124.722 192.03 123.051 197.993C122.597 197.759 122.148 197.478 121.742 197.16H121.74C119.93 195.746 118.097 193.518 116.525 191.301L116.517 191.294C113.955 187.682 111.45 178.93 111.45 178.93L110.685 182.377Z" fill="#212121"/>
<path d="M105.917 198.146L101.876 207.363L95.2549 225.161C95.2549 225.161 86.4387 226.721 81.7216 221.729C81.3286 221.316 80.9576 220.853 80.6113 220.341L91.6099 191.883C99.2967 190.616 104.261 191.547 105.917 198.146Z" fill="#212121"/>
<path d="M109.499 173.501C109.499 173.501 107.342 183.814 103.812 193.915C104.755 194.944 105.461 196.331 105.916 198.145L110.146 183.459C109.458 181.548 110.582 181.248 111.18 179.868L111.45 178.93C110.315 176.67 109.334 175.493 109.499 173.501Z" fill="#212121"/>
<path d="M95.2312 225.165C95.0476 225.195 93.8043 225.391 92.0771 225.392C93.8043 225.392 95.0476 225.195 95.2312 225.165Z" fill="black" fill-opacity="0.87"/>
<path d="M103.812 193.915C102.572 197.464 101.162 200.986 99.6159 204.026V204.026C99.614 204.026 97.6369 208.488 94.5792 212.951C91.521 217.413 87.3833 221.875 83.0608 221.875C82.6164 221.875 82.1697 221.828 81.7227 221.729C84.6257 224.801 89.0804 225.392 92.0779 225.391C93.805 225.391 95.0483 225.195 95.2319 225.164C95.2477 225.162 95.2555 225.16 95.2555 225.16L101.877 207.363L105.917 198.145C105.462 196.331 104.756 194.944 103.812 193.915Z" fill="#212121"/>
<path d="M143.869 196.663L143.846 196.658L143.819 196.585C147.972 187.553 144.073 179.038 144.034 178.953L144.06 178.88L144.134 178.906C144.174 178.992 148.094 187.551 143.919 196.631L143.869 196.663ZM95.302 221.28C92.028 221.28 84.104 220.857 81.7998 216.887L81.8197 216.812L81.895 216.831C84.7751 221.793 96.6083 221.146 96.7278 221.139C96.7619 221.142 96.7844 221.16 96.7863 221.19L96.7345 221.249C96.7091 221.25 96.1683 221.28 95.302 221.28Z" fill="black" fill-opacity="0.87"/>
<path d="M116.724 191.58C118.252 193.703 120.006 195.806 121.741 197.16C120.01 195.808 118.259 193.712 116.734 191.593C116.731 191.588 116.727 191.584 116.724 191.58ZM111.452 178.93L111.345 179.412C111.387 179.263 111.423 179.103 111.452 178.93Z" fill="black" fill-opacity="0.87"/>
<path d="M111.452 178.93L111.298 179.563C111.314 179.514 111.33 179.463 111.344 179.412L111.452 178.93Z" fill="#212121"/>
<path d="M121.743 197.16C122.748 197.947 123.744 198.478 124.686 198.623C124.744 198.631 124.802 198.64 124.86 198.648C123.755 198.458 123.073 197.996 123.053 197.993C122.599 197.759 122.149 197.478 121.743 197.16Z" fill="black" fill-opacity="0.87"/>
<path d="M123.544 196.209C123.382 196.804 123.218 197.399 123.052 197.993C123.072 197.997 123.754 198.459 124.859 198.649C125.687 198.764 126.622 198.815 127.631 198.815C131.039 198.815 135.285 198.232 139.046 197.561C136.401 197.954 134.06 198.193 131.946 198.193C128.702 198.193 125.993 197.631 123.544 196.209Z" fill="#212121"/>
<path d="M111.451 178.93C111.451 178.93 113.956 187.682 116.519 191.294L116.526 191.301C116.595 191.398 116.664 191.496 116.734 191.593C119.293 194.759 121.649 197.043 121.741 197.16H121.743C122.149 197.479 122.599 197.76 123.052 197.993C123.219 197.4 123.382 196.804 123.544 196.209C119.213 193.694 115.693 188.488 111.451 178.93Z" fill="#212121"/>
<path d="M110.325 183.575L110.268 183.764C110.27 183.769 110.272 183.775 110.275 183.781L110.325 183.575Z" fill="black" fill-opacity="0.87"/>
<path d="M111.299 179.562C111.263 179.67 111.224 179.772 111.182 179.868L110.147 183.458C110.183 183.556 110.222 183.658 110.267 183.764L110.324 183.575L111.299 179.562Z" fill="#212121"/>
<path d="M92.1749 139.363L89.2764 136.665C89.2764 136.665 89.5234 134.371 87.7258 132.797L82.9619 137.159L90.5123 143.007L92.1749 139.363Z" fill="#F4BB96"/>
<path d="M83.9193 137.902L83.9189 137.903L83.9332 137.912L83.9193 137.902ZM88.2204 133.189L88.1691 133.245C88.2036 133.285 88.2369 133.326 88.2691 133.366L88.2204 133.189Z" fill="black" fill-opacity="0.87"/>
<path d="M86.7176 134.836L83.9199 137.902L83.9338 137.912L84.18 138.069L86.7885 135.071C86.7675 134.991 86.7435 134.912 86.7176 134.836ZM88.1697 133.245L86.7918 134.755C86.8177 134.829 86.8424 134.905 86.8645 134.984L88.2705 133.368L88.2697 133.366C88.2375 133.326 88.2038 133.285 88.1697 133.245ZM91.118 138.379C91.118 138.379 89.8301 140.068 89.5153 140.993C89.6008 140.917 89.6975 140.853 89.8054 140.815C89.8447 140.801 89.8833 140.79 89.9212 140.78C90.3618 139.883 90.9412 139.137 91.3893 138.632L91.118 138.379Z" fill="#EE9961"/>
<path d="M112.69 137.7L109.635 162.864C109.635 162.864 109.264 162.976 108.664 163.104C107.301 163.4 104.745 163.786 102.624 163.179L102.062 161.844L101.612 160.775C101.612 160.775 101.56 158.236 101.897 154.685V154.677C102.291 150.488 103.224 144.886 105.408 140.37C105.606 139.958 105.817 139.556 106.037 139.162L112.69 137.7Z" fill="#2884B2" fill-opacity="0.06"/>
<path d="M102.862 160.851C102.846 161.62 102.835 162.412 102.83 163.234C103.593 163.428 104.405 163.5 105.192 163.5C106.548 163.5 107.83 163.285 108.665 163.104C108.677 163.041 108.677 162.976 108.677 162.909L108.46 162.166L108.142 161.075H108.141C107.553 161.161 106.98 161.2 106.435 161.2C106.386 161.2 106.338 161.199 106.29 161.199C104.99 161.182 103.842 161.044 102.862 160.851ZM107.966 160.473C107.832 160.492 107.699 160.508 107.565 160.52C107.469 160.541 107.373 160.56 107.275 160.576C107.522 160.554 107.751 160.52 107.969 160.482L107.966 160.473ZM105.575 140.811C104.965 142.27 104.147 144.991 103.563 149.843L104.127 150.165C104.085 149.895 104.065 149.646 104.072 149.423C104.163 146.518 105.51 141.075 105.575 140.811Z" fill="#2884B2" fill-opacity="0.12"/>
<path d="M106.04 139.161L105.662 139.948C105.662 139.948 109.367 140.543 112.081 138.916C112.081 138.916 106.259 139.069 106.04 139.161Z" fill="#2884B2" fill-opacity="0.12"/>
<path d="M92.3105 143.231L89.5788 161.581L89.2782 163.606L89.0912 163.535L80.4463 160.303L81.1841 155.559L82.7696 145.332C82.8771 144.618 83.449 140.939 83.92 137.902L92.3105 143.231Z" fill="#2884B2" fill-opacity="0.04"/>
<path d="M101.095 143.821C100.201 143.305 97.4254 141.712 96.0116 140.76L96.0037 140.756C94.8345 139.969 93.5125 139.027 92.0844 137.925C92.0844 137.925 89.4801 140.197 89.2773 143.029L99.4118 148.8C102.103 149.712 102.954 145.555 101.095 143.821Z" fill="#4285F4"/>
<path d="M102.644 141.289L102.633 141.3C102.198 141.878 101.817 142.519 101.539 143.22L101.535 143.228C101.445 143.453 101.367 143.685 101.303 143.925C101.303 143.925 101.231 143.891 101.095 143.821C100.372 145.309 99.6397 146.788 99.0226 148.319L99.6053 148.636C99.6053 148.636 99.7926 155.982 97.9756 164.147C97.9756 164.147 97.4131 165.047 98.3349 165.564C99.253 166.082 102.835 167.649 102.828 165.024C102.76 143.006 106.417 139.286 106.417 139.286L106.567 138.525L106.706 137.839C106.706 137.839 104.305 139.084 102.644 141.289Z" fill="#4285F4"/>
<path d="M106.535 137.933C105.958 138.261 104.039 139.436 102.644 141.289C102.78 141.148 104.366 139.555 106.489 138.562C106.516 138.38 106.535 138.181 106.535 137.971C106.535 137.958 106.535 137.946 106.535 137.933Z" fill="#EE9961"/>
<path d="M91.2418 150.39L91.1582 150.953C91.1593 150.952 91.1597 150.952 91.1597 150.952C91.1597 150.952 91.2062 150.743 91.2808 150.408C91.2677 150.402 91.2549 150.396 91.2418 150.39Z" fill="black" fill-opacity="0.87"/>
<path d="M87.1586 143.725C87.0593 143.725 86.972 143.727 86.9 143.731C86.2791 143.761 87.0837 145.043 86.5695 145.137C86.0554 145.23 86.2405 146.137 85.8658 146.793C85.4914 147.45 85.8347 147.731 87.5685 149.918C88.4124 150.983 89.2855 151.256 89.9597 151.256C90.6484 151.256 91.1296 150.971 91.1592 150.953L91.2427 150.39C90.657 150.125 89.576 149.514 88.8396 148.724C87.9039 147.722 86.8925 145.406 86.93 144.546C86.9472 144.158 87.1402 143.897 87.3467 143.727C87.2804 143.726 87.2174 143.725 87.1586 143.725Z" fill="#2884B2" fill-opacity="0.04"/>
<path d="M92.5998 141.835C92.5998 141.835 92.454 142.213 92.21 142.665C92.2778 142.847 92.3651 143.049 92.4686 143.251C92.5365 142.493 92.5998 141.835 92.5998 141.835Z" fill="#4285F4"/>
<path d="M113.762 136.597C113.762 136.597 112.956 139.849 106.203 139.572C106.203 139.572 107.057 137.745 106.023 136.233C105.693 135.75 105.169 135.3 104.359 134.951C103.213 134.456 112.446 133.095 112.446 133.095L113.762 136.597Z" fill="#F4BB96"/>
<path d="M111.624 128.279C111.624 128.279 111.95 130.803 111.385 130.88C110.821 130.956 110.91 128.755 109.602 128.636C108.294 128.517 111.624 128.279 111.624 128.279Z" fill="black" fill-opacity="0.87"/>
<path d="M116.329 128.092C116.303 128.178 116.217 128.264 116.078 128.343C114.561 129.247 106.721 129.716 101.715 128.655C100.025 128.298 98.6603 127.77 97.9675 127.023C97.5069 125.726 102.502 124.177 102.802 124.083L102.816 124.079C102.816 124.079 102.985 123.386 103.172 122.636C103.364 121.863 103.577 121.034 103.648 120.847C103.944 120.108 104.832 119.965 105.293 120.007C110.509 120.453 111.581 120.866 113.316 121.687C113.496 121.773 113.639 121.908 113.747 122.054V122.058C113.995 122.396 114.073 122.793 114.073 122.793L114.002 124.215L113.95 125.257V125.261L113.931 125.67C114.107 125.824 114.272 125.962 114.43 126.086L114.433 126.094C115.831 127.214 116.543 127.357 116.329 128.092Z" fill="#212121"/>
<path d="M101.842 127.771C101.842 127.771 105.568 129.63 110.729 129.201C110.96 129.182 111.134 130.489 111.134 130.489C111.134 130.489 111.149 129.328 112.041 128.958C112.837 128.628 114.369 128.841 114.555 130.053C114.741 131.264 114.739 132.535 112.905 133.093C111.109 133.247 105.978 138.696 103.306 134.883C100.967 131.476 101.842 127.771 101.842 127.771Z" fill="#F4BB96"/>
<path d="M112.934 132.396C112.919 132.389 112.584 132.205 112.32 131.517C112.055 130.83 112.3 130.091 112.311 130.06L112.399 130.09C112.397 130.098 112.155 130.828 112.407 131.483C112.657 132.134 112.974 132.312 112.977 132.313L112.934 132.396Z" fill="black" fill-opacity="0.87"/>
<path d="M112.364 131.379L112.274 131.352C112.278 131.338 112.382 131.007 112.895 130.766C113.41 130.525 113.931 130.759 113.952 130.769L113.913 130.855C113.909 130.853 113.409 130.628 112.935 130.851C112.463 131.073 112.364 131.377 112.364 131.379ZM103.172 130.694C103.172 131.762 102.694 132.628 102.104 132.628C101.515 132.628 101.037 131.762 101.037 130.694C101.037 129.625 101.515 128.759 102.104 128.759C102.694 128.759 103.172 129.625 103.172 130.694ZM107.157 130.694C107.157 131.762 106.486 132.628 105.66 132.628C104.834 132.628 104.164 131.762 104.164 130.694C104.164 129.625 104.834 128.759 105.66 128.759C106.486 128.759 107.157 129.625 107.157 130.694Z" fill="black" fill-opacity="0.87"/>
<path d="M103.171 130.741L103.151 130.736L103.129 130.673C103.135 130.66 103.288 130.353 103.638 130.353C103.981 130.353 104.192 130.621 104.2 130.632L104.192 130.698L104.126 130.69C104.125 130.687 103.934 130.447 103.638 130.447C103.348 130.447 103.218 130.703 103.213 130.714L103.171 130.741Z" fill="black" fill-opacity="0.87"/>
<path d="M103.807 132.459C103.635 132.459 103.404 132.42 103.296 132.23C103.125 131.932 103.614 130.069 103.671 129.857L103.728 129.824L103.761 129.882C103.543 130.697 103.262 131.983 103.377 132.184C103.525 132.441 103.994 132.349 103.999 132.348L104.054 132.385L104.017 132.44C104.009 132.442 103.921 132.459 103.807 132.459ZM104.932 134.02C104.646 134.02 104.434 133.978 104.418 133.975L104.382 133.92L104.437 133.883C104.444 133.884 105.126 134.02 105.7 133.798C106.264 133.579 106.43 133.187 106.432 133.183L106.493 133.158L106.519 133.219C106.512 133.236 106.339 133.651 105.734 133.886C105.461 133.991 105.171 134.02 104.932 134.02Z" fill="black" fill-opacity="0.87"/>
<path d="M107.146 130.536L107.1 130.497L107.138 130.443L110.892 129.823L110.946 129.862L110.908 129.916L107.154 130.535L107.146 130.536Z" fill="black" fill-opacity="0.87"/>
<path d="M109.248 129.32C107.118 129.32 103.047 128.937 99.3841 126.408L99.3721 126.342L99.4373 126.33C104.635 129.92 110.661 129.163 110.722 129.155L110.774 129.195L110.734 129.248C110.716 129.251 110.159 129.32 109.248 129.32Z" fill="black" fill-opacity="0.87"/>
<path d="M124.131 151.508C123.999 150.856 123.831 150.154 123.632 149.423V149.416C122.096 143.682 118.836 136.083 117.479 135.765C116.565 135.551 114.568 135.465 112.604 137.04H112.6C111.278 138.101 109.97 139.916 109.029 142.961C109.029 142.961 108.302 145.962 107.324 148.324V148.332L107.301 148.377C107.249 148.508 107.192 148.639 107.132 148.767L107.121 148.8C106.854 149.396 106.573 149.925 106.285 150.331C106.657 151.89 106.841 153.537 107.175 155.058C107.561 156.811 107.555 158.683 107.517 160.523C107.663 160.492 107.808 160.459 107.95 160.415L108.46 162.166L109.209 164.731C109.209 164.731 121.792 168.957 127.454 161.58C127.455 161.581 125.3 157.265 124.131 151.508Z" fill="#4285F4"/>
<path d="M108.403 155.938C108.183 154.839 105.751 151.649 105.615 151.013L102.048 148.98L102.021 148.966L97.1652 146.202L92.4883 152.408C92.4883 152.408 94.8644 154.888 97.9889 157.13L98.0417 157.164C100.41 158.856 104.936 161.377 107.949 160.415C109.808 158.212 108.727 157.568 108.403 155.938Z" fill="#4285F4"/>
<path d="M115.813 156.903C115.667 157.082 115.517 157.255 115.362 157.422C116.461 158.117 119.718 159.971 123.173 159.971C124.271 159.971 125.388 159.784 126.464 159.313C125.898 159.399 125.278 159.451 124.605 159.451C122.294 159.451 119.354 158.84 115.813 156.903Z" fill="#4285F4"/>
<path d="M86.8999 136.094L86.8913 136.093L86.8538 136.038C87.0337 135.089 86.2923 133.924 86.2852 133.913L86.2994 133.848L86.3643 133.861C86.3954 133.91 87.1331 135.07 86.946 136.056L86.8999 136.094Z" fill="black" fill-opacity="0.87"/>
<path d="M77.748 152.879L82.9616 127.512L89.2761 132.032L83.9198 137.902L81.1809 155.556L77.748 152.879Z" fill="#2884B2" fill-opacity="0.12"/>
<path d="M110.722 134.167C109.367 136.01 107.854 136.351 106.921 136.351C106.372 136.351 106.023 136.233 106.023 136.233C106.415 136.806 106.536 137.424 106.535 137.971C106.533 138.867 106.204 139.572 106.204 139.572C106.204 139.572 107.35 138.48 107.912 138.079C108.455 137.692 110.591 134.373 110.722 134.167Z" fill="#EE9961"/>
<path d="M105.141 120C104.658 120 103.914 120.183 103.648 120.847C103.577 121.035 103.363 121.864 103.172 122.636C103.172 122.636 104.132 120.501 105.179 120.502C105.185 120.502 105.191 120.502 105.196 120.502C106.248 120.528 111.653 120.655 113.751 122.066L113.747 122.058V122.054C113.638 121.908 113.496 121.773 113.316 121.687C111.581 120.865 110.509 120.452 105.293 120.006C105.246 120.002 105.195 120 105.141 120Z" fill="#212121"/>
<path d="M100.254 126.855C100.548 127.031 100.845 127.195 101.141 127.347L100.254 126.855ZM102.802 124.083C102.514 124.172 97.9274 125.595 97.9375 126.855C97.9379 126.911 97.9476 126.967 97.9675 127.023C98.6604 127.769 100.025 128.298 101.715 128.654L101.72 128.62C101.761 128.152 101.824 127.851 101.839 127.785C101.018 127.417 100.191 126.964 99.3851 126.407L99.3731 126.342L99.4357 126.331C99.2697 126.034 99.399 125.307 102.802 124.083Z" fill="#212121"/>
<path d="M101.838 127.785C101.823 127.851 101.76 128.152 101.719 128.621L101.842 127.787C101.841 127.786 101.839 127.786 101.838 127.785Z" fill="#EE9961"/>
<path d="M99.4347 126.331L99.3721 126.342L99.3841 126.407C100.191 126.964 101.017 127.417 101.839 127.785C101.84 127.786 101.841 127.786 101.843 127.787L101.85 127.739L101.141 127.346C100.844 127.195 100.548 127.031 100.253 126.855L99.5891 126.487C99.5891 126.487 99.4932 126.436 99.4347 126.331Z" fill="#2884B2" fill-opacity="0.04"/>
<path d="M103.495 124.121C103.997 124.221 104.486 124.312 104.963 124.396C104.276 124.269 103.759 124.172 103.495 124.121ZM103.304 124.083C103.322 124.087 103.387 124.1 103.495 124.121C103.431 124.109 103.368 124.096 103.304 124.083ZM113.929 125.67C114.104 125.825 114.272 125.965 114.43 126.092L114.427 126.086C114.27 125.962 114.105 125.824 113.929 125.67ZM104.963 124.396C107.094 124.789 110.865 125.473 113.816 125.987C113.773 125.964 113.749 125.951 113.749 125.951L113.849 125.258C113.824 125.258 113.794 125.258 113.76 125.258C112.951 125.258 109.595 125.205 104.963 124.396Z" fill="#212121"/>
<path d="M116.266 127.529C116.372 127.691 116.395 127.862 116.329 128.091C116.396 127.863 116.373 127.691 116.266 127.529ZM116.261 127.522C116.262 127.524 116.264 127.526 116.265 127.528C116.264 127.526 116.263 127.524 116.261 127.522ZM116.226 127.473C116.226 127.473 116.226 127.473 116.226 127.474C116.226 127.473 116.226 127.473 116.226 127.473ZM114.432 126.091L114.433 126.093C115.055 126.592 115.542 126.897 115.871 127.147C115.541 126.896 115.053 126.591 114.432 126.091ZM114.001 124.214L113.949 125.257V125.26L113.93 125.669L114.001 124.214Z" fill="white"/>
<path d="M113.817 125.986C114.263 126.23 116.772 127.648 116.077 128.343C116.216 128.264 116.302 128.178 116.328 128.092C116.395 127.863 116.372 127.691 116.266 127.53L116.265 127.528C116.264 127.527 116.262 127.525 116.261 127.523C116.259 127.52 116.258 127.518 116.256 127.515C116.255 127.514 116.254 127.513 116.253 127.511C116.251 127.508 116.249 127.505 116.246 127.502C116.246 127.501 116.245 127.5 116.244 127.499C116.241 127.495 116.239 127.492 116.236 127.488C116.236 127.488 116.235 127.487 116.235 127.486C116.232 127.482 116.229 127.478 116.226 127.474L116.225 127.473C116.145 127.371 116.032 127.27 115.887 127.159C115.882 127.156 115.878 127.153 115.873 127.149C115.872 127.148 115.871 127.147 115.871 127.147C115.541 126.897 115.055 126.592 114.433 126.093C114.233 126.058 114.027 126.023 113.817 125.986ZM114.002 124.214L113.851 125.258C113.916 125.258 113.949 125.257 113.949 125.257L114.002 124.214Z" fill="#212121"/>
<path d="M82.7696 145.332L81.1841 155.559L80.4463 160.303L89.0912 163.535C89.3757 162.44 89.5788 161.581 89.5788 161.581C89.5788 161.581 82.1925 149.048 82.7696 145.332Z" fill="#2884B2" fill-opacity="0.04"/>
<path d="M82.9616 127.512L77.748 152.879L81.1809 155.556L83.9198 137.902L89.2761 132.032L82.9616 127.512Z" fill="#2884B2" fill-opacity="0.04"/>
<path d="M101.247 143.898C101.281 143.915 101.299 143.924 101.302 143.926C101.299 143.924 101.281 143.915 101.247 143.898Z" fill="black" fill-opacity="0.87"/>
<path d="M96.0107 140.76C96.1415 140.876 98.3078 142.707 99.7468 143.404C100.349 143.695 100.658 144.071 100.816 144.392C100.909 144.202 101.001 144.012 101.094 143.821C100.493 143.514 98.6297 142.523 96.0107 140.76Z" fill="#4285F4"/>
<path d="M101.535 143.228C101.445 143.453 101.366 143.685 101.303 143.926C101.3 143.924 101.281 143.915 101.247 143.899C101.213 143.881 101.161 143.855 101.094 143.821C101.002 144.012 100.909 144.202 100.816 144.392C100.973 144.713 100.98 144.979 100.977 145.054L100.98 145.013C100.987 144.967 101.009 144.948 101.044 144.948C101.111 144.948 101.222 145.022 101.333 145.097C101.444 145.171 101.555 145.245 101.623 145.245C101.703 145.245 101.723 145.14 101.61 144.807C101.37 144.109 101.456 143.528 101.535 143.228Z" fill="#4285F4"/>
<path d="M100.976 145.054L100.976 145.069C100.976 145.066 100.976 145.06 100.976 145.054Z" fill="#4285F4"/>
<path d="M96.8532 147.194C96.8532 147.194 96.5238 147.078 96.1285 146.448C95.7332 145.818 96.9139 144.256 96.9855 143.672C97.0567 143.088 96.1926 142.57 95.8887 142.577C95.5855 142.583 94.6761 144.601 93.8569 144.598C93.0374 144.593 92.2655 143.003 92.0905 142.284C91.9155 141.565 92.1965 140.767 91.878 140.479C91.5595 140.192 91.0881 140.326 90.9191 140.455C90.7508 140.584 90.623 140.784 90.623 140.784C90.623 140.784 90.2663 140.655 89.805 140.816C89.3445 140.978 89.0825 141.618 89.0825 141.618C89.0825 141.618 88.5748 141.598 88.248 142.039C87.9201 142.479 87.8692 143.45 87.8692 143.45C87.8692 143.45 86.9676 143.687 86.9297 144.547C86.8922 145.407 87.904 147.723 88.8393 148.725C89.7743 149.727 91.2653 150.443 91.5921 150.527C91.9188 150.612 93.0677 151.64 93.0677 151.64L96.8532 147.194Z" fill="#F4BB96"/>
<path d="M91.2943 144.766L91.2606 144.752C91.243 144.734 90.8297 144.297 90.5966 142.983C90.365 141.674 90.5749 140.781 90.5771 140.772L90.6333 140.737L90.6682 140.794C90.6659 140.803 90.4609 141.679 90.6891 142.967C90.9159 144.247 91.3236 144.683 91.3277 144.687L91.3266 144.753L91.2943 144.766ZM89.36 144.93L89.3289 144.918C89.3203 144.91 89.1127 144.713 88.9039 143.716C88.6967 142.722 89.0344 141.615 89.0377 141.603L89.0962 141.573L89.1273 141.631C89.1239 141.642 88.7934 142.727 88.9958 143.697C89.1951 144.65 89.3903 144.847 89.3922 144.849L89.3941 144.915L89.36 144.93ZM88.0975 145.437L88.0522 145.402C87.7464 144.271 87.8214 143.453 87.8221 143.444L87.8735 143.402L87.9154 143.454C87.9147 143.462 87.8416 144.265 88.1425 145.378L88.1095 145.435L88.0975 145.437Z" fill="black" fill-opacity="0.87"/>
<path d="M96.2308 146.596L96.2285 146.599C96.3541 146.778 96.4699 146.905 96.567 146.995L96.6 146.951L96.2308 146.596ZM96.6 146.951L96.567 146.995C96.7402 147.154 96.853 147.194 96.853 147.194L96.6 146.951Z" fill="#4285F4"/>
<path d="M92.9882 151.567L92.9863 151.569L92.9882 151.567V151.567Z" fill="black" fill-opacity="0.87"/>
<path d="M96.2296 146.6L92.9863 151.567L96.8535 147.194C96.8535 147.194 96.7403 147.154 96.5676 146.995C96.4709 146.905 96.3551 146.778 96.2296 146.6Z" fill="#EE9961"/>
<path d="M92.4692 143.251C92.8111 143.92 93.3243 144.595 93.8581 144.598C93.8588 144.598 93.8596 144.598 93.8603 144.598C93.8903 144.598 93.9207 144.595 93.9507 144.59C93.9525 144.589 93.9537 144.588 93.9537 144.588L93.9555 144.584L93.8585 144.598C93.3243 144.595 92.8107 143.92 92.4692 143.251ZM92.0858 142.262C92.0873 142.269 92.0892 142.276 92.0907 142.283C92.0888 142.276 92.0873 142.269 92.0858 142.262ZM92.082 142.246C92.0824 142.248 92.0824 142.249 92.0828 142.25C92.0828 142.249 92.0824 142.248 92.082 142.246Z" fill="#4285F4"/>
<path d="M92.0016 140.718C92.0162 140.943 91.7415 141.484 91.8959 142.391C92.0691 143.407 92.4563 144.081 92.9953 144.465C93.2232 144.628 93.4298 144.675 93.5917 144.675C93.7949 144.675 93.9287 144.601 93.9493 144.589C93.919 144.594 93.889 144.597 93.859 144.597C93.8582 144.597 93.8575 144.597 93.8568 144.597C93.3233 144.594 92.8098 143.919 92.4679 143.25C92.3648 143.048 92.2771 142.846 92.2093 142.664C92.1568 142.522 92.1159 142.393 92.0893 142.283C92.0878 142.276 92.0859 142.269 92.0844 142.262C92.0837 142.258 92.0826 142.254 92.0818 142.25C92.0814 142.249 92.0814 142.247 92.0811 142.246C91.9559 141.685 92.0938 141.085 92.0016 140.718Z" fill="#EE9961"/>
<path d="M113.125 136.661C113.125 136.661 110.649 137.812 109.029 142.961C107.41 148.111 107.267 148.922 105.727 150.755C104.187 152.587 103.774 160.817 107.517 160.524C111.261 160.231 115.468 156.63 117.697 151.632C119.926 146.633 120.078 135.173 113.125 136.661Z" fill="#4285F4"/>
<path d="M99.0472 157.872L98.832 159.452C98.832 159.452 98.8324 159.452 98.8335 159.453C98.9126 158.914 98.9835 158.386 99.0472 157.872Z" fill="black" fill-opacity="0.87"/>
<path d="M102.883 159.908C102.875 160.218 102.868 160.533 102.861 160.852C103.842 161.044 104.989 161.183 106.29 161.199C106.338 161.2 106.386 161.2 106.434 161.2C106.98 161.2 107.552 161.161 108.14 161.075L107.968 160.482C107.751 160.52 107.522 160.554 107.275 160.576C106.962 160.629 106.642 160.654 106.316 160.654C105.218 160.654 104.053 160.371 102.883 159.908Z" fill="#2884B2" fill-opacity="0.12"/>
<path d="M99.0495 157.857L99.0476 157.871C98.9839 158.386 98.9131 158.913 98.834 159.452C98.8891 159.485 100.312 160.351 102.861 160.851C102.867 160.532 102.875 160.218 102.883 159.908C102.174 159.628 101.464 159.283 100.766 158.895C100.35 158.667 99.9342 158.423 99.5291 158.165C99.4467 158.116 99.3605 158.059 99.2747 158.003C99.2001 157.955 99.1248 157.906 99.0495 157.857ZM114.735 156.283C114.204 156.89 113.644 157.443 113.065 157.936L112.847 159.443C111.33 160.34 109.685 160.861 108.141 161.075C109.685 160.861 111.33 160.34 112.847 159.443C113.749 158.909 114.604 158.241 115.361 157.422C115.108 157.262 114.969 157.163 114.969 157.163L115.396 156.67C115.178 156.547 114.958 156.417 114.735 156.283ZM118.415 149.532C118.213 150.306 117.971 151.017 117.697 151.632C117.485 152.107 117.256 152.569 117.01 153.018L116.801 153.44L116.668 153.615C116.579 153.765 116.487 153.913 116.394 154.06L116.782 153.554C116.782 153.554 117.017 153.783 117.458 154.108C117.992 152.799 118.334 151.281 118.415 149.532Z" fill="#4285F4"/>
<path d="M115.397 156.671L114.97 157.164C114.97 157.164 115.108 157.262 115.362 157.422C115.516 157.255 115.667 157.082 115.812 156.903C115.674 156.827 115.536 156.75 115.397 156.671Z" fill="#4285F4"/>
<path d="M116.67 153.615L114.703 156.222L113.501 157.34L112.969 157.692C113.066 157.636 113.115 157.606 113.115 157.606L113.067 157.936C113.646 157.443 114.206 156.89 114.737 156.283C115.331 155.605 115.889 154.86 116.396 154.06C116.489 153.913 116.58 153.765 116.67 153.615ZM118.421 149.423L117.698 151.632L117.011 153.018C117.257 152.569 117.486 152.107 117.698 151.632C117.972 151.018 118.215 150.306 118.417 149.532C118.418 149.496 118.42 149.459 118.421 149.423Z" fill="#4285F4"/>
<path d="M98.043 157.163C98.3728 157.4 98.7106 157.628 99.0509 157.857C99.0513 157.853 99.0517 157.85 99.0524 157.846C98.6858 157.611 98.3466 157.38 98.043 157.163Z" fill="black" fill-opacity="0.87"/>
<path d="M107.566 160.52C107.56 160.52 107.555 160.521 107.549 160.521C107.427 160.547 107.303 160.568 107.177 160.584C107.211 160.582 107.244 160.579 107.277 160.576C107.374 160.56 107.471 160.542 107.566 160.52ZM102.887 159.836C102.886 159.848 102.886 159.861 102.886 159.872C103.501 160.103 104.08 160.271 104.621 160.388C104.046 160.251 103.462 160.061 102.887 159.836Z" fill="#2884B2" fill-opacity="0.12"/>
<path d="M99.0513 157.846C99.0509 157.85 99.0506 157.853 99.0498 157.857C99.1247 157.906 99.2004 157.955 99.2754 158.004C99.3612 158.056 99.444 158.113 99.5298 158.165C99.9349 158.424 100.35 158.668 100.766 158.897C101.516 159.305 102.222 159.626 102.884 159.873C102.885 159.862 102.885 159.849 102.885 159.837C101.497 159.295 100.15 158.55 99.0513 157.846Z" fill="#4285F4"/>
<path d="M98.043 157.163C98.3465 157.38 98.6853 157.611 99.0517 157.845C100.15 158.55 101.498 159.295 102.886 159.836C103.462 160.061 104.045 160.25 104.62 160.387C105.34 160.542 105.994 160.606 106.582 160.606C106.788 160.606 106.986 160.598 107.177 160.584C107.302 160.568 107.427 160.547 107.548 160.521C107.538 160.522 107.528 160.523 107.518 160.523C107.452 160.529 107.389 160.531 107.325 160.531C106.574 160.531 106.002 160.171 105.581 159.586C103.274 159.57 100.652 158.969 98.043 157.163Z" fill="#4285F4"/>
<path d="M107.966 160.473L107.969 160.483H107.969L107.966 160.473Z" fill="#2884B2" fill-opacity="0.12"/>
<path d="M108.19 160.436C108.115 160.45 108.041 160.462 107.966 160.473L107.968 160.482C108.044 160.468 108.118 160.453 108.19 160.436Z" fill="#4285F4"/>
<path d="M112.967 157.692L112.963 157.696C112.288 158.079 109.401 159.587 105.679 159.587C105.645 159.587 105.612 159.587 105.579 159.587C106 160.171 106.573 160.531 107.324 160.531C107.387 160.531 107.451 160.529 107.516 160.524C107.527 160.523 107.537 160.522 107.547 160.521C107.553 160.521 107.558 160.52 107.564 160.52C107.693 160.49 107.822 160.456 107.948 160.415L107.965 160.473C108.04 160.462 108.115 160.45 108.189 160.436C109.864 160.062 110.677 159.208 110.677 159.208L112.963 157.696L112.967 157.692Z" fill="#4285F4"/>
<path d="M107.97 160.482H107.97L108.142 161.075H108.143L107.97 160.482Z" fill="black" fill-opacity="0.08"/>
<path d="M113.066 157.936C111.512 159.259 109.822 160.144 108.192 160.436C108.119 160.453 108.045 160.468 107.97 160.482L108.142 161.075C109.686 160.861 111.331 160.34 112.848 159.444L113.066 157.936Z" fill="#4285F4"/>
<path d="M102.885 159.873C102.884 159.884 102.884 159.897 102.884 159.908C104.054 160.371 105.219 160.654 106.317 160.654C106.643 160.654 106.963 160.629 107.276 160.576C107.243 160.579 107.21 160.581 107.177 160.584C106.95 160.613 106.717 160.627 106.48 160.627C105.883 160.627 105.256 160.539 104.62 160.387C104.079 160.271 103.5 160.103 102.885 159.873Z" fill="black" fill-opacity="0.08"/>
<path d="M100.767 158.896C101.465 159.284 102.175 159.629 102.883 159.909C102.884 159.897 102.884 159.885 102.884 159.873C102.222 159.625 101.516 159.304 100.767 158.896ZM104.62 160.388C105.256 160.54 105.883 160.627 106.48 160.627C106.717 160.627 106.95 160.613 107.176 160.584C106.986 160.599 106.788 160.607 106.582 160.607C105.993 160.607 105.339 160.543 104.62 160.388ZM113.114 157.606C113.114 157.606 113.065 157.636 112.968 157.692L112.964 157.696L110.678 159.208C110.678 159.208 109.865 160.063 108.191 160.436C109.822 160.144 111.512 159.26 113.066 157.936L113.114 157.606Z" fill="#4285F4"/>
<path d="M110.041 159.616C110.006 159.616 109.972 159.596 109.956 159.562C109.934 159.515 109.954 159.459 110.001 159.437C118.733 155.319 118.74 146.6 118.739 146.512C118.739 146.46 118.78 146.418 118.832 146.417C118.881 146.408 118.926 146.458 118.926 146.51C118.927 146.599 118.921 155.438 110.081 159.607L110.041 159.616Z" fill="black" fill-opacity="0.87"/>
<path d="M116.406 135.648C116.793 135.649 117.127 135.691 117.388 135.745C117.127 135.691 116.793 135.649 116.406 135.648Z" fill="white"/>
<path d="M114.305 136.529C113.937 136.529 113.544 136.571 113.125 136.661C113.125 136.661 113.124 136.662 113.121 136.663C112.949 136.777 112.777 136.902 112.604 137.04C112.681 137.011 113.565 136.682 114.632 136.682C115.081 136.682 115.561 136.74 116.028 136.904C115.526 136.661 114.954 136.529 114.305 136.529Z" fill="#EE9961"/>
<path d="M102.048 148.98C103.026 149.547 104.312 150.912 104.915 151.557C105.011 151.662 105.087 151.77 105.149 151.877C105.271 151.526 105.41 151.222 105.562 150.983L102.048 148.98Z" fill="#4285F4"/>
<path d="M107.122 148.801C106.65 149.854 106.133 150.713 105.616 151.013L105.562 150.982C105.41 151.222 105.271 151.526 105.149 151.877C105.407 152.321 105.406 152.733 105.53 152.733C105.564 152.733 105.606 152.704 105.664 152.637C105.729 152.562 105.828 152.532 105.944 152.532C106.189 152.532 106.514 152.667 106.763 152.794C106.545 152.607 106.321 152.262 106.321 151.654C106.32 150.825 106.826 149.502 107.122 148.801Z" fill="#4285F4"/>
<path d="M220.455 40.3292C200.876 40.3292 185 56.1615 185 75.6968C185 91.3761 207.853 117.672 216.864 127.43C218.799 129.523 222.111 129.523 224.046 127.43C233.056 117.672 255.909 91.3761 255.909 75.6968C255.909 56.1615 240.033 40.3292 220.455 40.3292ZM220.455 92.4491C210.756 92.4491 202.894 84.6098 202.894 74.9352C202.894 65.2572 210.756 57.418 220.455 57.418C230.153 57.418 238.015 65.2572 238.015 74.9352C238.015 84.6098 230.153 92.4491 220.455 92.4491Z" fill="#FBBC05"/>
<path d="M255.341 71.5957C255.136 69.84 254.794 68.0862 254.325 66.3844C254.277 66.2089 254.381 66.0275 254.556 65.9793C254.734 65.9342 254.914 66.0346 254.962 66.2095C255.44 67.944 255.788 69.73 255.998 71.5198C256.018 71.7006 255.889 71.8639 255.707 71.8851C255.516 71.9042 255.362 71.7688 255.341 71.5957ZM249.696 56.2789C243.155 46.4982 232.224 40.6586 220.455 40.6586C211.381 40.6586 202.769 44.1 196.207 50.348C196.074 50.474 195.865 50.4689 195.74 50.3377C195.614 50.2058 195.619 49.9975 195.75 49.8721C202.437 43.5057 211.21 40 220.455 40C232.446 40 243.582 45.949 250.245 55.9136C250.347 56.0648 250.305 56.2693 250.154 56.3702C250.003 56.4705 249.798 56.4312 249.696 56.2789Z" fill="#212121"/>
<path fill-rule="evenodd" clip-rule="evenodd" d="M202.75 75.386C202.75 65.6145 210.698 57.6932 220.5 57.6932C230.303 57.6932 238.25 65.6145 238.25 75.386C238.25 85.1581 230.303 93.0789 220.5 93.0789C210.698 93.0789 202.75 85.1581 202.75 75.386Z" fill="white"/>
<path d="M287.471 130.207C275.062 130.207 265 140.169 265 152.461C265 162.327 279.485 178.872 285.195 185.012C286.422 186.329 288.521 186.329 289.747 185.012C295.458 178.872 309.943 162.327 309.943 152.461C309.943 140.169 299.88 130.207 287.471 130.207ZM287.471 163.002C281.324 163.002 276.342 158.069 276.342 151.982C276.342 145.892 281.324 140.96 287.471 140.96C293.618 140.96 298.601 145.892 298.601 151.982C298.601 158.069 293.618 163.002 287.471 163.002Z" fill="#34A853"/>
<path d="M309.582 149.88C309.452 148.776 309.235 147.672 308.938 146.601C308.907 146.491 308.973 146.377 309.084 146.347C309.197 146.318 309.311 146.381 309.342 146.491C309.644 147.583 309.865 148.707 309.998 149.833C310.011 149.946 309.929 150.049 309.814 150.063C309.692 150.075 309.595 149.989 309.582 149.88ZM306.004 140.243C301.858 134.089 294.93 130.414 287.471 130.414C281.719 130.414 276.261 132.58 272.102 136.511C272.018 136.59 271.885 136.587 271.806 136.505C271.726 136.422 271.729 136.291 271.813 136.212C276.051 132.206 281.611 130 287.471 130C295.07 130 302.129 133.743 306.352 140.013C306.416 140.108 306.39 140.237 306.294 140.3C306.198 140.363 306.069 140.339 306.004 140.243Z" fill="#212121"/>
<path fill-rule="evenodd" clip-rule="evenodd" d="M276.25 152.265C276.25 146.117 281.287 141.133 287.5 141.133C293.714 141.133 298.75 146.117 298.75 152.265C298.75 158.414 293.714 163.398 287.5 163.398C281.287 163.398 276.25 158.414 276.25 152.265Z" fill="white"/>
<path d="M193.977 166.166C184.05 166.166 176 174.172 176 184.049C176 191.977 187.588 205.272 192.156 210.206C193.138 211.265 194.817 211.265 195.798 210.206C200.367 205.272 211.955 191.977 211.955 184.049C211.955 174.172 203.905 166.166 193.977 166.166ZM193.977 192.519C189.06 192.519 185.073 188.556 185.073 183.664C185.073 178.771 189.06 174.807 193.977 174.807C198.895 174.807 202.881 178.771 202.881 183.664C202.881 188.556 198.895 192.519 193.977 192.519Z" fill="#FBBC05"/>
<path d="M211.667 181.975C211.563 181.088 211.389 180.201 211.151 179.34C211.127 179.252 211.18 179.16 211.269 179.136C211.359 179.113 211.45 179.164 211.474 179.252C211.717 180.129 211.893 181.032 211.999 181.937C212.01 182.028 211.944 182.111 211.852 182.122C211.755 182.131 211.677 182.063 211.667 181.975ZM208.804 174.231C205.488 169.286 199.945 166.333 193.978 166.333C189.377 166.333 185.01 168.073 181.683 171.232C181.615 171.296 181.509 171.293 181.446 171.227C181.382 171.16 181.384 171.055 181.451 170.991C184.841 167.773 189.29 166 193.978 166C200.057 166 205.704 169.008 209.083 174.046C209.134 174.123 209.113 174.226 209.036 174.277C208.96 174.328 208.856 174.308 208.804 174.231Z" fill="#212121"/>
<path fill-rule="evenodd" clip-rule="evenodd" d="M185 183.892C185 178.951 189.03 174.946 194 174.946C198.971 174.946 203 178.951 203 183.892C203 188.833 198.971 192.838 194 192.838C189.03 192.838 185 188.833 185 183.892Z" fill="white"/>
</svg>
