<svg width="24" height="24" viewBox="0 0 24 24" fill="none" xmlns="http://www.w3.org/2000/svg">
<path d="M12.9364 4.05264C14.4264 4.27039 15.6357 5.12215 16.3907 5.91968L16.4283 5.95943L16.4606 6.00303C17.614 7.56123 17.7279 9.10104 17.3588 10.3817C17.1825 10.9932 16.8991 11.5384 16.5787 11.998C16.5427 12.0495 16.5612 12.1213 16.6176 12.1489C17.0652 12.3672 17.4821 12.6204 17.8675 12.9014C17.9282 12.9456 17.9178 13.0386 17.8499 13.0707C16.5633 13.6786 17.0273 13.5219 16.0394 13.9817C16.0149 13.9931 15.9858 13.9946 15.9606 13.985L13.1456 12.9103C13.0738 12.8829 13.0585 12.788 13.1181 12.7394L14.281 11.7909C14.6993 11.4498 15.263 10.7725 15.508 9.92244C15.7383 9.12334 15.6991 8.14254 14.9179 7.0595C14.9151 7.05561 14.912 7.05189 14.9087 7.04846C14.3392 6.46312 13.5219 5.93788 12.6383 5.80876C11.809 5.68756 10.7519 5.88893 9.57817 7.08691C9.25273 7.45888 8.86633 8.16128 8.83432 8.99335C8.8035 9.79419 9.09619 10.7896 10.2664 11.8112L11.3002 12.7136C11.3592 12.7651 11.3388 12.8614 11.264 12.8845L9.91266 13.302C7.69495 13.9871 6.34704 16.0984 6.00337 18.1076C5.99305 18.1679 6.03998 18.2223 6.10121 18.2223H14.9C14.9552 18.2223 15 18.267 15 18.3223V19.9C15 19.9553 14.9552 20 14.9 20H4.1C4.04477 20 4 19.9553 4 19.9L4.00001 19.1111C4.00005 16.7608 5.24043 13.7166 7.92986 12.2057C7.98402 12.1753 7.99913 12.1035 7.96161 12.054C7.16628 11.0047 6.88144 9.92473 6.91972 8.92991C6.96937 7.63979 7.55828 6.56386 8.11419 5.93992L8.1276 5.92488L8.1417 5.91039C9.6894 4.3209 11.3732 3.82422 12.9364 4.05264Z" fill="black" fill-opacity="0.87"/>
<path fill-rule="evenodd" clip-rule="evenodd" d="M17.2333 16.3333C17.2886 16.3333 17.3333 16.2886 17.3333 16.2333V15.1C17.3333 15.0448 17.3781 15 17.4333 15H18.5667C18.6219 15 18.6667 15.0448 18.6667 15.1V16.2333C18.6667 16.2886 18.7114 16.3333 18.7667 16.3333H19.9C19.9552 16.3333 20 16.3781 20 16.4333V17.5667C20 17.6219 19.9552 17.6667 19.9 17.6667H18.7667C18.7114 17.6667 18.6667 17.7114 18.6667 17.7667V18.9C18.6667 18.9552 18.6219 19 18.5667 19H17.4333C17.3781 19 17.3333 18.9552 17.3333 18.9V17.7667C17.3333 17.7114 17.2886 17.6667 17.2333 17.6667H16.1C16.0448 17.6667 16 17.6219 16 17.5667V16.4333C16 16.3781 16.0448 16.3333 16.1 16.3333H17.2333Z" fill="black" fill-opacity="0.87"/>
</svg>
