<svg width="24" height="24" viewBox="0 0 24 24" fill="none" xmlns="http://www.w3.org/2000/svg">
<path fill-rule="evenodd" clip-rule="evenodd" d="M8.01841 6.92353L9.78282 8.68794C10.4341 8.25198 11.2048 8.01434 12 8.01434C12.7952 8.01434 13.5659 8.25198 14.2172 8.68794L15.9816 6.92353C14.8515 6.03716 13.451 5.54839 12 5.54839C10.549 5.54839 9.14846 6.03716 8.01841 6.92353ZM17.0765 8.01841L15.3121 9.78282C15.748 10.4341 15.9857 11.2048 15.9857 12C15.9857 12.7952 15.748 13.5659 15.3121 14.2172L17.0765 15.9816C17.4378 15.5208 17.7355 15.0121 17.9605 14.4689C18.2847 13.6862 18.4516 12.8472 18.4516 12C18.4516 10.549 17.9628 9.14846 17.0765 8.01841ZM15.9816 17.0765L14.2172 15.3121C13.5659 15.748 12.7952 15.9857 12 15.9857C11.2048 15.9857 10.4341 15.748 9.78282 15.3121L8.01842 17.0765C8.47915 17.4378 8.98789 17.7355 9.53107 17.9605C10.3138 18.2847 11.1528 18.4516 12 18.4516C12.8472 18.4516 13.6862 18.2847 14.4689 17.9605C15.0121 17.7355 15.5208 17.4378 15.9816 17.0765ZM6.92355 15.9816L8.68794 14.2172C8.25198 13.5659 8.01434 12.7952 8.01434 12C8.01434 11.2048 8.25198 10.4341 8.68794 9.78282L6.92353 8.01841C6.03716 9.14846 5.54839 10.549 5.54839 12C5.54839 12.8472 5.71526 13.6862 6.03949 14.4689C6.26448 15.0121 6.56219 15.5209 6.92355 15.9816ZM6.34315 6.34315C7.84344 4.84285 9.87827 4 12 4C14.1217 4 16.1566 4.84285 17.6569 6.34315C19.1571 7.84344 20 9.87827 20 12C20 13.0506 19.7931 14.0909 19.391 15.0615C18.989 16.0321 18.3997 16.914 17.6569 17.6569C16.914 18.3997 16.0321 18.989 15.0615 19.391C14.0909 19.7931 13.0506 20 12 20C10.9494 20 9.90914 19.7931 8.93853 19.391C7.96793 18.989 7.08601 18.3997 6.34315 17.6569C5.60028 16.914 5.011 16.0321 4.60896 15.0615C4.20693 14.0909 4 13.0506 4 12C4 9.87827 4.84285 7.84344 6.34315 6.34315ZM12 9.56272C11.3536 9.56272 10.7337 9.81951 10.2766 10.2766C9.81951 10.7337 9.56272 11.3536 9.56272 12C9.56272 12.6464 9.81951 13.2663 10.2766 13.7234C10.7337 14.1805 11.3536 14.4373 12 14.4373C12.6464 14.4373 13.2663 14.1805 13.7234 13.7234C14.1805 13.2663 14.4373 12.6464 14.4373 12C14.4373 11.3536 14.1805 10.7337 13.7234 10.2766C13.2663 9.81951 12.6464 9.56272 12 9.56272Z" fill="black" fill-opacity="0.87"/>
</svg>
