<svg width="18" height="18" viewBox="0 0 18 18" fill="none" xmlns="http://www.w3.org/2000/svg">
    <path
        d="M14.7803 4.28033C15.0732 3.98744 15.0732 3.51256 14.7803 3.21967C14.4874 2.92678 14.0126 2.92678 13.7197 3.21967L9 7.93934L4.28033 3.21967C3.98744 2.92678 3.51256 2.92678 3.21967 3.21967C2.92678 3.51256 2.92678 3.98744 3.21967 4.28033L7.93934 9L3.21967 13.7197C2.92678 14.0126 2.92678 14.4874 3.21967 14.7803C3.51256 15.0732 3.98744 15.0732 4.28033 14.7803L9 10.0607L13.7197 14.7803C14.0126 15.0732 14.4874 15.0732 14.7803 14.7803C15.0732 14.4874 15.0732 14.0126 14.7803 13.7197L10.0607 9L14.7803 4.28033Z"
        fill="black" />
</svg>
