<svg width="14" height="16" viewBox="0 0 14 16" fill="none" xmlns="http://www.w3.org/2000/svg">
<path fill-rule="evenodd" clip-rule="evenodd" d="M4.17619 0C4.56279 0 4.87619 0.325611 4.87619 0.727273V1.14851H9.13078V0.727273C9.13078 0.325611 9.44418 0 9.83078 0C10.2174 0 10.5308 0.325611 10.5308 0.727273V1.17644C11.4563 1.2706 12.2738 1.60528 12.8921 2.21762C13.6386 2.95693 14.0035 4.01073 14 5.25383V11.8891C14 13.132 13.6332 14.1866 12.8868 14.927C12.1454 15.6626 11.118 16 9.96028 16H4.03967C2.88153 16 1.85318 15.6552 1.11178 14.9087C0.366891 14.1586 0 13.0919 0 11.8341V5.25253C0 4.00846 0.369036 2.95532 1.11667 2.21692C1.73567 1.60557 2.55264 1.27082 3.47619 1.17652V0.727273C3.47619 0.325611 3.78959 0 4.17619 0ZM3.47619 2.64033C2.86331 2.72583 2.40294 2.95342 2.08124 3.27115C1.67296 3.67439 1.4 4.30962 1.4 5.25253V5.38473H12.6V5.25253L12.6 5.25029C12.6028 4.30682 12.3321 3.67258 11.9261 3.27045C11.6059 2.95328 11.1459 2.72557 10.5308 2.64017V3.12073C10.5308 3.52239 10.2174 3.848 9.83078 3.848C9.44418 3.848 9.13078 3.52239 9.13078 3.12073V2.60305H4.87619V3.12073C4.87619 3.52239 4.56279 3.848 4.17619 3.848C3.78959 3.848 3.47619 3.52239 3.47619 3.12073V2.64033ZM12.6 6.83927H1.4V11.8341C1.4 12.7976 1.6751 13.4503 2.08613 13.8642C2.50064 14.2816 3.14212 14.5455 4.03967 14.5455H9.96028C10.8647 14.5455 11.5072 14.2846 11.92 13.875C12.328 13.4704 12.6 12.8331 12.6 11.8891V6.83927ZM3.19059 8.95273C3.19059 8.55107 3.50399 8.22546 3.89059 8.22546H3.89689C4.28349 8.22546 4.59689 8.55107 4.59689 8.95273C4.59689 9.35439 4.28349 9.68 3.89689 9.68H3.89059C3.50399 9.68 3.19059 9.35439 3.19059 8.95273ZM6.30349 8.95273C6.30349 8.55107 6.61689 8.22546 7.00349 8.22546H7.00979C7.39639 8.22546 7.70979 8.55107 7.70979 8.95273C7.70979 9.35439 7.39639 9.68 7.00979 9.68H7.00349C6.61689 9.68 6.30349 9.35439 6.30349 8.95273ZM9.40938 8.95273C9.40938 8.55107 9.72278 8.22546 10.1094 8.22546H10.1157C10.5023 8.22546 10.8157 8.55107 10.8157 8.95273C10.8157 9.35439 10.5023 9.68 10.1157 9.68H10.1094C9.72278 9.68 9.40938 9.35439 9.40938 8.95273ZM3.19059 11.7789C3.19059 11.3772 3.50399 11.0516 3.89059 11.0516H3.89689C4.28349 11.0516 4.59689 11.3772 4.59689 11.7789C4.59689 12.1806 4.28349 12.5062 3.89689 12.5062H3.89059C3.50399 12.5062 3.19059 12.1806 3.19059 11.7789ZM6.30349 11.7789C6.30349 11.3772 6.61689 11.0516 7.00349 11.0516H7.00979C7.39639 11.0516 7.70979 11.3772 7.70979 11.7789C7.70979 12.1806 7.39639 12.5062 7.00979 12.5062H7.00349C6.61689 12.5062 6.30349 12.1806 6.30349 11.7789ZM9.40938 11.7789C9.40938 11.3772 9.72278 11.0516 10.1094 11.0516H10.1157C10.5023 11.0516 10.8157 11.3772 10.8157 11.7789C10.8157 12.1806 10.5023 12.5062 10.1157 12.5062H10.1094C9.72278 12.5062 9.40938 12.1806 9.40938 11.7789Z" fill="black" fill-opacity="0.87"/>
</svg>
