<svg width="24" height="24" viewBox="0 0 24 24" fill="none" xmlns="http://www.w3.org/2000/svg">
<path fill-rule="evenodd" clip-rule="evenodd" d="M17.3539 4.49042C17.3538 4.49041 17.3539 4.49043 17.3539 4.49042L18.5096 5.64616C19.1635 6.30005 19.1635 7.36021 18.5096 8.0141L11.7027 14.8211C11.3548 15.169 10.9118 15.406 10.4296 15.5025L8.02524 15.9833C7.74422 16.0395 7.4537 15.9516 7.25106 15.7489C7.04842 15.5463 6.96046 15.2558 7.01666 14.9747L7.49749 12.5706C7.59396 12.0883 7.83106 11.6452 8.17887 11.2974L13.8301 5.64616L14.9859 4.49042C14.9859 4.49043 14.9859 4.49041 14.9859 4.49042C15.6397 3.83653 16.7 3.83653 17.3539 4.49042ZM16.1417 5.70259C16.1416 5.70257 16.1417 5.7026 16.1417 5.70259V5.70259ZM16.1699 5.73079L17.2692 6.83013L16.7477 7.3516L15.6484 6.25226L16.1699 5.73079ZM14.4362 7.46444L9.39107 12.5096C9.39107 12.5096 9.39107 12.5096 9.39107 12.5096C9.28255 12.6181 9.20858 12.7563 9.17849 12.9068C9.17849 12.9068 9.17849 12.9068 9.17849 12.9068L8.9498 14.0502L10.0931 13.8216C10.0931 13.8216 10.0932 13.8216 10.0931 13.8216C10.2437 13.7914 10.382 13.7174 10.4905 13.6089C10.4905 13.6089 10.4905 13.6089 10.4905 13.6089L15.5356 8.56379L14.4362 7.46444ZM16.198 5.70263C16.198 5.70265 16.198 5.70262 16.198 5.70263V5.70263Z" fill="black" fill-opacity="0.87"/>
<path fill-rule="evenodd" clip-rule="evenodd" d="M4 19C4 18.4477 4.44772 18 5 18H19C19.5523 18 20 18.4477 20 19C20 19.5523 19.5523 20 19 20H5C4.44772 20 4 19.5523 4 19Z" fill="black" fill-opacity="0.87"/>
</svg>
