<svg width="24" height="24" viewBox="0 0 24 24" fill="none" xmlns="http://www.w3.org/2000/svg">
    <path fill-rule="evenodd" clip-rule="evenodd"
        d="M16 13.5C16 13.7761 15.7761 14 15.5 14H7.52941C7.389 14 7.25435 13.9473 7.15506 13.8536C7.05578 13.7598 7 13.6326 7 13.5V10.5C7 10.3674 7.05578 10.2402 7.15506 10.1464C7.25435 10.0527 7.389 10 7.52941 10H15.5C15.7761 10 16 10.2239 16 10.5V13.5Z"
        fill="black" fill-opacity="0.87" />
    <path fill-rule="evenodd" clip-rule="evenodd"
        d="M4 7.65217C4 7.29199 4.24989 7 4.55814 7H18.1476C18.4559 7 18.7058 7.29199 18.7058 7.65217V9.89855H19.4419C19.7501 9.89855 20 10.1905 20 10.5507V13.4493C20 13.8095 19.7501 14.1014 19.4419 14.1014H18.7058V16.3478C18.7058 16.708 18.4559 17 18.1476 17H4.55814C4.24989 17 4 16.708 4 16.3478V7.65217ZM5.11628 8.30435V15.6957H17.5895V13.4493C17.5895 13.0891 17.8394 12.7971 18.1476 12.7971H18.8837V11.2029H18.1476C17.8394 11.2029 17.5895 10.9109 17.5895 10.5507V8.30435H5.11628Z"
        fill="black" fill-opacity="0.87" />
</svg>
