<svg width="24" height="24" viewBox="0 0 24 24" fill="none" xmlns="http://www.w3.org/2000/svg">
<path d="M7.47619 4C7.75294 4 8.47841 4.24989 8.47841 4.55814V5.93488L9.62807 5.67879C10.7309 5.43312 11.874 5.55002 12.9182 6.01523L13.1943 6.13826C14.1464 6.5624 15.1941 6.64162 16.1889 6.36462C16.6105 6.24723 16.949 6.75617 16.7255 7.17122L15.8712 8.75699C15.6431 9.18055 15.529 9.39233 15.5019 9.62269C15.4907 9.71878 15.4907 9.8161 15.5019 9.91219C15.529 10.1425 15.6431 10.3543 15.8712 10.7779L16.914 12.7136C17.1216 13.0991 16.9359 13.5985 16.5443 13.7075L16.4775 13.7261C15.2951 14.0554 14.0497 13.9612 12.9182 13.4571C11.874 12.9919 10.7309 12.875 9.62807 13.1207L8.47841 13.3767V19.4419C8.47841 19.7501 7.75294 20 7.47619 20C7.19944 20 7 19.8082 7 19.5V4.61628C7 4.30803 7.19944 4 7.47619 4Z" fill="#34A853"/>
</svg>
