<svg width="24" height="24" viewBox="0 0 24 24" fill="none" xmlns="http://www.w3.org/2000/svg">
    <path
        d="M13.0318 19.0049L13.0318 19.0049L13.0357 19.0088L13.5379 19.5H4.5V6.33333C4.5 5.32281 5.32281 4.5 6.33333 4.5H13.6667C14.6772 4.5 15.5 5.32281 15.5 6.33333V10.3039C15.1549 10.3829 14.8201 10.497 14.5 10.6448V6.33333C14.5 5.87319 14.1268 5.5 13.6667 5.5H6.33333C5.87319 5.5 5.5 5.87319 5.5 6.33333V18V18.5H6H12.5893C12.7238 18.6746 12.8706 18.8437 13.0318 19.0049ZM18.6698 13.3296L18.67 13.3297C19.206 13.8652 19.5 14.5752 19.5 15.3333C19.5 16.0899 19.2067 16.7993 18.6716 17.3353L16.6667 19.2965L14.6696 17.3425C14.126 16.7986 13.8333 16.0897 13.8333 15.3333C13.8333 14.5753 14.1273 13.8658 14.6636 13.3296C15.1991 12.794 15.9092 12.5 16.6667 12.5C17.4241 12.5 18.1343 12.794 18.6698 13.3296ZM11.5033 15.5H11.1667V14.5H11.5672C11.5228 14.773 11.5 15.0515 11.5 15.3333C11.5 15.3894 11.5012 15.4449 11.5033 15.5ZM8.83333 14.5V15.5H7.83333V14.5H8.83333ZM7.83333 12.1667V11.1667H8.83333V12.1667H7.83333ZM11.1667 12.1667V11.1667H12.1667V12.1667H11.1667ZM7.83333 8.83333V7.83333H8.83333V8.83333H7.83333ZM11.1667 8.83333V7.83333H12.1667V8.83333H11.1667ZM18.5 15.3333C18.5 14.3205 17.6795 13.5 16.6667 13.5C15.6539 13.5 14.8333 14.3205 14.8333 15.3333C14.8333 16.3461 15.6539 17.1667 16.6667 17.1667C17.6795 17.1667 18.5 16.3461 18.5 15.3333Z"
        fill="white" stroke="white" />
</svg>
