<svg fill="none" height="20" viewBox="0 0 20 20" width="20" xmlns="http://www.w3.org/2000/svg">
    <path
        d="M18.8878 10.2173C18.8878 9.60496 18.8286 8.97286 18.7298 8.38027H10.1768V11.8766H15.0755C14.878 13.0025 14.2261 13.9901 13.2582 14.6222L16.1817 16.8938C17.9002 15.2938 18.8878 12.963 18.8878 10.2173Z"
        fill="#4280EF" />
    <path
        d="M10.1769 19.0667C12.6262 19.0667 14.6805 18.2568 16.1818 16.8741L13.2583 14.6222C12.4485 15.1753 11.4015 15.4914 10.1769 15.4914C7.8065 15.4914 5.81144 13.8914 5.08058 11.7581L2.07812 14.0692C3.61886 17.1309 6.73983 19.0667 10.1769 19.0667Z"
        fill="#34A353" />
    <path
        d="M5.08065 11.7383C4.70534 10.6124 4.70534 9.3877 5.08065 8.26178L2.07819 5.93092C0.794248 8.49881 0.794248 11.521 2.07819 14.0692L5.08065 11.7383Z"
        fill="#F6B704" />
    <path
        d="M10.1769 4.52846C11.4608 4.5087 12.725 5.00253 13.6534 5.89141L16.241 3.28402C14.6015 1.74328 12.4287 0.913659 10.1769 0.933412C6.73983 0.933412 3.61886 2.86921 2.07812 5.93092L5.08058 8.26177C5.81144 6.1087 7.80649 4.52846 10.1769 4.52846Z"
        fill="#E54335" />
</svg>
