<svg width="212" height="180" viewBox="0 0 212 180" fill="none" xmlns="http://www.w3.org/2000/svg">
<path d="M19.983 118.969L10.4844 117.17L13.0496 108.526L22.3873 109.846C22.43 113.228 21.6573 116.281 19.983 118.969Z" fill="#F4BB96"/>
<path d="M0.593997 127.201C0.167769 127.056 -0.0867095 126.577 0.0271869 126.145L5.98138 103.551C6.09806 103.108 6.54613 102.824 6.99983 102.908C7.86004 103.068 9.28682 103.519 10.6976 104.753C11.5819 105.509 11.6986 105.953 13.2544 107.013C14.2746 107.706 15.3149 108.208 15.9486 108.491C16.3104 108.649 16.5043 109.04 16.4035 109.423C16.0044 109.796 15.6044 110.172 15.2388 110.592C13.8869 112.125 12.9478 114.2 13.828 118.661C13.8965 118.993 13.7487 119.352 13.438 119.491C13.2917 119.555 13.1262 119.576 12.9622 119.548C11.5305 119.289 8.32659 119.196 6.58869 122.945C4.59346 127.251 2.41461 127.819 0.593997 127.201Z" fill="#212121"/>
<path d="M8.59278 103.409C7.96735 103.135 7.40969 102.987 6.98834 102.907C6.53686 102.822 6.10052 103.11 5.98403 103.553L0.0304765 126.144C-0.0834435 126.576 0.14055 127.041 0.564804 127.189C1.10816 127.378 1.68421 127.461 2.27797 127.371L8.59278 103.409Z" fill="#212121"/>
<path d="M11.3536 120.359L10.886 117.276C10.869 117.163 10.9468 117.059 11.0599 117.042C11.1747 117.023 11.2784 117.102 11.2956 117.214L11.7632 120.298C11.7802 120.41 11.7024 120.515 11.5894 120.532C11.4773 120.549 11.3709 120.472 11.3536 120.359ZM9.85367 121.079C9.75298 121.079 9.66463 121.006 9.64906 120.903L9.18122 117.82C9.16424 117.708 9.24208 117.603 9.35509 117.586C9.46831 117.569 9.57365 117.646 9.59083 117.759L10.0587 120.842C10.0757 120.954 9.99782 121.059 9.8848 121.076C9.87429 121.078 9.86398 121.079 9.85367 121.079ZM7.94429 121.447L7.47645 118.364C7.45946 118.252 7.5373 118.147 7.65032 118.13C7.76415 118.112 7.86888 118.191 7.88606 118.303L8.3539 121.386C8.37089 121.498 8.29305 121.603 8.18003 121.62C8.06791 121.637 7.96154 121.561 7.94429 121.447Z" fill="white"/>
<path d="M14.1632 110.44C11.6445 109.784 10.1207 107.26 10.6975 104.753C11.5818 105.509 11.6985 105.953 13.2543 107.013C14.2746 107.706 15.3149 108.208 15.9486 108.491C16.3103 108.649 16.5042 109.04 16.4034 109.423C16.0043 109.796 15.6044 110.172 15.2387 110.592C14.8824 110.586 14.523 110.534 14.1632 110.44Z" fill="#212121"/>
<path opacity="0.1" d="M109.155 111.869C104.265 113.496 98.7533 113.19 94.0763 111.032C91.3358 109.767 88.903 107.871 86.9714 105.562L80.3945 117.531L162.616 150.878L174.277 130.57L116.988 107.949C114.46 109.452 111.919 110.949 109.155 111.869Z" fill="#4285F4"/>
<path opacity="0.3" d="M148.021 148.644C151.376 148.345 155.101 148.614 157.546 150.917C157.793 151.149 158.015 151.399 158.223 151.657L162.616 150.878L80.3946 117.531L53.9102 122.171L132.347 153.537C137.144 150.826 142.524 149.135 148.021 148.644Z" fill="#4285F4"/>
<path opacity="0.1" d="M137.036 155.411L122.991 164.402L98.6196 180L46.547 159.458L15.6621 147.272L53.9132 122.173L132.345 153.538L137.036 155.411Z" fill="#4285F4"/>
<path d="M148.021 148.644C142.525 149.135 137.144 150.826 132.347 153.537L137.036 155.413L158.223 151.657C158.015 151.399 157.793 151.149 157.547 150.917C155.101 148.614 151.376 148.345 148.021 148.644Z" fill="#4285F4"/>
<path d="M143.365 149.35C143.342 149.239 143.413 149.13 143.525 149.107C143.858 149.037 144.191 148.972 144.525 148.911C144.64 148.894 144.745 148.965 144.766 149.076C144.786 149.188 144.712 149.295 144.6 149.316C144.269 149.376 143.939 149.441 143.611 149.509C143.505 149.533 143.39 149.466 143.365 149.35ZM155.783 149.918C153.197 148.561 149.936 148.614 147.015 148.955C146.898 148.967 146.798 148.887 146.785 148.774C146.772 148.662 146.853 148.559 146.967 148.546C149.975 148.198 153.296 148.147 155.976 149.554C156.077 149.607 156.116 149.731 156.062 149.832C156.009 149.933 155.883 149.97 155.783 149.918Z" fill="#212121"/>
<path d="M88.8328 114.382L85.374 124.061L76.6113 119.959L79.5348 110.372C83.1339 110.878 86.2502 112.186 88.8328 114.382Z" fill="#F4BB96"/>
<path d="M94.4168 136.078C94.1933 136.502 93.6431 136.691 93.2027 136.501L70.1766 126.569C69.7254 126.375 69.4962 125.858 69.6595 125.395C70.2196 123.809 71.4115 122.263 73.1292 121.139C74.672 120.126 76.0403 118.455 77.0463 116.91C77.2736 116.556 77.7206 116.416 78.1105 116.585C78.4417 117.064 78.7762 117.545 79.1624 117.998C80.57 119.667 82.6214 120.991 87.5028 120.793C87.8666 120.775 88.2236 120.989 88.3203 121.338C88.3645 121.502 88.3601 121.679 88.304 121.847C87.7953 123.307 87.1748 126.656 90.8731 129.091C95.1216 131.887 95.3698 134.267 94.4168 136.078Z" fill="#212121"/>
<path d="M70.4511 123.805C70.0582 124.417 69.8103 124.978 69.6569 125.408C69.4925 125.868 69.7281 126.373 70.1786 126.567L93.2022 136.497C93.6427 136.687 94.1731 136.528 94.3989 136.107C94.6882 135.567 94.8701 134.976 94.8717 134.338L70.4511 123.805Z" fill="#212121"/>
<path d="M88.9041 123.654H88.9035L85.5526 123.642C85.4382 123.642 85.3458 123.549 85.3462 123.436C85.3466 123.322 85.4392 123.231 85.5532 123.231C85.5964 123.231 88.9466 123.242 88.9047 123.242C89.0192 123.242 89.1116 123.335 89.1112 123.449C89.1108 123.562 89.0182 123.654 88.9041 123.654ZM89.2044 125.532C89.1612 125.532 85.8112 125.52 85.8531 125.521C85.7386 125.52 85.6462 125.428 85.6466 125.314C85.647 125.201 85.7396 125.109 85.8537 125.109C85.8969 125.109 89.2468 125.12 89.205 125.12C89.3194 125.121 89.4118 125.213 89.4114 125.327C89.411 125.44 89.3184 125.532 89.2044 125.532ZM89.5048 127.41C89.4616 127.41 86.1114 127.399 86.1533 127.399C86.0389 127.398 85.9465 127.306 85.9469 127.192C85.9473 127.079 86.0399 126.987 86.1539 126.987C86.1971 126.987 89.5473 126.999 89.5054 126.998C89.6199 126.999 89.7122 127.091 89.7118 127.205C89.7114 127.318 89.6188 127.41 89.5048 127.41Z" fill="white"/>
<path d="M78.8264 119.102C77.7193 121.639 74.7901 122.828 72.2217 121.814C72.4944 121.582 72.7994 121.355 73.1294 121.139C74.6723 120.126 76.0405 118.455 77.0465 116.91C77.2738 116.556 77.7208 116.416 78.1107 116.585C78.4419 117.064 78.7764 117.545 79.1626 117.998C79.0984 118.371 78.9846 118.74 78.8264 119.102Z" fill="#212121"/>
<path opacity="0.1" d="M157.87 84.097C157.823 88.0492 158.749 91.7855 156.984 95.6138C155.173 99.5438 151.49 102.608 147.25 103.605C146.493 103.783 145.731 103.895 144.965 103.962L200.144 125.795L200.407 125.746L212 105.7L157.87 84.097Z" fill="#4285F4"/>
<path opacity="0.3" d="M127.589 103.247C123.739 103.91 120.375 105.935 116.988 107.949L174.277 130.57L200.144 125.795L144.965 103.962C139.247 104.462 133.314 102.261 127.589 103.247ZM117.361 93.0388L144.965 103.962C145.731 103.895 146.493 103.783 147.25 103.605C151.49 102.608 155.173 99.5438 156.984 95.6138C158.749 91.7856 157.823 88.0492 157.87 84.0971L129.163 72.6404L117.361 93.0388Z" fill="#4285F4"/>
<path d="M117.351 93.0558L91.2451 97.7845L116.988 107.949C120.375 105.935 123.739 103.91 127.589 103.247C133.313 102.261 139.246 104.462 144.965 103.962L117.361 93.0388L117.351 93.0558Z" fill="#4285F4"/>
<path d="M109.155 111.869C104.265 113.496 98.7536 113.19 94.0765 111.032C91.336 109.767 88.9033 107.871 86.9717 105.562L91.2452 97.7845L116.988 107.949C114.46 109.452 111.92 110.949 109.155 111.869Z" fill="#4285F4"/>
<path d="M89.0879 116.611C88.5662 117.591 87.3985 118.036 86.3468 117.657L79.6887 115.253C77.5977 114.5 76.3844 112.347 76.815 110.19C76.8233 110.148 76.8316 110.111 76.8399 110.07L76.8731 109.922L80.3139 94.859C80.3139 94.859 76.0574 97.6419 69.7843 99.4697C64.3932 101.046 57.5156 101.911 50.5759 99.7002C48.7581 99.1238 46.9363 98.3335 45.1351 97.2919L44.9902 95.5959L43.541 78.6928C43.541 78.6928 48.5139 76.651 55.495 74.4568C69.4654 70.0602 91.4605 65.042 97.6217 74.5473C104.764 85.5594 92.6405 109.959 89.0879 116.611Z" fill="#212121"/>
<path d="M69.7843 99.4697C64.3932 101.046 57.5156 101.911 50.5759 99.7002C48.6588 98.4281 46.7913 97.0614 44.9902 95.5958L43.541 78.6928C43.541 78.6928 48.5139 76.651 55.495 74.4567C55.8635 75.1483 56.29 75.8317 56.5011 76.2557C60.3001 83.9417 64.6894 91.6777 69.7843 99.4697ZM77.2871 110.259C77.1297 110.235 76.9724 110.214 76.815 110.189C76.8233 110.148 76.8316 110.111 76.8399 110.07L76.8731 109.922C77.0511 110.124 77.196 110.247 77.2871 110.259Z" fill="#212121"/>
<path d="M54.8424 74.6632C54.8424 74.6632 79.0358 121.779 64.7037 130.966C53.6808 138.032 26.3061 124.743 18.6063 120.745C17.3233 120.078 16.6345 118.667 16.8736 117.248C17.2984 114.726 18.0366 112.021 18.9745 109.078C19.1683 108.47 19.8026 108.115 20.4274 108.259L44.2708 113.758C44.2708 113.758 27.3565 94.7929 37.073 78.2118L54.8424 74.6632Z" fill="#212121"/>
<path d="M54.5929 25.1472H53.5146C53.4002 25.1472 53.3076 25.0551 53.3076 24.9414C53.3076 24.8276 53.4002 24.7355 53.5146 24.7355H54.5929C54.7073 24.7355 54.7999 24.8276 54.7999 24.9414C54.7999 25.0551 54.7073 25.1472 54.5929 25.1472Z" fill="#212121"/>
<path d="M66.0801 54.146C66.0801 54.146 66.2338 54.4646 66.5425 55.004C67.969 57.5133 72.6852 64.7652 80.2477 66.2238C86.5646 67.4393 90.5833 56.3701 92.7454 47.6164C94.1129 42.0817 94.7392 37.4716 94.7392 37.4716L88.5918 35.0213L79.8611 54.2417L74.6075 48.5939C73.866 49.0767 77.2936 46.8446 67.3557 53.3165L66.0801 54.146Z" fill="#F4BB96"/>
<path d="M66.5425 55.004C67.969 57.5133 72.6852 64.7653 80.2476 66.2238C86.5645 67.4393 90.5832 56.3701 92.7453 47.6164C92.6196 47.5105 92.4794 47.4262 92.3226 47.3727L91.6658 49.0248C91.1916 54.5301 87.7351 59.6895 82.8125 62.2473C80.9974 63.1874 78.9061 63.8021 76.8974 63.3995C74.8934 62.9981 73.0425 61.3683 72.8997 59.3372C72.8103 58.1307 73.3007 56.9697 73.6429 55.8067C73.989 54.6493 74.1648 53.3173 73.5206 52.292C72.7884 51.1203 71.1303 50.7531 69.8686 51.1963C68.8084 51.5594 67.9586 52.3672 67.3557 53.3165C67.2107 53.5269 67.0885 53.747 66.9748 53.9737C66.808 54.3074 66.664 54.6507 66.5425 55.004Z" fill="#EE9961"/>
<path d="M76.6039 52.5273L71.1673 59.2045C69.9375 60.7195 67.6395 60.7689 66.3393 59.3157L65.3455 58.2001L66.3765 71.4475C61.4409 74.3868 41.45 84.4109 36.8166 81.9121C33.2808 80.0099 33.3089 61.9677 33.2971 58.0231C28.9851 63.7149 30.0419 62.32 29.8728 62.5432C28.8873 63.844 27.0696 64.1857 25.6824 63.3335L21.6081 60.8347L18.4736 58.9122C16.9333 57.9695 16.4986 55.9359 17.5213 54.458C17.9478 53.8446 18.4363 53.1489 18.9912 52.3996C19.2935 51.988 19.6165 51.5599 19.956 51.1153C21.9269 48.5424 24.4858 45.496 27.4257 42.6926C31.0198 39.2716 36.2701 37.2791 40.4893 36.1635C41.1477 35.9906 41.7771 35.8342 42.3733 35.6983C45.3215 35.0356 47.4084 34.8338 47.4084 34.8338C50.2944 34.805 52.9527 35.0644 55.3914 35.5378C64.1706 37.2058 71.7742 42.1765 76.6702 48.6535C77.5479 49.8103 77.519 51.4034 76.6039 52.5273Z" fill="#4285F4"/>
<path d="M32.6884 52.9678L33.2143 58.1341L29.8728 62.5431C28.8873 63.844 27.0696 64.1857 25.6824 63.3335L21.6081 60.8347L18.4736 58.9122C16.9333 57.9695 16.4986 55.9359 17.5213 54.4579C17.9478 53.8446 18.4363 53.1489 18.9912 52.3996C20.0305 52.6343 22.1174 53.4 26.1214 55.7218C32.9949 59.7108 32.6884 52.9678 32.6884 52.9678ZM66.3765 71.4474C61.4409 74.3868 41.45 84.4108 36.8166 81.912C35.0734 80.9735 34.1873 76.0252 33.7401 70.8753C37.769 72.4273 42.1456 73.2753 46.7251 73.2753C53.847 73.2753 60.4886 71.2169 66.0826 67.6684L66.3765 71.4474Z" fill="#4285F4"/>
<path d="M40.4883 36.1624C41.1374 40.2269 44.7072 43.2704 48.8729 43.2704C53.15 43.2704 56.7344 40.1448 57.2913 35.9602C54.4711 35.237 51.0661 34.7965 47.4101 34.8332C47.4101 34.8332 45.3224 35.0354 42.3726 35.7001C41.7768 35.8349 41.1471 35.9889 40.4883 36.1624Z" fill="#212121"/>
<path d="M48.873 43.4762C45.2681 43.4762 41.9941 41.2185 40.7256 37.858C40.6856 37.7515 40.7397 37.6329 40.8467 37.5929C40.9536 37.5537 41.0727 37.6065 41.1134 37.7133C42.3214 40.9141 45.4398 43.0645 48.873 43.0645C48.9874 43.0645 49.08 43.1566 49.08 43.2704C49.08 43.3841 48.9874 43.4762 48.873 43.4762Z" fill="#212121"/>
<path d="M42.3726 35.7002C42.8036 38.888 45.5501 41.3441 48.8729 41.3441C52.2538 41.3441 55.039 38.8015 55.3926 35.5363C55.1453 35.4884 54.8954 35.4426 54.643 35.3993C53.6884 35.2355 52.9267 34.5194 52.6858 33.5865C52.1904 31.6686 51.4124 28.6922 51.4124 28.6922C50.2548 29.6603 48.9228 30.1659 47.5036 30.1659C45.9777 30.1659 44.5488 29.5736 43.3282 28.4564C43.3282 28.4564 43.8578 30.8181 44.2887 32.7482C44.5861 34.0807 43.7388 35.3918 42.4 35.694L42.3726 35.7002Z" fill="#F4BB96"/>
<path d="M42.3726 35.7001C42.576 37.2121 43.2977 38.5557 44.3584 39.5574C45.4387 36.1767 48.621 33.7256 52.3798 33.7256C52.496 33.7256 52.6123 33.7256 52.7285 33.7352C52.7097 33.6729 51.4218 28.7345 51.411 28.693C50.2534 29.6611 48.9214 30.1667 47.502 30.1667C45.9763 30.1667 44.5474 29.5744 43.3268 28.4572C43.3268 28.4572 43.8595 30.8169 44.2907 32.7479C44.5861 34.0818 43.7384 35.3918 42.4016 35.6952L42.3726 35.7001Z" fill="#EE9961"/>
<path d="M94.7396 37.4716C94.7396 37.4716 98.3939 34.8201 97.3953 32.3909C96.5923 30.4376 92.1485 28.9202 90.8808 33.0679C90.8808 33.0679 90.529 31.055 89.5094 31.2296C87.9699 31.493 88.5929 35.0194 88.5929 35.0194" fill="#F4BB96"/>
<path d="M33.0896 58.0453L32.4048 52.3636C32.3913 52.2506 32.4723 52.1481 32.5857 52.1349C32.7014 52.118 32.8023 52.202 32.816 52.3146L33.5008 57.9963C33.5144 58.1093 33.4333 58.2118 33.3199 58.225C33.2151 58.2403 33.104 58.1638 33.0896 58.0453Z" fill="#212121"/>
<path d="M65.3466 58.4052C65.2338 58.4052 65.1416 58.3151 65.1396 58.203L65.0816 54.7665C65.0798 54.6527 65.1707 54.5591 65.2852 54.5571C65.416 54.5567 65.4934 54.6459 65.4956 54.7593L65.5537 58.1957C65.5555 58.3095 65.4645 58.4032 65.3501 58.4052C65.3489 58.4052 65.3476 58.4052 65.3466 58.4052Z" fill="#212121"/>
<path d="M79.8186 56.7207L79.6543 54.2555C79.6468 54.1422 79.7331 54.0441 79.8471 54.0364C79.9585 54.0252 80.06 54.1148 80.0675 54.2282L80.2319 56.6934C80.2394 56.8068 80.153 56.9048 80.039 56.9125C79.9319 56.9217 79.8265 56.8385 79.8186 56.7207Z" fill="#EE9961"/>
<path d="M42.1743 26.1615C42.1743 30.525 44.7681 32.824 47.9704 32.824C51.1709 32.824 53.7666 30.525 53.7666 26.1615C53.7666 18.8525 51.1718 18.2598 47.9714 18.2598C44.7691 18.2598 42.1743 21.7979 42.1743 26.1615Z" fill="#F4BB96"/>
<path d="M42.7353 24.1674C42.7353 24.1674 45.1857 23.3743 44.4734 20.1732C44.4734 20.1732 48.3359 26.4885 53.477 22.5644L53.7083 24.3945C53.7083 24.3945 57.2182 21.937 54.5217 18.8193C54.5217 18.8193 56.7038 14.061 50.4989 15.173C50.4989 15.173 44.6137 8.84517 41.9314 16.2124C41.9314 16.2124 37.3904 14.8451 36.8715 20.108C36.3525 25.3709 43.7002 30.9365 43.7002 30.9365C42.0511 28.5341 41.7941 26.6554 42.7353 24.1674Z" fill="#212121"/>
<path d="M43.3301 24.4042C43.0316 23.6645 42.1873 23.3076 41.4446 23.6042C40.7019 23.9009 40.3403 24.7404 40.6401 25.48C40.9384 26.2171 41.7827 26.5754 42.5267 26.2786" fill="#F4BB96"/>
<path d="M40.4481 25.5568C39.8968 24.1969 41.2863 22.8543 42.6352 23.4263C43.0424 23.5988 43.3574 23.919 43.5222 24.3276C43.5649 24.4332 43.5133 24.553 43.4072 24.5952C43.3014 24.638 43.1807 24.5863 43.1381 24.4808C42.8817 23.8457 42.1588 23.541 41.5221 23.7952C40.8844 24.0497 40.5753 24.7691 40.8322 25.403C41.0876 26.0344 41.8134 26.3411 42.4496 26.0877C42.5556 26.0451 42.6763 26.0965 42.7187 26.202C42.7614 26.3076 42.7099 26.4274 42.6037 26.4696C41.753 26.8091 40.7875 26.3958 40.4481 25.5568Z" fill="#212121"/>
<path d="M52.6785 27.5187C51.4856 27.5187 50.5151 26.5538 50.5151 25.3679C50.5151 24.1827 51.4856 23.2187 52.6785 23.2187C53.8705 23.2187 54.8402 24.1827 54.8402 25.3679C54.8402 26.5538 53.8705 27.5187 52.6785 27.5187ZM52.6785 23.6303C51.7139 23.6303 50.9292 24.4099 50.9292 25.3679C50.9292 26.3269 51.7139 27.107 52.6785 27.107C53.642 27.107 54.4261 26.3269 54.4261 25.3679C54.4261 24.4099 53.642 23.6303 52.6785 23.6303Z" fill="#212121"/>
<path d="M47.3938 27.5187C46.2009 27.5187 45.2305 26.5538 45.2305 25.3679C45.2305 24.1827 46.2009 23.2187 47.3938 23.2187C48.5858 23.2187 49.5555 24.1827 49.5555 25.3679C49.5555 26.5538 48.5858 27.5187 47.3938 27.5187ZM47.3938 23.6303C46.4292 23.6303 45.6445 24.4099 45.6445 25.3679C45.6445 26.3269 46.4292 27.107 47.3938 27.107C48.3574 27.107 49.1414 26.3269 49.1414 25.3679C49.1414 24.4099 48.3574 23.6303 47.3938 23.6303Z" fill="#212121"/>
<path d="M47.1187 25.9035C47.1187 26.2471 47.3974 26.5242 47.7431 26.5242C48.0887 26.5242 48.3675 26.2471 48.3675 25.9035C48.3675 25.5598 48.0887 25.2827 47.7431 25.2827C47.3974 25.2827 47.1187 25.5598 47.1187 25.9035Z" fill="#212121"/>
<path d="M52.104 25.8621C52.104 26.2057 52.3828 26.4829 52.7285 26.4829C53.0741 26.4829 53.3528 26.2057 53.3528 25.8621C53.3528 25.5184 53.0741 25.2413 52.7285 25.2413C52.3828 25.2413 52.104 25.5184 52.104 25.8621Z" fill="#212121"/>
<path d="M50.297 28.2791C50.1346 28.2791 49.9652 28.2049 49.8324 28.1663C49.795 28.2035 49.7432 28.2266 49.686 28.2266C49.4572 28.2266 49.4085 27.9233 49.5906 27.7933C49.7719 27.6631 50.0155 27.8064 50.2319 27.8598C50.2699 27.5422 49.9349 26.6847 49.5661 26.0007C49.5119 25.9004 49.55 25.7757 49.6506 25.7221C49.7517 25.6678 49.8771 25.7058 49.9309 25.8061C50.1502 26.2125 50.8453 27.58 50.5853 28.1108C50.5224 28.2389 50.4139 28.2791 50.297 28.2791Z" fill="#EE9961"/>
<path d="M49.009 29.6176C48.9255 29.54 48.9211 29.4098 48.9991 29.3268C49.0773 29.2431 49.2084 29.2391 49.2917 29.3169C50.1469 30.1117 50.6933 29.3419 50.6519 29.3509C50.7168 29.257 50.8458 29.2337 50.9396 29.2976C51.034 29.3619 51.0579 29.49 50.9932 29.5836C50.6035 30.1524 49.7951 30.3486 49.009 29.6176Z" fill="#EE9961"/>
<path d="M49.3496 25.0977L49.2061 24.7118C49.7715 24.5039 50.3253 24.5045 50.8516 24.7136L50.6979 25.0959C50.2635 24.923 49.8225 24.9236 49.3496 25.0977Z" fill="#212121"/>
<path d="M41.9904 22.8896L41.8735 23.2845L45.7556 24.42L45.8725 24.0251L41.9904 22.8896Z" fill="#212121"/>
<path d="M75.933 23.6838C66.1096 25.2227 55.7459 34.7141 52.7852 44.884C49.8241 55.05 55.3861 62.0462 65.2138 60.5066C75.0372 58.9676 85.4053 49.4758 88.3665 39.3098C91.3271 29.1399 85.7607 22.1442 75.933 23.6838ZM84.2932 39.5398C81.999 47.4134 73.9679 54.7642 66.3577 55.9564C58.7474 57.1487 54.4381 51.7311 56.7323 43.8575C59.0252 35.9755 67.0522 28.6256 74.6625 27.4334C82.2728 26.2411 86.5861 31.6578 84.2932 39.5398Z" fill="#212121"/>
<path d="M55.8919 60.2315L45.1723 74.8795C44.6736 75.5624 43.7125 75.7108 43.0256 75.215C42.3397 74.7221 42.1858 73.7715 42.6891 73.0855L53.2833 58.6106C54.0382 59.2803 54.9089 59.8268 55.8919 60.2315Z" fill="#212121"/>
<path d="M73.9286 24.0733C64.1052 25.6123 53.7415 35.1036 50.7809 45.2736C47.8197 55.4395 53.3817 62.4357 63.2094 60.8961C73.0328 59.3572 83.4009 49.8653 86.3621 39.6994C89.3227 29.5295 83.7563 22.5337 73.9286 24.0733ZM82.2888 39.9293C79.9946 47.803 71.9635 55.1537 64.3533 56.346C56.743 57.5382 52.4337 52.1207 54.7279 44.247C57.0208 36.3651 65.0478 29.0151 72.6581 27.8229C80.2684 26.6307 84.5817 32.0474 82.2888 39.9293Z" fill="white"/>
<path d="M86.6734 30.9064C87.7823 42.1606 75.4093 56.707 62.7908 58.6842C56.2057 59.7141 51.5352 56.9186 50.061 51.9024C50.7017 58.2813 55.7165 62.0667 63.2107 60.8936C73.0349 59.359 83.4008 49.8662 86.3633 39.6986C87.3358 36.3637 87.3842 33.3666 86.6734 30.9064Z" fill="black" fill-opacity="0.4"/>
<path d="M52.3546 57.9802C49.7281 55.0186 49.0822 50.3664 50.5821 45.2166C53.5582 34.9938 64.0171 25.4177 73.8968 23.87C84.0426 22.2817 89.5106 29.6257 86.5613 39.7567C83.5842 49.9773 73.1233 59.5513 63.2418 61.0995C59.1766 61.7365 55.0438 61.0122 52.3546 57.9802ZM73.9611 24.2768C64.225 25.8021 53.9156 35.2469 50.98 45.3307C48.1138 55.1704 53.3415 62.2377 63.1775 60.6927C72.9154 59.1674 83.227 49.724 86.1634 39.6422C89.0183 29.8366 83.838 22.7298 73.9611 24.2768ZM54.5293 44.1898C56.8377 36.2548 64.956 28.8212 72.6263 27.6194C80.5454 26.3803 84.774 32.1286 82.488 39.9863C80.1771 47.9171 72.0566 55.3474 64.3857 56.5495C56.3459 57.8071 52.2765 51.9218 54.5293 44.1898ZM72.6906 28.0262C65.1639 29.2054 57.1952 36.5078 54.9271 44.3044C52.7168 51.8899 56.7353 57.333 64.3214 56.1426C71.8487 54.9635 79.8198 47.6644 82.0901 39.8719C84.2431 32.4717 80.4563 26.8088 72.6906 28.0262Z" fill="#212121"/>
<path d="M48.0294 70.2207C47.9827 70.2321 42.6783 71.84 36.6551 72.9336C29.9802 74.1273 16.8926 75.2066 14.6104 68.8622C12.9376 64.2145 16.8257 59.7727 18.9953 57.0556C19.8524 57.4179 26.9495 62.5432 27.1897 62.5678C27.1641 62.6091 25.8101 64.795 25.8357 64.7538L46.721 64.4615L48.0294 70.2207Z" fill="#F4BB96"/>
<path d="M34.8995 73.2218C26.494 74.4979 16.5399 74.2262 14.6104 68.8622C12.9376 64.2145 16.8257 59.7727 18.9953 57.0556C19.8524 57.4179 26.9495 62.5432 27.1897 62.5678L25.935 64.5933C24.7508 64.3462 23.6038 63.8028 22.4486 63.42C18.1243 61.9761 15.9271 64.5807 16.9581 67.6149C17.865 70.2866 20.8048 71.781 23.6162 72.1144C26.4319 72.4478 29.2683 71.9045 32.1045 71.8839C33.2862 71.8787 34.542 72.0953 34.8995 73.2218Z" fill="#EE9961"/>
<path d="M46.7222 64.4599C47.5944 63.1964 49.4842 62.4326 50.6225 62.246L49.6809 63.628C49.6809 63.628 50.7354 65.4027 52.9823 63.7907C54.1425 62.9584 56.5563 68.8476 48.0308 70.2195L46.7222 64.4599Z" fill="#F4BB96"/>
<path d="M18.1884 53.5068C18.0617 53.6865 17.6362 54.2892 17.5194 54.4574C16.4974 55.9357 16.9333 57.9681 18.4736 58.912L21.6075 60.8336L25.6812 63.3329C27.0713 64.1853 28.8877 63.8434 29.8711 62.543L30.5507 61.6456L18.1884 53.5068Z" fill="#212121"/>
<path d="M142.998 92.0666C142.921 92.0666 142.857 92.0059 142.854 91.9287C142.85 91.8491 142.912 91.782 142.992 91.7788C143.65 91.7518 144.314 91.6718 145.023 91.5331C145.101 91.5211 145.178 91.5689 145.193 91.6469C145.209 91.7249 145.158 91.8009 145.079 91.8161C144.365 91.9552 143.667 92.0397 143.004 92.0666C143.002 92.0666 143 92.0666 142.998 92.0666ZM140.911 91.9428C140.214 91.8246 139.535 91.6308 138.894 91.3663C138.82 91.3357 138.784 91.2517 138.815 91.1781C138.846 91.1046 138.931 91.0688 139.004 91.1002C139.626 91.3562 140.284 91.5444 140.96 91.659C141.039 91.6722 141.092 91.7466 141.078 91.825C141.064 91.907 140.984 91.957 140.911 91.9428ZM147.011 91.0238C147.608 90.8376 148.243 90.6133 148.953 90.3379C149.027 90.3078 149.111 90.3452 149.14 90.4199C149.17 90.4939 149.133 90.5775 149.058 90.6065C148.342 90.8843 147.701 91.1106 147.098 91.2988C146.911 91.3555 146.831 91.0797 147.011 91.0238ZM137.065 90.3355C136.48 89.8961 135.985 89.3916 135.595 88.8352C135.549 88.7701 135.565 88.68 135.631 88.6346C135.697 88.5899 135.787 88.6052 135.833 88.6704C136.206 89.2018 136.679 89.6846 137.24 90.1056C137.303 90.1534 137.316 90.2439 137.268 90.3074C137.219 90.3717 137.127 90.3825 137.065 90.3355ZM150.787 89.7454C150.755 89.6722 150.79 89.5874 150.863 89.5564C151.603 89.2421 152.194 88.99 152.772 88.754C152.846 88.7222 152.93 88.7584 152.961 88.8324C152.991 88.9059 152.956 88.99 152.882 89.0201C152.288 89.2633 151.754 89.4916 150.977 89.8217C150.902 89.8525 150.818 89.8178 150.787 89.7454ZM164.696 88.4038C164.123 88.0734 163.495 87.8056 162.829 87.6074C162.752 87.5849 162.709 87.5045 162.731 87.4281C162.754 87.3521 162.836 87.3071 162.912 87.3316C163.6 87.5359 164.249 87.8128 164.841 88.1546C164.911 88.1944 164.934 88.2828 164.894 88.3516C164.853 88.4209 164.764 88.4431 164.696 88.4038ZM154.622 88.1944C154.595 88.1196 154.635 88.0372 154.71 88.0106C155.422 87.7606 156.074 87.562 156.701 87.4036C156.779 87.3843 156.858 87.4305 156.877 87.5077C156.897 87.5849 156.85 87.6633 156.773 87.6826C156.153 87.839 155.511 88.0352 154.807 88.2824C154.734 88.3083 154.649 88.2711 154.622 88.1944ZM158.77 87.3075C158.697 87.3075 158.634 87.2536 158.626 87.1801C158.617 87.1013 158.674 87.0297 158.753 87.0205C159.528 86.9313 160.244 86.9168 160.846 86.9578C161.027 86.9704 161.031 87.2413 160.826 87.2456C160.175 87.1998 159.445 87.2308 158.786 87.3067C158.781 87.3075 158.775 87.3075 158.77 87.3075Z" fill="#212121"/>
<path d="M136.959 155.604L96.2231 139.313C96.117 139.271 96.0656 139.151 96.1083 139.046C96.1511 138.94 96.2726 138.89 96.3776 138.932L137.113 155.222C137.219 155.264 137.271 155.384 137.228 155.49C137.185 155.595 137.065 155.646 136.959 155.604Z" fill="#212121"/>
<path d="M25.2535 151.277L15.5836 147.462C15.4283 147.401 15.4064 147.191 15.546 147.099L33.4334 135.363C33.5289 135.299 33.657 135.326 33.7203 135.421C33.7832 135.516 33.7569 135.644 33.6615 135.706L16.1057 147.225L25.4063 150.894C25.5125 150.936 25.5644 151.056 25.5224 151.162C25.4812 151.264 25.3639 151.32 25.2535 151.277Z" fill="#212121"/>
<g opacity="0.3">
<path d="M122.991 164.402L98.6194 180L46.5469 159.458C47.9837 156.671 50.1658 154.271 52.8157 152.579C55.3664 150.953 58.5505 149.981 61.4407 150.875C64.3143 151.76 66.3184 154.254 68.5626 156.243C75.084 162.027 84.9222 163.821 93.0833 160.722C95.8741 159.659 98.4496 158.087 101.257 157.074C104.064 156.057 107.286 155.646 109.977 156.93C114.68 159.168 114.81 163.812 122.991 164.402Z" fill="#4285F4"/>
</g>
<path d="M90.8179 161.447C90.7878 161.338 90.8527 161.225 90.9629 161.195C91.5171 161.044 92.0688 160.87 92.6028 160.679C92.7103 160.642 92.829 160.696 92.8678 160.803C92.9064 160.91 92.8506 161.028 92.7431 161.067C92.199 161.261 91.6369 161.438 91.0725 161.592C90.9578 161.622 90.8474 161.554 90.8179 161.447Z" fill="#212121"/>
<path d="M83.1533 162.38C77.616 162.034 72.3852 159.909 68.4248 156.396C66.2101 154.433 64.1914 151.937 61.3796 151.071C58.8902 150.302 55.81 150.914 52.9277 152.752C52.8311 152.814 52.7035 152.785 52.6417 152.69C52.58 152.594 52.6079 152.467 52.7041 152.406C55.6899 150.502 58.8965 149.872 61.5024 150.678C64.4255 151.578 66.4669 154.11 68.7003 156.089C72.5921 159.541 77.7341 161.629 83.1792 161.97C83.2934 161.977 83.3799 162.075 83.3729 162.188C83.3654 162.306 83.2595 162.39 83.1533 162.38Z" fill="#212121"/>
<path d="M174.277 130.775C174.251 130.775 174.226 130.771 174.2 130.761L148.975 120.801C148.869 120.759 148.817 120.639 148.859 120.534C148.902 120.428 149.022 120.378 149.128 120.418L174.353 130.378C174.46 130.42 174.511 130.54 174.469 130.646C174.437 130.726 174.359 130.775 174.277 130.775Z" fill="#212121"/>
<path d="M43.538 92.508C43.4238 92.5068 43.332 92.414 43.333 92.3002C43.334 92.1872 43.4266 92.0964 43.54 92.0964C43.5637 92.092 43.6144 92.0968 43.6517 92.0968C45.8708 92.0968 47.6237 91.4507 48.8636 90.1747C51.0251 87.9508 50.9006 84.538 50.8992 84.5035C50.8941 84.3901 50.9827 84.294 51.0969 84.2888C51.2127 84.2904 51.308 84.3724 51.3128 84.4858C51.3193 84.6325 51.4452 88.1112 49.1614 90.461C47.6804 91.9845 45.6601 92.5304 43.538 92.508Z" fill="#212121"/>
<path d="M129.74 144.362C129.66 144.359 129.598 144.292 129.602 144.212C129.605 144.133 129.677 144.078 129.753 144.075C130.43 144.104 131.124 144.109 131.812 144.09C131.813 144.09 131.815 144.09 131.816 144.09C131.894 144.09 131.959 144.152 131.961 144.23C131.963 144.309 131.9 144.376 131.82 144.378C131.09 144.398 130.394 144.391 129.74 144.362ZM133.738 144.115C133.729 144.036 133.787 143.965 133.867 143.957C134.545 143.89 135.231 143.796 135.908 143.68C135.985 143.664 136.061 143.719 136.075 143.797C136.089 143.876 136.036 143.95 135.957 143.964C135.274 144.081 134.581 144.175 133.896 144.244C133.812 144.251 133.745 144.191 133.738 144.115ZM127.666 144.198C126.979 144.118 126.287 144.011 125.61 143.881C125.532 143.866 125.48 143.79 125.495 143.712C125.511 143.634 125.587 143.586 125.665 143.598C126.335 143.727 127.02 143.833 127.7 143.911C127.892 143.934 127.854 144.224 127.666 144.198ZM137.817 143.431C137.798 143.354 137.845 143.276 137.923 143.256C138.586 143.092 139.252 142.902 139.902 142.69C139.978 142.666 140.06 142.707 140.084 142.782C140.109 142.858 140.068 142.94 139.992 142.965C139.336 143.178 138.663 143.37 137.993 143.536C137.915 143.555 137.837 143.509 137.817 143.431ZM123.585 143.383C122.875 143.161 122.223 142.897 121.646 142.598C121.575 142.561 121.547 142.475 121.584 142.404C121.622 142.334 121.709 142.306 121.78 142.343C122.342 142.633 122.978 142.891 123.672 143.108C123.853 143.164 123.772 143.439 123.585 143.383ZM141.755 142.17C141.724 142.096 141.759 142.012 141.833 141.982C142.446 141.73 143.115 141.439 143.691 141.116C143.761 141.076 143.849 141.101 143.888 141.17C143.928 141.24 143.903 141.328 143.833 141.367C143.247 141.695 142.569 141.993 141.944 142.248C141.874 142.277 141.786 142.246 141.755 142.17ZM119.916 141.41C119.378 140.914 118.951 140.351 118.647 139.734C118.612 139.663 118.642 139.576 118.714 139.541C118.786 139.506 118.872 139.536 118.908 139.607C119.195 140.192 119.601 140.727 120.113 141.199C120.172 141.253 120.176 141.344 120.121 141.403C120.067 141.461 119.975 141.464 119.916 141.41ZM145.327 140.132C145.271 140.075 145.272 139.984 145.329 139.928C145.867 139.405 146.222 138.848 146.385 138.273C146.407 138.197 146.486 138.152 146.564 138.173C146.641 138.195 146.686 138.275 146.664 138.351C146.487 138.975 146.106 139.575 145.532 140.134C145.474 140.19 145.383 140.188 145.327 140.132ZM146.244 136.357C146.023 135.839 145.655 135.32 145.087 134.726C145.032 134.668 145.034 134.577 145.092 134.522C145.151 134.468 145.242 134.47 145.297 134.527C145.89 135.148 146.276 135.693 146.511 136.244C146.542 136.318 146.508 136.402 146.434 136.433C146.361 136.464 146.276 136.431 146.244 136.357ZM143.598 133.305C143.08 132.81 142.599 132.303 142.167 131.799C142.115 131.739 142.123 131.648 142.183 131.596C142.244 131.545 142.336 131.551 142.388 131.612C142.813 132.109 143.288 132.609 143.799 133.097C143.857 133.153 143.859 133.244 143.803 133.301C143.749 133.357 143.656 133.361 143.598 133.305ZM140.91 130.143C140.514 129.546 140.172 128.936 139.892 128.327C139.859 128.255 139.891 128.17 139.964 128.137C140.036 128.104 140.123 128.135 140.156 128.208C140.429 128.802 140.765 129.4 141.152 129.985C141.196 130.051 141.177 130.14 141.11 130.184C141.045 130.227 140.954 130.21 140.91 130.143ZM139.195 126.364C139.027 125.689 138.933 124.994 138.914 124.297C138.912 124.218 138.975 124.152 139.055 124.15C139.056 124.15 139.058 124.15 139.059 124.15C139.137 124.15 139.202 124.212 139.204 124.29C139.222 124.966 139.313 125.64 139.477 126.295C139.496 126.372 139.449 126.45 139.371 126.469C139.293 126.488 139.214 126.441 139.195 126.364ZM171.543 125.512C171.464 125.512 171.399 125.448 171.398 125.369C171.398 125.289 171.462 125.225 171.542 125.224C172.228 125.22 172.918 125.181 173.594 125.107C173.671 125.094 173.745 125.156 173.753 125.235C173.762 125.314 173.705 125.385 173.625 125.394C172.94 125.468 172.24 125.508 171.544 125.512H171.543ZM169.476 125.418C169.471 125.418 169.467 125.418 169.462 125.418C168.773 125.351 168.08 125.249 167.4 125.112C167.322 125.096 167.271 125.02 167.287 124.943C167.303 124.865 167.379 124.813 167.458 124.83C168.127 124.964 168.811 125.066 169.49 125.131C169.57 125.138 169.628 125.209 169.62 125.288C169.613 125.363 169.55 125.418 169.476 125.418ZM175.51 124.952C175.493 124.874 175.543 124.798 175.621 124.781C176.045 124.69 176.466 124.584 176.873 124.467C176.95 124.442 177.03 124.488 177.053 124.565C177.075 124.641 177.031 124.721 176.954 124.743C176.541 124.862 176.113 124.97 175.683 125.062C175.609 125.079 175.528 125.033 175.51 124.952ZM165.382 124.597C164.719 124.391 164.062 124.148 163.428 123.874C163.354 123.842 163.321 123.757 163.353 123.684C163.384 123.611 163.471 123.578 163.543 123.609C164.168 123.88 164.816 124.12 165.468 124.322C165.545 124.346 165.587 124.427 165.563 124.503C165.539 124.579 165.457 124.62 165.382 124.597ZM161.559 122.961C161.011 122.665 160.424 122.326 159.763 121.922C159.695 121.881 159.673 121.792 159.715 121.724C159.757 121.656 159.846 121.635 159.914 121.677C160.571 122.077 161.154 122.415 161.697 122.708C161.767 122.746 161.794 122.834 161.755 122.903C161.717 122.974 161.629 122.999 161.559 122.961ZM139.207 122.389C139.129 122.373 139.078 122.297 139.094 122.219C139.239 121.516 139.468 120.85 139.774 120.241C139.81 120.17 139.897 120.142 139.969 120.177C140.04 120.212 140.069 120.299 140.033 120.37C139.738 120.956 139.518 121.598 139.378 122.277C139.362 122.355 139.285 122.405 139.207 122.389ZM158.01 120.823C157.435 120.457 156.855 120.087 156.262 119.723C156.194 119.681 156.173 119.592 156.215 119.524C156.257 119.457 156.346 119.436 156.415 119.477C156.986 119.829 157.565 120.198 158.166 120.58C158.233 120.623 158.253 120.712 158.21 120.779C158.166 120.847 158.076 120.865 158.01 120.823ZM140.989 118.731C140.931 118.676 140.93 118.585 140.985 118.527C141.465 118.033 142.028 117.606 142.659 117.258C142.729 117.219 142.817 117.245 142.856 117.314C142.895 117.384 142.87 117.471 142.8 117.51C142.193 117.844 141.653 118.254 141.194 118.728C141.139 118.784 141.047 118.787 140.989 118.731ZM154.554 118.701C154.426 118.701 154.097 118.412 152.645 117.766C152.572 117.733 152.539 117.648 152.572 117.576C152.604 117.502 152.69 117.47 152.763 117.503C153.359 117.768 153.968 118.072 154.624 118.431C154.755 118.503 154.703 118.701 154.554 118.701ZM150.728 117.038C150.055 116.829 149.385 116.673 148.735 116.575C148.656 116.564 148.602 116.49 148.613 116.411C148.626 116.332 148.702 116.277 148.778 116.291C149.443 116.39 150.128 116.549 150.814 116.763C150.891 116.786 150.933 116.867 150.909 116.943C150.885 117.02 150.803 117.061 150.728 117.038ZM144.509 116.664C144.488 116.587 144.535 116.508 144.612 116.488C145.274 116.315 145.972 116.211 146.686 116.18C146.762 116.178 146.834 116.238 146.838 116.317C146.841 116.397 146.779 116.464 146.699 116.468C146.006 116.498 145.328 116.599 144.686 116.767C144.611 116.786 144.529 116.743 144.509 116.664Z" fill="#212121"/>
<path d="M117.887 17.5621L107.793 2.99111C107.598 2.7101 107.669 2.32556 107.952 2.13219C108.234 1.93882 108.621 2.00978 108.816 2.29039L118.91 16.8614C119.105 17.1424 119.033 17.5269 118.751 17.7203C118.468 17.9136 118.082 17.8428 117.887 17.5621ZM113.536 22.3662C108.956 20.5961 104.176 19.3527 99.3285 18.6704C98.989 18.6226 98.7527 18.31 98.8006 17.9723C98.8487 17.6348 99.1629 17.4015 99.5028 17.4475C104.445 18.143 109.318 19.4106 113.986 21.2152C114.306 21.3388 114.464 21.6966 114.34 22.0144C114.217 22.33 113.859 22.4906 113.536 22.3662ZM123.924 14.8229C123.586 14.7656 123.359 14.4464 123.417 14.1103L125.752 0.513867C125.809 0.177779 126.13 -0.0491604 126.468 0.00913231C126.806 0.06642 127.034 0.385623 126.976 0.721711L124.641 14.3182C124.583 14.6562 124.26 14.8801 123.924 14.8229Z" fill="#212121"/>
<path d="M51.3253 117.401L44.1805 113.943C44.0776 113.894 44.0349 113.77 44.0848 113.668C44.135 113.566 44.2587 113.523 44.3616 113.573L51.5064 117.031C51.6093 117.081 51.652 117.204 51.6021 117.306C51.5524 117.407 51.4296 117.451 51.3253 117.401Z" fill="#212121"/>
<path d="M80.2094 95.0367C80.1108 94.9792 80.0776 94.8534 80.1352 94.7553L84.3296 87.6199C84.3873 87.5222 84.514 87.4884 84.6129 87.5459C84.7116 87.6034 84.7447 87.7292 84.6871 87.8273L80.4927 94.9627C80.4344 95.0621 80.3064 95.0935 80.2094 95.0367Z" fill="#212121"/>
<path opacity="0.3" d="M193.504 61.1067C193.504 63.4709 191.578 65.3894 189.2 65.3894C186.822 65.3894 184.896 63.4709 184.896 61.1067C184.896 58.7427 186.822 56.8276 189.2 56.8276C191.578 56.8276 193.504 58.7427 193.504 61.1067Z" fill="#4285F4"/>
<path opacity="0.3" d="M20.7151 89.9462C20.7151 91.3507 19.5707 92.4905 18.1581 92.4905C16.7455 92.4905 15.6011 91.3507 15.6011 89.9462C15.6011 88.5418 16.7455 87.4041 18.1581 87.4041C19.5707 87.4041 20.7151 88.5418 20.7151 89.9462Z" fill="#4285F4"/>
<path d="M18.1462 43.5247C17.8585 43.3389 17.7768 42.9564 17.9634 42.6704C21.6558 37.0162 27.5667 32.921 34.1804 31.4354C34.5148 31.3592 34.8474 31.569 34.923 31.9015C34.9986 32.2342 34.7888 32.5648 34.4542 32.6398C28.1539 34.0553 22.523 37.9563 19.0055 43.343C18.8184 43.629 18.434 43.7101 18.1462 43.5247Z" fill="#212121"/>
<path d="M12.8877 43.7166C12.5907 43.5458 12.4894 43.1681 12.6615 42.873C14.3798 39.9226 16.7687 37.2511 19.5697 35.1474C19.8435 34.9417 20.2327 34.9958 20.4397 35.2678C20.6465 35.5399 20.5921 35.9273 20.3186 36.1327C17.6486 38.138 15.3725 40.6828 13.7362 43.4917C13.5651 43.786 13.1853 43.8884 12.8877 43.7166Z" fill="#212121"/>
<path d="M135.97 26.8925C122.733 26.8925 112 37.5372 112 50.6715C112 61.2133 127.45 78.8931 133.542 85.4541C134.85 86.8611 137.089 86.8611 138.397 85.4541C144.489 78.8931 159.939 61.2133 159.939 50.6715C159.939 37.5372 149.206 26.8925 135.97 26.8925ZM135.97 61.9347C129.413 61.9347 124.098 56.6641 124.098 50.1594C124.098 43.6526 129.413 38.382 135.97 38.382C142.526 38.382 147.841 43.6526 147.841 50.1594C147.841 56.6641 142.526 61.9347 135.97 61.9347Z" fill="#FBBC05"/>
<path d="M159.555 47.9142C159.416 46.7337 159.185 45.5546 158.868 44.4104C158.835 44.2924 158.905 44.1705 159.024 44.138C159.144 44.1078 159.266 44.1752 159.298 44.2928C159.621 45.459 159.857 46.6598 159.998 47.8632C160.012 47.9847 159.925 48.0945 159.802 48.1088C159.673 48.1216 159.569 48.0306 159.555 47.9142ZM155.738 37.6161C151.316 31.0401 143.926 27.1139 135.97 27.1139C129.835 27.1139 124.012 29.4277 119.576 33.6285C119.486 33.7133 119.345 33.7098 119.261 33.6216C119.175 33.5329 119.179 33.3928 119.268 33.3085C123.788 29.0282 129.719 26.6712 135.97 26.6712C144.076 26.6712 151.605 30.6709 156.11 37.3705C156.178 37.4721 156.15 37.6096 156.048 37.6775C155.946 37.7449 155.807 37.7185 155.738 37.6161Z" fill="#212121"/>
<path fill-rule="evenodd" clip-rule="evenodd" d="M124 50.4626C124 43.8928 129.373 38.567 136 38.567C142.628 38.567 148 43.8928 148 50.4626C148 57.0327 142.628 62.3581 136 62.3581C129.373 62.3581 124 57.0327 124 50.4626Z" fill="white"/>
<path d="M176.981 86.646C168.708 86.646 162 93.2102 162 101.31C162 107.81 171.656 118.713 175.464 122.759C176.281 123.627 177.681 123.627 178.498 122.759C182.305 118.713 191.962 107.81 191.962 101.31C191.962 93.2102 185.254 86.646 176.981 86.646ZM176.981 108.255C172.883 108.255 169.561 105.005 169.561 100.994C169.561 96.9813 172.883 93.7311 176.981 93.7311C181.079 93.7311 184.401 96.9813 184.401 100.994C184.401 105.005 181.079 108.255 176.981 108.255Z" fill="#34A853"/>
<path d="M191.722 99.6093C191.635 98.8814 191.491 98.1542 191.293 97.4487C191.272 97.3759 191.316 97.3007 191.39 97.2807C191.465 97.262 191.541 97.3036 191.562 97.3762C191.764 98.0953 191.911 98.8358 191.999 99.5779C192.008 99.6528 191.953 99.7205 191.877 99.7293C191.796 99.7372 191.731 99.6811 191.722 99.6093ZM189.337 93.2588C186.573 89.2037 181.954 86.7825 176.981 86.7825C173.147 86.7825 169.508 88.2093 166.735 90.7998C166.679 90.8521 166.591 90.8499 166.538 90.7955C166.485 90.7409 166.487 90.6545 166.543 90.6025C169.368 87.9629 173.075 86.5094 176.981 86.5094C182.048 86.5094 186.753 88.9759 189.569 93.1074C189.612 93.17 189.594 93.2548 189.53 93.2967C189.466 93.3382 189.38 93.322 189.337 93.2588Z" fill="#212121"/>
<path fill-rule="evenodd" clip-rule="evenodd" d="M169.5 101.181C169.5 97.1295 172.858 93.8452 177 93.8452C181.142 93.8452 184.5 97.1295 184.5 101.181C184.5 105.232 181.142 108.516 177 108.516C172.858 108.516 169.5 105.232 169.5 101.181Z" fill="white"/>
<path d="M118.989 116.51C114.025 116.51 110 120.413 110 125.229C110 129.094 115.794 135.577 118.078 137.983C118.569 138.498 119.408 138.498 119.899 137.983C122.183 135.577 127.977 129.094 127.977 125.229C127.977 120.413 123.952 116.51 118.989 116.51ZM118.989 129.359C116.53 129.359 114.537 127.426 114.537 125.041C114.537 122.655 116.53 120.723 118.989 120.723C121.447 120.723 123.441 122.655 123.441 125.041C123.441 127.426 121.447 129.359 118.989 129.359Z" fill="#FBBC05"/>
<path d="M127.833 124.218C127.781 123.785 127.695 123.353 127.576 122.933C127.563 122.89 127.59 122.845 127.634 122.833C127.679 122.822 127.725 122.847 127.737 122.89C127.858 123.317 127.946 123.758 128 124.199C128.005 124.244 127.972 124.284 127.926 124.289C127.877 124.294 127.838 124.26 127.833 124.218ZM126.402 120.442C124.744 118.031 121.973 116.591 118.989 116.591C116.688 116.591 114.505 117.439 112.841 118.98C112.808 119.011 112.755 119.009 112.723 118.977C112.691 118.945 112.692 118.893 112.726 118.862C114.421 117.293 116.645 116.429 118.989 116.429C122.029 116.429 124.852 117.895 126.541 120.352C126.567 120.389 126.557 120.439 126.518 120.464C126.48 120.489 126.428 120.479 126.402 120.442Z" fill="#212121"/>
<path fill-rule="evenodd" clip-rule="evenodd" d="M114.5 125.152C114.5 122.743 116.515 120.79 119 120.79C121.485 120.79 123.5 122.743 123.5 125.152C123.5 127.561 121.485 129.514 119 129.514C116.515 129.514 114.5 127.561 114.5 125.152Z" fill="white"/>
</svg>
