<svg width="24" height="24" viewBox="0 0 24 24" fill="none" xmlns="http://www.w3.org/2000/svg">
    <path fill-rule="evenodd" clip-rule="evenodd"
        d="M6 10.5778C6 6.99988 8.63502 4 12 4C15.365 4 18 6.99988 18 10.5778C18 12.413 17.2461 14.0178 16.2307 15.4763C15.3845 16.6917 14.3012 17.8795 13.2292 19.0549C13.027 19.2767 12.8251 19.4981 12.6253 19.7191C12.4633 19.8983 12.2369 20 12 20C11.7631 20 11.5367 19.8983 11.3747 19.7191C11.1749 19.4981 10.973 19.2767 10.7708 19.0549C9.69882 17.8795 8.6155 16.6917 7.76934 15.4763C6.75394 14.0178 6 12.413 6 10.5778ZM12 8C10.8954 8 10 8.89544 10 10C10 11.1046 10.8954 12 12 12C13.1046 12 14 11.1046 14 10C14 8.89544 13.1046 8 12 8Z"
        fill="#1679AB" />
</svg>
