<svg width="24" height="24" viewBox="0 0 24 24" fill="none" xmlns="http://www.w3.org/2000/svg">
<path fill-rule="evenodd" clip-rule="evenodd" d="M6 10.5778C6 6.99988 8.63502 4 12 4C15.365 4 18 6.99988 18 10.5778C18 12.413 17.2461 14.0178 16.2307 15.4763C15.3845 16.6917 14.3012 17.8795 13.2292 19.0549C13.027 19.2767 12.8251 19.4981 12.6253 19.7191C12.4633 19.8983 12.2369 20 12 20C11.7631 20 11.5367 19.8983 11.3747 19.7191C11.1749 19.4981 10.973 19.2767 10.7708 19.0549C9.69882 17.8795 8.6155 16.6917 7.76934 15.4763C6.75394 14.0178 6 12.413 6 10.5778ZM12 5.77778C9.68434 5.77778 7.71429 7.8719 7.71429 10.5778C7.71429 11.8844 8.24606 13.124 9.15923 14.4356C9.9328 15.5468 10.9227 16.6329 11.996 17.8107C11.9973 17.8122 11.9987 17.8136 12 17.8151C12.0013 17.8136 12.0027 17.8122 12.004 17.8107C13.0773 16.6329 14.0672 15.5468 14.8408 14.4356C15.7539 13.124 16.2857 11.8844 16.2857 10.5778C16.2857 7.8719 14.3157 5.77778 12 5.77778Z" fill="black" fill-opacity="0.87"/>
<path fill-rule="evenodd" clip-rule="evenodd" d="M10 10C10 8.89544 10.8954 8 12 8C13.1046 8 14 8.89544 14 10C14 11.1046 13.1046 12 12 12C10.8954 12 10 11.1046 10 10Z" fill="black" fill-opacity="0.87"/>
</svg>
