<svg width="24" height="24" viewBox="0 0 24 24" fill="none" xmlns="http://www.w3.org/2000/svg">
    <path fill-rule="evenodd" clip-rule="evenodd"
        d="M18.7071 5.29289C18.3166 4.90237 17.6834 4.90237 17.2929 5.29289L5.29289 17.2929C4.90237 17.6834 4.90237 18.3166 5.29289 18.7071C5.68342 19.0976 6.31658 19.0976 6.70711 18.7071L18.7071 6.70711C19.0976 6.31658 19.0976 5.68342 18.7071 5.29289Z"
        fill="black" />
    <path fill-rule="evenodd" clip-rule="evenodd"
        d="M7.11461 14.1783C7.06738 14.2255 6.98802 14.2141 6.95681 14.155C6.37698 13.058 6 11.8755 6 10.5778C6 6.99988 8.63502 4 12 4C13.4192 4 14.7085 4.5336 15.7251 5.41912C15.7683 5.45673 15.77 5.52295 15.7295 5.56344L14.5616 6.73132C13.8404 6.12966 12.9492 5.77778 12 5.77778C9.68433 5.77778 7.71429 7.8719 7.71429 10.5778C7.71429 11.3965 7.92308 12.1889 8.30366 12.9892L7.11461 14.1783Z"
        fill="black" />
    <path
        d="M11.3747 19.7191C11.1749 19.4981 10.973 19.2767 10.7708 19.0549C10.0599 18.2754 9.34396 17.4904 8.69555 16.6956L9.94598 15.4763C10.5613 16.2364 11.259 17.002 11.996 17.8107L12 17.8151L12.004 17.8107C13.0773 16.6329 14.0672 15.5468 14.8408 14.4356C15.7539 13.124 16.2857 11.8844 16.2857 10.5778C16.2857 10.1258 16.2308 9.69092 16.1284 9.27999L17.4862 7.91467C17.8171 8.73274 18 9.6352 18 10.5778C18 12.413 17.2461 14.0178 16.2307 15.4763C15.3845 16.6917 14.3012 17.8795 13.2292 19.0549L13.2281 19.0561C13.0262 19.2775 12.8247 19.4985 12.6253 19.7191C12.4633 19.8983 12.2369 20 12 20C11.7631 20 11.5367 19.8983 11.3747 19.7191Z"
        fill="black" fill-opacity="0.87" />
    <path fill-rule="evenodd" clip-rule="evenodd"
        d="M10.3681 10.9248C10.3219 10.971 10.2445 10.9612 10.2149 10.9029C10.0775 10.6317 9.99999 10.3249 9.99999 10C9.99999 8.89544 10.8954 8 12 8C12.3249 8 12.6317 8.07746 12.9029 8.21493C12.9612 8.24447 12.971 8.32191 12.9248 8.36811L10.3681 10.9248Z"
        fill="black" />
</svg>
