<svg width="24" height="24" viewBox="0 0 24 24" fill="none" xmlns="http://www.w3.org/2000/svg">
<path fill-rule="evenodd" clip-rule="evenodd" d="M4 6C4 5.44772 4.44772 5 5 5H19C19.5523 5 20 5.44772 20 6V18C20 18.3688 19.797 18.7077 19.4719 18.8817C19.1467 19.0557 18.7522 19.0366 18.4453 18.8321L15.6972 17H5C4.44772 17 4 16.5523 4 16V6ZM6 7V15H16C16.1974 15 16.3904 15.0584 16.5547 15.1679L18 16.1315V7H6Z" fill="black" fill-opacity="0.87"/>
<path d="M10 11C10 11.5523 9.55228 12 9 12C8.44772 12 8 11.5523 8 11C8 10.4477 8.44772 10 9 10C9.55228 10 10 10.4477 10 11Z" fill="black" fill-opacity="0.87"/>
<path d="M13 11C13 11.5523 12.5523 12 12 12C11.4477 12 11 11.5523 11 11C11 10.4477 11.4477 10 12 10C12.5523 10 13 10.4477 13 11Z" fill="black" fill-opacity="0.87"/>
<path d="M16 11C16 11.5523 15.5523 12 15 12C14.4477 12 14 11.5523 14 11C14 10.4477 14.4477 10 15 10C15.5523 10 16 10.4477 16 11Z" fill="black" fill-opacity="0.87"/>
</svg>
