<svg width="164" height="164" viewBox="0 0 164 164" fill="none" xmlns="http://www.w3.org/2000/svg">
    <path
        d="M82.4074 149.815C119.724 149.815 149.815 119.56 149.815 82.4074C149.815 61.0266 139.851 41.9629 124.326 29.619C112.825 20.4663 98.2587 15 82.4074 15C66.5667 15 52.0004 20.4663 40.499 29.619C35.5172 33.5686 31.0935 38.2345 27.3967 43.4375C19.5922 54.4438 15 67.8937 15 82.4074C15 119.75 45.2839 149.815 82.4074 149.815ZM23.0398 135.626C24.6611 134.891 26.5807 135.632 27.3149 137.253C28.0491 138.875 27.3301 140.784 25.7088 141.519C24.0877 142.253 22.156 141.544 21.4218 139.922C20.6876 138.301 21.4187 136.36 23.0398 135.626ZM16.6979 130.862C17.7298 130.394 18.9516 130.866 19.4189 131.898C19.8862 132.93 19.4285 134.145 18.3966 134.613C17.3648 135.08 16.1354 134.628 15.6681 133.597C15.2007 132.565 15.6661 131.329 16.6979 130.862ZM141.218 22.8C142.569 21.6406 144.619 21.8136 145.778 23.1638C146.938 24.514 146.783 26.5488 145.433 27.7083C144.083 28.8676 142.029 28.7284 140.87 27.3783C139.711 26.0281 139.868 23.9594 141.218 22.8ZM133.795 20.0058C134.654 19.2678 135.959 19.3779 136.697 20.2373C137.435 21.0966 137.337 22.3918 136.477 23.1297C135.618 23.8676 134.311 23.779 133.573 22.9197C132.835 22.0603 132.936 20.7437 133.795 20.0058Z"
        fill="black" fill-opacity="0.10" />
    <path
        d="M112.19 87.7588C115.386 90.8572 115.465 95.9601 112.366 99.156C109.268 102.352 104.165 102.431 100.969 99.3317C100.72 99.0907 100.447 98.8497 100.149 98.6111C98.8466 97.5641 97.1426 96.5985 95.1268 95.7989C91.4787 94.3521 87.0681 93.5453 82.3989 93.5453C75.0322 93.5453 68.4317 95.5692 64.6484 98.6111C64.3512 98.8497 64.078 99.0907 63.8291 99.3317C60.6334 102.431 55.5305 102.352 52.4317 99.156C49.3328 95.9601 49.4114 90.8572 52.6072 87.7588C53.219 87.1656 53.8669 86.5949 54.5485 86.0468C61.3957 80.5425 71.5609 77.4248 82.3989 77.4248C89.0622 77.4248 95.4879 78.6008 101.069 80.8133C104.529 82.186 107.635 83.9455 110.249 86.0468C110.931 86.5949 111.579 87.1656 112.19 87.7588Z"
        fill="#909090" fill-opacity="0.4" />
    <path
        d="M132.386 66.8557C135.509 70.0288 135.467 75.1321 132.294 78.2545C129.12 81.3762 124.017 81.3343 120.896 78.161C120.119 77.3717 119.279 76.6027 118.38 75.858C117.468 75.1033 116.498 74.3751 115.471 73.6763C114.434 72.9702 113.34 72.2955 112.195 71.656C111.042 71.0107 109.837 70.4018 108.587 69.8323C107.329 69.2593 106.026 68.7269 104.683 68.2374C103.335 67.7459 101.948 67.2986 100.527 66.8976C99.1016 66.4958 97.6451 66.1409 96.1613 65.8351C94.6782 65.5292 93.1685 65.2727 91.6379 65.0665C90.1121 64.8612 88.5661 64.7062 87.004 64.6029C85.4524 64.5001 83.8863 64.4481 82.3098 64.4481C80.7334 64.4481 79.1675 64.5001 77.6155 64.6029C76.0538 64.7062 74.5077 64.8612 72.9813 65.0665C71.4508 65.2727 69.9415 65.5292 68.4578 65.8351C66.974 66.1409 65.5175 66.4958 64.093 66.8976C62.6722 67.2986 61.2848 67.7459 59.9358 68.2374C58.5933 68.7269 57.2906 69.2593 56.0324 69.8323C54.7823 70.4018 53.5779 71.0107 52.4238 71.656C51.2793 72.2955 50.1861 72.9702 49.1484 73.6763C48.1217 74.3751 47.1508 75.1033 46.2398 75.858C45.3405 76.6027 44.501 77.3717 43.7242 78.161C40.6021 81.3343 35.499 81.3762 32.3256 78.2545C29.1523 75.1321 29.1108 70.0288 32.2327 66.8557C33.3975 65.6718 34.6407 64.5329 35.9574 63.4426C37.2621 62.3619 38.638 61.3296 40.0798 60.3487C41.5105 59.375 43.0048 58.4529 44.5574 57.5848C46.1004 56.7224 47.6997 55.9139 49.3499 55.1623C50.9913 54.4145 52.682 53.7236 54.4161 53.0916C56.1426 52.4623 57.911 51.8921 59.7155 51.3829C61.5119 50.8761 63.343 50.4299 65.2033 50.0465C67.0534 49.6652 68.9308 49.346 70.8308 49.0901C72.7181 48.8362 74.6261 48.6448 76.5503 48.5175C78.457 48.3913 80.3781 48.3276 82.3098 48.3276C84.241 48.3276 86.1625 48.3913 88.0688 48.5175C89.9936 48.6448 91.9014 48.8362 93.7883 49.0901C95.6889 49.346 97.5662 49.6652 99.416 50.0465C101.276 50.4299 103.108 50.8761 104.904 51.3829C106.709 51.8921 108.476 52.4623 110.204 53.0916C111.938 53.7236 113.628 54.4145 115.27 55.1623C116.92 55.9139 118.519 56.7224 120.062 57.5848C121.615 58.4529 123.109 59.375 124.54 60.3487C125.982 61.3296 127.358 62.3619 128.663 63.4426C129.979 64.5329 131.222 65.6718 132.386 66.8557Z"
        fill="#909090" fill-opacity="0.4" />
    <path
        d="M94.5822 115.71C94.5822 122.388 89.1693 127.801 82.4919 127.801C75.8146 127.801 70.4016 122.388 70.4016 115.71C70.4016 109.033 75.8146 103.62 82.4919 103.62C89.1693 103.62 94.5822 109.033 94.5822 115.71Z"
        fill="#909090" fill-opacity="0.4" />
    <path fill-rule="evenodd" clip-rule="evenodd"
        d="M69.7627 47.8635L72.9283 54.7639C73.7845 56.6287 73.5559 58.8119 72.3337 60.4597C71.1114 62.1076 69.0886 62.9596 67.0561 62.682L38.6548 58.8031C39.5376 58.1712 40.4502 57.5626 41.3897 56.9787C42.8289 56.0846 44.3318 55.2477 45.8933 54.4711C47.4422 53.7001 49.0481 52.9882 50.7031 52.339C52.3486 51.693 54.0424 51.1086 55.7791 50.5869C57.5071 50.0676 59.276 49.6117 61.0791 49.221C62.8747 48.831 64.7046 48.5053 66.5614 48.2447C67.6201 48.096 68.6877 47.9696 69.7627 47.8635Z"
        fill="black" fill-opacity="0.4" />
    <path fill-rule="evenodd" clip-rule="evenodd"
        d="M49.2973 23.9577C50.6285 22.3825 52.6731 21.5968 54.7179 21.8761C56.7614 22.1552 58.5205 23.4603 59.3805 25.3348C62.7732 32.7292 67.6626 43.3859 71.2225 51.1448C72.1395 53.1436 71.8952 55.4837 70.5848 57.2501C69.2757 59.0157 67.1063 59.9289 64.9284 59.6315C56.0679 58.4214 43.6166 56.7209 34.7573 55.5109C32.5782 55.2133 30.7344 53.7519 29.9455 51.6998C29.1567 49.6467 29.5487 47.3268 30.9682 45.6471C36.4782 39.1269 44.0461 30.1716 49.2973 23.9577Z"
        fill="#909090" />
    <path fill-rule="evenodd" clip-rule="evenodd"
        d="M55.9474 31.3015C56.0369 30.6463 55.8623 29.9817 55.4627 29.4547C55.0621 28.9284 54.4695 28.5821 53.8143 28.4926C53.8135 28.4925 53.8134 28.4925 53.8134 28.4925C53.1582 28.403 52.4945 28.5777 51.9675 28.9773C51.4412 29.3779 51.0947 29.9713 51.0052 30.6265C50.5853 33.701 49.8725 38.9206 49.4526 41.9951C49.3631 42.6502 49.5378 43.3149 49.9375 43.841C50.3379 44.3682 50.9305 44.7145 51.5857 44.804C51.5857 44.804 51.5857 44.804 51.5866 44.8041C52.2418 44.8936 52.9055 44.7188 53.4327 44.3184C53.9588 43.9187 54.3053 43.3252 54.3948 42.67C54.8147 39.5956 55.5275 34.376 55.9474 31.3015Z"
        fill="white" />
    <path
        d="M50.5417 52.4509C52.1297 52.6678 53.5929 51.5563 53.8098 49.9682C54.0267 48.3802 52.9152 46.917 51.3271 46.7001C49.739 46.4832 48.2758 47.5947 48.059 49.1828C47.8421 50.7709 48.9536 52.2341 50.5417 52.4509Z"
        fill="white" />
    <path fill-rule="evenodd" clip-rule="evenodd"
        d="M108.44 36.0446L116.631 18.7251C117.036 17.869 116.67 16.8451 115.814 16.4402C114.957 16.0352 113.934 16.4016 113.529 17.2578L105.338 34.5773C104.933 35.4334 105.299 36.4573 106.155 36.8622C107.012 37.2672 108.035 36.9008 108.44 36.0446Z"
        fill="#909090" fill-opacity="0.4" />
    <path fill-rule="evenodd" clip-rule="evenodd"
        d="M95.8797 32.5451L96.8601 22.4121C96.9514 21.4694 96.26 20.6299 95.3173 20.5388C94.3746 20.4475 93.5351 21.1388 93.4439 22.0816L92.4636 32.2146C92.3723 33.1573 93.0636 33.9968 94.0064 34.0879C94.9491 34.1792 95.7886 33.4878 95.8797 32.5451Z"
        fill="#909090" fill-opacity="0.4" />
    <path fill-rule="evenodd" clip-rule="evenodd"
        d="M119.234 44.8741L126.445 37.6876C127.116 37.019 127.118 35.9315 126.449 35.2607C125.781 34.5898 124.693 34.588 124.022 35.2566L116.812 42.4431C116.141 43.1117 116.139 44.1992 116.808 44.87C117.476 45.5409 118.564 45.5427 119.234 44.8741Z"
        fill="#909090" fill-opacity="0.4" />
</svg>
