<?xml version="1.0" encoding="UTF-8"?>
<svg version="1.1" xmlns="http://www.w3.org/2000/svg" width="3200" height="3200">
<path d="M0 0 C19.9453222 16.81552842 34.46653764 39.61607925 37.5625 65.875 C38.88369946 83.10356554 36.63455076 98.04205248 30.265625 114.03515625 C29.56487099 115.80683418 29.56487099 115.80683418 28.84996033 117.61430359 C19.09272436 142.24115718 9.1358697 166.78976628 -0.76489258 191.35913086 C-14.02653708 224.21862223 -14.02653708 224.21862223 -26.91879272 257.22390747 C-33.81898481 275.15289376 -41.07530004 292.94250753 -48.25808716 310.75958252 C-53.04324002 322.63003467 -57.81921158 334.50418147 -62.59375 346.37890625 C-63.33112994 348.21273487 -63.33112994 348.21273487 -64.08340645 350.08361053 C-74.78377438 376.69794814 -85.40088686 403.34520685 -96 430 C-99.58427751 439.0131632 -103.16878881 448.02623335 -106.75390625 457.0390625 C-107.19657396 458.15195208 -107.63924168 459.26484165 -108.09532356 460.41145515 C-118.60745893 486.83680376 -129.17517549 513.23985427 -139.74546051 539.64198303 C-149.89324576 564.98933956 -160.02988498 590.34099473 -170.12109375 615.7109375 C-170.56379734 616.82389442 -171.00650093 617.93685135 -171.46261978 619.08353424 C-173.70281603 624.71560459 -175.94276429 630.34777356 -178.18261719 635.97998047 C-193.80035001 675.25110549 -209.49502802 714.49016677 -225.27435303 753.69664383 C-239.54854078 789.16430902 -253.74468609 824.66226844 -267.875 860.1875 C-268.33127777 861.3346347 -268.78755554 862.48176941 -269.25765991 863.66366577 C-271.52204569 869.35674791 -273.78630164 875.04988169 -276.05056763 880.74301147 C-276.48703739 881.84043041 -276.92350716 882.93784935 -277.37320328 884.06852341 C-278.24361708 886.25703346 -279.11400657 888.44555318 -279.98437119 890.63408279 C-287.71149086 910.06304103 -295.46925017 929.47957663 -303.24440765 948.88935089 C-310.91768905 968.04551002 -318.56558056 987.21161409 -326.19140625 1006.38671875 C-327.06953528 1008.59462139 -327.94766845 1010.80252237 -328.82580566 1013.01042175 C-329.26673176 1014.1190561 -329.70765785 1015.22769045 -330.16194534 1016.36991978 C-332.44123598 1022.10080408 -334.72055866 1027.83167564 -337 1033.5625 C-337.45480492 1034.70595257 -337.90960983 1035.84940514 -338.37819672 1037.02750778 C-352.6981615 1073.02774547 -367.09886465 1108.99475836 -381.5625 1144.9375 C-394.07774701 1176.04003426 -406.56422409 1207.15318467 -418.9375 1238.3125 C-419.26283218 1239.13169544 -419.58816437 1239.95089088 -419.9233551 1240.79491043 C-422.93503051 1248.37854323 -425.94581095 1255.96253113 -428.95581055 1263.54682922 C-438.06313652 1286.49415371 -447.18427122 1309.43598296 -456.3125 1332.375 C-456.99049652 1334.07890963 -456.99049652 1334.07890963 -457.68218994 1335.81724167 C-472.13597669 1372.13972967 -486.67707052 1408.42642985 -501.27253342 1444.69219589 C-515.54722207 1480.16138683 -529.74409373 1515.66077918 -543.875 1551.1875 C-544.55941666 1552.90820206 -544.55941666 1552.90820206 -545.25765991 1554.66366577 C-547.52204569 1560.35674791 -549.78630164 1566.04988169 -552.05056763 1571.74301147 C-552.48703739 1572.84043041 -552.92350716 1573.93784935 -553.37320328 1575.06852341 C-554.24361708 1577.25703346 -555.11400657 1579.44555318 -555.98437119 1581.63408279 C-563.71149086 1601.06304103 -571.46925017 1620.47957663 -579.24440765 1639.88935089 C-586.91768905 1659.04551002 -594.56558056 1678.21161409 -602.19140625 1697.38671875 C-603.06953528 1699.59462139 -603.94766845 1701.80252237 -604.82580566 1704.01042175 C-605.26673176 1705.1190561 -605.70765785 1706.22769045 -606.16194534 1707.36991978 C-608.44123598 1713.10080408 -610.72055866 1718.83167564 -613 1724.5625 C-613.45480492 1725.70595257 -613.90960983 1726.84940514 -614.37819672 1728.02750778 C-628.6981615 1764.02774547 -643.09886465 1799.99475836 -657.5625 1835.9375 C-670.07774701 1867.04003426 -682.56422409 1898.15318467 -694.9375 1929.3125 C-695.26283218 1930.13169544 -695.58816437 1930.95089088 -695.9233551 1931.79491043 C-698.93503051 1939.37854323 -701.94581095 1946.96253113 -704.95581055 1954.54682922 C-714.06313652 1977.49415371 -723.18427122 2000.43598296 -732.3125 2023.375 C-732.76449768 2024.51093975 -733.21649536 2025.6468795 -733.68218994 2026.81724167 C-748.13508778 2063.13749582 -762.67513494 2099.42202753 -777.2698555 2135.6855011 C-791.67129131 2171.4690738 -805.993044 2207.28361566 -820.25 2243.125 C-820.71141388 2244.28497498 -821.17282776 2245.44494995 -821.64822388 2246.64007568 C-825.22104686 2255.62230949 -828.79359124 2264.60465416 -832.36561966 2273.58720398 C-839.09353957 2290.50560344 -845.84266326 2307.41528978 -852.61602783 2324.31555176 C-859.12718003 2340.56499855 -865.60486362 2356.82762561 -872.07421875 2373.09375 C-882.73238154 2399.89179147 -893.40088945 2426.68569234 -904.08187103 2453.47464752 C-905.42016923 2456.83152887 -906.75812463 2460.18854668 -908.0960083 2463.54559326 C-912.64226079 2474.95183901 -917.19398809 2486.3558564 -921.7605505 2497.75398827 C-923.64708964 2502.46282514 -925.53127629 2507.17256326 -927.40878296 2511.88500977 C-929.14639922 2516.24593582 -930.89141711 2520.60382551 -932.64217949 2524.95948982 C-933.27218031 2526.53033298 -933.89963662 2528.1021998 -934.52415657 2529.67523003 C-939.31185599 2541.72719009 -944.36631893 2553.85180878 -952.625 2564 C-953.0885791 2564.57637207 -953.5521582 2565.15274414 -954.02978516 2565.74658203 C-970.47146646 2585.68906994 -994.19531497 2598.4212472 -1019.859375 2601.55859375 C-1046.47367822 2603.91204196 -1074.85943917 2597.83795319 -1095.89477539 2580.67529297 C-1098.4723147 2578.47244207 -1100.95766726 2576.18761303 -1103.4375 2573.875 C-1104.09878906 2573.30523438 -1104.76007813 2572.73546875 -1105.44140625 2572.1484375 C-1122.25240816 2556.93662602 -1129.06891074 2533.77007063 -1131.73583984 2512.09301758 C-1131.94189948 2510.48971562 -1132.14899898 2508.88654704 -1132.35701561 2507.28349781 C-1132.81471484 2503.7391156 -1133.26508314 2500.19389921 -1133.71025848 2496.64792252 C-1134.47102941 2490.59243925 -1135.25117794 2484.53952033 -1136.03253174 2478.48666382 C-1137.66532781 2465.81714228 -1139.2791219 2453.14523303 -1140.89011355 2440.47292301 C-1141.7794638 2433.47758783 -1142.67058661 2426.48247868 -1143.56174023 2419.48737305 C-1145.22903349 2406.39965616 -1146.89507193 2393.31177984 -1148.5604248 2380.22381592 C-1151.01404296 2360.94107396 -1153.4696211 2341.65858186 -1155.9256072 2322.37614137 C-1156.8248438 2315.31602788 -1157.72404807 2308.25591028 -1158.62325585 2301.19579312 C-1158.85172816 2299.4019492 -1159.08020143 2297.60810539 -1159.30867565 2295.8142617 C-1160.95015097 2282.92635885 -1162.59140239 2270.03842751 -1164.23249662 2257.15047613 C-1171.34009783 2201.33275208 -1178.45340175 2145.51575654 -1185.5703125 2089.69921875 C-1185.82884547 2087.67158453 -1186.08737839 2085.64395031 -1186.34591126 2083.61631608 C-1189.3628649 2059.95486188 -1192.37999731 2036.29343048 -1195.39721029 2012.63200935 C-1200.2226628 1974.7901036 -1205.04773172 1936.94814893 -1209.87280563 1899.1061949 C-1210.82597937 1891.63067804 -1211.77916338 1884.15516249 -1212.7323513 1876.67964745 C-1220.35845361 1816.87077225 -1227.98317508 1757.06172115 -1235.60686515 1697.25253843 C-1237.83416931 1679.77895402 -1240.06156119 1662.30538079 -1242.28903198 1644.83181763 C-1242.43419414 1643.69308062 -1242.5793563 1642.55434361 -1242.72891732 1641.38109942 C-1244.03767415 1631.11444861 -1245.34643595 1620.84779844 -1246.65521359 1610.58115029 C-1249.89209452 1585.18957864 -1253.12877112 1559.79798096 -1256.36492341 1534.40631643 C-1258.60228176 1516.85148655 -1260.83998597 1499.29670079 -1263.07802302 1481.74195743 C-1264.39980637 1471.37404721 -1265.72133713 1461.00610488 -1267.04244948 1450.63810913 C-1267.92847128 1443.68489452 -1268.81491017 1436.73173315 -1269.70158451 1429.77860172 C-1270.22765215 1425.65303133 -1270.75348184 1421.52743091 -1271.27874267 1417.40175772 C-1273.34533866 1401.16992081 -1275.42212543 1384.9396277 -1277.54774093 1368.71540098 C-1277.83912255 1366.49004662 -1278.12987072 1364.26461052 -1278.42036635 1362.03914034 C-1278.51397704 1361.32207624 -1278.60758772 1360.60501214 -1278.7040351 1359.86621883 C-1278.88970872 1358.44387252 -1279.07535649 1357.02152284 -1279.26097742 1355.59916965 C-1279.7044042 1352.20444008 -1280.14994087 1348.81001369 -1280.60035932 1345.41620421 C-1281.08599728 1341.75272981 -1281.56563864 1338.08851455 -1282.04414368 1334.42410278 C-1282.25824487 1332.83091937 -1282.25824487 1332.83091937 -1282.47667134 1331.20555043 C-1283.18859339 1325.70696293 -1283.58479035 1320.41953366 -1283.4375 1314.875 C-1284.03112001 1314.80605282 -1284.62474002 1314.73710564 -1285.23634851 1314.66606915 C-1302.6840094 1312.62951856 -1320.09450425 1310.35136282 -1337.50009716 1307.98547661 C-1341.3179165 1307.4669766 -1345.13604096 1306.95073183 -1348.95412445 1306.43418121 C-1355.60358748 1305.53426999 -1362.25286331 1304.63298646 -1368.90201187 1303.73075485 C-1378.72465755 1302.39791682 -1388.54760301 1301.06729831 -1398.37061213 1299.7371418 C-1414.80610978 1297.51151761 -1431.24137765 1295.28420113 -1447.67651367 1293.0559082 C-1471.29906466 1289.85315721 -1494.92195084 1286.65288322 -1518.54490632 1283.45311719 C-1527.95745465 1282.17816388 -1537.36999339 1280.90313976 -1546.78253174 1279.62811279 C-1547.82059976 1279.48749639 -1548.85866778 1279.34688 -1549.92819241 1279.2020025 C-1565.76310971 1277.0569993 -1581.59797154 1274.91158696 -1597.43280029 1272.76593018 C-1647.99363827 1265.91485586 -1698.55495599 1259.06734491 -1749.1171875 1252.2265625 C-1750.66122398 1252.01766122 -1752.20526045 1251.80875981 -1753.7492969 1251.59985828 C-1769.72262585 1249.43874222 -1785.69597668 1247.277788 -1801.66933968 1245.11692366 C-1831.33388484 1241.10392385 -1860.99830984 1237.09003599 -1890.66272426 1233.07606983 C-1894.54496745 1232.55075402 -1898.42721132 1232.02544322 -1902.30945536 1231.50013368 C-1957.12968916 1224.0823586 -2011.94965603 1216.66261209 -2066.76953125 1209.2421875 C-2068.78318516 1208.96961943 -2070.79683908 1208.69705136 -2072.81049299 1208.4244833 C-2112.13554442 1203.10144299 -2151.46057755 1197.77826751 -2190.78557837 1192.4548533 C-2199.88526593 1191.22303152 -2208.98495448 1189.99121701 -2218.08464622 1188.75942612 C-2218.97898215 1188.63836323 -2219.87331808 1188.51730033 -2220.79475509 1188.39256887 C-2224.39345667 1187.90542651 -2227.9921583 1187.41828461 -2231.59086017 1186.93114445 C-2241.34456188 1185.61082939 -2251.09826026 1184.29048971 -2260.85194778 1182.97006989 C-2271.37085317 1181.54605971 -2281.88976653 1180.12210838 -2292.40869141 1178.69824219 C-2293.27546699 1178.58091337 -2294.14224257 1178.46358454 -2295.03528407 1178.3427003 C-2321.4995209 1174.7604749 -2347.9640672 1171.18054147 -2374.42880842 1167.6020444 C-2381.44576336 1166.6532264 -2388.46270723 1165.7043266 -2395.47964382 1164.755373 C-2396.94761765 1164.55684898 -2396.94761765 1164.55684898 -2398.44524751 1164.35431436 C-2402.36635911 1163.82403567 -2406.28747065 1163.29375649 -2410.20858096 1162.76346828 C-2421.60223685 1161.22260515 -2432.99593747 1159.68207381 -2444.38971592 1158.14211723 C-2451.44266962 1157.18883236 -2458.49557346 1156.23517923 -2465.54843919 1155.28124371 C-2469.60831056 1154.73214079 -2473.66820544 1154.18321318 -2477.72816443 1153.63475847 C-2481.45859552 1153.13081845 -2485.18895989 1152.62638754 -2488.91927459 1152.12158675 C-2490.88840668 1151.85524294 -2492.85760837 1151.5894138 -2494.82681352 1151.32361066 C-2498.36425459 1150.84463516 -2501.90099326 1150.36082223 -2505.4375 1149.875 C-2507.3351951 1149.61717999 -2507.3351951 1149.61717999 -2509.27122748 1149.35415149 C-2510.51278676 1149.18220114 -2511.75434604 1149.01025079 -2513.03352833 1148.83308983 C-2514.70136378 1148.60385057 -2514.70136378 1148.60385057 -2516.40289289 1148.36998022 C-2520.63097641 1147.68032992 -2524.59224397 1146.54807921 -2528.625 1145.125 C-2529.38546631 1144.86259521 -2530.14593262 1144.60019043 -2530.92944336 1144.32983398 C-2540.94074624 1140.7643248 -2549.33356019 1135.72459087 -2557.4375 1128.875 C-2558.65759766 1127.87339844 -2558.65759766 1127.87339844 -2559.90234375 1126.8515625 C-2581.73004684 1108.21897773 -2590.37852486 1082.48771312 -2593.4375 1054.875 C-2594.77322297 1028.22266731 -2586.72203146 1003.32090291 -2568.99169922 983.23730469 C-2559.25165628 972.50363408 -2548.60734791 964.97496032 -2535.33178711 959.15551758 C-2534.55561255 958.81330327 -2533.779438 958.47108896 -2532.979743 958.11850452 C-2523.35268445 953.91280107 -2513.58530847 950.06039128 -2503.81640625 946.19921875 C-2501.71611451 945.36571479 -2499.6159755 944.5318259 -2497.51597595 943.69758606 C-2493.0279976 941.91531999 -2488.53922852 940.13506713 -2484.04980469 938.35644531 C-2472.50346533 933.78154519 -2460.96232661 929.1935464 -2449.42129278 924.60528231 C-2447.52778725 923.85253928 -2445.63423023 923.09992592 -2443.74066544 922.347332 C-2418.21197675 912.20027862 -2392.71978551 901.9632446 -2367.23633957 891.70312881 C-2329.21039896 876.39370064 -2291.14976077 861.17441014 -2253.05731201 846.03125 C-2218.32008403 832.22141574 -2183.61557019 818.33270295 -2148.9375 804.375 C-2112.01751171 789.51493927 -2075.06421613 774.74139918 -2038.08052063 760.04062271 C-2002.24914695 745.79777201 -1966.45652589 731.46118438 -1930.6875 717.0625 C-1903.62839892 706.16996249 -1876.57104609 695.28344368 -1849.39379883 684.68841553 C-1824.24925005 674.87766681 -1799.22541707 664.76641763 -1774.1875 654.6875 C-1737.30139354 639.83913911 -1700.38793326 625.06255495 -1663.4375 610.375 C-1627.57310978 596.11828166 -1591.74039962 581.78543964 -1555.9375 567.375 C-1519.00976627 552.51182177 -1482.04820912 537.73650254 -1445.05731201 523.03125 C-1410.32008403 509.22141574 -1375.61557019 495.33270295 -1340.9375 481.375 C-1304.00976627 466.51182177 -1267.04820912 451.73650254 -1230.05731201 437.03125 C-1195.32008403 423.22141574 -1160.61557019 409.33270295 -1125.9375 395.375 C-1089.01899862 380.51553774 -1052.06723248 365.74248594 -1015.08498383 351.04240799 C-988.53115217 340.48746051 -961.98775238 329.90777058 -935.4765625 319.24609375 C-934.2788195 318.76444889 -933.08107651 318.28280403 -931.84703827 317.78656387 C-920.30378867 313.14420945 -908.76194652 308.4983805 -897.22296524 303.84542656 C-891.99561385 301.73786784 -886.76758543 299.63199429 -881.5390625 297.52734375 C-880.02382366 296.91739878 -880.02382366 296.91739878 -878.47797394 296.29513168 C-862.49192622 289.86456702 -846.46028608 283.5563115 -830.40558815 277.29937172 C-818.78580877 272.76984353 -807.18767023 268.19815056 -795.64453125 263.4765625 C-782.6094331 258.14516152 -769.53668684 252.91246229 -756.44921875 247.7109375 C-755.41547749 247.29999596 -754.38173622 246.88905441 -753.31666946 246.4656601 C-747.87590085 244.30292581 -742.43484405 242.14091763 -736.99365234 239.97924805 C-697.27315808 224.19796373 -657.58672292 208.3345617 -617.9375 192.375 C-581.00991249 177.51146048 -544.04820743 162.73650186 -507.05731201 148.03125 C-472.32008403 134.22141574 -437.61557019 120.33270295 -402.9375 106.375 C-366.01943106 91.51571179 -329.06781095 76.74357795 -292.08632278 62.04285431 C-252.67859208 46.37730696 -213.31325766 30.60837025 -173.97725487 14.76356888 C-161.79168192 9.85518987 -149.60338251 4.9536869 -137.40938568 0.06626892 C-135.40090194 -0.73882405 -133.39254856 -1.54424229 -131.38431549 -2.34996033 C-125.37709911 -4.75975506 -119.36730809 -7.16291826 -113.35359383 -9.5564537 C-111.50511468 -10.29312933 -109.65742231 -11.0317829 -107.810606 -11.77261734 C-69.58695218 -27.09735866 -33.20177187 -25.91819228 0 0 Z M-254.77294922 263.13989258 C-255.64584091 263.49119987 -256.5187326 263.84250717 -257.41807556 264.20446014 C-260.36073689 265.389642 -263.30141469 266.579672 -266.2421875 267.76953125 C-268.33987424 268.61519615 -270.43770686 269.46049928 -272.53567505 270.3054657 C-277.06909108 272.13189853 -281.60173094 273.96023937 -286.13378906 275.79003906 C-297.76173565 280.48430918 -309.39458014 285.16642288 -321.02770329 289.84784651 C-322.94065033 290.61769313 -324.85354861 291.38766081 -326.76644135 292.15764236 C-352.51897305 302.52283254 -378.30690245 312.79826642 -404.10462189 323.05044174 C-441.08116191 337.74572305 -478.02556859 352.51818211 -514.9375 367.375 C-551.86523373 382.23817823 -588.82679088 397.01349746 -625.81768799 411.71875 C-660.55491597 425.52858426 -695.25942981 439.41729705 -729.9375 453.375 C-766.86523373 468.23817823 -803.82679088 483.01349746 -840.81768799 497.71875 C-875.55491597 511.52858426 -910.25942981 525.41729705 -944.9375 539.375 C-981.86523373 554.23817823 -1018.82679088 569.01349746 -1055.81768799 583.71875 C-1090.5549172 597.52858474 -1125.2593325 611.41753696 -1159.9375 625.375 C-1200.87341239 641.85071599 -1241.8522847 658.21591765 -1282.85546875 674.5234375 C-1287.32423304 676.30074532 -1291.79298076 678.0780948 -1296.26171875 679.85546875 C-1297.35053722 680.28850689 -1298.4393557 680.72154503 -1299.56116867 681.16770554 C-1320.19776059 689.3756842 -1340.8204656 697.61804133 -1361.4375 705.875 C-1383.1533111 714.57201001 -1404.87668305 723.24958605 -1426.61328125 731.89453125 C-1427.70789043 732.32989574 -1428.80249962 732.76526024 -1429.93027878 733.2138176 C-1434.43010756 735.00355032 -1438.9299594 736.79322506 -1443.42981911 738.58288002 C-1446.8698922 739.95105452 -1450.3099514 741.31926393 -1453.75 742.6875 C-1454.88857452 743.1403537 -1456.02714905 743.5932074 -1457.20022583 744.05978394 C-1493.58865226 758.53383779 -1529.94138945 773.09454066 -1566.27060318 787.71652603 C-1602.08749989 802.1319688 -1637.93975321 816.45594124 -1673.81768799 830.71875 C-1708.55491597 844.52858426 -1743.25942981 858.41729705 -1777.9375 872.375 C-1814.85705584 887.23488668 -1851.81020501 902.00750983 -1888.79314041 916.70893097 C-1927.92567241 932.2652422 -1967.01698791 947.92199213 -2006.07747459 963.65834427 C-2011.26875604 965.74964084 -2016.46041198 967.84000598 -2021.65234375 969.9296875 C-2022.65168316 970.3319178 -2023.65102257 970.7341481 -2024.68064499 971.1485672 C-2049.55962661 981.15801641 -2074.49637479 991.02161255 -2099.4375 1000.875 C-2099.4375 1001.205 -2099.4375 1001.535 -2099.4375 1001.875 C-2068.08858017 1006.42804291 -2036.70623314 1010.71516547 -2005.31070662 1014.93352713 C-1998.33374638 1015.87104444 -1991.35706575 1016.81063537 -1984.38039219 1017.7502832 C-1971.61464775 1019.46958036 -1958.84870486 1021.1873993 -1946.0826416 1022.90432739 C-1927.74293603 1025.37088292 -1909.40353358 1027.83968723 -1891.06419548 1030.30897336 C-1884.57836026 1031.18224851 -1878.09251932 1032.05548124 -1871.60667823 1032.92871287 C-1869.98540909 1033.14699517 -1868.36414007 1033.36527843 -1866.74287118 1033.58356265 C-1855.3818847 1035.11317717 -1844.02086154 1036.64251892 -1832.65980776 1038.17163349 C-1795.35454703 1043.1926498 -1758.04971256 1048.21679627 -1720.74609375 1053.25 C-1719.7054285 1053.39040931 -1718.66476324 1053.53081861 -1717.59256268 1053.67548275 C-1706.21429237 1055.21068039 -1694.83605056 1056.74608915 -1683.45782471 1058.28161621 C-1662.34306639 1061.1311159 -1641.22821271 1063.97990856 -1620.11328125 1066.828125 C-1619.00881684 1066.97710896 -1617.90435244 1067.12609293 -1616.76641941 1067.27959156 C-1572.97037054 1073.18726096 -1529.17333061 1079.08756708 -1485.37615968 1084.98691101 C-1477.02430946 1086.11188186 -1468.672466 1087.23690276 -1460.32062328 1088.36192924 C-1450.9608214 1089.62273181 -1441.60101655 1090.88351226 -1432.24121094 1092.14428711 C-1431.31007387 1092.26971238 -1430.37893681 1092.39513765 -1429.41958347 1092.52436368 C-1407.31510274 1095.5018587 -1385.21058277 1098.47906192 -1363.10597171 1101.45558923 C-1348.30674817 1103.44840424 -1333.50756545 1105.44152208 -1318.70843112 1107.43499953 C-1317.00602334 1107.66431756 -1315.30361554 1107.89363553 -1313.60120773 1108.12295341 C-1312.34198099 1108.29257448 -1312.34198099 1108.29257448 -1311.05731533 1108.46562223 C-1305.18274691 1109.25692511 -1299.30815364 1110.04804337 -1293.43355179 1110.83909798 C-1259.77552727 1115.37149405 -1226.11868015 1119.91215187 -1192.46693026 1124.49092884 C-1189.60489091 1124.88029773 -1186.74282511 1125.26947191 -1183.880757 1125.65862929 C-1180.41801836 1126.12946281 -1176.95529186 1126.60038552 -1173.49256897 1127.07133484 C-1172.82213817 1127.162515 -1172.15170737 1127.25369516 -1171.46096049 1127.34763836 C-1163.04129931 1128.49283839 -1154.62202379 1129.64083209 -1146.20310354 1130.79146719 C-1141.54338464 1131.42784919 -1136.88338601 1132.06216402 -1132.22331309 1132.69594789 C-1130.08790559 1132.98687418 -1127.95262725 1133.27875037 -1125.81748891 1133.5716455 C-1122.93521201 1133.96697331 -1120.0525163 1134.35909181 -1117.16969299 1134.75041199 C-1116.33310447 1134.86600867 -1115.49651595 1134.98160535 -1114.63457626 1135.10070497 C-1111.18963729 1135.5653363 -1107.92109205 1135.875 -1104.4375 1135.875 C-1104.38795941 1136.70115208 -1104.33841882 1137.52730417 -1104.287377 1138.37849116 C-1103.68992601 1147.56210071 -1102.67641103 1156.65251863 -1101.48544312 1165.7756958 C-1101.28427348 1167.33974571 -1101.08345197 1168.90384042 -1100.88294327 1170.4679752 C-1100.33367456 1174.74481748 -1099.77950503 1179.02101218 -1099.22449815 1183.29711308 C-1098.62084469 1187.95493169 -1098.02182196 1192.61334621 -1097.42220306 1197.2716856 C-1096.37232454 1205.42302217 -1095.31951625 1213.57397611 -1094.26476669 1221.72468376 C-1092.6992867 1233.82222731 -1091.13836247 1245.9203556 -1089.57837309 1258.01860823 C-1086.95897124 1278.33195644 -1084.33589142 1298.6448281 -1081.71069336 1318.95742798 C-1079.11106813 1339.07224634 -1076.51306855 1359.18727357 -1073.91723633 1379.30258179 C-1073.67493235 1381.18020381 -1073.67493235 1381.18020381 -1073.42773333 1383.09575758 C-1072.60787512 1389.44893542 -1071.78804642 1395.80211706 -1070.96822977 1402.15530026 C-1065.29304407 1446.13487537 -1059.61445226 1490.11400998 -1053.93370038 1534.09286638 C-1048.43957932 1576.62689096 -1042.94731556 1619.16115468 -1037.45800781 1661.69580078 C-1037.29578213 1662.95282556 -1037.13355645 1664.20985033 -1036.96641484 1665.50496677 C-1035.50393628 1676.83718748 -1034.04148938 1688.16941228 -1032.57907593 1699.50164139 C-1022.58045291 1776.98088032 -1012.58028865 1854.45992047 -1002.57489496 1931.93828537 C-1001.68809031 1938.80549682 -1000.80142453 1945.67272619 -999.91482925 1952.53996468 C-993.44470319 2002.65455019 -986.95307944 2052.76630308 -980.4375 2102.875 C-978.878863 2100.53704451 -977.87807058 2098.72943918 -976.85389709 2096.17884827 C-976.55158928 2095.43075929 -976.24928146 2094.68267031 -975.93781281 2093.91191196 C-975.446646 2092.68139811 -975.446646 2092.68139811 -974.94555664 2091.42602539 C-974.59395729 2090.55298484 -974.24235794 2089.67994429 -973.88010406 2088.78044796 C-972.69929298 2085.84584335 -971.52345947 2082.90927059 -970.34765625 2079.97265625 C-969.50546447 2077.87619713 -968.6630051 2075.77984548 -967.82029724 2073.68359375 C-965.52446001 2067.96972709 -963.23320585 2062.2540327 -960.94296265 2056.53792191 C-959.49519355 2052.92550713 -958.04615926 2049.31360254 -956.59667969 2045.70187378 C-935.09984732 1992.13693256 -913.75923892 1938.50983618 -892.4375 1884.875 C-885.2732076 1866.85322182 -878.1073889 1848.83205248 -870.9375 1830.8125 C-870.4940625 1829.6979607 -870.050625 1828.5834214 -869.59375 1827.43510818 C-855.33732872 1791.60476855 -840.99121995 1755.81118035 -826.59419632 1720.03712845 C-812.61595119 1685.30316887 -798.7111054 1650.54082541 -784.875 1615.75 C-784.43070648 1614.63282593 -783.98641296 1613.51565186 -783.52865601 1612.36462402 C-782.63146066 1610.10860703 -781.73426866 1607.85258871 -780.83708 1605.59656906 C-778.59861038 1599.96794865 -776.35994366 1594.33940666 -774.12109375 1588.7109375 C-773.67860165 1587.59848412 -773.23610954 1586.48603073 -772.78020859 1585.33986664 C-762.2678929 1558.91407862 -751.70000104 1532.51058666 -741.12953949 1506.10801697 C-730.9817542 1480.76066033 -720.84515281 1455.40899031 -710.75390625 1430.0390625 C-710.31068338 1428.92481777 -709.86746052 1427.81057304 -709.41080666 1426.66256332 C-705.82831593 1417.65600364 -702.2464017 1408.64921466 -698.664814 1399.64229584 C-688.08846657 1373.04599562 -677.48358327 1346.4615642 -666.8046875 1319.90625 C-666.32315908 1318.70873989 -665.84163067 1317.51122978 -665.34551048 1316.27743149 C-660.70439582 1304.73665149 -656.06001499 1293.19719539 -651.40810394 1281.66076279 C-642.98538488 1260.77016326 -634.61654849 1239.86234776 -626.4375 1218.875 C-617.83612837 1196.80397574 -609.02071887 1174.82216615 -600.16207886 1152.85333252 C-595.4682736 1141.21231772 -590.7843408 1129.56732911 -586.1015625 1117.921875 C-585.61991323 1116.72416599 -585.13826397 1115.52645699 -584.64201927 1114.29245377 C-573.82394301 1087.38646202 -563.09126729 1060.44667094 -552.375 1033.5 C-551.46681179 1031.21644912 -550.55861884 1028.93290013 -549.65042114 1026.64935303 C-548.9774092 1024.95713466 -548.9774092 1024.95713466 -548.29080105 1023.23073006 C-546.05723828 1017.61472187 -543.82357866 1011.99875222 -541.58984375 1006.3828125 C-540.93723792 1004.74196749 -540.93723792 1004.74196749 -540.27144814 1003.06797409 C-531.35093781 980.64067965 -522.38867066 958.23021478 -513.41585541 935.82380676 C-504.68227532 914.01419342 -495.96749245 892.19725811 -487.28515625 870.3671875 C-486.84832394 869.26890877 -486.41149162 868.17063004 -485.96142197 867.03907013 C-484.17131263 862.53834838 -482.38127811 858.03759688 -480.59127998 853.5368309 C-464.78184907 813.785751 -448.90962187 774.06100376 -432.9375 734.375 C-418.51082806 698.52866143 -404.15432382 662.65529614 -389.875 626.75 C-389.43070648 625.63282593 -388.98641296 624.51565186 -388.52865601 623.36462402 C-387.63146066 621.10860703 -386.73426866 618.85258871 -385.83708 616.59656906 C-383.59861038 610.96794865 -381.35994366 605.33940666 -379.12109375 599.7109375 C-378.67860165 598.59848412 -378.23610954 597.48603073 -377.78020859 596.33986664 C-367.26848519 569.9155675 -356.70120188 543.51355783 -346.13132477 517.11248016 C-335.93602053 491.64646783 -325.75253908 466.17588768 -315.61328125 440.6875 C-314.93943421 438.99366338 -314.93943421 438.99366338 -314.25197411 437.26560783 C-310.19386044 427.06447822 -306.13652601 416.86303891 -302.0809021 406.66091919 C-292.12817096 381.62599048 -282.13806411 356.60686968 -272.0625 331.62109375 C-271.13687886 329.32472442 -270.21127545 327.02834795 -269.28569031 324.73196411 C-265.31886722 314.89219476 -261.34899942 305.05369572 -257.36619759 295.22038174 C-255.76660103 291.26847559 -254.17102183 287.31495616 -252.57640076 283.36104012 C-251.83677243 281.52995993 -251.0952696 279.69963567 -250.35179138 277.87011528 C-249.34158166 275.38393986 -248.33764536 272.89532194 -247.33520508 270.40600586 C-246.88935546 269.31574978 -246.88935546 269.31574978 -246.43449879 268.20346832 C-245.25859369 265.26727477 -244.4375 263.06989091 -244.4375 259.875 C-248.07327174 259.875 -251.43621856 261.78470834 -254.77294922 263.13989258 Z " fill="#2F3032" transform="translate(2883.4375,301.125)"/>
</svg>
