<svg width="24" height="24" viewBox="0 0 24 24" fill="none" xmlns="http://www.w3.org/2000/svg">
    <path fill-rule="evenodd" clip-rule="evenodd"
        d="M12 5.82278C9.63675 5.82278 7.83051 7.58873 7.83051 9.63713C7.83051 11.4116 9.18595 12.9741 11.0847 13.3603V12.0027C11.0847 12.001 11.0847 11.9994 11.0847 11.9977V10.8208L8.83313 8.72816C8.4636 8.38472 8.44363 7.808 8.78853 7.44003C9.13342 7.07205 9.71259 7.05216 10.0821 7.39561L11.0847 8.32744V8.06188C11.0847 7.55854 11.4945 7.15049 12 7.15049C12.5055 7.15049 12.9153 7.55854 12.9153 8.06188V9.90269L13.9179 8.97085C14.2874 8.62741 14.8666 8.6473 15.2115 9.01527C15.5564 9.38325 15.5364 9.95997 15.1669 10.3034L12.9153 12.396V13.3603C14.814 12.9741 16.1695 11.4116 16.1695 9.63713C16.1695 7.58873 14.3632 5.82278 12 5.82278ZM12.9153 15.2085C15.7523 14.7974 18 12.5061 18 9.63713C18 6.46563 15.2532 4 12 4C8.74679 4 6 6.46563 6 9.63713C6 12.5061 8.24773 14.7974 11.0847 15.2085V18.1772H9.45763C8.95215 18.1772 8.54237 18.5853 8.54237 19.0886C8.54237 19.592 8.95215 20 9.45763 20H14.5424C15.0479 20 15.4576 19.592 15.4576 19.0886C15.4576 18.5853 15.0479 18.1772 14.5424 18.1772H12.9153V15.2085Z"
        fill="black" />
</svg>
