<svg width="24" height="24" viewBox="0 0 24 24" fill="none" xmlns="http://www.w3.org/2000/svg">
    <path fill-rule="evenodd" clip-rule="evenodd"
        d="M11.5696 5.10821C11.8385 4.96393 12.1615 4.96393 12.4304 5.10821L19.5189 8.91256C19.8873 9.11026 20.0742 9.5336 19.9725 9.93966C19.881 10.305 19.5768 10.5722 19.2123 10.622V17.1823C19.6571 17.2428 19.9999 17.6248 19.9999 18.087C19.9999 18.5912 19.5919 19 19.0885 19H4.91147C4.40813 19 4.00009 18.5912 4.00009 18.087C4.00009 17.6248 4.3429 17.2428 4.7877 17.1823V10.622C4.42322 10.5722 4.11904 10.305 4.0275 9.93966C3.92577 9.5336 4.11273 9.11026 4.48109 8.91256L11.5696 5.10821ZM6.61047 10.6304V17.1739H17.3895V10.6304H6.61047ZM15.4573 8.80435H8.54271L12 6.94885L15.4573 8.80435ZM8.84954 11.8478C9.35288 11.8478 9.76092 12.2566 9.76092 12.7609V15.0435C9.76092 15.5477 9.35288 15.9565 8.84954 15.9565C8.3462 15.9565 7.93816 15.5477 7.93816 15.0435V12.7609C7.93816 12.2566 8.3462 11.8478 8.84954 11.8478ZM12 11.8478C12.5033 11.8478 12.9114 12.2566 12.9114 12.7609V15.0435C12.9114 15.5477 12.5033 15.9565 12 15.9565C11.4967 15.9565 11.0886 15.5477 11.0886 15.0435V12.7609C11.0886 12.2566 11.4967 11.8478 12 11.8478ZM15.1505 11.8478C15.6538 11.8478 16.0618 12.2566 16.0618 12.7609V15.0435C16.0618 15.5477 15.6538 15.9565 15.1505 15.9565C14.6471 15.9565 14.2391 15.5477 14.2391 15.0435V12.7609C14.2391 12.2566 14.6471 11.8478 15.1505 11.8478Z"
        fill="black" />
</svg>
