<svg width="24" height="24" viewBox="0 0 24 24" fill="none" xmlns="http://www.w3.org/2000/svg">
<path d="M12 4L5.31372 7C4.35851 11 5.31372 17 12 20C18.6863 17 19.6415 11 18.6863 7L12 4Z" stroke="black" stroke-opacity="0.87" stroke-width="1.5" stroke-linecap="round" stroke-linejoin="round"/>
<path d="M13.2 10.3846C13.4803 10.3846 13.6982 10.3846 13.875 10.3967C14.0956 10.4118 14.2521 10.4457 14.3857 10.5218C14.5974 10.6425 14.7695 10.835 14.8774 11.0719C15 11.3412 15 11.6936 15 12.3986V12.986C15 13.691 15 14.0434 14.8774 14.3127C14.7695 14.5496 14.5974 14.7421 14.3857 14.8628C14.1451 15 13.8301 15 13.2 15H10.8C10.1699 15 9.85493 15 9.61425 14.8628C9.40256 14.7421 9.23047 14.5496 9.12262 14.3127C9 14.0434 9 13.691 9 12.986V12.3986C9 11.6936 9 11.3412 9.12262 11.0719C9.23047 10.835 9.40256 10.6425 9.61425 10.5218C9.74786 10.4457 9.90439 10.4118 10.125 10.3967C10.3018 10.3846 10.5197 10.3846 10.8 10.3846H13.2Z" fill="black" fill-opacity="0.87"/>
<path d="M12 9.92308C12.2761 9.92308 12.5 10.1297 12.5 10.3846H13.2H13.5C13.5 9.61991 12.8284 9 12 9C11.1716 9 10.5 9.61991 10.5 10.3846H10.8H11.5C11.5 10.1297 11.7239 9.92308 12 9.92308Z" fill="black" fill-opacity="0.87"/>
</svg>
