<svg width="24" height="24" viewBox="0 0 24 24" fill="none" xmlns="http://www.w3.org/2000/svg">
    <path fill-rule="evenodd" clip-rule="evenodd"
        d="M11.249 6.0839C11.4791 5.97203 11.7589 5.97203 11.9891 6.0839L18.8333 9.41095C19.5489 9.73072 20 10.3747 20 11.0787V14.6665C20 15.0347 19.6589 15.3332 19.2381 15.3332C18.8173 15.3332 18.4762 15.0347 18.4762 14.6665V11.0787C18.4762 10.9802 18.4456 10.8859 18.3905 10.8043L16.9524 11.5034V15.1111C16.9524 15.3532 16.8024 15.5763 16.5605 15.6939L11.9891 17.9161C11.7589 18.028 11.4791 18.028 11.249 17.9161L6.67761 15.6939C6.43573 15.5763 6.28571 15.3532 6.28571 15.1111V11.5034L4.39189 10.5828C4.15001 10.4652 4 10.2421 4 10C4 9.75789 4.15001 9.53481 4.39189 9.41723L11.249 6.0839ZM7.80952 12.2441V14.7189L11.619 16.5707L15.4286 14.7189V12.2441L11.9891 13.9161C11.7589 14.028 11.4791 14.028 11.249 13.9161L7.80952 12.2441ZM15.8205 10.5284L16.9073 10L11.619 7.42931L6.33075 10L7.41763 10.5284L7.41764 10.5284L11.619 12.5707L15.8205 10.5284L15.8205 10.5284Z"
        fill="black" />
</svg>
