<svg width="24" height="24" viewBox="0 0 24 24" fill="none" xmlns="http://www.w3.org/2000/svg">
    <path fill-rule="evenodd" clip-rule="evenodd"
        d="M11.2 5.68421C10.7582 5.68421 10.4 6.06123 10.4 6.52632H13.6C13.6 6.06123 13.2418 5.68421 12.8 5.68421H11.2ZM15.2 6.52632C15.2 5.13108 14.1255 4 12.8 4H11.2C9.87452 4 8.8 5.13107 8.8 6.52632H6.4C5.07452 6.52632 4 7.65739 4 9.05263V12.4211C4 12.8861 4.35817 13.2632 4.8 13.2632V17.4737C4.8 18.869 5.87452 20 7.2 20H16.8C18.1255 20 19.2 18.869 19.2 17.4737V13.2632C19.6418 13.2632 20 12.8861 20 12.4211V9.05263C20 7.65739 18.9255 6.52632 17.6 6.52632H15.2ZM17.6 13.2632V17.4737C17.6 17.9388 17.2419 18.3158 16.8 18.3158H7.2C6.75816 18.3158 6.4 17.9388 6.4 17.4737V13.2632H9.6V14.1053C9.6 14.5703 9.95817 14.9474 10.4 14.9474H13.6C14.0418 14.9474 14.4 14.5703 14.4 14.1053V13.2632H17.6ZM14.4 11.5789H18.4V9.05263C18.4 8.58754 18.0418 8.21053 17.6 8.21053H6.4C5.95817 8.21053 5.6 8.58755 5.6 9.05263V11.5789H9.6V10.7368C9.6 10.2718 9.95817 9.89474 10.4 9.89474H13.6C14.0418 9.89474 14.4 10.2718 14.4 10.7368V11.5789ZM11.2 13.2632H12.8V11.5789H11.2V13.2632Z"
        fill="black"/>
</svg>
