<svg width="24" height="24" viewBox="0 0 24 24" fill="none" xmlns="http://www.w3.org/2000/svg">
    <path fill-rule="evenodd" clip-rule="evenodd"
        d="M11.4667 4.17778C11.7805 3.94241 12.2115 3.94059 12.5273 4.17329L19.6384 9.41315C19.8658 9.58069 20 9.84632 20 10.1288V19.1111C20 19.602 19.602 20 19.1111 20H13.7778C13.2869 20 12.8889 19.602 12.8889 19.1111V15.4991C12.8889 15.492 12.8864 15.4872 12.8847 15.485H11.1153C11.1136 15.4872 11.1111 15.492 11.1111 15.4991V19.1111C11.1111 19.3469 11.0175 19.573 10.8508 19.7397C10.6841 19.9064 10.458 20 10.2222 20L4.88888 20C4.39796 20 4 19.602 4 19.1111V10.2222C4 9.94244 4.13173 9.67898 4.35556 9.51111L11.4667 4.17778ZM12.0047 5.99648L5.77778 10.6667V18.2222L9.33333 18.2222V15.4991C9.33333 15.0283 9.51729 14.5741 9.8491 14.237C10.1814 13.8994 10.6351 13.7072 11.1111 13.7072H12.8889C13.3649 13.7072 13.8186 13.8994 14.1509 14.237C14.4827 14.5741 14.6667 15.0283 14.6667 15.4991V18.2222H18.2222V10.5779L12.0047 5.99648Z"
        fill="black" />
</svg>
