<svg width="24" height="24" viewBox="0 0 24 24" fill="none" xmlns="http://www.w3.org/2000/svg">
    <path fill-rule="evenodd" clip-rule="evenodd"
        d="M4.88889 12.8333H4V11.1667H4.88889V9.72976C4.88889 9.13596 5.06584 8.52693 5.44317 8.02189C5.81661 7.52204 6.50274 7 7.46091 7H7.6502C8.60838 7 9.2945 7.52204 9.66794 8.02189C10.0453 8.52693 10.2222 9.13596 10.2222 9.72976V11.1667H13.7778V9.72976C13.7778 9.13596 13.9547 8.52693 14.3321 8.02189C14.7055 7.52204 15.3916 7 16.3498 7H16.5391C17.4973 7 18.1834 7.52204 18.5568 8.02189C18.9342 8.52693 19.1111 9.13596 19.1111 9.72976V11.1667H20V12.8333H19.1111V14.2702C19.1111 14.864 18.9342 15.4731 18.5568 15.9781C18.1834 16.478 17.4973 17 16.5391 17H16.3498C15.3916 17 14.7055 16.478 14.3321 15.9781C13.9547 15.4731 13.7778 14.864 13.7778 14.2702V12.8333H10.2222V14.2702C10.2222 14.864 10.0453 15.4731 9.66794 15.9781C9.2945 16.478 8.60838 17 7.6502 17H7.46091C6.50274 17 5.81661 16.478 5.44317 15.9781C5.06584 15.4731 4.88889 14.864 4.88889 14.2702V12.8333ZM8.44444 9.73042V14.2696C8.44444 14.8567 8.08885 15.3333 7.6502 15.3333H7.46091C7.02226 15.3333 6.66667 14.8574 6.66667 14.2702V9.73041C6.66667 9.14328 7.02226 8.66667 7.46091 8.66667H7.6502C8.08885 8.66667 8.44444 9.14329 8.44444 9.73042ZM17.3333 9.73041V14.2696C17.3333 14.8567 16.9777 15.3333 16.5391 15.3333H16.3498C15.9112 15.3333 15.5556 14.8574 15.5556 14.2702V12V9.73041C15.5556 9.14328 15.9112 8.66667 16.3498 8.66667H16.5391C16.9777 8.66667 17.3333 9.14328 17.3333 9.73041Z"
        fill="black" />
</svg>
