<svg width="24" height="24" viewBox="0 0 24 24" fill="none" xmlns="http://www.w3.org/2000/svg">
<path fill-rule="evenodd" clip-rule="evenodd" d="M12.5875 4.64487C12.2202 4.45178 11.78 4.45163 11.4126 4.6449C11.325 4.69099 11.2495 4.74667 11.1847 4.80641C10.9917 4.98424 10.8926 5.19801 10.8453 5.3016C10.7672 5.47279 10.688 5.69514 10.606 5.92529L10.5951 5.95598L9.4395 9.19944L5.90917 9.26963L5.87729 9.27026C5.62644 9.27523 5.387 9.27996 5.19794 9.29935C5.08643 9.31079 4.85292 9.33536 4.62285 9.4577C4.54466 9.49928 4.46686 9.55216 4.39439 9.61965C4.08697 9.90594 3.94276 10.3301 4.02095 10.7485C4.03946 10.8475 4.07147 10.9375 4.11075 11.0182C4.22633 11.2555 4.40483 11.4127 4.48751 11.4853C4.62938 11.6099 4.82069 11.7514 5.02002 11.8989L5.04636 11.9183L7.84495 13.9883L6.83011 17.2609L6.82051 17.2919C6.74816 17.5251 6.6782 17.7506 6.63821 17.9342C6.61454 18.0428 6.56448 18.2758 6.61451 18.5363C6.63138 18.6241 6.65964 18.715 6.70414 18.8054C6.89081 19.1843 7.25536 19.4372 7.66522 19.4911C8.05016 19.5416 8.37014 19.364 8.50342 19.2889C8.66869 19.1958 8.86587 19.0619 9.07168 18.9222L9.09783 18.9044L12 16.9342L14.9022 18.9044L14.9285 18.9223C15.1343 19.062 15.3314 19.1959 15.4966 19.2889C15.6299 19.364 15.9502 19.5415 16.3352 19.4911C16.7451 19.4371 17.1092 19.1844 17.2959 18.8054C17.4723 18.4472 17.3935 18.0794 17.3618 17.9342C17.3219 17.7507 17.252 17.5253 17.1797 17.2923L17.17 17.2609L16.1551 13.9883L18.9537 11.9183L18.98 11.8989C19.1794 11.7514 19.3707 11.6099 19.5126 11.4853C19.6233 11.388 19.9061 11.1386 19.9791 10.7482C20.0572 10.3299 19.9129 9.90579 19.6056 9.61955C19.4674 9.49094 19.3188 9.43149 19.2512 9.40672C19.168 9.37619 19.087 9.35642 19.0216 9.34292C18.8901 9.31578 18.7448 9.29873 18.6099 9.28687C18.3822 9.26686 18.1203 9.25645 17.8767 9.25029C17.8273 9.24905 17.7787 9.24798 17.7314 9.24703L14.5603 9.19872L13.4567 6.10124L13.4049 5.95598L13.394 5.92529C13.312 5.69513 13.2328 5.47281 13.1547 5.30165C13.0916 5.16333 12.9358 4.82818 12.5875 4.64487ZM11.0011 9.92245L12 7.11874L12.9989 9.92246L13.0083 9.94951C13.0428 10.0504 13.1219 10.2817 13.2814 10.4668C13.3764 10.6005 13.6462 10.7536 13.7693 10.8134C13.9925 10.9017 14.2341 10.9037 14.3439 10.9046L14.3738 10.905L17.3848 10.9508L14.9966 12.7173L14.973 12.7344C14.8854 12.7975 14.6868 12.9411 14.5563 13.1451C14.4465 13.3171 14.3807 13.5146 14.3657 13.7189C14.348 13.9635 14.424 14.1978 14.4568 14.2988L14.4654 14.3258L14.4953 14.422L15.3353 17.1309L12.8436 15.4393L12.8192 15.4225C12.8061 15.4134 12.7907 15.4027 12.7733 15.3908C12.6711 15.3216 12.4979 15.2142 12.2983 15.1657L12.2972 15.1655C12.102 15.1183 11.8972 15.1184 11.7018 15.1657C11.4681 15.2225 11.2706 15.36 11.1808 15.4225L11.1564 15.4394L8.66475 17.1309L9.53461 14.3258L9.54323 14.2989C9.57596 14.198 9.65212 13.9633 9.63428 13.7184C9.61934 13.5137 9.55306 13.3164 9.44344 13.1447C9.31291 12.9405 9.11447 12.7974 9.02702 12.7344L9.00323 12.7171L6.63361 10.9644L9.62615 10.9049L9.65608 10.9046C9.68476 10.9044 9.72241 10.9041 9.76636 10.9022C9.89075 10.8968 10.0656 10.8787 10.2305 10.8135C10.4178 10.7394 10.5857 10.621 10.7185 10.467C10.8781 10.2819 10.9572 10.0506 10.9917 9.94945L11.0011 9.92245Z" fill="black" fill-opacity="0.87"/>
</svg>
