<svg width="24" height="24" viewBox="0 0 24 24" fill="none" xmlns="http://www.w3.org/2000/svg">
    <path fill-rule="evenodd" clip-rule="evenodd"
        d="M12 2C12.5021 2 13 2.49792 13 3V4C16.6807 4.4174 19.5826 7.31931 20 11H21C21.5021 11 22 11.4979 22 12C22 12.5021 21.5021 13 21 13H20C19.5826 16.6807 16.6807 19.5826 13 20V21C13 21.5021 12.5021 22 12 22C11.4979 22 11 21.5021 11 21V20C7.31931 19.5826 4.4174 16.6807 4 13H3C2.49792 13 2 12.5021 2 12C2 11.4979 2.49792 11 3 11H4C4.4174 7.31931 7.31931 4.4174 11 4V3C11 2.49792 11.4979 2 12 2ZM12 5.83838C8.59704 5.83838 5.83838 8.59704 5.83838 12C5.83838 15.403 8.59704 18.1616 12 18.1616C15.403 18.1616 18.1616 15.403 18.1616 12C18.1616 8.59704 15.403 5.83838 12 5.83838ZM12 10C10.8284 10 10 10.8284 10 12C10 13.1716 10.8284 14 12 14C13.1716 14 14 13.1716 14 12C14 10.8284 13.1716 10 12 10ZM8.06061 12C8.06061 9.82429 9.82429 8.06061 12 8.06061C14.1757 8.06061 15.9394 9.82429 15.9394 12C15.9394 14.1757 14.1757 15.9394 12 15.9394C9.82429 15.9394 8.06061 14.1757 8.06061 12Z"
        fill="#1679AB" />
</svg>
