<svg width="20" height="21" viewBox="0 0 20 21" fill="none" xmlns="http://www.w3.org/2000/svg">
<path d="M10 17.75C9.00558 17.75 8.07368 17.5596 7.19715 17.1814C6.30805 16.7977 5.53785 16.2772 4.88033 15.6197C4.22281 14.9622 3.70228 14.192 3.31862 13.3029C2.94039 12.4263 2.75 11.4944 2.75 10.5C2.75 9.49095 2.94089 8.55253 3.31862 7.67715C3.70201 6.78866 4.22185 6.02278 4.87788 5.37277C5.53563 4.72106 6.3066 4.2029 7.19715 3.81862C8.07368 3.44039 9.00558 3.25 10 3.25C11.0091 3.25 11.9475 3.44089 12.8229 3.81862C13.7128 4.20264 14.4794 4.7201 15.1297 5.37033C15.7799 6.02056 16.2974 6.78721 16.6814 7.67715C17.0591 8.55253 17.25 9.49095 17.25 10.5C17.25 11.4944 17.0596 12.4263 16.6814 13.3029C16.2971 14.1934 15.7789 14.9644 15.1272 15.6221C14.4772 16.2782 13.7113 16.798 12.8229 17.1814C11.9475 17.5591 11.0091 17.75 10 17.75Z" stroke="white" stroke-opacity="0.97" stroke-width="1.5"/>
<path d="M6 10.5H14" stroke="white" stroke-opacity="0.97" stroke-width="1.5" stroke-linecap="round" stroke-linejoin="round"/>
</svg>
