<svg width="24" height="24" viewBox="0 0 24 24" fill="none" xmlns="http://www.w3.org/2000/svg">
<path fill-rule="evenodd" clip-rule="evenodd" d="M12 6C8.68631 6 6.00001 8.68629 6.00001 12C6.00001 12.5523 5.5523 13 5.00001 13C4.44773 13 4.00001 12.5523 4.00001 12C4.00001 7.58172 7.58174 4 12 4C14.0484 4 15.9189 4.77111 17.3336 6.03728L17.3368 6.04014L17.3368 6.04015L17.6045 6.28188L17.5107 5.64596C17.4301 5.09959 17.8077 4.59132 18.3541 4.51071C18.9004 4.4301 19.4087 4.80767 19.4893 5.35404L19.9893 8.74293C20.0346 9.04968 19.935 9.36007 19.7197 9.58322C19.5044 9.80636 19.1978 9.91701 18.8896 9.88277L15.3896 9.49388C14.8407 9.43289 14.4451 8.93848 14.5061 8.38957C14.5671 7.84066 15.0615 7.44513 15.6104 7.50612L16.0273 7.55243L15.9998 7.52756C15.9993 7.52709 15.9987 7.52662 15.9982 7.52616C14.9362 6.57631 13.5366 6 12 6ZM19 11C19.5523 11 20 11.4477 20 12C20 16.4183 16.4183 20 12 20C10.013 20 8.19327 19.2743 6.79471 18.0751L6.96851 18.751C7.10605 19.2858 6.78394 19.831 6.24905 19.9685C5.71417 20.106 5.16906 19.7839 5.03152 19.249L4.03152 15.3602C3.94968 15.0419 4.02943 14.7037 4.24484 14.4556C4.46026 14.2074 4.78384 14.0809 5.11045 14.1172L8.61045 14.5061C9.15935 14.5671 9.55489 15.0615 9.4939 15.6104C9.43291 16.1593 8.93849 16.5549 8.38958 16.4939L7.97273 16.4476L8.00026 16.4724C8.00075 16.4729 8.00124 16.4733 8.00174 16.4738C9.06375 17.4236 10.4634 18 12 18C15.3138 18 18 15.3137 18 12C18 11.4477 18.4477 11 19 11Z" fill="black" fill-opacity="0.87"/>
</svg>
