<svg width="24" height="24" viewBox="0 0 24 24" fill="none" xmlns="http://www.w3.org/2000/svg">
<path fill-rule="evenodd" clip-rule="evenodd" d="M12 4C12.2769 4 12.5413 4.11478 12.7304 4.31701L15.7304 7.52534C16.1076 7.92874 16.0864 8.56155 15.683 8.93876C15.2796 9.31596 14.6468 9.29473 14.2696 8.89133L13 7.53359V15C13 15.5523 12.5523 16 12 16C11.4477 16 11 15.5523 11 15V7.53359L9.73042 8.89133C9.35322 9.29473 8.72041 9.31596 8.31701 8.93876C7.9136 8.56155 7.89237 7.92874 8.26958 7.52534L11.2696 4.31701C11.4587 4.11478 11.7231 4 12 4ZM5 11C5.55228 11 6 11.4477 6 12V17.25C6 17.6642 6.33578 18 6.75 18H17.25C17.6642 18 18 17.6642 18 17.25V12C18 11.4477 18.4477 11 19 11C19.5523 11 20 11.4477 20 12V17.25C20 18.7688 18.7688 20 17.25 20H6.75C5.23123 20 4 18.7688 4 17.25V12C4 11.4477 4.44772 11 5 11Z" fill="black" fill-opacity="0.87"/>
</svg>
