<?xml version="1.0" encoding="UTF-8"?>
<svg version="1.1" xmlns="http://www.w3.org/2000/svg" width="500" height="500">
<path d="M0 0 C15.97834043 -0.40063685 32.89390102 2.51184416 45.3984375 13.12109375 C46.62999098 13.84111616 47.87812785 14.53438682 49.1484375 15.18359375 C52.3984375 17.12109375 52.3984375 17.12109375 53.3984375 20.12109375 C55.39860216 21.32991471 55.39860216 21.32991471 57.3984375 22.12109375 C57.3984375 22.78109375 57.3984375 23.44109375 57.3984375 24.12109375 C58.0584375 24.12109375 58.7184375 24.12109375 59.3984375 24.12109375 C61.125 26.01953125 61.125 26.01953125 63.0234375 28.49609375 C63.65507812 29.30820313 64.28671875 30.1203125 64.9375 30.95703125 C66.3984375 33.12109375 66.3984375 33.12109375 66.3984375 35.12109375 C67.0584375 35.12109375 67.7184375 35.12109375 68.3984375 35.12109375 C78.96880705 56.0539885 83.66392535 77.87217619 76.5390625 100.8984375 C73.92779083 107.2319166 70.77390918 113.16437902 67.3984375 119.12109375 C66.43897296 120.849633 65.48054604 122.57874885 64.5234375 124.30859375 C63.8155497 125.57967531 63.10739853 126.85061048 62.3984375 128.12109375 C61.7384375 128.12109375 61.0784375 128.12109375 60.3984375 128.12109375 C60.29402344 128.6728125 60.18960938 129.22453125 60.08203125 129.79296875 C59.25283366 132.61697884 57.970441 134.84664291 56.4609375 137.37109375 C55.93628906 138.263125 55.41164063 139.15515625 54.87109375 140.07421875 C54.14212891 141.08742187 54.14212891 141.08742187 53.3984375 142.12109375 C52.7384375 142.12109375 52.0784375 142.12109375 51.3984375 142.12109375 C51.2540625 142.73984375 51.1096875 143.35859375 50.9609375 143.99609375 C50.3984375 146.12109375 50.3984375 146.12109375 49.3984375 148.12109375 C48.7384375 148.12109375 48.0784375 148.12109375 47.3984375 148.12109375 C47.27549316 148.70882568 47.15254883 149.29655762 47.02587891 149.90209961 C46.3948656 152.13372606 45.60023434 153.67759286 44.359375 155.625 C43.94751953 156.27734619 43.53566406 156.92969238 43.11132812 157.60180664 C42.44907227 158.63229126 42.44907227 158.63229126 41.7734375 159.68359375 C41.31904297 160.3995874 40.86464844 161.11558105 40.39648438 161.85327148 C39.48372539 163.29035047 38.56872333 164.72600749 37.65136719 166.16015625 C36.60429367 167.798912 35.56661102 169.44366305 34.53125 171.08984375 C28.88244059 180.0630721 22.9630744 188.86330081 17.015625 197.640625 C16.29632813 198.70667969 15.57703125 199.77273438 14.8359375 200.87109375 C13.87494141 202.28648437 13.87494141 202.28648437 12.89453125 203.73046875 C11.26747735 206.12195523 11.26747735 206.12195523 10.3984375 209.12109375 C6.85447609 211.48373469 4.85574981 211.71535221 0.69140625 211.640625 C-2.84490018 210.83938351 -4.3571682 208.83880634 -6.5078125 206.04296875 C-7.63218034 204.06729383 -8.1688803 202.34350687 -8.6015625 200.12109375 C-9.2615625 200.12109375 -9.9215625 200.12109375 -10.6015625 200.12109375 C-11.41993692 198.70781246 -12.23102469 197.29031029 -13.0390625 195.87109375 C-13.49152344 195.0821875 -13.94398438 194.29328125 -14.41015625 193.48046875 C-15.49467852 191.33275907 -16.13304966 189.46904314 -16.6015625 187.12109375 C-17.2615625 187.12109375 -17.9215625 187.12109375 -18.6015625 187.12109375 C-19.890625 185.4765625 -19.890625 185.4765625 -21.2265625 183.30859375 C-21.67257813 182.60089844 -22.11859375 181.89320313 -22.578125 181.1640625 C-23.6015625 179.12109375 -23.6015625 179.12109375 -23.6015625 176.12109375 C-24.2615625 176.12109375 -24.9215625 176.12109375 -25.6015625 176.12109375 C-27.6015625 173.12109375 -27.6015625 173.12109375 -27.6015625 170.12109375 C-28.2615625 170.12109375 -28.9215625 170.12109375 -29.6015625 170.12109375 C-31.00390625 168.109375 -31.00390625 168.109375 -32.5390625 165.43359375 C-33.04308594 164.56347656 -33.54710937 163.69335938 -34.06640625 162.796875 C-34.57300781 161.91386719 -35.07960937 161.03085937 -35.6015625 160.12109375 C-36.15972656 159.22777344 -36.71789062 158.33445312 -37.29296875 157.4140625 C-38.6015625 155.12109375 -38.6015625 155.12109375 -38.6015625 153.12109375 C-39.2615625 153.12109375 -39.9215625 153.12109375 -40.6015625 153.12109375 C-41.02115234 152.33798828 -41.02115234 152.33798828 -41.44921875 151.5390625 C-45.67868484 143.77370836 -50.25402329 136.21771863 -55.5390625 129.12109375 C-57.6015625 126.12109375 -57.6015625 126.12109375 -57.6015625 123.12109375 C-58.2615625 123.12109375 -58.9215625 123.12109375 -59.6015625 123.12109375 C-59.6015625 122.13109375 -59.6015625 121.14109375 -59.6015625 120.12109375 C-60.2615625 120.12109375 -60.9215625 120.12109375 -61.6015625 120.12109375 C-72.50297428 101.41108646 -76.77349041 80.67605462 -72.6015625 59.12109375 C-69.33184585 46.89235349 -63.89775664 35.75420218 -55.6015625 26.12109375 C-54.9415625 26.12109375 -54.2815625 26.12109375 -53.6015625 26.12109375 C-53.36179688 25.54746094 -53.12203125 24.97382812 -52.875 24.3828125 C-51.34553754 21.66637457 -49.55768659 19.99752919 -47.2265625 17.93359375 C-46.07027344 16.89138672 -46.07027344 16.89138672 -44.890625 15.828125 C-42.68877408 14.18613037 -41.28173364 13.53107427 -38.6015625 13.12109375 C-38.6015625 12.46109375 -38.6015625 11.80109375 -38.6015625 11.12109375 C-25.95379411 4.28446219 -14.31507355 0.66631724 0 0 Z M-18.6015625 32.12109375 C-19.46910156 32.55679688 -20.33664063 32.9925 -21.23046875 33.44140625 C-27.29812517 36.75103703 -31.39989003 40.69092246 -35.6015625 46.12109375 C-36.13652344 46.73726562 -36.67148438 47.3534375 -37.22265625 47.98828125 C-46.36531077 58.97770639 -46.61259023 71.99012002 -45.83789062 85.66503906 C-45.36277636 90.60269353 -43.94490014 94.78275244 -41.6015625 99.12109375 C-41.22 99.848125 -40.8384375 100.57515625 -40.4453125 101.32421875 C-39.54803621 102.9521343 -38.58358089 104.5428499 -37.6015625 106.12109375 C-36.9415625 106.12109375 -36.2815625 106.12109375 -35.6015625 106.12109375 C-35.3953125 106.67796875 -35.1890625 107.23484375 -34.9765625 107.80859375 C-33.44585612 110.38296357 -31.58950753 111.9524243 -29.234375 113.77734375 C-27.6015625 115.12109375 -27.6015625 115.12109375 -25.734375 117.11328125 C-17.15663393 125.18829757 -4.54511427 126.55584636 6.65234375 126.3671875 C17.05492419 125.6838063 27.78859257 121.78594641 35.4609375 114.49609375 C37.15936768 112.41414708 38.38813649 110.60092349 39.3984375 108.12109375 C40.0584375 108.12109375 40.7184375 108.12109375 41.3984375 108.12109375 C49.69388472 96.78125826 54.05894156 83.96240123 51.92578125 70.03515625 C50.11195551 60.88999893 46.56435219 52.86996579 41.3984375 45.12109375 C40.7384375 45.12109375 40.0784375 45.12109375 39.3984375 45.12109375 C39.3984375 44.46109375 39.3984375 43.80109375 39.3984375 43.12109375 C38.7384375 43.12109375 38.0784375 43.12109375 37.3984375 43.12109375 C37.3984375 42.46109375 37.3984375 41.80109375 37.3984375 41.12109375 C36.7384375 41.12109375 36.0784375 41.12109375 35.3984375 41.12109375 C35.3984375 40.46109375 35.3984375 39.80109375 35.3984375 39.12109375 C20.47981487 27.40550228 -1.20911515 22.8026777 -18.6015625 32.12109375 Z " fill="#070707" transform="translate(245.6015625,98.87890625)"/>
<path d="M0 0 C2.87224769 5.59801712 5.42271885 11.24450303 7.8125 17.0625 C10.33157468 23.14140776 12.96428244 29.13108118 15.8125 35.0625 C20.53401021 45.05542046 23.98356409 53.62007652 20.1015625 64.5234375 C18.63807034 67.92358093 17.05728907 70.91406639 15 74 C14.34 74 13.68 74 13 74 C13 74.66 13 75.32 13 76 C12.34 76 11.68 76 11 76 C11 76.66 11 77.32 11 78 C9.8197974 78.65907418 8.63029266 79.3014948 7.4375 79.9375 C6.44556641 80.47697266 6.44556641 80.47697266 5.43359375 81.02734375 C0.01779125 83.19192613 -5.79492769 83.12531 -11.55465698 83.12698364 C-12.64675325 83.12932363 -12.64675325 83.12932363 -13.76091206 83.13171089 C-16.18291423 83.13567663 -18.60485292 83.13254858 -21.02685547 83.12939453 C-22.77008602 83.13075046 -24.51331629 83.13253148 -26.25654602 83.13470459 C-30.97712965 83.13925402 -35.69769136 83.13750014 -40.41827536 83.1343255 C-45.35723015 83.13179146 -50.29618308 83.13414213 -55.23513794 83.13571167 C-63.52199643 83.13752928 -71.80884599 83.13513667 -80.09570312 83.13037109 C-89.68828127 83.12491849 -99.28083819 83.1267 -108.87341583 83.1321975 C-117.10620267 83.13672741 -125.3389831 83.1373801 -133.57177079 83.13475883 C-138.49070021 83.13319677 -143.40961964 83.13300059 -148.32854843 83.13629532 C-152.9463393 83.13917262 -157.56410261 83.13720098 -162.18189049 83.13140106 C-163.88111131 83.13007316 -165.58033444 83.13046808 -167.27955437 83.13266373 C-169.5888164 83.1353738 -171.89798865 83.13199602 -174.20724487 83.12698364 C-176.15011289 83.1264181 -176.15011289 83.1264181 -178.13223076 83.12584114 C-181 83 -181 83 -182 82 C-182.28811211 79.91759805 -182.51608891 77.82682212 -182.71875 75.734375 C-182.84636719 74.45175781 -182.97398437 73.16914063 -183.10546875 71.84765625 C-183.23731042 70.48180277 -183.36881756 69.11591695 -183.5 67.75 C-183.75732168 65.09863363 -184.01855348 62.44772168 -184.28125 59.796875 C-184.39533203 58.61448242 -184.50941406 57.43208984 -184.62695312 56.21386719 C-184.95060793 53.42552173 -185.44177657 50.74738127 -186 48 C-186.0659735 45.89676466 -186.08562245 43.79164276 -186.0625 41.6875 C-186.05347656 40.61886719 -186.04445312 39.55023438 -186.03515625 38.44921875 C-186.02355469 37.64097656 -186.01195312 36.83273437 -186 36 C-182.34011679 33.79468576 -178.52833571 33.30116598 -174.375 32.6875 C-158.56824012 30.20178619 -142.85876139 27.09829726 -127.23046875 23.671875 C-122.87887177 22.76682702 -118.50433748 22.01375926 -114.125 21.25854492 C-106.60963458 19.95306277 -99.12444478 18.49937466 -91.63623047 17.04736328 C-85.44763552 15.84965638 -79.25627048 14.66933599 -73.05859375 13.51953125 C-60.8267424 11.24877721 -48.60684409 8.96587311 -36.4375 6.375 C-6.48852041 0 -6.48852041 0 0 0 Z " fill="#060606" transform="translate(396,318)"/>
<path d="M0 0 C0.98608749 0.00212242 0.98608749 0.00212242 1.99209595 0.00428772 C4.07029981 0.00983863 6.14839177 0.0223816 8.2265625 0.03515625 C9.64452968 0.04017761 11.06249857 0.0447394 12.48046875 0.04882812 C15.93753572 0.05979188 19.39453817 0.07702204 22.8515625 0.09765625 C24.31425498 4.12764561 25.1910557 7.8062895 25.59765625 12.0703125 C25.71109375 13.20597656 25.82453125 14.34164062 25.94140625 15.51171875 C26.05613281 16.71570313 26.17085938 17.9196875 26.2890625 19.16015625 C27.1461048 27.66936193 28.0673768 36.14189093 29.3515625 44.59765625 C30.78594441 54.08751195 31.81207328 63.60644445 32.76171875 73.15625 C33.31897731 78.64018083 33.9777102 84.05444891 34.93359375 89.484375 C35.69617901 93.8648066 36.07311263 97.90635005 35.9765625 102.34765625 C35.95851563 103.4459375 35.94046875 104.54421875 35.921875 105.67578125 C35.89867187 106.475 35.87546875 107.27421875 35.8515625 108.09765625 C26.53601975 110.18422815 17.19831132 112.15623176 7.8515625 114.09765625 C7.02092285 114.27087402 6.1902832 114.4440918 5.33447266 114.62255859 C-3.77829742 116.51503247 -12.88292892 118.2645048 -22.0859375 119.66015625 C-28.23428959 120.59362055 -34.24492784 121.74001549 -40.29296875 123.203125 C-45.83072606 124.48797447 -51.39211887 125.64347221 -56.9609375 126.78515625 C-58.57282959 127.12522705 -58.57282959 127.12522705 -60.21728516 127.47216797 C-65.98275015 128.64284353 -71.26577964 129.36021155 -77.1484375 129.09765625 C-71.05059014 110.16223551 -71.05059014 110.16223551 -67.7421875 104.83203125 C-65.87607062 101.63036013 -64.60809582 98.35525746 -63.26416016 94.90771484 C-61.25628464 89.85068046 -59.03393724 84.88678826 -56.8359375 79.91015625 C-56.3517334 78.81026367 -55.8675293 77.71037109 -55.36865234 76.57714844 C-52.7422145 70.63158585 -50.06554498 64.71710352 -47.2734375 58.84765625 C-44.68916037 53.39059599 -42.50073793 47.86662035 -40.39453125 42.2109375 C-38.73260054 38.05871563 -36.69003681 34.14718031 -34.640625 30.17578125 C-32.1124783 24.9606514 -30.13182005 19.53879423 -28.1484375 14.09765625 C-27.4884375 14.09765625 -26.8284375 14.09765625 -26.1484375 14.09765625 C-26.1484375 13.10765625 -26.1484375 12.11765625 -26.1484375 11.09765625 C-25.4884375 11.09765625 -24.8284375 11.09765625 -24.1484375 11.09765625 C-23.9215625 10.52015625 -23.6946875 9.94265625 -23.4609375 9.34765625 C-21.15042468 5.38677713 -17.38177573 2.76533495 -13.1484375 1.09765625 C-8.71541457 0.19741283 -4.51831668 -0.01930905 0 0 Z " fill="#060606" transform="translate(160.1484375,236.90234375)"/>
<path d="M0 0 C4.4270339 9.3759539 8.57282065 18.86254535 12.65966797 28.39086914 C13.07748535 29.36016357 13.49530273 30.32945801 13.92578125 31.328125 C14.30130127 32.2037207 14.67682129 33.07931641 15.0637207 33.98144531 C15.83694434 35.95158722 15.83694434 35.95158722 17 37 C17.04080783 38.99958364 17.04254356 41.00045254 17 43 C12.07453101 44.50322755 7.21782482 45.5370613 2.125 46.3125 C-5.3067628 47.49977228 -12.68541884 48.88637451 -20.0625 50.375 C-21.10704346 50.58511719 -22.15158691 50.79523438 -23.2277832 51.01171875 C-28.7808586 52.13356923 -34.32929496 53.27588067 -39.875 54.43359375 C-40.99511475 54.66449707 -42.11522949 54.89540039 -43.26928711 55.13330078 C-45.40691501 55.5741697 -47.54324614 56.02139178 -49.67797852 56.47607422 C-55.21911887 57.61391739 -60.34017849 58.46030622 -66 58 C-68.84057809 54.80434964 -69 53.3252957 -69 49 C-69.66 49 -70.32 49 -71 49 C-71.30292969 48.20078125 -71.60585938 47.4015625 -71.91796875 46.578125 C-76.84637863 33.34243158 -76.84637863 33.34243158 -82.8125 20.5625 C-84.08908898 17.80775536 -84.26463133 15.99915512 -84 13 C-77.85905191 11.32845689 -71.80989616 10.34930452 -65.5 9.5625 C-57.76444419 8.55432054 -50.15038381 7.32958901 -42.49609375 5.82421875 C-35.32320178 4.46270542 -28.08883507 3.44252156 -20.87011719 2.35766602 C-19.79536133 2.19580811 -18.72060547 2.0339502 -17.61328125 1.8671875 C-16.65204346 1.72394043 -15.69080566 1.58069336 -14.70043945 1.43310547 C-12.92208896 1.1478877 -11.14985658 0.82093045 -9.38745117 0.44970703 C-6.23970922 -0.14321051 -3.19441382 -0.06263557 0 0 Z " fill="#080808" transform="translate(373,265)"/>
<path d="M0 0 C2.08838743 7.16018546 2.88432531 14.43505568 3.74121094 21.82275391 C4.00276895 24.02329578 4.28329872 26.22061068 4.5703125 28.41796875 C4.663125 29.13339844 4.7559375 29.84882813 4.8515625 30.5859375 C5.111289 32.58212117 5.3720227 34.57817372 5.6328125 36.57421875 C5.93901789 39.43104992 6.02876617 42.13470612 6 45 C-6.52633045 45.0231863 -19.05265578 45.04094717 -31.57900333 45.05181217 C-37.39569419 45.05702723 -43.21237034 45.0640999 -49.02905273 45.07543945 C-54.64410484 45.08631724 -60.25914281 45.09228722 -65.87420464 45.09487724 C-68.01476705 45.09672267 -70.1553287 45.1003263 -72.29588509 45.10573006 C-75.29761542 45.11300536 -78.29928763 45.1139882 -81.30102539 45.11352539 C-82.62380745 45.1189183 -82.62380745 45.1189183 -83.97331238 45.12442017 C-94.37724638 45.10710121 -101.0034136 43.45025965 -108.80078125 36.36328125 C-112.80526039 32.10044861 -114.54866841 27.61436169 -116 22 C-112.75714205 21.30170106 -109.51374161 20.60604525 -106.26953125 19.9140625 C-103.45257711 19.31288722 -100.63784983 18.70246238 -97.82421875 18.0859375 C-87.1771101 15.7748725 -76.48608337 13.81268439 -65.75610352 11.92626953 C-52.64646179 9.60911808 -39.60567803 6.97358236 -26.56591797 4.29443359 C-24.24639321 3.81812857 -21.92649227 3.34365145 -19.60620117 2.87109375 C-17.42188669 2.42619082 -15.23840246 1.97718545 -13.0559082 1.5234375 C-12.07323975 1.32363281 -11.09057129 1.12382812 -10.078125 0.91796875 C-9.21606445 0.74031982 -8.35400391 0.5626709 -7.46582031 0.37963867 C-4.93784295 -0.00956972 -2.5535595 -0.06712377 0 0 Z " fill="#090808" transform="translate(198,356)"/>
<path d="M0 0 C0.66 0 1.32 0 2 0 C3.63863397 2.43133054 5.14921334 4.84771535 6.625 7.375 C7.25535156 8.42300781 7.25535156 8.42300781 7.8984375 9.4921875 C11 14.72859172 11 14.72859172 11 17 C11.66 17 12.32 17 13 17 C13 17.99 13 18.98 13 20 C13.66 20 14.32 20 15 20 C16.2400457 21.912712 17.39336867 23.88212578 18.5 25.875 C20.86771159 30.22617378 20.86771159 30.22617378 24 34 C24 34.99 24 35.98 24 37 C24.66 37 25.32 37 26 37 C26.29132813 37.556875 26.58265625 38.11375 26.8828125 38.6875 C29.52001155 43.59700264 32.37539294 48.02221538 35.86328125 52.37109375 C37 54 37 54 37 56 C43.59267277 59.49633882 49.70678935 60.71281504 56.98828125 58.78125 C59.78295322 57.6959405 61.79771924 56.00207342 64 54 C64.66 54 65.32 54 66 54 C66.22816406 53.34 66.45632813 52.68 66.69140625 52 C68.40301103 48.07608216 70.6354788 44.60085279 72.9375 41 C73.8219814 39.60439907 74.70610448 38.20857098 75.58984375 36.8125 C76.00733887 36.15894531 76.42483398 35.50539063 76.85498047 34.83203125 C77.84484542 33.24824733 78.77414958 31.62691252 79.69140625 30 C80.12324219 29.34 80.55507813 28.68 81 28 C81.66 28 82.32 28 83 28 C86.74487975 35.79481994 90.34143099 43.50955138 93.15625 51.69921875 C94.03014675 54.23229036 94.03014675 54.23229036 95.75 57.375 C97.08230828 60.17284738 97.26976392 61.94267556 97 65 C90.97374351 66.88794609 84.91124886 67.96607417 78.6875 69 C72.20509888 70.08962225 65.74369065 71.22268233 59.30249023 72.53564453 C55.93855403 73.21406746 52.56354036 73.82209408 49.1875 74.4375 C42.07304507 75.75133976 35.0430367 77.34609428 28 79 C26.252763 79.40785647 24.50286777 79.80456581 22.75 80.1875 C22.04359375 80.34605469 21.3371875 80.50460937 20.609375 80.66796875 C18.13957422 80.98223981 15.82349537 81.03265014 13.33691406 81.02075195 C12.52514709 81.01775589 11.71338013 81.01475983 10.87701416 81.01167297 C10.25759949 81.00782089 9.63818481 81.00396881 9 81 C8.86424561 79.83766846 8.72849121 78.67533691 8.58862305 77.4777832 C5.39047991 49.86445997 5.39047991 49.86445997 1.62890625 22.32421875 C0.93723114 17.64071229 0.32553096 12.94910465 -0.25 8.25 C-0.34240967 7.52675537 -0.43481934 6.80351074 -0.5300293 6.05834961 C-0.73008677 4.37683025 -0.87143471 2.68849084 -1 1 C-0.67 0.67 -0.34 0.34 0 0 Z " fill="#0F0E0F" transform="translate(198,261)"/>
<path d="M0 0 C0.75172989 -0.00807175 1.50345978 -0.01614349 2.27796936 -0.02445984 C3.87775351 -0.03832641 5.47756758 -0.04903699 7.07739258 -0.05688477 C9.49425199 -0.07393026 11.90968235 -0.11776785 14.32617188 -0.16210938 C24.31080214 -0.26269355 32.62776889 0.40221797 40.97265625 6.48828125 C44.10765792 9.77256871 45.84661745 13.08728927 47.59765625 17.23828125 C44.3203658 19.12449158 41.3913817 19.72172099 37.66015625 20.23828125 C35.92958984 20.48578125 35.92958984 20.48578125 34.1640625 20.73828125 C32.39869141 20.98578125 32.39869141 20.98578125 30.59765625 21.23828125 C28.43045615 21.56812859 26.2637723 21.90138835 24.09765625 22.23828125 C20.91814499 22.72772869 17.73857304 23.21672714 14.55859375 23.703125 C13.54023438 23.85910156 12.521875 24.01507813 11.47265625 24.17578125 C10.41175781 24.33691406 9.35085938 24.49804688 8.2578125 24.6640625 C5.46985591 25.10144736 2.6882719 25.55872568 -0.09375 26.03125 C-8.27279149 27.40285558 -16.07591409 28.64777779 -24.40234375 28.23828125 C-23.74234375 26.25828125 -23.08234375 24.27828125 -22.40234375 22.23828125 C-21.74234375 22.23828125 -21.08234375 22.23828125 -20.40234375 22.23828125 C-19.74234375 20.25828125 -19.08234375 18.27828125 -18.40234375 16.23828125 C-17.74234375 16.23828125 -17.08234375 16.23828125 -16.40234375 16.23828125 C-16.31984375 15.72265625 -16.23734375 15.20703125 -16.15234375 14.67578125 C-15.0809415 11.19372393 -13.2671077 8.3662724 -11.40234375 5.23828125 C-10.74234375 5.23828125 -10.08234375 5.23828125 -9.40234375 5.23828125 C-9.25796875 4.59890625 -9.11359375 3.95953125 -8.96484375 3.30078125 C-7.7416146 -1.18439232 -3.95639045 0.0400872 0 0 Z " fill="#100F10" transform="translate(320.40234375,236.76171875)"/>
<path d="M0 0 C2.4375 0.25 2.4375 0.25 5 1 C5.66 1.99 6.32 2.98 7 4 C5.68 5.32 4.36 6.64 3 8 C20.82 8.33 38.64 8.66 57 9 C57.33 7.68 57.66 6.36 58 5 C58 6.65 58 8.3 58 10 C37.21 10 16.42 10 -5 10 C-5 9.01 -5 8.02 -5 7 C-4.34 7 -3.68 7 -3 7 C-2.690625 6.030625 -2.38125 5.06125 -2.0625 4.0625 C-1 1 -1 1 0 0 Z " fill="#6C6C6C" transform="translate(146,391)"/>
<path d="M0 0 C0.66 0 1.32 0 2 0 C2 1.65 2 3.3 2 5 C3.32 5.33 4.64 5.66 6 6 C5.67 6.66 5.34 7.32 5 8 C4.01 8.33 3.02 8.66 2 9 C1.31513275 10.32407669 0.65129797 11.65909241 0 13 C-1.29470975 14.37086915 -2.62150897 15.71340837 -4 17 C-4.598125 16.690625 -5.19625 16.38125 -5.8125 16.0625 C-8.08956772 14.89790296 -8.08956772 14.89790296 -11 14 C-11 12.68 -11 11.36 -11 10 C-9.68 10 -8.36 10 -7 10 C-6.34 8.68 -5.68 7.36 -5 6 C-3.68 6 -2.36 6 -1 6 C-0.67 4.02 -0.34 2.04 0 0 Z " fill="#0A0A0A" transform="translate(226,310)"/>
<path d="M0 0 C0.99 0 1.98 0 3 0 C1.57497833 3.90455937 -0.26652127 7.24835962 -2.5 10.75 C-3.1084375 11.71421875 -3.716875 12.6784375 -4.34375 13.671875 C-6 16 -6 16 -8 17 C-7.979375 16.05125 -7.95875 15.1025 -7.9375 14.125 C-7.77448174 11.09333717 -7.77448174 11.09333717 -9 9 C-10.32 9 -11.64 9 -13 9 C-13 7.02 -13 5.04 -13 3 C-12.34 3 -11.68 3 -11 3 C-10.67 3.66 -10.34 4.32 -10 5 C-9.401875 4.79375 -8.80375 4.5875 -8.1875 4.375 C-6 4 -6 4 -3 6 C-2.67 5.34 -2.34 4.68 -2 4 C-1.34 4 -0.68 4 0 4 C0 2.68 0 1.36 0 0 Z " fill="#201F1F" transform="translate(281,262)"/>
<path d="M0 0 C0.33 0.99 0.66 1.98 1 3 C-0.8125 6.1875 -0.8125 6.1875 -3 9 C-3.66 9 -4.32 9 -5 9 C-5 9.66 -5 10.32 -5 11 C-5.66 11 -6.32 11 -7 11 C-7 11.66 -7 12.32 -7 13 C-9.64 13.99 -12.28 14.98 -15 16 C-15.33 15.01 -15.66 14.02 -16 13 C-15.38125 12.566875 -14.7625 12.13375 -14.125 11.6875 C-11.7802755 10.00259517 -11.7802755 10.00259517 -10 7 C-9.67 7.66 -9.34 8.32 -9 9 C-8.01 9.33 -7.02 9.66 -6 10 C-6 7.69 -6 5.38 -6 3 C-4.02 2.01 -2.04 1.02 0 0 Z " fill="#434243" transform="translate(414,383)"/>
<path d="M0 0 C0.99 0.33 1.98 0.66 3 1 C3 1.66 3 2.32 3 3 C4.32 2.67 5.64 2.34 7 2 C7 3.98 7 5.96 7 8 C6.34 8 5.68 8 5 8 C5.32355469 8.80179688 5.64710938 9.60359375 5.98046875 10.4296875 C7.21880738 14.76624499 7.3307804 18.64264587 7.3125 23.125 C7.32861328 23.92292969 7.34472656 24.72085938 7.36132812 25.54296875 C7.36620405 31.38432533 7.36620405 31.38432533 5.48046875 34.5546875 C4.99191406 35.03164062 4.50335938 35.50859375 4 36 C4.2475 34.576875 4.2475 34.576875 4.5 33.125 C6.08439803 21.47501448 3.80282788 11.04473489 0 0 Z " fill="#434142" transform="translate(292,153)"/>
<path d="M0 0 C0.66 0.66 1.32 1.32 2 2 C5.08347826 2.16681109 5.08347826 2.16681109 8 2 C7.67 3.32 7.34 4.64 7 6 C7.99 6 8.98 6 10 6 C12.1875 7 12.1875 7 14 8 C10.26282246 9.24572585 6.90294211 9.73180165 3 9 C0.15942191 5.80434964 0 4.3252957 0 0 Z " fill="#393739" transform="translate(304,314)"/>
<path d="M0 0 C0.66 0.33 1.32 0.66 2 1 C2.625 4.0625 2.625 4.0625 3 7 C3.99 6.34 4.98 5.68 6 5 C6 5.66 6 6.32 6 7 C6.66 7 7.32 7 8 7 C7.649375 7.763125 7.29875 8.52625 6.9375 9.3125 C5.67639116 12.04759379 5.67639116 12.04759379 7 15 C7.66 15.33 8.32 15.66 9 16 C8.01 16 7.02 16 6 16 C3 11.77777778 3 11.77777778 3 9 C2.34 9 1.68 9 1 9 C0.01 6.69 -0.98 4.38 -2 2 C-1.34 2 -0.68 2 0 2 C0 1.34 0 0.68 0 0 Z " fill="#2D2B2B" transform="translate(204,243)"/>
<path d="M0 0 C-2.70879335 1.35439668 -5.00933268 1.06501451 -8 1 C-8 1.66 -8 2.32 -8 3 C-8.99 3 -9.98 3 -11 3 C-11.33 3.99 -11.66 4.98 -12 6 C-12.99 5.67 -13.98 5.34 -15 5 C-15 4.34 -15 3.68 -15 3 C-17.64 3.33 -20.28 3.66 -23 4 C-20.75731091 1.75731091 -19.9997167 1.62121344 -16.97265625 1.11328125 C-16.18052734 0.97986328 -15.38839844 0.84644531 -14.57226562 0.70898438 C-13.74404297 0.57814453 -12.91582031 0.44730469 -12.0625 0.3125 C-11.23814453 0.17005859 -10.41378906 0.02761719 -9.56445312 -0.11914062 C-3.38459736 -1.12819912 -3.38459736 -1.12819912 0 0 Z " fill="#575757" transform="translate(303,337)"/>
<path d="M0 0 C0.598125 0.20625 1.19625 0.4125 1.8125 0.625 C0.83776874 2.29426454 -0.14239789 3.96035642 -1.125 5.625 C-1.94291016 7.0171875 -1.94291016 7.0171875 -2.77734375 8.4375 C-3.24269531 9.159375 -3.70804687 9.88125 -4.1875 10.625 C-4.5175 10.625 -4.8475 10.625 -5.1875 10.625 C-5.26846803 9.16757537 -5.32667774 7.70887193 -5.375 6.25 C-5.40980469 5.43789063 -5.44460938 4.62578125 -5.48046875 3.7890625 C-5.38378906 3.07492188 -5.28710938 2.36078125 -5.1875 1.625 C-2.1875 -0.375 -2.1875 -0.375 0 0 Z " fill="#3C3B3B" transform="translate(289.1875,251.375)"/>
<path d="M0 0 C0.66 0 1.32 0 2 0 C2.86366822 1.78710586 3.71568594 3.5798465 4.5625 5.375 C5.27599609 6.87160156 5.27599609 6.87160156 6.00390625 8.3984375 C6.33261719 9.25695312 6.66132813 10.11546875 7 11 C6.67 11.66 6.34 12.32 6 13 C2.62524024 10.14443405 1.13911351 8.64206237 0.1875 4.25 C0 1 0 1 0 0 Z " fill="#262525" transform="translate(312,134)"/>
<path d="M0 0 C2 1.3125 2 1.3125 4 3 C4 3.99 4 4.98 4 6 C1.36 6.99 -1.28 7.98 -4 9 C-4.33 8.01 -4.66 7.02 -5 6 C-4.360625 5.566875 -3.72125 5.13375 -3.0625 4.6875 C-0.73253997 3.08760823 -0.73253997 3.08760823 0 0 Z " fill="#393839" transform="translate(403,390)"/>
<path d="M0 0 C2.60608273 2.5162178 4.89381685 5.05134359 7 8 C6.67 8.66 6.34 9.32 6 10 C3.69 9.34 1.38 8.68 -1 8 C-0.67 5.36 -0.34 2.72 0 0 Z " fill="#353435" transform="translate(228,307)"/>
<path d="M0 0 C6.16618181 -0.40214229 11.17745757 1.03181664 17 3 C13.52674819 4.1577506 10.63932552 4.06866652 7 4 C6.67 4.99 6.34 5.98 6 7 C6 5.02 6 3.04 6 1 C4.02 1 2.04 1 0 1 C0 0.67 0 0.34 0 0 Z " fill="#4F4F4F" transform="translate(257,100)"/>
<path d="M0 0 C1.2065625 0.0309375 1.2065625 0.0309375 2.4375 0.0625 C2.4375 3.0325 2.4375 6.0025 2.4375 9.0625 C1.1175 8.7325 -0.2025 8.4025 -1.5625 8.0625 C-1.8925 7.0725 -2.2225 6.0825 -2.5625 5.0625 C-1.9025 5.0625 -1.2425 5.0625 -0.5625 5.0625 C-0.2325 4.0725 0.0975 3.0825 0.4375 2.0625 C-0.8825 1.7325 -2.2025 1.4025 -3.5625 1.0625 C-2.5625 0.0625 -2.5625 0.0625 0 0 Z " fill="#484647" transform="translate(197.5625,170.9375)"/>
<path d="M0 0 C0.99 0 1.98 0 3 0 C3.33 1.65 3.66 3.3 4 5 C3.01 5.495 3.01 5.495 2 6 C1.67 6.99 1.34 7.98 1 9 C1.99 9.33 2.98 9.66 4 10 C2.68 10.33 1.36 10.66 0 11 C-0.625 8.6875 -0.625 8.6875 -1 6 C-0.34 5.01 0.32 4.02 1 3 C0.67 2.01 0.34 1.02 0 0 Z " fill="#0C0C0C" transform="translate(163,285)"/>
<path d="M0 0 C1.32 0.33 2.64 0.66 4 1 C4 1.66 4 2.32 4 3 C4.66 3.33 5.32 3.66 6 4 C3.10765685 4.82638376 1.11257569 5 -2 5 C-2 4.01 -2 3.02 -2 2 C-1.34 2 -0.68 2 0 2 C0 1.34 0 0.68 0 0 Z " fill="#262626" transform="translate(143,396)"/>
<path d="M0 0 C0.33 0.66 0.66 1.32 1 2 C0.07421875 3.8046875 0.07421875 3.8046875 -1.3125 5.875 C-3.0682105 8.52114248 -4.630563 11.13254037 -6 14 C-6.66 13.67 -7.32 13.34 -8 13 C-7.23302204 11.58124235 -6.46123222 10.16508548 -5.6875 8.75 C-5.04361328 7.56664062 -5.04361328 7.56664062 -4.38671875 6.359375 C-3.0603786 4.10272866 -1.61115776 2.06001403 0 0 Z " fill="#504D4F" transform="translate(277,293)"/>
<path d="M0 0 C0.99 0 1.98 0 3 0 C1.54955729 4.10958767 -0.51110752 7.43258745 -3 11 C-5 8 -5 8 -5 6 C-4.34 6 -3.68 6 -3 6 C-2.67 5.34 -2.34 4.68 -2 4 C-1.34 4 -0.68 4 0 4 C0 2.68 0 1.36 0 0 Z " fill="#535152" transform="translate(281,262)"/>
<path d="M0 0 C1.58468677 0.45363171 3.16769924 0.91311452 4.75 1.375 C5.63171875 1.63023437 6.5134375 1.88546875 7.421875 2.1484375 C9.76080572 2.9209934 11.83442562 3.83625676 14 5 C12.68 5 11.36 5 10 5 C9.67 5.66 9.34 6.32 9 7 C8.4225 6.525625 7.845 6.05125 7.25 5.5625 C5.13789507 3.88841164 5.13789507 3.88841164 2.8125 3.5 C2.214375 3.335 1.61625 3.17 1 3 C0.67 2.01 0.34 1.02 0 0 Z " fill="#504F50" transform="translate(227,220)"/>
<path d="M0 0 C0 1.66666667 0 3.33333333 0 5 C-0.99 4.67 -1.98 4.34 -3 4 C-3 3.01 -3 2.02 -3 1 C-5.64 1 -8.28 1 -11 1 C-11 0.67 -11 0.34 -11 0 C-3.57142857 -1.28571429 -3.57142857 -1.28571429 0 0 Z " fill="#414141" transform="translate(393,320)"/>
<path d="M0 0 C0 3 0 3 -1 5 C-1.66 5 -2.32 5 -3 5 C-3.33 6.32 -3.66 7.64 -4 9 C-5 7 -5 7 -4.25 3.9375 C-3.8375 2.968125 -3.425 1.99875 -3 1 C-2.01 0.67 -1.02 0.34 0 0 Z " fill="#575656" transform="translate(296,242)"/>
<path d="M0 0 C0.99 0.33 1.98 0.66 3 1 C3 1.66 3 2.32 3 3 C4.32 2.67 5.64 2.34 7 2 C6.67 3.32 6.34 4.64 6 6 C4.68 6 3.36 6 2 6 C1.34 4.02 0.68 2.04 0 0 Z " fill="#322C2D" transform="translate(292,153)"/>
<path d="M0 0 C0.66 0 1.32 0 2 0 C2.6875 2.8125 2.6875 2.8125 3 6 C2.01 6.99 1.02 7.98 0 9 C0 6.03 0 3.06 0 0 Z " fill="#2B2A2A" transform="translate(284,253)"/>
<path d="M0 0 C0.33 0.99 0.66 1.98 1 3 C-0.62339805 4.70884005 -2.29319053 6.37446717 -4 8 C-4.66 8 -5.32 8 -6 8 C-6 7.34 -6 6.68 -6 6 C-5.34 6 -4.68 6 -4 6 C-3.71125 5.38125 -3.4225 4.7625 -3.125 4.125 C-2 2 -2 2 0 0 Z " fill="#494849" transform="translate(140,242)"/>
<path d="M0 0 C0.66 0.33 1.32 0.66 2 1 C2.59355614 3.64860427 2.74209269 6.29197322 3 9 C2.34 9 1.68 9 1 9 C0.01 6.69 -0.98 4.38 -2 2 C-1.34 2 -0.68 2 0 2 C0 1.34 0 0.68 0 0 Z " fill="#3D3B3C" transform="translate(204,243)"/>
<path d="M0 0 C0.66 0 1.32 0 2 0 C3.4606285 2.64738916 4 3.89448334 4 7 C3.01 7.33 2.02 7.66 1 8 C0 1.125 0 1.125 0 0 Z " fill="#4B4A4A" transform="translate(312,134)"/>
</svg>
