<svg width="24" height="24" viewBox="0 0 24 24" fill="none" xmlns="http://www.w3.org/2000/svg">
<path d="M18.6907 12.5279C18.5602 12.382 18.4882 12.1943 18.4882 12C18.4882 11.8057 18.5602 11.618 18.6907 11.4721L19.7329 10.3202C19.8477 10.1944 19.919 10.036 19.9366 9.8679C19.9541 9.69976 19.917 9.53049 19.8306 9.38436L18.2022 6.61673C18.1166 6.47077 17.9864 6.35507 17.8299 6.28613C17.6735 6.21718 17.4989 6.19852 17.331 6.23278L15.8004 6.53674C15.6056 6.57628 15.4028 6.54441 15.2303 6.44716C15.0578 6.3499 14.9276 6.19398 14.864 6.00882L14.3674 4.54501C14.3128 4.38614 14.2087 4.24815 14.0699 4.15054C13.9311 4.05294 13.7646 4.00065 13.5939 4.00109H10.3372C10.1596 3.99198 9.98393 4.04022 9.83691 4.13844C9.68989 4.23666 9.57964 4.37945 9.52299 4.54501L9.06705 6.00882C9.00354 6.19398 8.87325 6.3499 8.70075 6.44716C8.52826 6.54441 8.3255 6.57628 8.13073 6.53674L6.55935 6.23278C6.40022 6.21069 6.23799 6.23536 6.09311 6.30369C5.94822 6.37201 5.82716 6.48093 5.74517 6.61673L4.1168 9.38436C4.02818 9.52886 3.98834 9.69718 4.00296 9.86527C4.01758 10.0334 4.08592 10.1926 4.19821 10.3202L5.23223 11.4721C5.36276 11.618 5.43475 11.8057 5.43475 12C5.43475 12.1943 5.36276 12.382 5.23223 12.5279L4.19821 13.6798C4.08592 13.8074 4.01758 13.9666 4.00296 14.1347C3.98834 14.3028 4.02818 14.4711 4.1168 14.6156L5.74517 17.3833C5.83074 17.5292 5.96102 17.6449 6.11746 17.7139C6.27389 17.7828 6.44848 17.8015 6.61635 17.7672L8.14702 17.4633C8.34178 17.4237 8.54455 17.4556 8.71704 17.5528C8.88953 17.6501 9.01982 17.806 9.08333 17.9912L9.57998 19.455C9.63663 19.6205 9.74689 19.7633 9.8939 19.8616C10.0409 19.9598 10.2166 20.008 10.3942 19.9989H13.6509C13.8216 19.9993 13.9881 19.9471 14.1269 19.8495C14.2657 19.7519 14.3698 19.6139 14.4244 19.455L14.921 17.9912C14.9845 17.806 15.1148 17.6501 15.2873 17.5528C15.4598 17.4556 15.6626 17.4237 15.8574 17.4633L17.388 17.7672C17.5559 17.8015 17.7305 17.7828 17.8869 17.7139C18.0433 17.6449 18.1736 17.5292 18.2592 17.3833L19.8876 14.6156C19.974 14.4695 20.0111 14.3002 19.9936 14.1321C19.976 13.964 19.9047 13.8056 19.7899 13.6798L18.6907 12.5279ZM17.4776 13.5998L18.1289 14.3197L17.0868 16.0954L16.126 15.9035C15.5396 15.7857 14.9296 15.8836 14.4118 16.1785C13.894 16.4734 13.5045 16.9448 13.3171 17.5033L13.0077 18.3991H10.9234L10.6303 17.4873C10.4429 16.9288 10.0533 16.4574 9.53553 16.1625C9.01773 15.8676 8.40773 15.7697 7.82134 15.8875L6.8606 16.0794L5.80216 14.3117L6.45351 13.5918C6.85405 13.1518 7.07549 12.5823 7.07549 11.992C7.07549 11.4017 6.85405 10.8322 6.45351 10.3922L5.80216 9.67232L6.84432 7.91256L7.80506 8.10453C8.39145 8.22229 9.00145 8.12443 9.51925 7.82953C10.0371 7.53462 10.4266 7.0632 10.614 6.50475L10.9234 5.60087H13.0077L13.3171 6.51275C13.5045 7.0712 13.894 7.54262 14.4118 7.83752C14.9296 8.13243 15.5396 8.23029 16.126 8.11253L17.0868 7.92055L18.1289 9.69631L17.4776 10.4162C17.0815 10.8552 16.8629 11.4214 16.8629 12.008C16.8629 12.5946 17.0815 13.1608 17.4776 13.5998ZM11.9655 8.80044C11.3214 8.80044 10.6918 8.98809 10.1562 9.33966C9.62063 9.69123 9.2032 10.1909 8.95671 10.7756C8.71021 11.3602 8.64572 12.0035 8.77138 12.6242C8.89704 13.2449 9.20722 13.815 9.66268 14.2624C10.1181 14.7099 10.6984 15.0146 11.3302 15.1381C11.9619 15.2615 12.6168 15.1982 13.2118 14.956C13.8069 14.7138 14.3156 14.3037 14.6734 13.7776C15.0313 13.2514 15.2223 12.6328 15.2223 12C15.2223 11.1514 14.8792 10.3376 14.2684 9.73757C13.6577 9.13753 12.8293 8.80044 11.9655 8.80044ZM11.9655 13.5998C11.6435 13.5998 11.3287 13.506 11.0609 13.3302C10.7931 13.1544 10.5844 12.9045 10.4611 12.6122C10.3379 12.3199 10.3056 11.9982 10.3685 11.6879C10.4313 11.3776 10.5864 11.0925 10.8141 10.8688C11.0418 10.6451 11.332 10.4927 11.6479 10.431C11.9637 10.3692 12.2912 10.4009 12.5887 10.522C12.8862 10.6431 13.1406 10.8481 13.3195 11.1112C13.4984 11.3743 13.5939 11.6836 13.5939 12C13.5939 12.4243 13.4224 12.8312 13.117 13.1312C12.8116 13.4312 12.3974 13.5998 11.9655 13.5998Z" fill="black" fill-opacity="0.87"/>
</svg>
