<svg width="64" height="64" viewBox="0 0 64 64" fill="none" xmlns="http://www.w3.org/2000/svg">
<path d="M59.9961 5.40899C59.9961 5.39899 59.9931 5.38799 59.9921 5.37699C59.9881 5.27348 59.9678 5.17124 59.9321 5.07399C59.9221 5.04547 59.9108 5.01744 59.8981 4.98999C59.8535 4.89067 59.7926 4.79944 59.7181 4.71999C59.7101 4.71199 59.7081 4.70199 59.7011 4.69499C59.6911 4.68499 59.6771 4.68199 59.6671 4.67299C59.5939 4.60715 59.5114 4.55255 59.4221 4.51099C59.3794 4.49112 59.3353 4.47441 59.2901 4.46099C59.0905 4.39333 58.8739 4.39474 58.6751 4.46499L58.6561 4.47199C58.6361 4.47899 58.6181 4.48299 58.5991 4.49199L8.56113 21.682C8.36789 21.7482 8.19955 21.872 8.07877 22.0367C7.95799 22.2015 7.89056 22.3993 7.88555 22.6035C7.88054 22.8077 7.93819 23.0085 8.05075 23.179C8.16331 23.3495 8.32537 23.4814 8.51513 23.557L31.8051 32.829L41.5151 56.886C41.5896 57.0707 41.7175 57.2289 41.8825 57.3405C42.0475 57.452 42.242 57.5117 42.4411 57.512H42.4771C42.6824 57.5047 42.8804 57.4343 43.0443 57.3105C43.2082 57.1867 43.33 57.0154 43.3931 56.82L59.9501 5.71999C59.9816 5.61938 59.9977 5.51439 59.9961 5.40899ZM55.2601 7.75299L32.3231 30.883L11.7631 22.696L55.2601 7.75299ZM42.3381 53.585L33.7441 32.29L56.7591 9.08199L42.3381 53.585Z" fill="black" fill-opacity="0.87"/>
<path d="M24.7761 37.862C24.5113 37.8721 24.2613 37.9869 24.0809 38.1811C23.9006 38.3753 23.8046 38.6331 23.8141 38.898C23.8161 38.948 23.9631 43.986 20.9641 46.713C19.5751 47.9092 17.7884 48.5421 15.9561 48.487C16.8043 46.5943 17.1 44.5004 16.8091 42.447C16.6761 41.5841 16.3683 40.7574 15.9045 40.0177C15.4407 39.2779 14.8308 38.6407 14.1121 38.145C13.1553 37.4924 12.0363 37.1179 10.8794 37.0631C9.72258 37.0084 8.57321 37.2756 7.5591 37.835C6.75023 38.2013 6.05055 38.7717 5.52879 39.4901C5.00703 40.2086 4.68113 41.0504 4.5831 41.933C4.2321 46.59 10.5591 49.252 12.8451 50.058C10.5913 53.16 7.73798 55.7784 4.4541 57.758C4.33896 57.8272 4.23898 57.919 4.16011 58.0278C4.08123 58.1366 4.0251 58.2602 3.99505 58.3912C3.965 58.5221 3.96166 58.6578 3.98522 58.7901C4.00878 58.9224 4.05876 59.0486 4.13218 59.1611C4.20559 59.2737 4.30094 59.3703 4.41252 59.4451C4.5241 59.52 4.64963 59.5716 4.7816 59.5969C4.91358 59.6222 5.04929 59.6206 5.18065 59.5923C5.312 59.5639 5.43629 59.5094 5.5461 59.432C10.4391 56.239 13.3101 53.172 14.9441 50.462C16.2641 50.6102 17.6006 50.4844 18.8697 50.0924C20.1389 49.7004 21.3135 49.0507 22.3201 48.184C26.0061 44.821 25.8221 39.064 25.8131 38.821C25.8011 38.5568 25.6856 38.3079 25.4915 38.1282C25.2975 37.9486 25.0404 37.8535 24.7761 37.862ZM13.8591 48.294C11.4651 47.521 6.3421 45.202 6.5771 42.084C6.64914 41.5499 6.85822 41.0435 7.18399 40.6142C7.50976 40.1848 7.94112 39.8471 8.4361 39.634C9.13709 39.2708 9.91183 39.0728 10.7011 39.055C11.5157 39.0566 12.3094 39.3129 12.9711 39.788C13.4675 40.1305 13.8886 40.5708 14.2088 41.0818C14.529 41.5929 14.7414 42.1639 14.8331 42.76C15.0872 44.6609 14.747 46.594 13.8591 48.294Z" fill="black" fill-opacity="0.87"/>
</svg>
