<svg width="24" height="24" viewBox="0 0 24 24" fill="none" xmlns="http://www.w3.org/2000/svg">
    <path fill-rule="evenodd" clip-rule="evenodd"
        d="M10.8148 5.77778C8.03293 5.77778 5.77778 8.03293 5.77778 10.8148C5.77778 13.5967 8.03294 15.8519 10.8148 15.8519C13.5967 15.8519 15.8519 13.5967 15.8519 10.8148C15.8519 8.03294 13.5967 5.77778 10.8148 5.77778ZM4 10.8148C4 7.05109 7.05109 4 10.8148 4C14.5785 4 17.6296 7.05109 17.6296 10.8148C17.6296 12.3789 17.1027 13.82 16.2166 14.9701L19.7387 18.4816C20.0864 18.8282 20.0872 19.3911 19.7406 19.7387C19.394 20.0864 18.8312 20.0872 18.4835 19.7406L14.9582 16.2258C13.81 17.1063 12.3735 17.6296 10.8148 17.6296C7.05109 17.6296 4 14.5785 4 10.8148Z"
        fill="black" fill-opacity="0.4" />
</svg>
