<svg width="24" height="24" viewBox="0 0 24 24" fill="none" xmlns="http://www.w3.org/2000/svg">
<path fill-rule="evenodd" clip-rule="evenodd" d="M8.1841 8.75628C8.53123 9.09799 8.53123 9.65201 8.1841 9.99372L7.03486 11.125L6.14597 12L7.03486 12.875L8.1841 14.0063C8.53123 14.348 8.53123 14.902 8.1841 15.2437C7.83696 15.5854 7.27415 15.5854 6.92702 15.2437L4.26035 12.6187C3.91322 12.277 3.91322 11.723 4.26035 11.3813L6.92702 8.75628C7.27415 8.41457 7.83696 8.41457 8.1841 8.75628Z" fill="black" fill-opacity="0.87"/>
<path fill-rule="evenodd" clip-rule="evenodd" d="M11.1111 6.75V8.9375C11.1111 9.42075 10.7131 9.8125 10.2222 9.8125C9.7313 9.8125 9.33333 9.42075 9.33333 8.9375V6.64062C9.33333 6.19448 9.52071 5.77369 9.84249 5.46882C10.1631 5.16504 10.591 5 11.0303 5H18.303C18.7424 5 19.1702 5.16504 19.4908 5.46882C19.8126 5.77369 20 6.19448 20 6.64062V17.3594C20 17.8055 19.8126 18.2263 19.4908 18.5312C19.1702 18.835 18.7424 19 18.303 19H11.0303C10.591 19 10.1631 18.835 9.84249 18.5312C9.52071 18.2263 9.33333 17.8055 9.33333 17.3594V15.0625C9.33333 14.5793 9.7313 14.1875 10.2222 14.1875C10.7131 14.1875 11.1111 14.5793 11.1111 15.0625V17.25H18.2222V6.75H11.1111Z" fill="black" fill-opacity="0.87"/>
<path d="M7.03486 11.125L6.14597 12L7.03486 12.875H15.5556C16.0465 12.875 16.4444 12.4832 16.4444 12C16.4444 11.5168 16.0465 11.125 15.5556 11.125H7.03486Z" fill="black" fill-opacity="0.87"/>
</svg>
