<svg width="24" height="24" viewBox="0 0 24 24" fill="none" xmlns="http://www.w3.org/2000/svg">
    <path
        d="M16.5 5C16.7038 5 16.8947 5.08885 17.0202 5.23838L17.0699 5.3061L19.9032 9.76064C20.0371 9.97115 20.0306 10.234 19.893 10.4368L19.8423 10.5019L12.5089 18.7747C12.2604 19.0551 11.8211 19.0738 11.5471 18.8308L11.4911 18.7747L4.15775 10.5019C3.99109 10.314 3.95455 10.0534 4.05737 9.83261L4.09681 9.76064L6.93015 5.3061C7.03592 5.1398 7.21455 5.03017 7.4136 5.00536L7.50001 5H16.5ZM14.3433 10.7273H9.656L11.9993 16.2458L14.3433 10.7273ZM17.896 10.7273H15.782L13.8373 15.3059L17.896 10.7273ZM8.21734 10.7273H6.10334L10.1613 15.3046L8.21734 10.7273ZM9.116 6.27273H7.87401L5.85 9.45455H8.16334L9.116 6.27273ZM13.4973 6.27273H10.502L9.54934 9.45455H14.45L13.4973 6.27273ZM16.1253 6.27273H14.8833L15.836 9.45455H18.1493L16.1253 6.27273Z"
        fill="black" fill-opacity="0.87" />
</svg>
