<svg width="24" height="25" viewBox="0 0 24 25" fill="none" xmlns="http://www.w3.org/2000/svg">
    <path fill-rule="evenodd" clip-rule="evenodd"
        d="M4 12.5C4 8.62107 7.24121 5.5 11.2098 5.5C15.1097 5.5 18.3071 8.51375 18.4168 12.2989L18.5855 12.1771C18.9815 11.8914 19.5377 11.9758 19.828 12.3655C20.1182 12.7553 20.0325 13.3028 19.6366 13.5885L17.8093 14.9071C17.4271 15.1828 16.8925 15.115 16.5938 14.753L15.19 13.0517C14.8805 12.6765 14.9385 12.1255 15.3195 11.8208C15.7006 11.5161 16.2604 11.5732 16.5699 11.9483L16.6182 12.0069C16.3614 9.34908 14.0496 7.25 11.2098 7.25C8.19654 7.25 5.77777 9.61344 5.77777 12.5C5.77777 15.3866 8.19654 17.75 11.2098 17.75C12.8045 17.75 14.235 17.0872 15.2281 16.0328C15.5618 15.6784 16.1243 15.6574 16.4843 15.986C16.8443 16.3145 16.8655 16.8681 16.5318 17.2225C15.213 18.6228 13.315 19.5 11.2098 19.5C7.24121 19.5 4 16.379 4 12.5Z"
        fill="black" fill-opacity="0.87" />
    <path fill-rule="evenodd" clip-rule="evenodd"
        d="M12 9.5C12.5523 9.5 13 9.88376 13 10.3571V13.2101L10.7071 15.2489C10.3166 15.5837 9.68342 15.5837 9.29289 15.2489C8.90237 14.9142 8.90237 14.3715 9.29289 14.0368L11 12.5V10.3571C11 9.88376 11.4477 9.5 12 9.5Z"
        fill="black" fill-opacity="0.87" />
</svg>
