<svg width="24" height="24" viewBox="0 0 24 24" fill="none" xmlns="http://www.w3.org/2000/svg">
    <path
        d="M20 6C20 6.26522 19.9064 6.51957 19.7397 6.70711C19.573 6.89464 19.3469 7 19.1111 7H4.88889C4.65314 7 4.42705 6.89464 4.26035 6.70711C4.09365 6.51957 4 6.26522 4 6C4 5.73478 4.09365 5.48043 4.26035 5.29289C4.42705 5.10536 4.65314 5 4.88889 5H19.1111C19.3469 5 19.573 5.10536 19.7397 5.29289C19.9064 5.48043 20 5.73478 20 6Z"
        fill="black" />
    <path
        d="M16.4444 12C16.4444 12.2652 16.3508 12.5196 16.1841 12.7071C16.0174 12.8946 15.7913 13 15.5556 13H4.88889C4.65314 13 4.42705 12.8946 4.26035 12.7071C4.09365 12.5196 4 12.2652 4 12C4 11.7348 4.09365 11.4804 4.26035 11.2929C4.42705 11.1054 4.65314 11 4.88889 11H15.5556C15.7913 11 16.0174 11.1054 16.1841 11.2929C16.3508 11.4804 16.4444 11.7348 16.4444 12Z"
        fill="black" />
    <path
        d="M11.1111 18C11.1111 18.2652 11.0362 18.5196 10.9028 18.7071C10.7695 18.8946 10.5886 19 10.4 19H4.71111C4.52251 19 4.34164 18.8946 4.20828 18.7071C4.07492 18.5196 4 18.2652 4 18C4 17.7348 4.07492 17.4804 4.20828 17.2929C4.34164 17.1054 4.52251 17 4.71111 17H10.4C10.5886 17 10.7695 17.1054 10.9028 17.2929C11.0362 17.4804 11.1111 17.7348 11.1111 18Z"
        fill="black" />
</svg>
