<svg width="24" height="24" viewBox="0 0 24 24" fill="none" xmlns="http://www.w3.org/2000/svg">
    <path
        d="M17.3333 15.6C18.8061 15.6 20 16.8088 20 18.3C20 19.7912 18.8061 21 17.3333 21C15.8605 21 14.6667 19.7912 14.6667 18.3C14.6667 16.8088 15.8605 15.6 17.3333 15.6ZM15.1111 4.80003C17.3203 4.80003 19.1111 6.61328 19.1111 8.85003C19.1111 11.0868 17.3203 12.9 15.1111 12.9H8.88889C7.66159 12.9 6.66667 13.9074 6.66667 15.15C6.66667 16.3927 7.66159 17.4 8.88889 17.4H12.8889C13.3798 17.4 13.7778 17.803 13.7778 18.3C13.7778 18.7971 13.3798 19.2 12.8889 19.2H8.88889C6.67975 19.2 4.88889 17.3868 4.88889 15.15C4.88889 12.9133 6.67975 11.1 8.88889 11.1H15.1111C16.3384 11.1 17.3333 10.0927 17.3333 8.85003C17.3333 7.60739 16.3384 6.60003 15.1111 6.60003H11.1111C10.6202 6.60003 10.2222 6.19708 10.2222 5.70003C10.2222 5.20298 10.6202 4.80003 11.1111 4.80003H15.1111ZM6.66667 3.00003C8.13942 3.00003 9.33333 4.20887 9.33333 5.70003C9.33333 7.1912 8.13942 8.40003 6.66667 8.40003C5.19391 8.40003 4 7.1912 4 5.70003C4 4.20887 5.19391 3.00003 6.66667 3.00003Z"
        fill="#1679AB" />
</svg>
