<svg width="24" height="24" viewBox="0 0 24 24" fill="none" xmlns="http://www.w3.org/2000/svg">
    <path fill-rule="evenodd" clip-rule="evenodd"
        d="M6 10.5778C6 6.99988 8.63502 4 12 4C15.365 4 18 6.99988 18 10.5778C18 12.413 17.2461 14.0178 16.2307 15.4763C15.3845 16.6917 14.3012 17.8795 13.2292 19.0549C13.027 19.2767 12.8251 19.4981 12.6253 19.7191C12.4633 19.8983 12.2369 20 12 20C11.7631 20 11.5367 19.8983 11.3747 19.7191C11.1753 19.4985 10.9738 19.2775 10.7719 19.0561L10.7708 19.0549C9.69882 17.8795 8.6155 16.6917 7.76934 15.4763C6.75394 14.0178 6 12.413 6 10.5778ZM12 14C14.2091 14 16 12.2091 16 10C16 7.79086 14.2091 6 12 6C9.79086 6 8 7.79086 8 10C8 12.2091 9.79086 14 12 14Z"
        fill="#1679AB" />
    <path
        d="M11.3334 11.2501V8.75008C11.3334 8.51713 11.3334 8.40063 11.2996 8.30873C11.2545 8.18623 11.1679 8.08888 11.0591 8.03813C10.9774 8.00008 10.8738 8.00008 10.6667 8.00008C10.4597 8.00008 10.3561 8.00008 10.2744 8.03813C10.1655 8.08888 10.079 8.18623 10.0339 8.30873C10.0001 8.40063 10.0001 8.51713 10.0001 8.75008V11.2501C10.0001 11.483 10.0001 11.5995 10.0339 11.6914C10.079 11.8139 10.1655 11.9113 10.2744 11.962C10.3561 12.0001 10.4597 12.0001 10.6667 12.0001C10.8738 12.0001 10.9774 12.0001 11.0591 11.962C11.1679 11.9113 11.2545 11.8139 11.2996 11.6914C11.3334 11.5995 11.3334 11.483 11.3334 11.2501Z"
        fill="#1679AB" />
    <path
        d="M14 11.2501V8.75008C14 8.51713 14 8.40063 13.9662 8.30873C13.9211 8.18623 13.8346 8.08888 13.7257 8.03813C13.644 8.00008 13.5404 8.00008 13.3334 8.00008C13.1263 8.00008 13.0228 8.00008 12.9411 8.03813C12.8322 8.08888 12.7456 8.18623 12.7005 8.30873C12.6667 8.40063 12.6667 8.51713 12.6667 8.75008V11.2501C12.6667 11.483 12.6667 11.5995 12.7005 11.6914C12.7456 11.8139 12.8322 11.9113 12.9411 11.962C13.0228 12.0001 13.1263 12.0001 13.3334 12.0001C13.5404 12.0001 13.644 12.0001 13.7257 11.962C13.8346 11.9113 13.9211 11.8139 13.9662 11.6914C14 11.5995 14 11.483 14 11.2501Z"
        fill="#1679AB" />
</svg>
