<svg width="372" height="372" viewBox="0 0 372 372" fill="none" xmlns="http://www.w3.org/2000/svg">
<path d="M217.569 272.579C216.443 267.74 214.653 262.876 215.269 257.946C216.036 251.814 222.382 245.204 229.024 243.668L223.104 212.536L223.106 212.534C212.675 204.116 202.083 197.532 191.342 192.553C189.884 191.88 188.426 191.238 186.961 190.614L187.532 292.656C191.424 294.291 194.633 295.771 198.147 297.48C204.844 289.997 222.42 293.418 217.569 272.579ZM242.378 313.889L238.674 294.413C237.429 301.809 238.584 307.305 242.378 313.889Z" fill="#2884B2" fill-opacity="0.12"/>
<path d="M242.378 313.889C242.379 313.892 242.381 313.894 242.382 313.897L238.676 294.404C238.675 294.407 238.675 294.41 238.674 294.413L242.378 313.889Z" fill="#F4BB96"/>
<path d="M229.024 243.667L229.027 243.667L223.107 212.535L223.106 212.535L223.104 212.536L229.024 243.667Z" fill="#F4BB96"/>
<path d="M244.965 327.495L244.968 327.493L244.964 327.491L244.965 327.495Z" fill="white"/>
<path opacity="0.3" d="M244.968 327.492C246.324 326.289 247.702 325.092 249.099 323.9C246.79 320.597 244.363 317.332 242.382 313.897L244.968 327.492ZM246.235 269.519C248.366 259.648 245.975 247.619 235.182 243.881C233.209 243.198 231.104 243.187 229.027 243.667L238.676 294.404C240.147 285.677 244.392 278.054 246.235 269.519Z" fill="#4285F4"/>
<path d="M244.968 327.494V327.492L244.967 327.493L244.968 327.494Z" fill="white"/>
<path d="M244.965 327.491L242.378 313.889C238.585 307.306 237.429 301.81 238.674 294.413L229.024 243.668C222.382 245.204 216.036 251.814 215.269 257.946C214.653 262.876 216.443 267.74 217.569 272.579C222.419 293.416 204.839 290.003 198.147 297.48C203.229 299.952 208.293 302.647 213.34 305.59C223.974 311.791 234.522 319.06 244.965 327.491Z" fill="#4285F4"/>
<path d="M238.674 294.413C238.675 294.41 238.675 294.407 238.676 294.404L229.027 243.667L229.024 243.668L238.674 294.413ZM244.965 327.491L244.967 327.493L244.968 327.492L242.382 313.897C242.381 313.895 242.379 313.892 242.378 313.889L244.965 327.491Z" fill="white"/>
<path opacity="0.1" d="M285.821 296.463L248.864 192.968C239.395 199.265 230.734 205.769 223.106 212.534L223.107 212.535L229.027 243.667C231.104 243.187 233.209 243.198 235.182 243.881C245.975 247.618 248.366 259.648 246.235 269.518C244.386 278.086 240.147 285.674 238.676 294.404L242.382 313.897C244.363 317.332 246.79 320.597 249.099 323.9C260.674 314.02 272.999 305.012 285.821 296.463ZM187.532 292.656C186.459 293.724 185.366 294.774 184.256 295.787C184.256 295.794 184.256 295.794 184.256 295.794C180.253 299.512 176.059 302.946 171.684 306.115C160.632 314.127 148.47 320.452 135.333 325.313C133.546 325.974 131.747 326.61 129.922 327.215L129.618 327.067L150.716 212.362C164.542 207.742 176.766 200.725 186.961 190.614L187.532 292.656Z" fill="#4285F4"/>
<path d="M178.687 71.2518H176.26C176.089 71.2518 175.95 71.1137 175.95 70.943C175.95 70.7723 176.089 70.6341 176.26 70.6341H178.687C178.859 70.6341 178.998 70.7723 178.998 70.943C178.998 71.1137 178.859 71.2518 178.687 71.2518Z" fill="#212121"/>
<path d="M131.613 316.211L129.617 327.065L131.614 316.211L131.613 316.211Z" fill="#2884B2" fill-opacity="0.04"/>
<path d="M337.126 309.407C333.542 309.593 328.396 306.64 326.415 301.522C325.39 298.868 325.113 295.646 322.817 293.943C321.445 292.931 319.657 292.724 318.001 292.287C313.073 290.955 311.656 287.633 312.476 285.268C313.115 283.419 315.072 282.346 316.983 281.885C318.918 281.433 320.96 281.448 322.894 281.908L337.126 309.407Z" fill="#2884B2" fill-opacity="0.04"/>
<path d="M129.471 315.006C124.214 312.449 117.207 313.745 113.512 319.248L100.937 313.142C110.064 307.44 113.547 297.023 110.908 290.185C109.829 287.393 107.802 285.091 106.238 282.537C103.857 278.64 102.57 274.1 102.547 269.543C102.532 267.15 103.063 264.435 105.105 263.184C107.278 261.857 110.207 262.839 112.087 264.557C113.959 266.276 115.146 268.592 116.764 270.548C118.382 272.512 120.756 274.199 123.276 273.854C125.287 273.586 126.936 272.051 127.884 270.264C128.824 268.477 129.17 266.452 129.509 264.465C130.665 257.562 131.829 250.666 132.992 243.77C133.501 240.74 134.056 237.595 135.836 235.087C137.616 232.579 140.783 232.356 143.858 232.08C145.044 231.973 146.177 231.635 147.256 231.152L150.716 212.359L123.645 199.22L125.664 200.201C124.925 201.766 123.422 202.948 122.459 204.581C119.641 209.352 124.355 215.117 125.98 218.634C128.485 224.057 128.3 230.638 125.502 235.923C122.705 241.208 117.357 245.074 111.447 246.079C110.126 246.306 108.769 246.402 107.42 246.512L86.8966 306.331L129.617 327.068L129.617 327.065L131.613 316.211C130.912 315.797 130.203 315.367 129.471 315.006Z" fill="#2884B2" fill-opacity="0.12"/>
<path opacity="0.1" d="M100.436 248.089C97.2145 249.799 95.2804 253.259 94.2709 256.757C93.2616 260.254 92.9995 263.929 92.1364 267.465C89.293 279.07 79.4373 288.674 67.7168 291.259C57.7721 293.446 53.1001 289.299 51.9354 280.19L27.146 328.768C27.146 328.768 54.4398 323.759 86.8966 306.331L107.42 246.513C104.982 246.711 102.568 246.953 100.436 248.089Z" fill="#4285F4"/>
<path opacity="0.33" d="M111.447 246.079C117.357 245.074 122.705 241.208 125.502 235.923C128.3 230.638 128.485 224.057 125.98 218.634C124.358 215.123 119.64 209.353 122.459 204.581C123.422 202.948 124.925 201.766 125.664 200.201L123.645 199.22L107.42 246.512C108.769 246.402 110.126 246.306 111.447 246.079Z" fill="#4285F4"/>
<path opacity="0.3" d="M67.7168 291.259C79.4373 288.674 89.293 279.07 92.1364 267.465C92.9995 263.929 93.2616 260.254 94.2709 256.757C95.2804 253.259 97.2145 249.799 100.436 248.089C102.568 246.953 104.982 246.711 107.42 246.513L123.645 199.22C103.217 210.189 86.0412 213.341 86.0412 213.341L51.9354 280.19C53.101 289.306 57.7783 293.445 67.7168 291.259ZM227.327 215.735C229.107 214.868 230.709 213.656 232.559 212.958C237.922 210.933 243.956 213.61 249.635 212.804C251.617 212.522 253.514 211.776 255.192 210.689L248.864 192.968C239.394 199.266 230.733 205.77 223.104 212.536L223.932 216.894C225.104 216.638 226.249 216.261 227.327 215.735Z" fill="#4285F4"/>
<path d="M344.854 324.337L296.658 301.501L285.904 296.405C285.879 296.424 285.848 296.442 285.823 296.461L248.865 192.967L285.954 210.547L310.825 258.59C311.036 259 316.831 270.195 344.854 324.337Z" fill="#2884B2" fill-opacity="0.12"/>
<path opacity="0.3" d="M280.296 300.195C280.312 298.991 279.88 297.771 279.048 296.912C277.36 295.171 274.424 294.94 272.321 296.145C270.209 297.349 268.953 299.758 268.838 302.181C266.572 298.423 262.211 296.022 257.811 296.106C254.751 296.168 251.507 297.587 250.205 300.348C249.465 301.921 249.419 303.731 248.803 305.357C247.773 308.075 245.036 310.241 241.673 310.177L244.965 327.494C255.568 318.09 267.427 309.016 280.296 300.195Z" fill="#4285F4"/>
<path d="M143.858 232.081C140.783 232.357 137.616 232.579 135.836 235.087C134.056 237.596 133.501 240.741 132.992 243.771C131.829 250.666 130.665 257.562 129.509 264.466C129.17 266.452 128.824 268.477 127.884 270.265C126.936 272.052 125.287 273.586 123.276 273.854C120.756 274.199 118.382 272.512 116.764 270.548C115.146 268.592 113.959 266.276 112.087 264.558C110.207 262.839 107.278 261.858 105.105 263.185C103.063 264.435 102.532 267.15 102.547 269.544C102.57 274.1 103.857 278.641 106.238 282.537C107.802 285.092 109.829 287.393 110.908 290.185C113.556 297.048 110.028 307.463 100.936 313.143L113.512 319.249C117.185 313.778 124.188 312.437 129.471 315.007C130.203 315.367 130.912 315.797 131.613 316.211L147.256 231.152C146.177 231.636 145.044 231.973 143.858 232.081Z" fill="#4285F4"/>
<path d="M105.973 282.698C103.552 278.736 102.26 274.187 102.237 269.545C102.222 267.288 102.68 264.307 104.943 262.921C107.335 261.459 110.433 262.627 112.297 264.33C114.203 266.08 115.396 268.41 117.004 270.352C117.905 271.447 120.314 273.945 123.233 273.548C125.056 273.305 127.093 271.838 128.194 268.779C128.253 268.619 128.43 268.536 128.591 268.593C128.753 268.651 128.836 268.827 128.779 268.988C127.592 272.273 125.356 273.888 123.317 274.16C120.083 274.6 117.492 271.919 116.524 270.744C114.91 268.793 113.707 266.466 111.877 264.785C110.179 263.234 107.387 262.154 105.268 263.447C103.251 264.682 102.844 267.443 102.857 269.542C102.88 274.072 104.141 278.511 106.503 282.377C106.592 282.523 106.546 282.713 106.399 282.801C106.254 282.889 106.062 282.844 105.973 282.698ZM130.21 260.29C130.041 260.262 129.926 260.103 129.955 259.935L130.424 257.138C130.453 256.969 130.616 256.854 130.781 256.884C130.95 256.913 131.065 257.071 131.037 257.24L130.567 260.036C130.538 260.21 130.372 260.319 130.21 260.29Z" fill="#212121"/>
<path d="M188.085 74.8114C150.317 74.8114 119.692 105.287 119.692 142.891C119.692 173.073 163.776 223.691 181.157 242.475C184.89 246.503 191.279 246.503 195.012 242.475C212.393 223.691 256.477 173.073 256.477 142.891C256.477 105.287 225.852 74.8114 188.085 74.8114ZM188.085 189.24C161.551 189.24 140.043 167.839 140.043 141.427C140.043 115.006 161.551 93.6045 188.085 93.6045C214.618 93.6045 236.127 115.006 236.127 141.427C236.127 167.839 214.618 189.24 188.085 189.24Z" fill="white"/>
<path d="M219.222 82.2589C232.365 94.6682 240.562 112.217 240.562 131.674C240.562 139.222 237.807 148.043 233.401 157.327C231.763 161.959 229.43 166.258 226.526 170.113C212.08 194.406 190.169 219.293 179.099 231.258C177.591 232.882 175.655 233.852 173.632 234.167C176.462 237.354 179.012 240.159 181.159 242.475C184.889 246.502 191.28 246.502 195.009 242.475C212.39 223.691 256.479 173.071 256.479 142.891C256.479 116.454 241.338 93.5379 219.222 82.2589Z" fill="#2884B2" fill-opacity="0.04"/>
<path d="M180.929 242.684C162.423 222.685 119.382 172.925 119.382 142.891C119.382 105.182 150.201 74.5027 188.084 74.5027C225.967 74.5027 256.788 105.182 256.788 142.891C256.788 172.925 213.746 222.685 195.24 242.684C191.389 246.84 184.781 246.842 180.929 242.684ZM188.084 75.1204C150.544 75.1204 120.002 105.522 120.002 142.891C120.002 172.708 162.929 222.319 181.386 242.266C184.979 246.143 191.148 246.187 194.784 242.266C213.24 222.319 256.167 172.708 256.167 142.891C256.167 105.522 225.626 75.1204 188.084 75.1204ZM188.084 189.549C161.423 189.549 139.732 167.962 139.732 141.427C139.732 114.887 161.423 93.2958 188.084 93.2958C214.746 93.2958 236.437 114.887 236.437 141.427C236.437 167.962 214.746 189.549 188.084 189.549ZM188.084 93.9135C161.765 93.9135 140.353 115.228 140.353 141.427C140.353 167.621 161.765 188.931 188.084 188.931C214.404 188.931 235.816 167.621 235.816 141.427C235.816 115.228 214.404 93.9135 188.084 93.9135Z" fill="#212121"/>
<path d="M255.554 131.693C250.228 124.547 243.943 117.18 237.41 110.944C229.318 103.242 217.504 98.7513 208.009 96.231C206.526 95.842 205.105 95.4898 203.765 95.1872C197.125 93.6923 192.428 93.2353 192.428 93.2353C185.937 93.1673 179.955 93.7541 174.458 94.8165C172.999 95.1007 171.578 95.4157 170.188 95.774C146.273 101.735 132.343 116.732 126.565 124.385C124.592 126.986 124.654 130.581 126.714 133.107L138.951 148.16C139.479 148.815 140.093 149.34 140.769 149.754C140.292 147.054 140.043 144.269 140.043 141.427C140.043 115.003 161.551 93.6059 188.084 93.6059C214.618 93.6059 236.125 115.003 236.125 141.427C236.125 146.949 235.182 152.255 233.451 157.191C235.728 158.815 238.837 158.994 241.338 157.463C242.84 156.54 235.895 160.805 256.032 148.438C256.324 146.523 256.479 144.67 256.479 142.891C256.479 139.074 256.162 135.337 255.554 131.693Z" fill="#34A853"/>
<path d="M147.258 143.526C147.258 143.526 146.767 144.155 145.83 145.197C141.49 150.049 127.644 163.788 110.309 163.419C95.8305 163.104 92.2872 136.819 91.7203 116.514C91.3606 103.675 92.1893 93.2243 92.1893 93.2243L106.886 90.739L116.894 137.21L131.155 127.258L138.198 134.366L144.848 141.095L147.258 143.526Z" fill="#F4BB96"/>
<path d="M145.83 145.197C141.49 150.049 127.644 163.788 110.309 163.419C95.8305 163.104 92.2872 136.819 91.7203 116.514C92.0474 116.34 96.9644 145.48 106.57 153.445C110.113 156.376 114.419 158.72 119.031 158.785C123.632 158.85 128.484 156.137 129.77 151.731C130.544 149.115 130.021 146.326 129.825 143.602C129.617 140.889 129.868 137.872 131.776 135.919C133.39 134.258 135.919 133.802 138.198 134.366C138.95 134.54 139.68 134.833 140.335 135.235C142.493 136.537 143.976 138.719 144.848 141.095C145.066 141.627 145.23 142.17 145.371 142.723C145.579 143.537 145.731 144.362 145.83 145.197Z" fill="#EE9961"/>
<path d="M257.559 147.499C234.583 161.612 264.299 143.361 241.338 157.463C238.295 159.326 234.208 158.707 231.906 155.684L224.199 145.492C224.199 145.492 224.031 146.171 223.746 147.4C221.397 157.823 219.574 167.56 218.285 178.612C210.032 185.265 199.527 189.243 188.084 189.243C174.929 189.243 163.009 183.98 154.334 175.456C153.502 174.634 152.696 173.788 151.926 172.911C150.803 162.96 150.338 152.472 152.057 145.893L149.823 148.407C147.459 151.063 143.611 151.489 140.769 149.754C140.093 149.34 139.479 148.815 138.951 148.16L126.714 133.107C124.654 130.581 124.592 126.986 126.565 124.385C132.343 116.732 146.273 101.735 170.188 95.774C171.578 95.4157 172.999 95.1007 174.458 94.8165C179.955 93.7541 185.937 93.1673 192.428 93.2353C192.428 93.2353 197.125 93.6923 203.765 95.1872C205.105 95.4898 206.526 95.842 208.009 96.231C217.504 98.7513 229.318 103.242 237.41 110.944C245.492 118.658 253.304 128.209 259.705 137.462C262.008 140.791 261.027 145.368 257.559 147.499Z" fill="#4285F4"/>
<path d="M223.746 147.4C221.399 157.813 219.561 167.673 218.285 178.612C210.032 185.265 199.527 189.242 188.084 189.242C174.929 189.242 163.009 183.98 154.334 175.456C158.119 176.079 162.01 176.401 165.969 176.401C189.648 176.401 210.647 165.004 223.734 147.4H223.746ZM259.705 137.462C258.874 136.263 257.931 134.929 256.882 133.49C252.78 141.137 244.683 146.344 235.362 146.344C231.596 146.344 228.03 145.493 224.846 143.976V146.348L231.906 155.683C234.115 158.611 238.204 159.383 241.338 157.462C242.997 156.443 235.329 161.154 257.559 147.499C261.027 145.368 262.008 140.791 259.705 137.462ZM148.606 149.488C145.622 151.607 141.365 151.137 138.951 148.16L126.714 133.107C124.654 130.581 124.592 126.986 126.565 124.385C127.813 122.73 129.439 120.735 131.468 118.56C131.133 120.271 130.959 122.038 130.959 123.842C130.959 135.528 138.281 145.51 148.606 149.488Z" fill="#4285F4"/>
<path d="M186.297 153.056L194.745 183.673C195.054 184.795 194.206 185.902 193.037 185.902H174.096C173.036 185.902 172.107 185.197 171.826 184.18L163.378 153.563C163.069 152.441 163.917 151.333 165.086 151.333H184.028C185.087 151.333 186.017 152.039 186.297 153.056Z" fill="#212121"/>
<path d="M208.006 96.2305C206.545 105.39 198.51 112.249 189.134 112.249C179.507 112.249 171.439 105.205 170.186 95.7747C171.581 95.4165 172.998 95.1018 174.459 94.8193C179.954 93.7558 185.94 93.1697 192.427 93.2349C192.427 93.2349 197.126 93.6906 203.765 95.1887C205.106 95.4923 206.524 95.8394 208.006 96.2305Z" fill="#4285F4"/>
<path d="M171.895 102.186C171.816 102.034 171.875 101.848 172.027 101.769C172.177 101.691 172.366 101.749 172.445 101.9C178.198 112.898 192.898 115.317 201.972 106.875C202.098 106.757 202.294 106.764 202.411 106.889C202.528 107.014 202.521 107.209 202.396 107.326C193.023 116.046 177.838 113.547 171.895 102.186ZM205.522 103.007C205.374 102.921 205.323 102.732 205.409 102.585C205.663 102.149 205.903 101.698 206.12 101.245C206.194 101.091 206.378 101.026 206.534 101.099C206.689 101.172 206.754 101.357 206.68 101.511C206.455 101.979 206.209 102.445 205.946 102.895C205.86 103.043 205.669 103.092 205.522 103.007Z" fill="#212121"/>
<path d="M203.765 95.1887C202.795 102.373 196.613 107.908 189.134 107.908C181.524 107.908 175.255 102.178 174.459 94.8194C175.016 94.7115 175.579 94.6084 176.147 94.5108C178.295 94.1417 180.01 92.5278 180.552 90.4255C181.667 86.1033 183.418 79.3959 183.418 79.3959C186.024 81.5776 189.022 82.7169 192.216 82.7169C195.651 82.7169 198.867 81.382 201.614 78.8644C201.614 78.8644 200.422 84.1868 199.452 88.5363C198.783 91.5392 200.69 94.4939 203.704 95.1747L203.765 95.1887Z" fill="#F4BB96"/>
<path d="M203.765 95.1888C203.307 98.5961 201.683 101.624 199.295 103.881C196.864 96.2629 189.701 90.7391 181.241 90.7391C180.979 90.7391 180.718 90.7391 180.456 90.7608C180.498 90.621 183.405 79.4604 183.421 79.3979C186.027 81.5795 189.025 82.7188 192.22 82.7188C195.654 82.7188 198.87 81.384 201.618 78.8664C201.618 78.8664 200.418 84.1841 199.448 88.5357C198.783 91.5419 200.691 94.4941 203.7 95.1777L203.765 95.1888Z" fill="#EE9961"/>
<path d="M268.406 168.53C267.809 184.868 233.947 186.307 217.579 186.307C206.295 186.274 197.616 185.46 197.616 185.46L197.834 172.155C197.909 172.138 242.105 161.572 242.186 161.552C242.143 161.489 239.71 157.919 239.864 158.144C240.973 157.792 240.082 158.23 257.558 147.498C258.899 146.673 259.869 145.48 260.426 144.123C264.83 150.58 268.766 159.067 268.406 168.53Z" fill="#F4BB96"/>
<path d="M197.834 172.156C195.328 169.768 192.791 168.206 190.231 167.312L190.973 171.666C190.973 171.666 188.559 172.333 183.93 169.833C181.099 168.304 178.197 186.339 197.616 185.461L197.834 172.156Z" fill="#F4BB96"/>
<path d="M92.188 93.2241C92.188 93.2241 85.4177 85.653 88.7772 80.7753C91.4786 76.8531 101.981 75.6159 102.785 85.352C102.785 85.352 104.522 81.0851 106.682 81.9524C109.942 83.2619 106.884 90.7342 106.884 90.7342" fill="#F4BB96"/>
<path d="M224.16 145.797C223.989 145.777 223.868 145.623 223.889 145.453L225.43 132.65C225.45 132.48 225.609 132.36 225.775 132.38C225.945 132.4 226.066 132.554 226.045 132.723L224.504 145.527C224.483 145.704 224.318 145.819 224.16 145.797Z" fill="#212121"/>
<path d="M138.653 148.478L124.881 130.712C124.776 130.577 124.801 130.383 124.937 130.279C125.071 130.175 125.266 130.198 125.372 130.334L139.143 148.101C141.255 150.826 145.218 151.247 147.858 149.022L151.747 145.747L151.875 138.143C151.878 137.973 151.998 137.856 152.191 137.84C152.362 137.843 152.499 137.983 152.496 138.154L152.365 145.897C152.363 145.986 152.323 146.07 152.256 146.128L148.259 149.494C145.358 151.937 140.986 151.489 138.653 148.478Z" fill="#212121"/>
<path d="M268.406 168.53C267.905 182.259 243.865 185.721 223.935 186.242C224.426 185.971 225.036 185.862 225.592 185.786C232.897 184.874 240.31 184.375 247.332 182.194C260.692 178.049 266.347 168.955 266.204 163.701C265.976 156.75 259.912 157.45 253.96 159.295C250.035 160.532 245.773 161.075 241.641 160.749L239.864 158.144C240.973 157.792 240.082 158.23 257.558 147.498C258.899 146.673 259.869 145.48 260.426 144.123C264.83 150.58 268.766 159.067 268.406 168.53Z" fill="#EE9961"/>
<path d="M115.267 142.859C115.102 142.812 115.007 142.641 115.054 142.477L116.596 137.125C116.643 136.961 116.812 136.864 116.98 136.913C117.144 136.96 117.24 137.131 117.192 137.295L115.651 142.647C115.603 142.815 115.426 142.906 115.267 142.859Z" fill="#EE9961"/>
<path d="M204.212 73.6927C204.212 83.5263 198.373 88.7071 191.165 88.7071C183.962 88.7071 178.119 83.5263 178.119 73.6927C178.119 57.2214 183.96 55.8858 191.163 55.8858C198.371 55.8858 204.212 63.859 204.212 73.6927Z" fill="#F4BB96"/>
<path d="M202.949 69.199C202.949 69.199 197.433 67.4115 199.037 60.1977C199.037 60.1977 190.343 74.4295 178.771 65.5865L178.25 69.7107C178.25 69.7107 170.35 64.1726 176.42 57.1465C176.42 57.1465 171.508 46.4233 185.474 48.9293C185.474 48.9293 198.721 34.6692 204.758 51.2718C204.758 51.2718 214.979 48.1905 216.147 60.0507C217.315 71.911 200.777 84.4536 200.777 84.4536C204.489 79.0395 205.067 74.8057 202.949 69.199Z" fill="#212121"/>
<path d="M201.611 69.7328C202.282 68.0658 204.183 67.2614 205.854 67.9299C207.526 68.5984 208.34 70.4904 207.665 72.1571C206.994 73.8183 205.093 74.6256 203.419 73.9568" fill="#F4BB96"/>
<path d="M203.303 74.2432C203.144 74.1799 203.067 74.0001 203.131 73.8418C203.195 73.6828 203.374 73.6056 203.534 73.6702C205.98 74.6447 208.38 72.1825 207.355 69.7903C206.326 67.3972 202.878 67.4187 201.898 69.8476C201.834 70.0063 201.654 70.0826 201.495 70.0192C201.336 69.9559 201.259 69.7758 201.323 69.6178C202.515 66.6606 206.69 66.665 207.925 69.5478C209.173 72.454 206.24 75.4165 203.303 74.2432Z" fill="#212121"/>
<path d="M180.568 76.5961C177.972 76.5961 175.859 74.4912 175.859 71.904C175.859 69.319 177.972 67.2159 180.568 67.2159C183.167 67.2159 185.282 69.319 185.282 71.904C185.282 74.4912 183.167 76.5961 180.568 76.5961ZM180.568 67.8336C178.314 67.8336 176.48 69.6595 176.48 71.904C176.48 74.1507 178.314 75.9784 180.568 75.9784C182.826 75.9784 184.662 74.1507 184.662 71.904C184.662 69.6595 182.826 67.8336 180.568 67.8336Z" fill="#212121"/>
<path d="M192.463 76.5961C189.867 76.5961 187.753 74.4912 187.753 71.904C187.753 69.319 189.867 67.2159 192.463 67.2159C195.062 67.2159 197.177 69.319 197.177 71.904C197.177 74.4912 195.062 76.5961 192.463 76.5961ZM192.463 67.8336C190.208 67.8336 188.374 69.6595 188.374 71.904C188.374 74.1507 190.208 75.9784 192.463 75.9784C194.72 75.9784 196.557 74.1507 196.557 71.904C196.557 69.6595 194.72 67.8336 192.463 67.8336Z" fill="#212121"/>
<path d="M193.083 71.6191C193.083 72.3934 192.455 73.018 191.677 73.018C190.899 73.018 190.272 72.3934 190.272 71.6191C190.272 70.8446 190.899 70.22 191.677 70.22C192.455 70.22 193.083 70.8446 193.083 71.6191Z" fill="#212121"/>
<path d="M182.138 71.1494C182.138 71.9238 181.511 72.5483 180.733 72.5483C179.955 72.5483 179.327 71.9238 179.327 71.1494C179.327 70.3749 179.955 69.7504 180.733 69.7504C181.511 69.7504 182.138 70.3749 182.138 71.1494Z" fill="#212121"/>
<path d="M185.932 78.312C185.717 78.312 185.528 78.239 185.42 78.0176C184.853 76.8583 186.545 73.6052 186.89 72.9648C186.971 72.8143 187.16 72.7582 187.31 72.8388C187.461 72.9193 187.518 73.1063 187.437 73.2568C186.661 74.6976 185.711 76.9877 185.957 77.6967C186.356 77.6835 187.036 77.2157 187.428 77.4956C187.71 77.6969 187.673 78.1914 187.304 78.1914C187.188 78.1914 187.087 78.1283 187.034 78.0351C186.729 78.1021 186.305 78.312 185.932 78.312Z" fill="#EE9961"/>
<path d="M186.271 82.3867C185.156 82.2654 184.517 81.3561 184.49 81.3172C184.393 81.1769 184.429 80.9857 184.57 80.8892C184.71 80.7924 184.903 80.8271 185.001 80.9667C185.006 80.974 185.514 81.686 186.345 81.7732C186.964 81.8402 187.618 81.55 188.298 80.9169C188.424 80.7999 188.619 80.8075 188.736 80.9317C188.853 81.0563 188.847 81.2517 188.722 81.3682C188.036 82.0066 187.202 82.4861 186.271 82.3867Z" fill="#EE9961"/>
<path d="M188.115 71.1501C187.013 70.745 185.984 70.7435 184.968 71.1474L184.738 70.5737C185.886 70.1174 187.095 70.1165 188.33 70.571L188.115 71.1501Z" fill="#212121"/>
<path d="M204.668 66.4638L195.933 69.0317L196.108 69.6241L204.844 67.0562L204.668 66.4638Z" fill="#212121"/>
<path d="M301.597 265.277C301.438 265.214 301.36 265.035 301.423 264.876C301.554 264.546 301.709 264.221 301.885 263.911C301.969 263.763 302.159 263.71 302.308 263.794C302.457 263.878 302.509 264.066 302.425 264.215C302.263 264.501 302.12 264.799 301.999 265.103C301.934 265.269 301.747 265.338 301.597 265.277Z" fill="#212121"/>
<path d="M311.09 291.371C310.919 291.36 310.789 291.213 310.8 291.043C311.187 284.92 305.585 280.106 302.727 274.891C302.099 273.75 301.616 272.572 301.291 271.392C301.246 271.228 301.343 271.058 301.509 271.012C301.673 270.97 301.844 271.064 301.89 271.229C302.202 272.363 302.667 273.495 303.272 274.595C306.13 279.812 311.825 284.675 311.419 291.082C311.408 291.261 311.248 291.385 311.09 291.371Z" fill="#212121"/>
<path d="M184.256 295.787C184.256 295.794 184.256 295.794 184.256 295.794C180.253 299.512 176.059 302.946 171.684 306.115C160.632 314.127 148.47 320.452 135.333 325.313C136.375 320.205 141.59 317.506 146.478 315.689C160.284 310.565 160.732 307.594 160.545 293.928C160.477 288.943 161.545 283.137 165.975 280.809C169.518 278.943 174.092 280.166 177.107 282.791C180.123 285.416 181.879 289.184 183.275 292.921C183.629 293.873 183.958 294.83 184.256 295.787Z" fill="#4285F4"/>
<path d="M160.633 297.988C160.464 297.988 160.325 297.853 160.322 297.684C160.3 296.439 160.252 295.149 160.235 293.932C160.17 289.197 161.088 283.028 165.83 280.535C168.267 279.252 171.364 279.291 174.325 280.64C174.481 280.711 174.549 280.895 174.478 281.05C174.406 281.205 174.222 281.272 174.067 281.202C171.281 279.932 168.385 279.889 166.12 281.082C161.656 283.429 160.793 289.361 160.856 293.924C160.865 294.583 160.883 295.25 160.901 295.921C160.917 296.503 160.933 297.088 160.943 297.674C160.946 297.844 160.81 297.985 160.638 297.988C160.636 297.988 160.635 297.988 160.633 297.988Z" fill="#212121"/>
<path d="M160.123 304.454C159.955 304.419 159.849 304.255 159.884 304.088C160.034 303.378 160.144 302.628 160.218 301.796C160.233 301.625 160.392 301.504 160.554 301.515C160.725 301.53 160.851 301.681 160.836 301.85C160.759 302.708 160.647 303.482 160.49 304.216C160.457 304.374 160.303 304.489 160.123 304.454Z" fill="#212121"/>
<path d="M177.872 158.518C178.128 159.847 177.252 160.926 175.913 160.926C174.579 160.926 173.286 159.847 173.029 158.518C172.772 157.185 173.648 156.106 174.983 156.106C176.322 156.106 177.615 157.185 177.872 158.518Z" fill="white"/>
<path d="M285.531 296.564L272.926 261.264C272.868 261.104 272.952 260.927 273.114 260.87C273.273 260.81 273.452 260.897 273.51 261.058L286.115 296.357C286.173 296.518 286.089 296.695 285.927 296.751C285.776 296.808 285.59 296.731 285.531 296.564Z" fill="#212121"/>
<path d="M268.635 248.637C268.507 248.637 268.388 248.558 268.343 248.432L266.814 244.15C266.757 243.99 266.841 243.813 267.003 243.756C267.161 243.696 267.341 243.783 267.398 243.944L268.927 248.225C268.985 248.386 268.901 248.562 268.739 248.619C268.705 248.632 268.67 248.637 268.635 248.637Z" fill="#212121"/>
<path d="M187.532 293.508C187.361 293.508 187.222 293.37 187.222 293.199V255.104C187.222 254.934 187.361 254.795 187.532 254.795C187.704 254.795 187.843 254.934 187.843 255.104V293.199C187.843 293.37 187.704 293.508 187.532 293.508Z" fill="#212121"/>
<path d="M142.607 257.474C142.437 257.443 142.325 257.283 142.356 257.115L150.41 212.305C150.441 212.137 150.605 212.027 150.77 212.055C150.939 212.086 151.052 212.246 151.021 212.414L142.966 257.224C142.938 257.385 142.785 257.503 142.607 257.474Z" fill="#212121"/>
<path d="M27.7959 327.803C27.7486 327.803 27.7002 327.792 27.6553 327.769C27.5026 327.692 27.4414 327.506 27.5196 327.354L46.439 290.28C46.5165 290.127 46.7044 290.067 46.8559 290.145C47.0086 290.222 47.0698 290.408 46.9916 290.56L28.0722 327.634C28.0177 327.742 27.9086 327.803 27.7959 327.803Z" fill="#212121"/>
<path d="M227.726 238.487L222.799 212.593C222.767 212.425 222.878 212.264 223.046 212.232C223.21 212.2 223.377 212.31 223.409 212.478L228.336 238.372C228.368 238.54 228.257 238.701 228.089 238.733C227.919 238.764 227.758 238.653 227.726 238.487Z" fill="#212121"/>
<path d="M251.481 85.2949C251.13 84.9206 251.151 84.3343 251.526 83.9853L273.626 63.4602C274.002 63.1109 274.591 63.1311 274.942 63.5054C275.292 63.8797 275.272 64.466 274.896 64.815L252.797 85.3401C252.422 85.6882 251.832 85.6701 251.481 85.2949ZM243.059 78.9564C242.558 78.843 242.243 78.3465 242.357 77.8477C244.207 69.7384 245.115 61.4243 245.057 53.1359C245.053 52.6244 245.467 52.2067 245.981 52.203C245.984 52.203 245.986 52.203 245.988 52.203C246.499 52.203 246.915 52.6135 246.919 53.1232C246.978 61.5534 246.054 70.0101 244.173 78.2578C244.058 78.7604 243.556 79.0693 243.059 78.9564ZM282.191 94.7596C282.184 94.7596 282.177 94.7596 282.17 94.7593L258.612 94.255C258.098 94.2441 257.691 93.8204 257.701 93.3089C257.713 92.7731 258.175 92.381 258.652 92.4025L282.21 92.9068C282.724 92.9177 283.132 93.3414 283.121 93.853C283.11 94.3578 282.696 94.7596 282.191 94.7596Z" fill="#4285F4"/>
<path d="M98.322 177.997C98.0214 177.71 90.8944 170.857 84.9982 159.796C79.5365 149.55 74.2238 133.673 79.9346 116.224C80.0934 115.737 80.6164 115.47 81.1078 115.629C81.5962 115.788 81.8635 116.311 81.7041 116.797C71.1491 149.051 99.323 176.385 99.6091 176.657C99.9805 177.012 99.9933 177.598 99.6382 177.968C99.2823 178.337 98.6936 178.35 98.322 177.997Z" fill="#2884B2" fill-opacity="0.12"/>
<path d="M96.6222 189.594C96.3901 189.594 96.1586 189.508 95.978 189.336C95.6169 188.991 87.0683 180.747 80.9903 167.755C80.7727 167.291 80.9751 166.741 81.4411 166.525C81.9053 166.307 82.461 166.509 82.6773 166.973C88.6099 179.653 97.1803 187.917 97.2663 187.998C97.8704 188.576 97.4564 189.594 96.6222 189.594Z" fill="#2884B2" fill-opacity="0.12"/>
<path d="M303.108 122.934C303.108 126.481 300.221 129.36 296.658 129.36C293.094 129.36 290.207 126.481 290.207 122.934C290.207 119.387 293.094 116.513 296.658 116.513C300.221 116.513 303.108 119.387 303.108 122.934Z" fill="#2884B2" fill-opacity="0.04"/>
<path d="M63.9668 167.362C63.9668 169.684 62.0771 171.569 59.7446 171.569C57.412 171.569 55.5224 169.684 55.5224 167.362C55.5224 165.041 57.412 163.16 59.7446 163.16C62.0771 163.16 63.9668 165.041 63.9668 167.362Z" fill="#2884B2" fill-opacity="0.04"/>
<path d="M232.06 156.126L223.954 145.681C223.849 145.546 223.874 145.352 224.009 145.248C224.143 145.143 224.339 145.167 224.445 145.303L232.551 155.748C234.557 158.333 238.172 158.986 240.961 157.264L258.344 146.539C258.489 146.45 258.681 146.494 258.771 146.639C258.861 146.784 258.816 146.974 258.671 147.064L241.288 157.789C238.224 159.68 234.258 158.958 232.06 156.126Z" fill="#212121"/>
<path d="M298.366 165.215C279.964 165.215 265.042 180.065 265.042 198.388C265.042 213.094 286.522 237.757 294.991 246.91C296.81 248.873 299.923 248.873 301.742 246.91C310.21 237.757 331.691 213.094 331.691 198.388C331.691 180.065 316.769 165.215 298.366 165.215ZM298.366 214.1C289.25 214.1 281.861 206.747 281.861 197.673C281.861 188.596 289.25 181.243 298.366 181.243C307.482 181.243 314.872 188.596 314.872 197.673C314.872 206.747 307.482 214.1 298.366 214.1Z" fill="#FBBC05"/>
<path d="M331.157 194.541C330.964 192.894 330.643 191.249 330.202 189.653C330.156 189.488 330.254 189.318 330.419 189.273C330.586 189.231 330.755 189.325 330.8 189.489C331.249 191.116 331.577 192.791 331.774 194.47C331.793 194.639 331.671 194.792 331.501 194.812C331.321 194.83 331.176 194.703 331.157 194.541ZM325.851 180.175C319.703 171.001 309.429 165.524 298.366 165.524C289.837 165.524 281.743 168.752 275.575 174.612C275.45 174.73 275.254 174.725 275.136 174.602C275.017 174.478 275.022 174.283 275.146 174.165C281.43 168.194 289.677 164.906 298.366 164.906C309.637 164.906 320.104 170.486 326.367 179.832C326.462 179.974 326.423 180.166 326.281 180.26C326.139 180.354 325.947 180.317 325.851 180.175Z" fill="#212121"/>
<path d="M315.463 198.077C315.463 207.391 307.908 214.946 298.594 214.946C289.279 214.946 281.748 207.391 281.748 198.077C281.748 188.762 289.303 181.231 298.594 181.231C307.908 181.208 315.463 188.762 315.463 198.077Z" fill="white"/>
<path d="M315.463 198.077C315.463 207.391 307.908 214.946 298.594 214.946C294.183 214.946 290.171 213.257 287.168 210.465C289.819 212.177 292.963 213.186 296.365 213.186C305.679 213.186 313.234 205.631 313.234 196.317C313.234 191.414 311.146 187.003 307.814 183.929C312.413 186.932 315.463 192.141 315.463 198.077Z" fill="#2884B2" fill-opacity="0.12"/>
<path d="M294.112 214.312C291.766 213.679 289.631 212.529 287.825 211.028C287.379 210.652 286.957 210.254 286.558 209.855C290.147 207.204 293.784 206.781 293.784 206.781L294.112 214.312Z" fill="#34A853"/>
<path d="M310.442 210.065C307.392 213.068 303.216 214.945 298.594 214.945C297.045 214.945 295.52 214.734 294.089 214.335C291.743 213.702 289.608 212.552 287.801 211.051C288.81 209.221 290.241 207.837 292.189 207.227C292.705 207.062 293.244 206.922 293.761 206.804C300.564 205.115 306.735 206.476 310.442 210.065Z" fill="#34A853"/>
<path d="M296.553 199.79C296.553 199.79 298.078 203.098 296.13 206.312C295.825 209.456 304.06 209.55 304.225 206.758C304.225 206.758 304.154 202.605 305.116 199.696L296.553 199.79Z" fill="#F4BB96"/>
<path d="M300.283 209.01C298.969 209.01 297.632 208.705 296.811 208.142C296.13 207.672 295.802 207.039 295.872 206.312C295.896 206.194 296.013 206.077 296.13 206.1C296.247 206.124 296.365 206.218 296.341 206.359C296.294 206.898 296.529 207.391 297.069 207.766C298.429 208.705 301.245 208.845 302.887 208.048C303.356 207.813 303.919 207.414 303.943 206.781C303.943 206.64 304.06 206.546 304.201 206.57C304.342 206.57 304.436 206.687 304.412 206.828C304.365 207.508 303.919 208.095 303.098 208.494C302.348 208.822 301.315 209.01 300.283 209.01Z" fill="#212121"/>
<path d="M305.491 196.481C305.491 200.611 303.849 203.215 299.908 203.942C295.086 206.108 292.754 200.076 293.076 196.054C293.558 190.022 296.834 188.997 299.908 188.997C302.981 188.997 305.491 192.352 305.491 196.481Z" fill="#F4BB96"/>
<path d="M291.696 191.789C292.423 194.464 293.409 195.472 302.606 193.549C302.606 193.549 300.072 195.144 302.653 196.223L302.582 198.03C302.582 198.264 302.911 198.358 303.028 198.147C303.333 197.561 303.755 196.927 304.271 196.833C305.21 196.646 304.905 200.118 304.905 200.118C304.905 200.118 305.585 200.798 306.43 199.344C307.368 197.725 310.442 188.223 304.67 189.56C304.67 189.56 305.233 185.243 297.866 185.806C291.461 186.322 291.133 189.724 291.696 191.789Z" fill="#212121"/>
<path d="M306.055 198.077C306.055 199.015 305.398 199.766 304.553 199.766C303.732 199.766 303.051 199.015 303.051 198.077C303.051 197.138 303.732 196.387 304.553 196.387C305.398 196.364 306.055 197.138 306.055 198.077Z" fill="#F4BB96"/>
<path d="M296.951 204.247C296.951 204.247 300.166 204.247 301.784 203.449C301.925 203.379 302.089 203.52 302.043 203.684C301.738 204.552 300.611 206.288 296.459 205.702C296.646 205.256 296.834 204.74 296.951 204.247Z" fill="#EE9961"/>
<path d="M295.403 196.599C295.332 196.599 295.262 196.575 295.215 196.505C295.098 196.364 294.934 196.247 294.746 196.223C294.558 196.2 294.371 196.247 294.23 196.341C294.136 196.411 293.972 196.388 293.901 196.294C293.831 196.2 293.854 196.036 293.948 195.965C294.206 195.778 294.511 195.707 294.816 195.754C295.121 195.801 295.403 195.965 295.591 196.223C295.661 196.317 295.637 196.481 295.544 196.552C295.497 196.599 295.45 196.599 295.403 196.599ZM294.558 197.49C294.535 197.49 294.511 197.49 294.511 197.49C294.394 197.467 294.3 197.326 294.347 197.209L294.394 196.998C294.417 196.88 294.558 196.786 294.676 196.833C294.793 196.857 294.887 196.998 294.84 197.115L294.793 197.326C294.746 197.42 294.652 197.49 294.558 197.49ZM299.579 196.951C299.509 196.951 299.438 196.927 299.391 196.857C299.157 196.552 298.711 196.481 298.406 196.693C298.312 196.763 298.148 196.739 298.078 196.646C298.007 196.552 298.031 196.388 298.124 196.317C298.641 195.942 299.391 196.059 299.767 196.575C299.837 196.669 299.814 196.833 299.72 196.904C299.673 196.927 299.626 196.951 299.579 196.951ZM298.758 197.842C298.734 197.842 298.711 197.842 298.711 197.842C298.594 197.819 298.5 197.678 298.547 197.561L298.594 197.349C298.617 197.232 298.758 197.138 298.875 197.185C298.993 197.209 299.086 197.349 299.039 197.467L298.993 197.678C298.946 197.772 298.852 197.842 298.758 197.842Z" fill="#212121"/>
<path d="M296.294 199.531C296.271 199.531 296.271 199.531 296.294 199.531C296.154 199.531 295.989 199.508 295.825 199.485C295.52 199.438 295.403 199.25 295.379 199.156C295.121 198.499 296.318 196.998 296.693 196.552C296.787 196.458 296.928 196.434 297.022 196.528C297.116 196.622 297.139 196.763 297.045 196.857C296.365 197.678 295.708 198.71 295.802 198.992C295.802 199.015 295.825 199.015 295.872 199.015C296.013 199.039 296.154 199.039 296.271 199.062C296.412 199.062 296.506 199.179 296.506 199.297C296.506 199.438 296.412 199.531 296.294 199.531ZM295.995 201.973C295.901 201.973 295.807 201.949 295.713 201.926C295.267 201.808 295.08 201.409 295.08 201.386C295.033 201.269 295.08 201.128 295.197 201.081C295.314 201.034 295.455 201.081 295.502 201.198C295.502 201.222 295.596 201.409 295.83 201.48C296.065 201.55 296.393 201.433 296.769 201.175C296.863 201.104 297.027 201.128 297.097 201.222C297.168 201.316 297.144 201.48 297.05 201.55C296.675 201.832 296.323 201.973 295.995 201.973Z" fill="#EE9961"/>
<path d="M304.553 198.217C304.506 198.217 304.459 198.217 304.436 198.194C304.318 198.123 304.295 197.983 304.365 197.865L304.553 197.537C304.623 197.419 304.764 197.396 304.881 197.466C304.999 197.537 305.022 197.678 304.952 197.795L304.764 198.123C304.717 198.17 304.647 198.217 304.553 198.217Z" fill="#EE9961"/>
<path d="M298.594 215.157C289.162 215.157 281.514 207.485 281.514 198.053C281.514 188.622 289.186 180.973 298.594 180.973C308.025 180.973 315.697 188.645 315.697 198.053C315.697 207.485 308.025 215.157 298.594 215.157ZM298.594 181.442C289.42 181.442 281.983 188.903 281.983 198.053C281.983 207.227 289.444 214.688 298.594 214.688C307.767 214.688 315.228 207.227 315.228 198.053C315.228 188.903 307.767 181.442 298.594 181.442Z" fill="#212121"/>
<path d="M72.8919 204.076C58.7342 204.076 47.2541 215.5 47.2541 229.596C47.2541 240.91 63.7797 259.885 70.2952 266.926C71.6944 268.436 74.0894 268.436 75.4886 266.926C82.004 259.885 98.5297 240.91 98.5297 229.596C98.5297 215.5 87.0495 204.076 72.8919 204.076ZM73.4569 241.505C66.547 241.505 60.8432 235.925 60.8432 229.046C60.8432 222.166 66.547 216.278 73.4569 216.278C80.3669 216.278 86.0707 222.166 86.0707 229.046C86.0707 235.925 80.3669 241.505 73.4569 241.505Z" fill="#34A853"/>
<path d="M48.3145 222.303C48.1435 222.25 48.0478 222.069 48.101 221.899C48.4349 220.832 48.8429 219.778 49.313 218.765C49.3884 218.603 49.581 218.534 49.7438 218.607C49.9066 218.683 49.977 218.874 49.9022 219.036C49.4435 220.023 49.0456 221.051 48.7206 222.091C48.6664 222.265 48.4789 222.355 48.3145 222.303ZM52.7278 213.83C52.5885 213.718 52.5669 213.514 52.6797 213.376C60.1064 204.217 72.4464 201.443 82.8018 205.702C82.9672 205.771 83.0457 205.959 82.9773 206.124C82.9095 206.289 82.7201 206.37 82.5535 206.299C72.464 202.149 60.4317 204.844 53.184 213.782C53.0713 213.921 52.8667 213.942 52.7278 213.83Z" fill="#212121"/>
<path d="M86.0707 228.883C86.0707 235.852 80.4177 241.505 73.4482 241.505C66.4786 241.505 60.8432 235.852 60.8432 228.883C60.8432 221.913 66.4961 216.278 73.4482 216.278C80.4177 216.26 86.0707 221.913 86.0707 228.883Z" fill="white"/>
<mask id="mask0_478_3778" style="mask-type:alpha" maskUnits="userSpaceOnUse" x="60" y="216" width="27" height="26">
<path d="M86.0707 228.883C86.0707 235.852 80.4177 241.505 73.4482 241.505C66.4786 241.505 60.8432 235.852 60.8432 228.883C60.8432 221.913 66.4961 216.278 73.4482 216.278C80.4177 216.26 86.0707 221.913 86.0707 228.883Z" fill="white"/>
</mask>
<g mask="url(#mask0_478_3778)">
<path d="M81.5658 238.358C81.3655 238.558 81.1653 238.725 80.9651 238.892C80.8984 238.959 80.8316 239.025 80.7649 239.059C80.4979 239.292 80.1976 239.492 79.8973 239.693C79.1965 240.16 78.429 240.56 77.5948 240.861L77.3945 239.593L77.1276 237.757H81.4656L81.5658 238.358Z" fill="#F4BB96"/>
<path d="M81.8661 238.024C81.7659 238.124 81.6658 238.224 81.5657 238.324C81.3655 238.525 81.1653 238.691 80.9651 238.858C80.8983 238.925 80.8316 238.992 80.7649 239.025C80.4979 239.059 80.2309 239.092 79.964 239.159C79.4968 239.225 78.9629 239.325 78.429 239.392C78.0953 239.459 77.7282 239.492 77.4279 239.559C76.3267 239.726 75.4591 239.859 75.4257 239.893L77.1609 232.184H78.7293C79.9306 232.184 80.9317 233.019 81.1653 234.187L81.8661 238.024Z" fill="#FBBC05"/>
<path d="M80.9651 238.858C80.8983 238.925 80.8316 238.992 80.7649 239.025C80.4979 239.059 80.231 239.092 79.964 239.159C79.4968 239.225 78.9629 239.326 78.429 239.392L78.7961 237.724L79.5636 234.153L80.6648 237.724L80.9651 238.858Z" fill="#212121"/>
<path d="M68.9854 238.558L68.5182 239.96L68.3514 240.46C67.2168 239.926 66.1823 239.225 65.2814 238.358L65.3147 238.258L65.8486 236.956L68.9854 238.558Z" fill="#F4BB96"/>
<path d="M79.9306 239.159C79.9306 239.326 79.8973 239.492 79.8639 239.659C79.1631 240.127 78.3956 240.527 77.5614 240.827C76.26 241.328 74.8584 241.595 73.3902 241.595C72.0554 241.595 70.8207 241.395 69.6194 240.994C69.4859 240.961 69.3524 240.894 69.219 240.861L69.4859 238.825C69.4859 238.825 69.0521 240.227 68.9854 240.227C68.952 240.227 68.7518 240.127 68.4848 239.96C67.6506 239.526 65.9487 238.592 65.3147 238.224C65.1479 238.124 65.0478 238.091 65.0478 238.091L66.9498 234.52C67.6172 233.086 69.0521 232.151 70.6539 232.151H76.9273C76.9941 232.151 77.0275 232.151 77.0608 232.151C78.2288 232.218 79.1631 233.019 79.4634 234.12C79.5302 234.32 79.5302 234.52 79.5302 234.754V237.257C79.5302 237.257 79.5969 237.424 79.697 237.691C79.8639 238.091 79.964 238.591 79.9306 239.159Z" fill="#FBBC05"/>
<path d="M69.9531 237.257L69.6528 240.961C69.5193 240.927 69.3858 240.86 69.2523 240.827L69.5193 238.792L69.9531 237.257Z" fill="#212121"/>
<path d="M72.6227 232.185C72.6227 232.185 73.4235 233.853 74.8918 233.62C76.3601 233.386 76.3267 232.518 76.3267 232.518V231.484V231.451L76.3601 229.549L73.4235 228.381C73.4235 228.381 73.4235 228.447 73.4569 228.581C73.4569 228.648 73.4569 228.714 73.4569 228.781C73.5236 229.549 73.557 231.351 72.6227 232.185Z" fill="#F4BB96"/>
<path d="M73.4235 228.314C73.4235 228.314 73.4235 228.38 73.4569 228.514C73.557 228.581 73.6571 228.647 73.6571 228.647C73.6571 228.647 74.725 231.083 76.3601 231.384L76.3934 229.482L73.4235 228.314Z" fill="#EE9961"/>
<path d="M73.4235 228.314C73.4235 228.314 73.4569 228.38 73.5236 228.514C73.9241 229.315 75.4925 232.051 77.5947 230.75C78.8962 229.949 78.7293 227.88 78.429 226.312C78.3622 225.978 78.3289 225.711 78.2621 225.444C78.2288 225.277 78.1954 225.177 78.162 225.043C78.0953 224.81 77.9952 224.643 77.9618 224.409C77.7616 223.342 74.6248 223.408 73.7906 224.109C73.3568 224.476 73.6905 226.312 73.6905 226.312C73.6905 226.312 73.0231 225.344 72.5226 226.412C72.022 227.479 73.4235 228.314 73.4235 228.314Z" fill="#F4BB96"/>
<path d="M71.655 225.311C70.2728 225.311 69.1523 224.19 69.1523 222.808C69.1523 221.426 70.2728 220.305 71.655 220.305C73.0372 220.305 74.1577 221.426 74.1577 222.808C74.1577 224.19 73.0372 225.311 71.655 225.311Z" fill="#212121"/>
<path d="M72.6226 225.611C71.8218 225.944 70.7539 225.911 69.853 225.377C68.952 224.843 68.4181 223.942 68.2846 223.075C68.5516 224.042 69.1522 224.81 69.9197 225.244C70.6538 225.711 71.6216 225.878 72.6226 225.611ZM74.6248 223.008C74.6248 222.674 74.6248 222.374 74.5915 222.04C74.5581 221.74 74.458 221.406 74.3579 221.106C74.5581 221.373 74.6916 221.673 74.7583 222.007C74.7583 222.374 74.7583 222.708 74.6248 223.008Z" fill="#212121"/>
<path d="M71.8218 226.978C72.1221 228.413 73.4903 229.047 73.4903 229.047L73.5236 228.513C73.4569 228.38 73.4235 228.313 73.4235 228.313C73.4235 228.313 72.022 227.512 72.5559 226.411C73.0564 225.31 73.7238 226.311 73.7238 226.311C73.7238 226.311 76.7271 226.478 77.2277 224.309C77.2277 224.309 77.7616 224.609 78.162 225.143C78.3622 225.443 78.3956 225.944 78.4623 226.344C78.4623 226.344 79.9973 223.007 76.4935 222.44C72.9563 221.806 71.3212 224.776 71.8218 226.978Z" fill="#212121"/>
<path d="M75.9263 226.979C75.7788 226.979 75.6593 226.859 75.6593 226.712C75.6593 226.564 75.7788 226.445 75.9263 226.445C76.0737 226.445 76.1932 226.564 76.1932 226.712C76.1932 226.859 76.0737 226.979 75.9263 226.979Z" fill="#212121"/>
<path d="M77.9952 226.846C77.8477 226.846 77.7282 226.726 77.7282 226.579C77.7282 226.431 77.8477 226.312 77.9952 226.312C78.1426 226.312 78.2621 226.431 78.2621 226.579C78.2621 226.726 78.1426 226.846 77.9952 226.846Z" fill="#212121"/>
<path d="M76.894 228.881C76.8606 228.814 76.894 228.781 76.9273 228.748C76.9941 228.714 77.0942 228.681 77.1609 228.614C77.3278 228.447 77.261 228.314 77.1276 228.147C77.0942 228.114 76.7605 227.647 76.6604 226.946C76.6604 226.879 76.6938 226.846 76.7605 226.812C76.8272 226.812 76.8606 226.846 76.894 226.912C76.9941 227.546 77.2944 227.913 77.3278 228.014C77.528 228.281 77.5947 228.514 77.3278 228.748C77.261 228.814 77.1609 228.881 77.0608 228.915C76.9941 228.948 76.9274 228.915 76.894 228.881Z" fill="#EE9961"/>
<path d="M76.5269 226.779C76.5269 227.246 76.1265 227.646 75.6593 227.646C75.1921 227.646 74.825 227.279 74.7917 226.846C74.7917 226.812 74.7917 226.812 74.7917 226.779C74.7917 226.745 74.7917 226.679 74.7917 226.645C74.825 226.445 74.9252 226.278 75.0586 226.145C75.2255 225.978 75.4257 225.911 75.6593 225.911C75.6927 225.911 75.726 225.911 75.7594 225.911C76.1932 225.978 76.5269 226.345 76.5269 226.779ZM76.3934 226.779C76.3934 226.378 76.0597 226.045 75.6593 226.045C75.2589 226.045 74.9252 226.378 74.9252 226.779C74.9252 227.179 75.2589 227.513 75.6593 227.513C76.0597 227.513 76.3934 227.179 76.3934 226.779ZM78.796 226.579C78.796 226.812 78.6959 227.012 78.5625 227.146C78.3956 227.313 78.162 227.446 77.9284 227.446C77.4612 227.446 77.0608 227.046 77.0608 226.579C77.0608 226.111 77.4612 225.711 77.9284 225.711C78.0953 225.711 78.2288 225.744 78.3622 225.844C78.429 225.878 78.4957 225.945 78.5625 226.011C78.6959 226.145 78.796 226.345 78.796 226.579ZM78.6626 226.579C78.6626 226.412 78.5958 226.278 78.5291 226.145C78.4957 226.111 78.4623 226.045 78.429 226.011C78.2955 225.911 78.1286 225.844 77.9618 225.844C77.5614 225.844 77.2277 226.178 77.2277 226.579C77.2277 226.979 77.5614 227.313 77.9618 227.313C78.2288 227.313 78.4623 227.179 78.5958 226.946C78.6292 226.846 78.6626 226.712 78.6626 226.579Z" fill="white"/>
<path d="M74.7917 226.879C74.7917 226.879 74.1577 225.944 73.4903 225.944V225.811C74.2244 225.811 74.8918 226.779 74.8918 226.812L74.7917 226.879Z" fill="white"/>
<path d="M76.1599 229.448C76.1265 229.415 76.1265 229.348 76.1932 229.315C76.2266 229.281 76.2933 229.281 76.3267 229.348C76.5269 229.615 76.9274 229.682 77.1943 229.481C77.2277 229.448 77.2944 229.448 77.3278 229.515C77.3612 229.548 77.3612 229.615 77.2944 229.648C76.9607 229.915 76.4268 229.815 76.1599 229.448Z" fill="#EE9961"/>
<path d="M71.9552 219.571C71.2879 219.471 70.5871 219.537 69.9531 219.804C69.319 220.071 68.8519 220.572 68.6517 221.273C68.685 220.705 69.0855 220.038 69.8863 219.671C70.5871 219.371 71.3212 219.371 71.9552 219.571Z" fill="#212121"/>
<path d="M73.9241 220.773C73.7572 220.639 73.5904 220.506 73.4235 220.372C73.2567 220.239 73.0898 220.105 72.923 219.938C73.1232 220.005 73.3234 220.105 73.4903 220.272C73.6905 220.405 73.824 220.572 73.9241 220.773Z" fill="#212121"/>
<path d="M73.4483 241.505C66.4878 241.505 60.8432 235.843 60.8432 228.883C60.8432 221.922 66.5051 216.278 73.4483 216.278C80.4088 216.278 86.0707 221.94 86.0707 228.883C86.0707 235.843 80.4088 241.505 73.4483 241.505ZM73.4483 216.624C66.6783 216.624 61.1895 222.13 61.1895 228.883C61.1895 235.653 66.6956 241.159 73.4483 241.159C80.2183 241.159 85.7244 235.653 85.7244 228.883C85.7244 222.13 80.2183 216.624 73.4483 216.624Z" fill="#212121"/>
</g>
</svg>
