<svg width="372" height="372" viewBox="0 0 372 372" fill="none" xmlns="http://www.w3.org/2000/svg">
<path d="M325.495 317.403C231.874 341.204 112.756 323.335 112.756 323.335C112.756 323.335 84.6583 318.378 72.8455 312.075C58.4821 304.408 44.318 289.564 45.5503 287.034C148.213 293.919 419.116 293.603 325.495 317.403Z" fill="#2884B2" fill-opacity="0.06"/>
<path d="M141.96 73.2872L158.457 285.053C159.127 293.451 152.874 300.263 144.477 300.263H62.1361C53.746 300.263 46.3981 293.451 45.7275 285.053L29.2316 73.2877C28.5615 64.889 34.8215 58.0774 43.2116 58.0774H125.552C133.948 58.0774 141.29 64.8885 141.96 73.2872Z" fill="#212121"/>
<path d="M144.556 293.14H62.0488C61.7212 293.14 61.3936 293.121 61.0707 293.083C56.7994 292.597 53.2109 288.994 52.8645 284.636L52.0552 274.255L49.7347 244.503L36.3397 72.677C36.2603 71.7248 36.3447 70.8054 36.5736 69.9516C37.4394 66.598 40.4288 64.1829 44.1623 64.1829H62.3245C63.6953 67.7672 67.2417 70.3854 71.1813 70.3854H100.629C104.577 70.3854 107.707 67.7677 108.497 64.1834H126.665C131.353 64.1834 135.465 67.9892 135.839 72.6775L152.369 284.636C152.743 289.324 149.239 293.14 144.556 293.14Z" fill="white"/>
<path opacity="0.1" d="M144.556 293.14H62.0488C61.7212 293.14 61.3936 293.121 61.0707 293.083C56.7994 292.597 53.2109 288.994 52.8645 284.636L52.0552 274.255L49.7347 244.503L36.3397 72.677C36.2603 71.7248 36.3447 70.8054 36.5736 69.9516C37.4394 66.598 40.4288 64.1829 44.1623 64.1829H62.3245C63.6953 67.7672 67.2417 70.3854 71.1813 70.3854H100.629C104.577 70.3854 107.707 67.7677 108.497 64.1834H126.665C131.353 64.1834 135.465 67.9892 135.839 72.6775L152.369 284.636C152.743 289.324 149.239 293.14 144.556 293.14Z" fill="#4285F4"/>
<path d="M65.8407 300.263H59.3919C51.1833 300.263 43.9919 293.45 43.3357 285.053L27.1941 73.287C26.5379 64.8894 32.6647 58.0774 40.8734 58.0774H47.3226C39.1134 58.0774 32.9866 64.8894 33.6428 73.2875L49.785 285.053C50.4406 293.45 57.6315 300.263 65.8407 300.263Z" fill="#212121"/>
<path opacity="0.2" d="M78.947 80.0631L76.7717 105.313L38.3141 98.4548L36.3382 74.0139C36.2615 73.0674 36.3458 72.1526 36.5754 71.306L78.947 80.0631ZM100.825 91.8883L97.1666 136.034L86.3583 134.205L90.0167 90.0596L100.825 91.8883ZM71.4539 116.79L62.7264 178.837L48.3017 152.573L53.8618 113.047L71.4539 116.79ZM100.996 251.462L106.414 286.476H121.639L116.221 251.462L100.996 251.462ZM123.429 251.462L128.846 286.476H144.071L138.654 251.462L123.429 251.462ZM136.864 90.399L117.599 85.7932L115.346 122.354L139.826 127.041L136.864 90.399ZM84.7102 153.707L82.6821 183.163L145.311 194.884L140.821 139.35L113.753 134.681L112.65 158.348L84.7102 153.707ZM94.9217 245.249L90.2943 293.14H62.1864C61.8571 293.14 61.5277 293.121 61.203 293.084L63.8044 274.608L52.1395 274.369L49.8066 244.799L94.9217 245.249ZM146.005 203.473L95.2664 195.563L94.2708 204.465L146.814 213.482L146.005 203.473ZM147.646 225.695L90.7264 216.238L87.9405 235.682L149.341 246.667L147.646 225.695Z" fill="#4285F4"/>
<path d="M76.4398 210.036C79.8248 206.145 79.4126 200.248 75.519 196.865C71.6255 193.481 65.725 193.893 62.34 197.785C58.955 201.676 59.3672 207.573 63.2608 210.956C67.1543 214.34 73.0548 213.928 76.4398 210.036Z" fill="#4285F4"/>
<path d="M108.852 112.021C108.782 112.021 108.712 112.006 108.648 111.977C108.584 111.949 108.526 111.907 108.478 111.854C108.431 111.802 108.395 111.74 108.372 111.672C108.35 111.605 108.341 111.533 108.348 111.462L108.618 108.402C108.631 108.267 108.696 108.143 108.799 108.057C108.901 107.971 109.034 107.929 109.167 107.941C109.3 107.953 109.423 108.018 109.509 108.121C109.595 108.225 109.637 108.358 109.626 108.493L109.356 111.554C109.345 111.681 109.287 111.8 109.194 111.886C109.1 111.973 108.979 112.021 108.852 112.021ZM72.1921 181.144C72.1206 181.145 72.05 181.129 71.9847 181.1C71.9195 181.07 71.8612 181.027 71.8136 180.973C71.766 180.919 71.7303 180.856 71.7087 180.787C71.6872 180.718 71.6803 180.645 71.6885 180.573L72.4092 174.304C72.4277 174.172 72.4966 174.052 72.6011 173.97C72.7057 173.889 72.8376 173.852 72.9688 173.867C73.1 173.883 73.22 173.949 73.3033 174.053C73.3865 174.157 73.4264 174.289 73.4144 174.423L72.6942 180.691C72.6799 180.816 72.6209 180.931 72.5283 181.014C72.4358 181.098 72.3161 181.144 72.1921 181.144ZM73.6325 168.607C73.5611 168.607 73.4904 168.592 73.4252 168.563C73.36 168.533 73.3016 168.49 73.2541 168.436C73.2065 168.382 73.1708 168.319 73.1492 168.25C73.1276 168.181 73.1207 168.108 73.1289 168.036L73.8497 161.768C73.8558 161.7 73.8753 161.633 73.9071 161.573C73.9389 161.513 73.9823 161.46 74.0347 161.417C74.0871 161.373 74.1475 161.341 74.2123 161.322C74.2772 161.303 74.3451 161.298 74.4122 161.305C74.4792 161.313 74.5441 161.335 74.6028 161.368C74.6616 161.402 74.7131 161.447 74.7544 161.501C74.7956 161.555 74.8258 161.617 74.843 161.683C74.8603 161.749 74.8643 161.818 74.8548 161.886L74.1346 168.155C74.1202 168.279 74.0612 168.394 73.9686 168.477C73.8761 168.561 73.7565 168.607 73.6325 168.607ZM75.0735 156.07C75.002 156.07 74.9314 156.055 74.8661 156.026C74.8009 155.996 74.7426 155.953 74.695 155.899C74.6475 155.845 74.6117 155.782 74.5901 155.713C74.5686 155.644 74.5617 155.571 74.5699 155.499L75.2901 149.23C75.2963 149.162 75.3158 149.096 75.3476 149.036C75.3793 148.976 75.4227 148.922 75.4751 148.879C75.5275 148.836 75.5879 148.804 75.6528 148.785C75.7176 148.766 75.7856 148.76 75.8526 148.768C75.9197 148.776 75.9845 148.798 76.0433 148.831C76.1021 148.865 76.1536 148.91 76.1948 148.964C76.2361 149.018 76.2662 149.08 76.2835 149.146C76.3007 149.212 76.3047 149.281 76.2953 149.349L75.5756 155.617C75.5612 155.742 75.5021 155.857 75.4096 155.94C75.317 156.024 75.1975 156.07 75.0735 156.07ZM103.766 148.851C103.647 148.852 103.533 148.809 103.441 148.732C103.35 148.655 103.289 148.549 103.268 148.43C103.247 148.312 103.267 148.19 103.326 148.086C103.385 147.981 103.478 147.901 103.589 147.859C104.068 147.681 104.486 147.368 104.795 146.957C105.104 146.547 105.291 146.056 105.335 145.541L105.569 142.891C105.582 142.757 105.647 142.633 105.75 142.547C105.852 142.46 105.985 142.419 106.118 142.431C106.251 142.443 106.374 142.507 106.46 142.611C106.546 142.714 106.588 142.848 106.577 142.982L106.343 145.633C106.278 146.338 106.019 147.01 105.595 147.574C105.17 148.137 104.598 148.568 103.944 148.819C103.887 148.84 103.827 148.851 103.767 148.851H103.766ZM97.6161 148.282C97.589 148.282 97.5619 148.28 97.5352 148.275L91.3775 147.277C91.3119 147.266 91.249 147.243 91.1924 147.207C91.1358 147.172 91.0866 147.126 91.0476 147.071C91.0087 147.017 90.9807 146.955 90.9653 146.89C90.9499 146.824 90.9474 146.756 90.958 146.69C90.9685 146.623 90.9919 146.56 91.0267 146.502C91.0616 146.445 91.1072 146.395 91.1611 146.356C91.2149 146.317 91.2759 146.288 91.3406 146.273C91.4053 146.257 91.4724 146.255 91.538 146.265L97.6951 147.264C97.8211 147.284 97.935 147.351 98.014 147.452C98.0931 147.553 98.1315 147.681 98.1215 147.81C98.1115 147.938 98.0539 148.058 97.9602 148.146C97.8665 148.234 97.7437 148.282 97.6161 148.282ZM85.3014 146.286C85.2743 146.286 85.2472 146.284 85.2204 146.279L79.5892 145.366C79.4464 145.343 79.3021 145.331 79.1575 145.331C78.8781 145.331 78.6422 145.102 78.6422 144.819C78.6422 144.535 78.8599 144.307 79.1388 144.307C79.3544 144.307 79.5533 144.323 79.7491 144.355L85.3809 145.267C85.5069 145.287 85.6209 145.355 85.6999 145.456C85.779 145.557 85.8173 145.685 85.8073 145.814C85.7972 145.943 85.7396 146.063 85.6458 146.15C85.552 146.238 85.429 146.286 85.3014 146.286ZM106.629 137.163C106.614 137.163 106.599 137.163 106.584 137.162C106.518 137.156 106.453 137.136 106.394 137.105C106.335 137.074 106.283 137.031 106.24 136.98C106.198 136.928 106.166 136.868 106.146 136.804C106.126 136.74 106.119 136.672 106.125 136.605L106.68 130.32C106.686 130.253 106.705 130.187 106.735 130.128C106.766 130.068 106.808 130.015 106.859 129.971C106.91 129.928 106.969 129.896 107.033 129.876C107.096 129.856 107.163 129.849 107.23 129.855C107.363 129.867 107.487 129.933 107.573 130.037C107.659 130.141 107.701 130.276 107.689 130.411L107.133 136.697C107.122 136.824 107.064 136.943 106.97 137.029C106.877 137.115 106.756 137.163 106.629 137.163ZM107.741 124.592C107.67 124.592 107.601 124.577 107.536 124.549C107.472 124.52 107.414 124.478 107.367 124.426C107.319 124.373 107.283 124.311 107.261 124.244C107.238 124.176 107.23 124.105 107.236 124.034L107.792 117.749C107.805 117.614 107.87 117.491 107.973 117.404C108.075 117.318 108.208 117.276 108.341 117.288C108.474 117.3 108.597 117.365 108.683 117.468C108.769 117.572 108.811 117.705 108.8 117.84L108.244 124.125C108.233 124.252 108.175 124.371 108.082 124.458C107.989 124.544 107.867 124.592 107.741 124.592ZM71.1181 190.484C71.088 190.484 71.058 190.482 71.0285 190.476C70.0647 190.301 69.086 190.224 68.1071 190.248C68.0405 190.25 67.9743 190.239 67.9121 190.215C67.8499 190.191 67.7931 190.154 67.7449 190.108C67.6967 190.061 67.6581 190.006 67.6313 189.944C67.6045 189.882 67.59 189.816 67.5888 189.749C67.5871 189.681 67.5985 189.614 67.6224 189.552C67.6463 189.489 67.6822 189.431 67.728 189.383C67.7739 189.334 67.8287 189.295 67.8895 189.268C67.9503 189.24 68.0158 189.225 68.0823 189.224C68.9387 189.202 69.8153 189.254 70.6767 189.38L70.9662 186.86C70.9724 186.792 70.9919 186.726 71.0237 186.666C71.0554 186.606 71.0988 186.552 71.1512 186.509C71.2037 186.466 71.2641 186.434 71.3289 186.415C71.3937 186.396 71.4617 186.39 71.5287 186.398C71.5958 186.406 71.6606 186.427 71.7194 186.461C71.7782 186.495 71.8297 186.54 71.871 186.594C71.9122 186.648 71.9423 186.71 71.9596 186.776C71.9768 186.842 71.9809 186.911 71.9714 186.979L71.6207 190.031C71.6063 190.156 71.5471 190.271 71.4545 190.355C71.3618 190.438 71.2421 190.484 71.1181 190.484ZM59.6623 214.411C59.5953 214.411 59.5289 214.397 59.4671 214.371C59.4053 214.345 59.3493 214.306 59.3024 214.258C57.9902 212.919 56.9133 211.363 56.1178 209.658C56.0895 209.597 56.0733 209.531 56.0702 209.464C56.067 209.396 56.077 209.329 56.0995 209.266C56.122 209.203 56.1566 209.145 56.2014 209.095C56.2461 209.045 56.3001 209.005 56.3602 208.976C56.4204 208.947 56.4855 208.931 56.5519 208.928C56.6183 208.925 56.6847 208.935 56.7473 208.957C56.8098 208.98 56.8673 209.015 56.9165 209.06C56.9657 209.106 57.0056 209.16 57.0339 209.221C57.7806 210.822 58.7913 212.282 60.0226 213.538C60.0928 213.61 60.1405 213.701 60.1595 213.801C60.1786 213.9 60.1682 214.003 60.1296 214.096C60.0911 214.189 60.0262 214.269 59.943 214.325C59.8598 214.381 59.7621 214.411 59.6623 214.411ZM55.1896 204.695C55.0622 204.695 54.9396 204.647 54.8462 204.559C54.7528 204.471 54.6954 204.351 54.6854 204.223C54.6551 203.831 54.6399 203.434 54.6399 203.045C54.6399 201.523 54.8712 200.036 55.3272 198.626C55.3465 198.56 55.3785 198.499 55.4215 198.446C55.4645 198.394 55.5175 198.35 55.5774 198.318C55.6373 198.286 55.7029 198.267 55.7703 198.261C55.8377 198.256 55.9056 198.264 55.9699 198.285C56.0342 198.306 56.0936 198.34 56.1447 198.385C56.1957 198.43 56.2373 198.485 56.2671 198.547C56.2968 198.608 56.3141 198.675 56.3178 198.743C56.3215 198.812 56.3117 198.88 56.2889 198.945C55.8638 200.269 55.6489 201.652 55.6522 203.044C55.6522 203.408 55.6663 203.777 55.6947 204.143C55.7001 204.214 55.6911 204.284 55.6682 204.351C55.6453 204.418 55.6089 204.479 55.5615 204.531C55.514 204.583 55.4565 204.624 55.3925 204.653C55.3285 204.681 55.2594 204.695 55.1896 204.695ZM58.4981 194.601C58.4003 194.601 58.3045 194.572 58.2225 194.518C58.1405 194.464 58.0757 194.387 58.0361 194.296C57.9965 194.206 57.9836 194.105 57.9992 194.007C58.0147 193.91 58.0579 193.819 58.1236 193.745C59.3841 192.335 60.9242 191.21 62.6434 190.443C62.7044 190.414 62.7706 190.397 62.838 190.394C62.9054 190.391 62.9728 190.402 63.036 190.426C63.0993 190.45 63.1572 190.486 63.2063 190.533C63.2555 190.58 63.2949 190.636 63.3222 190.698C63.3496 190.761 63.3643 190.828 63.3655 190.897C63.3668 190.965 63.3545 191.033 63.3295 191.096C63.3044 191.16 63.2671 191.217 63.2196 191.266C63.1722 191.314 63.1157 191.353 63.0533 191.379C61.4635 192.088 60.0391 193.128 58.8732 194.432C58.8259 194.485 58.768 194.528 58.7034 194.557C58.6388 194.586 58.5689 194.601 58.4981 194.601ZM67.0887 221.749C66.9616 221.749 66.8391 221.7 66.7457 221.613C66.6523 221.525 66.5948 221.406 66.5846 221.277L66.3685 218.563C65.49 218.3 64.6351 217.961 63.813 217.552C63.6926 217.492 63.6006 217.386 63.5573 217.257C63.514 217.129 63.523 216.988 63.5822 216.866C63.6415 216.744 63.7462 216.651 63.8733 216.607C64.0004 216.564 64.1395 216.573 64.26 216.633C65.1397 217.071 66.0594 217.422 67.0062 217.68C67.1302 217.714 67.2368 217.794 67.3045 217.904C67.3723 218.015 67.3961 218.147 67.3712 218.274L67.3641 218.312L67.5934 221.195C67.5989 221.266 67.59 221.337 67.5672 221.404C67.5444 221.471 67.5081 221.532 67.4607 221.584C67.4133 221.636 67.3558 221.677 67.2918 221.706C67.2278 221.734 67.1586 221.749 67.0887 221.749ZM68.1769 235.416C68.0498 235.416 67.9273 235.368 67.8339 235.28C67.7405 235.193 67.683 235.073 67.6728 234.945L67.1287 228.111C67.1217 228.043 67.1282 227.974 67.1477 227.909C67.1673 227.844 67.1996 227.783 67.2428 227.73C67.2859 227.678 67.339 227.634 67.3989 227.603C67.4588 227.572 67.5243 227.552 67.5916 227.547C67.6589 227.542 67.7266 227.55 67.7907 227.571C67.8548 227.593 67.914 227.627 67.9648 227.672C68.0157 227.717 68.0572 227.771 68.0868 227.833C68.1165 227.894 68.1337 227.961 68.1374 228.029L68.6815 234.863C68.6871 234.933 68.6782 235.004 68.6554 235.071C68.6326 235.138 68.5963 235.199 68.5489 235.251C68.5015 235.303 68.444 235.344 68.38 235.373C68.3159 235.401 68.2468 235.416 68.1769 235.416V235.416ZM68.9645 245.313C68.8374 245.313 68.7151 245.265 68.6218 245.177C68.5285 245.09 68.471 244.97 68.4609 244.842L68.2169 241.779C68.21 241.711 68.2165 241.643 68.2361 241.577C68.2557 241.512 68.288 241.451 68.3311 241.399C68.3742 241.346 68.4273 241.303 68.4871 241.272C68.5469 241.24 68.6124 241.221 68.6796 241.216C68.7468 241.21 68.8144 241.218 68.8785 241.24C68.9425 241.261 69.0017 241.295 69.0526 241.34C69.1035 241.385 69.145 241.439 69.1747 241.501C69.2044 241.562 69.2217 241.628 69.2256 241.697L69.4696 244.76C69.4752 244.83 69.4663 244.901 69.4434 244.968C69.4206 245.035 69.3843 245.096 69.3368 245.148C69.2893 245.2 69.2317 245.242 69.1677 245.27C69.1036 245.298 69.0344 245.313 68.9645 245.313V245.313Z" fill="#212121"/>
<path d="M76.7206 246.323C76.72 250.766 73.1146 254.369 68.6674 254.369C64.2201 254.369 60.6157 250.766 60.6163 246.323C60.617 241.879 64.2224 238.276 68.6696 238.276C73.1168 238.276 76.7212 241.879 76.7206 246.323Z" fill="white" stroke="#212121" stroke-width="0.5"/>
<path d="M68.6679 249.878C70.633 249.878 72.2262 248.286 72.2265 246.323C72.2267 244.359 70.634 242.767 68.6689 242.767C66.7038 242.767 65.1106 244.359 65.1103 246.323C65.1101 248.286 66.7028 249.878 68.6679 249.878Z" fill="#FBBC05"/>
<path opacity="0.3" d="M239.981 189.22C240.01 189.691 240.166 190.259 240.586 190.352C240.95 190.431 241.272 190.094 241.499 189.769C242.149 188.838 242.623 187.773 242.895 186.638C242.987 186.25 243.056 185.847 243.01 185.45C242.943 184.876 242.568 184.29 242 184.259C241.505 184.232 241.228 184.753 240.986 185.155C240.269 186.349 239.897 187.788 239.981 189.22Z" fill="white"/>
<path d="M108.969 42.2219C95.7331 42.2219 85 52.8954 85 66.0652C85 76.6355 100.45 94.3631 106.542 100.942C107.85 102.353 110.089 102.353 111.397 100.942C117.489 94.3631 132.939 76.6355 132.939 66.0652C132.939 52.8954 122.206 42.2219 108.969 42.2219ZM108.969 77.3588C102.413 77.3588 97.0977 72.074 97.0977 65.5517C97.0977 59.0273 102.413 53.7425 108.969 53.7425C115.526 53.7425 120.841 59.0273 120.841 65.5517C120.841 72.074 115.526 77.3588 108.969 77.3588Z" fill="#FBBC05"/>
<path d="M132.555 63.3004C132.416 62.1168 132.185 60.9345 131.868 59.7872C131.835 59.6689 131.905 59.5466 132.024 59.5141C132.144 59.4837 132.266 59.5514 132.299 59.6693C132.622 60.8386 132.857 62.0427 132.999 63.2493C133.013 63.3711 132.925 63.4812 132.802 63.4956C132.673 63.5084 132.569 63.4172 132.555 63.3004ZM128.738 52.9745C124.317 46.3808 116.927 42.444 108.97 42.444C102.835 42.444 97.0127 44.764 92.5764 48.9761C92.4866 49.0611 92.3454 49.0577 92.2609 48.9692C92.1754 48.8803 92.1789 48.7399 92.2678 48.6553C96.7882 44.3634 102.719 42 108.97 42C117.076 42 124.605 46.0105 129.11 52.7283C129.178 52.8302 129.15 52.968 129.048 53.0361C128.946 53.1037 128.807 53.0772 128.738 52.9745Z" fill="#212121"/>
<path fill-rule="evenodd" clip-rule="evenodd" d="M97 65.8557C97 59.2682 102.373 53.928 109 53.928C115.628 53.928 121 59.2682 121 65.8557C121 72.4436 115.628 77.7834 109 77.7834C102.373 77.7834 97 72.4436 97 65.8557Z" fill="white"/>
<path d="M255.558 123.204C255.558 123.204 261.661 119.845 262.357 117.469C263.054 115.093 258.343 116.691 258.343 116.691C258.343 116.691 263.013 111.611 263.054 110.013C263.095 108.416 260.432 109.522 258.671 112.266C258.671 112.266 262.275 108.498 261.374 106.982C260.473 105.466 256.992 110.546 256.992 110.546C256.992 110.546 259.285 107.269 258.302 106.531C257.319 105.794 253.51 110.71 253.51 110.71C253.51 110.71 256.296 106.859 254.698 106.531C253.224 106.244 248.063 113.905 248.391 117.715C248.555 120.664 252.609 122.262 255.558 123.204Z" fill="#F4BB96"/>
<path d="M254.411 118.698C254.329 118.698 254.289 118.698 254.248 118.657C254.043 118.575 253.961 118.329 254.084 118.125C254.657 116.937 255.435 116.24 256.377 115.994C257.606 115.667 258.589 116.363 258.63 116.404C258.835 116.527 258.876 116.773 258.712 116.978C258.589 117.182 258.343 117.223 258.139 117.1C258.139 117.1 257.36 116.609 256.541 116.814C255.886 116.978 255.271 117.551 254.821 118.534C254.698 118.616 254.534 118.698 254.411 118.698Z" fill="#EE9961"/>
<path d="M275.832 146.718L267.395 169.946C267.395 169.946 232.335 176.664 222.669 163.105C222.137 162.326 221.686 161.548 221.359 160.729C214.56 144.096 247.612 115.134 247.612 115.134C250.07 119.189 253.142 121.279 259.163 122.262C258.548 124.515 257.811 126.686 256.992 128.816C251.79 142.253 243.394 152.208 243.394 152.208C256.91 144.793 275.832 146.718 275.832 146.718Z" fill="#4285F4"/>
<path d="M259.203 122.303C258.589 124.556 257.852 126.727 257.033 128.857C255.517 129.267 253.961 129.349 252.691 129.144C249.005 128.571 246.875 119.149 244.664 122.18C241.223 126.85 231.926 132.544 228.321 139.877C225.086 146.473 223.161 153.642 221.359 160.77C214.56 144.138 247.612 115.175 247.612 115.175C250.111 119.231 253.183 121.279 259.203 122.303Z" fill="#4285F4"/>
<path d="M275.625 295.383C276.362 298.169 277.1 301.242 277.509 304.027C277.919 306.649 278.042 308.984 277.714 310.623C277.345 312.507 275.666 313.818 273.782 313.777C265.918 313.613 246.054 312.712 245.808 310.5C245.357 306.731 250.723 304.355 254.409 303.003C256.129 302.389 257.563 301.16 258.505 299.644C259.037 298.784 259.365 297.841 259.529 296.858L275.625 295.383Z" fill="#212121"/>
<path d="M275.625 295.383C276.362 298.169 277.1 301.242 277.509 304.027C271.284 307.059 262.928 302.552 258.505 299.603C259.037 298.743 259.365 297.8 259.529 296.817L275.625 295.383Z" fill="#F4BB96"/>
<path d="M248.47 309.312C248.265 309.271 248.102 309.025 248.184 308.82C248.224 308.616 248.47 308.452 248.675 308.534C248.839 308.575 263.993 312.221 275.83 310.09C276.035 310.049 276.28 310.213 276.321 310.418C276.362 310.623 276.199 310.869 275.994 310.91C267.679 312.344 255.965 311.155 248.47 309.312ZM256.498 303.331L254.983 301.938C254.819 301.774 254.819 301.529 254.942 301.365C255.105 301.201 255.351 301.201 255.515 301.324L257.03 302.717C257.194 302.88 257.194 303.126 257.071 303.29C256.948 303.454 256.662 303.495 256.498 303.331ZM254.983 304.437L253.467 303.044C253.303 302.88 253.303 302.635 253.426 302.471C253.59 302.307 253.836 302.307 254 302.43L255.515 303.823C255.679 303.986 255.679 304.232 255.556 304.396C255.392 304.56 255.146 304.601 254.983 304.437Z" fill="#212121"/>
<path d="M280.13 295.834C280.13 298.988 271.341 300.627 263.804 299.726C260.528 299.357 258.234 298.497 258.234 297.145C258.234 297.145 254.957 261.505 255.613 249.584C256.145 239.998 260.978 217.589 263.436 206.61C264.296 202.76 264.869 200.343 264.869 200.343L290.083 200.302C290.083 200.302 280.212 237.171 279.188 249.584C278.205 261.423 280.13 295.834 280.13 295.834Z" fill="#212121"/>
<path d="M280.13 295.834C280.13 298.988 267.597 300.586 260.061 299.685C259.652 295.998 262.232 292.311 264.28 288.993C269.522 280.513 271.98 270.599 272.758 260.685C273.577 250.772 272.84 240.817 272.062 230.862C271.652 225.25 271.161 219.433 268.417 214.517C267.106 212.223 265.345 210.215 263.215 208.618C262.232 207.88 260.839 207.307 259.693 206.569C260.553 202.719 261.126 200.302 261.126 200.302H290.083C290.083 200.302 280.212 237.171 279.188 249.584C278.205 261.423 280.13 295.834 280.13 295.834Z" fill="#212121"/>
<path d="M310.808 177.566C310.112 183.752 308.309 191.003 305.115 199.401C295.817 208.7 257.891 207.348 259.856 199.974C260.553 197.68 260.512 193.665 260.43 191.371C259.897 176.419 254.983 153.314 268.99 148.234C286.233 142.008 309.989 144.752 311.135 169.987C311.176 172.322 311.095 174.862 310.808 177.566Z" fill="#4285F4"/>
<path d="M310.808 177.566C310.111 183.752 308.309 191.003 305.115 199.401C295.817 208.7 257.89 207.348 259.856 199.974C260.553 197.68 260.512 193.666 260.43 191.371C264.812 192.068 269.195 193.01 273.618 193.338C279.516 193.748 285.742 193.051 290.575 189.692C293.237 187.848 295.367 185.227 296.677 182.236C297.742 179.86 297.374 176.255 298.766 174.207C300.323 171.913 304.91 170.889 307.449 170.397C308.678 170.151 309.907 170.028 311.135 169.987C311.176 172.322 311.094 174.862 310.808 177.566Z" fill="#4285F4"/>
<path d="M258.054 302.225L256.539 300.832C256.375 300.668 256.375 300.422 256.498 300.258C256.662 300.094 256.908 300.094 257.071 300.217L258.587 301.61C258.751 301.774 258.751 302.02 258.628 302.184C258.464 302.348 258.218 302.388 258.054 302.225Z" fill="#212121"/>
<path d="M313.429 294.892C314.781 297.473 316.132 300.299 317.115 302.921C318.057 305.379 318.672 307.673 318.713 309.312C318.754 311.237 317.402 312.876 315.559 313.245C307.859 314.76 288.281 318.12 287.544 316.03C286.315 312.466 291.025 308.984 294.343 306.854C295.899 305.871 297.046 304.396 297.619 302.676C297.947 301.733 298.07 300.75 298.029 299.726L313.429 294.892Z" fill="#212121"/>
<path d="M313.429 294.892C314.781 297.473 316.132 300.299 317.115 302.921C311.709 307.223 302.575 304.601 297.578 302.676C297.906 301.733 298.029 300.75 297.988 299.726L313.429 294.892Z" fill="#F4BB96"/>
<path d="M313.812 296.244C313.812 296.244 305.826 258.965 306.112 245.897C306.358 235.082 311.273 215.623 302.713 201.449L299.108 202.104V205.341H280.008C278.369 215.951 276.158 234.59 278.943 246.143C282.056 259.006 293.524 298.579 293.524 298.579C296.227 303.577 315.328 300.627 313.812 296.244Z" fill="#212121"/>
<path d="M277.263 235.163C276.936 224.758 278.41 212.919 279.68 204.808C279.721 204.603 279.926 204.439 280.13 204.48C280.335 204.521 280.499 204.726 280.458 204.931C279.188 213.001 277.714 224.799 278.042 235.122C278.042 235.368 277.878 235.532 277.632 235.532C277.468 235.573 277.263 235.409 277.263 235.163ZM297.496 305.379L295.817 304.232C295.612 304.109 295.571 303.863 295.694 303.658C295.817 303.453 296.063 303.412 296.268 303.535L297.947 304.682C298.152 304.805 298.193 305.051 298.07 305.256C297.947 305.461 297.66 305.502 297.496 305.379ZM296.104 306.69L294.425 305.543C294.22 305.42 294.179 305.174 294.302 304.969C294.425 304.764 294.67 304.723 294.875 304.846L296.554 305.993C296.759 306.116 296.8 306.362 296.677 306.567C296.554 306.772 296.309 306.813 296.104 306.69ZM294.752 308.001L293.073 306.854C292.868 306.731 292.827 306.485 292.95 306.28C293.073 306.075 293.319 306.034 293.524 306.157L295.203 307.304C295.408 307.427 295.449 307.673 295.326 307.878C295.162 308.083 294.916 308.124 294.752 308.001ZM290.288 314.268C290.288 314.023 290.452 313.859 290.657 313.818C305.074 313.039 315.805 308.574 315.927 308.533C316.132 308.451 316.378 308.533 316.46 308.738C316.542 308.943 316.46 309.189 316.255 309.271C316.132 309.312 305.278 313.818 290.698 314.637C290.493 314.637 290.329 314.473 290.288 314.268ZM297.865 223.447C289.878 222.669 288.117 217.548 290.779 212.591C290.902 212.386 291.148 212.305 291.353 212.427C291.558 212.55 291.64 212.796 291.517 213.001C289.141 217.466 290.616 221.932 297.988 222.628C298.193 222.669 298.398 222.833 298.357 223.079C298.316 223.324 298.111 223.488 297.865 223.447Z" fill="#212121"/>
<path d="M279.721 206.119C271.079 206.119 263.01 204.726 260.348 202.35C259.283 201.408 259.242 200.507 259.406 199.892C261.577 191.74 257.03 173.469 259.365 160.77C259.406 160.565 259.611 160.401 259.856 160.442C260.061 160.483 260.225 160.688 260.184 160.934C257.85 173.469 262.396 191.74 260.184 200.097C258.914 204.89 285.209 207.921 299.135 202.309C303.599 200.507 305.975 198.131 306.18 195.181C306.18 194.935 306.384 194.771 306.63 194.812C306.876 194.812 307.04 195.017 306.999 195.263C306.712 198.54 304.173 201.203 299.422 203.088C294.261 205.177 286.807 206.119 279.721 206.119ZM267.761 123.983C267.761 123.983 266.778 125.416 269.604 128.489L270.587 123.204L267.761 123.983Z" fill="#212121"/>
<path d="M268.102 130.582C268.532 135.751 270.543 138.067 274.131 139.198H275.423L274.233 145.694C274.151 145.899 274.151 146.145 274.192 146.391C275.011 150.283 287.421 149.832 287.462 145.653L286.438 134.552L286.274 133.65L286.11 132.585L285.414 128.325V120.623L269.768 120.91C269.768 120.91 267.671 125.412 268.102 130.582Z" fill="#F4BB96"/>
<path d="M280.335 149.504C277.182 149.504 274.192 148.562 273.741 146.514C273.7 146.227 273.7 145.94 273.782 145.613C273.864 145.408 274.069 145.285 274.274 145.326C274.478 145.408 274.601 145.613 274.56 145.817C274.519 145.981 274.478 146.186 274.519 146.309C274.888 148.112 278.451 148.89 281.687 148.603C284.308 148.357 286.929 147.374 286.97 145.695L286.888 144.834C286.848 144.588 287.052 144.425 287.257 144.384C287.503 144.384 287.667 144.548 287.708 144.752L287.79 145.613V145.654C287.749 147.989 284.636 149.136 281.769 149.381C281.359 149.463 280.827 149.504 280.335 149.504ZM266.123 122.508C266.328 123.942 269.072 124.843 269.973 125.048C276.362 126.686 279.762 122.303 279.762 122.303C280.049 125.662 282.834 125.089 282.834 125.089C282.178 125.785 282.711 127.055 283.079 127.915L287.38 129.144C287.421 128.817 287.462 128.489 287.503 128.202C291.787 117.226 284.897 117.657 284.897 117.657C284.466 115.072 282.313 112.918 276.772 112.918C274.806 112.181 272.408 112.487 269.768 114.211C264.853 116.177 266.379 120.242 266.379 120.242C265.478 120.939 266.041 121.975 266.123 122.508ZM271.734 128.694C271.775 129.021 271.529 129.349 271.202 129.39C270.874 129.431 270.546 129.185 270.505 128.858C270.464 128.53 270.71 128.202 271.038 128.161C271.366 128.12 271.693 128.366 271.734 128.694ZM272.799 127.465C272.758 127.793 272.103 127.629 271.243 127.547C270.424 127.465 269.727 127.506 269.768 127.178C269.809 126.85 270.505 126.645 271.325 126.727C272.144 126.809 272.799 127.137 272.799 127.465ZM276.772 128.776C276.813 129.103 276.567 129.431 276.239 129.472C275.912 129.513 275.584 129.267 275.543 128.94C275.502 128.612 275.748 128.284 276.076 128.243C276.403 128.202 276.731 128.448 276.772 128.776ZM277.796 127.547C277.755 127.874 277.1 127.752 276.28 127.67C275.461 127.629 274.765 127.67 274.765 127.342C274.806 127.014 275.502 126.768 276.321 126.85C277.182 126.85 277.837 127.178 277.796 127.547Z" fill="#212121"/>
<path d="M288.281 128.202C288.158 129.882 286.97 131.192 285.66 131.192C284.349 131.192 283.366 129.841 283.489 128.202C283.612 126.563 284.8 125.211 286.11 125.211C287.421 125.211 288.404 126.563 288.281 128.202Z" fill="#F4BB96"/>
<path d="M273.127 131.479C272.84 131.479 272.635 131.397 272.471 131.193C272.185 130.865 271.98 130.168 273.168 127.833C273.291 127.629 273.536 127.547 273.7 127.669C273.905 127.792 273.987 128.038 273.864 128.202C273.004 129.841 272.963 130.496 273.045 130.619C273.045 130.619 273.045 130.619 273.086 130.619C273.127 130.619 273.25 130.619 273.495 130.537C273.7 130.455 273.946 130.578 274.028 130.783C274.11 130.988 273.987 131.234 273.782 131.315C273.577 131.438 273.332 131.479 273.127 131.479ZM286.11 128.939H286.069C285.865 128.898 285.701 128.694 285.701 128.489L285.824 127.588C285.865 127.383 286.069 127.219 286.274 127.219C286.479 127.26 286.643 127.465 286.643 127.669L286.52 128.571C286.52 128.776 286.315 128.939 286.11 128.939Z" fill="#EE9961"/>
<path d="M254.081 159.213C253.877 159.049 253.672 158.885 253.426 158.721C253.877 159.008 254.04 159.172 254.081 159.213Z" fill="white"/>
<path d="M254.081 159.621C253.877 159.621 253.836 159.54 253.221 159.048C253.058 158.926 253.017 158.68 253.139 158.475C253.262 158.312 253.508 158.23 253.713 158.353C254.163 158.639 254.368 158.844 254.45 158.926C254.614 159.212 254.45 159.621 254.081 159.621Z" fill="#212121"/>
<path d="M263.911 285.756C249.781 281.414 236.265 280.963 223.486 285.06C222.216 285.47 221.029 284.241 221.479 282.971C222.503 280.185 223.65 276.949 224.797 273.221C231.514 251.468 238.19 214.804 221.561 176.173C228.729 164.252 239.46 154.051 254.041 159.254C254.696 159.991 258.833 163.392 263.051 171.052C281.4 204.234 272.758 265.069 265.877 284.773C265.632 285.552 264.771 286.002 263.911 285.756Z" fill="white"/>
<path d="M263.911 285.756C249.781 281.414 236.265 280.963 223.486 285.06C222.216 285.47 221.029 284.241 221.479 282.971C222.503 280.185 223.65 276.949 224.797 273.221C226.681 272.483 228.647 271.746 230.49 270.968C248.184 263.225 259.242 244.75 263.133 225.864C264.485 219.269 265.099 212.551 265.222 205.791C265.345 199.646 265.058 193.46 264.526 187.316C264.116 182.154 262.478 176.173 263.092 171.011C281.441 204.194 272.799 265.028 265.918 284.732C265.632 285.552 264.771 286.002 263.911 285.756Z" fill="#2884B2" fill-opacity="0.06"/>
<path d="M263.788 286.125C249.371 281.701 235.855 281.496 223.609 285.429C222.012 285.961 220.537 284.405 221.111 282.807C234.995 245.241 235.036 208.413 221.192 176.296C221.152 176.173 221.152 176.05 221.233 175.927C229.015 162.982 239.951 153.765 254.204 158.803C254.245 158.803 254.327 158.844 254.368 158.885C270.669 174.125 274.315 202.678 274.478 223.98C274.683 247.945 270.505 272.729 266.287 284.855C265.959 285.92 264.853 286.453 263.788 286.125ZM264.034 285.347C264.649 285.552 265.304 285.224 265.509 284.609C273.782 260.931 282.711 186.66 253.836 159.582C241.917 155.403 231.227 161.016 222.012 176.214C235.814 208.495 235.773 245.446 221.848 283.135C221.52 284.077 222.38 284.978 223.322 284.691C235.814 280.677 249.494 280.882 264.034 285.347Z" fill="#212121"/>
<path d="M254.081 159.254C227.295 149.75 213.615 191.904 210.748 201.9C210.462 202.924 209.274 203.374 208.373 202.801C195.43 194.853 183.102 193.583 172.166 195.181C171.019 195.345 170.077 194.28 170.405 193.174C170.651 192.314 170.937 191.248 171.347 190.019C175.607 176.706 189.205 144.302 220.619 146.268C220.619 146.268 231.678 146.801 243.924 152.904C247.282 154.543 250.764 156.632 254.081 159.254Z" fill="white"/>
<path d="M254.081 159.254C227.295 149.75 213.615 191.904 210.748 201.899C210.462 202.923 209.274 203.374 208.373 202.801C195.43 194.853 183.102 193.583 172.166 195.181C171.019 195.345 170.077 194.28 170.405 193.174C170.651 192.313 170.937 191.248 171.347 190.019C174.419 187.93 178.433 186.947 182.201 186.988C188.262 187.029 194.119 188.995 200.14 189.691C205.014 190.224 210.625 189.65 213.697 185.841C217.424 181.212 215.786 174.043 218.817 168.922C221.479 164.457 226.967 162.695 231.923 161.056C236.265 159.623 240.524 157.779 243.269 153.969C243.514 153.642 243.719 153.273 243.965 152.945C247.282 154.543 250.764 156.632 254.081 159.254Z" fill="#2884B2" fill-opacity="0.06"/>
<path d="M208.168 203.17C196.823 196.205 185.027 193.706 172.207 195.591C170.774 195.796 169.586 194.444 169.995 193.051C171.347 188.176 175.361 175.682 183.348 164.826C193.341 151.307 205.874 144.916 220.66 145.817C220.824 145.817 238.886 146.842 254.368 158.886C254.737 159.172 254.409 159.746 254 159.582C248.102 157.493 242.409 157.82 237.125 160.565C221.725 168.513 213.37 194.28 211.199 201.982C210.789 203.292 209.315 203.866 208.168 203.17ZM180.317 194.198C190.228 194.198 199.526 196.943 208.577 202.514C209.274 202.924 210.134 202.596 210.38 201.818C212.591 194.034 221.029 168.021 236.715 159.91C241.548 157.411 246.668 156.837 251.993 158.189C237.166 147.661 220.783 146.719 220.619 146.678C186.952 144.548 173.968 181.826 170.815 193.297C170.569 194.116 171.265 194.935 172.125 194.813C174.869 194.403 177.614 194.198 180.317 194.198Z" fill="#212121"/>
<path d="M211.895 183.137L208.455 190.757C208.209 191.29 207.635 191.576 207.103 191.453L180.562 185.472C179.825 185.309 179.416 184.489 179.743 183.793C184.453 173.347 182.856 176.952 183.184 176.173C183.429 175.641 184.003 175.354 184.535 175.477C185.027 175.6 180.358 174.535 211.076 181.458C211.813 181.622 212.223 182.441 211.895 183.137Z" fill="white"/>
<path d="M211.895 183.137L208.455 190.757C208.209 191.289 207.635 191.576 207.103 191.453L180.562 185.472C179.825 185.308 179.416 184.489 179.743 183.792L180.358 182.44C182.487 182.277 184.699 182.645 186.706 183.26C190.433 184.407 193.833 186.373 197.601 187.397C201.369 188.421 205.751 188.299 208.659 185.718C209.847 184.653 210.83 183.014 210.994 181.416L211.117 181.457C211.813 181.621 212.223 182.44 211.895 183.137Z" fill="#2884B2" fill-opacity="0.04"/>
<path d="M274.888 214.968C269.318 216.033 266.86 215.336 267.188 214.271C267.475 213.329 270.055 212.633 270.055 212.633C270.055 212.633 265.222 213.657 265.017 212.1C264.771 210.42 269.973 210.625 269.973 210.625C269.973 210.625 264.485 210.502 264.73 208.905C264.935 207.512 270.546 207.799 270.546 207.799C270.546 207.799 264.771 207.307 265.304 205.586C265.836 203.907 272.84 205.464 272.84 205.464L272.348 200.671C272.348 200.671 275.789 201.408 278.328 205.177C278.984 206.16 282.424 203.456 282.424 203.456L287.339 211.076C287.298 211.076 279.475 214.107 274.888 214.968Z" fill="#F4BB96"/>
<path d="M315.556 192.109C314.205 194.485 312.198 196.697 309.904 198.704C299.501 207.757 282.217 212.837 282.217 212.837C282.094 207.88 281.562 205.873 277.671 203.702C278.654 201.817 280.169 199.851 281.521 198.294C281.562 198.253 281.603 198.212 281.643 198.171C288.524 190.634 299.87 186.619 299.87 186.619C294.545 175.927 294.422 163.473 296.224 156.878L292.538 146.718C292.538 146.718 309.904 149.75 313.795 161.507C317.932 173.879 320.021 184.366 315.556 192.109Z" fill="#4285F4"/>
<path d="M309.904 198.704C299.501 207.758 282.217 212.837 282.217 212.837C282.094 207.881 281.562 205.873 277.671 203.702C278.654 201.818 280.169 199.851 281.521 198.295C281.562 198.254 281.603 198.213 281.643 198.172C282.995 198.663 284.06 199.81 284.101 201.531C284.101 202.35 283.896 203.17 284.142 203.948C284.592 205.259 286.19 205.709 287.541 205.832C292.415 206.283 297.371 205.054 301.836 203.088C304.662 201.859 307.324 200.343 309.904 198.704Z" fill="#4285F4"/>
<path d="M281.807 212.837C281.685 207.84 281.111 206.078 277.466 204.071C277.261 203.948 277.22 203.702 277.302 203.538C278.49 201.285 280.251 199.114 281.234 198.049C287.337 191.289 297.167 187.275 299.337 186.455C294.259 175.968 293.972 163.801 295.856 156.837C295.897 156.632 296.143 156.509 296.347 156.55C296.552 156.591 296.675 156.837 296.634 157.042C294.709 164.17 295.323 176.583 300.238 186.496C300.361 186.701 300.238 186.988 299.993 187.07C299.87 187.111 288.524 191.166 281.807 198.622C280.906 199.605 279.309 201.531 278.203 203.579C281.889 205.75 282.422 207.921 282.586 212.305C285.084 211.526 296.143 207.881 305.03 201.9C305.235 201.777 305.481 201.818 305.604 202.022C305.727 202.227 305.686 202.473 305.481 202.596C295.323 209.396 282.422 213.247 282.299 213.247C282.053 213.288 281.807 213.124 281.807 212.837Z" fill="#212121"/>
<path d="M207.349 191.863C207.021 191.863 208.7 192.19 180.44 185.882C179.457 185.677 178.883 184.571 179.334 183.629L182.774 176.009C183.102 175.312 183.839 174.944 184.617 175.108L211.158 181.089C212.141 181.294 212.714 182.4 212.264 183.342L208.823 190.961C208.577 191.494 208.004 191.863 207.349 191.863ZM183.552 176.337L180.112 183.956C179.907 184.407 180.153 184.939 180.685 185.062L207.226 191.043C207.594 191.125 207.963 190.92 208.127 190.593L211.567 182.973C211.772 182.522 211.526 181.99 210.994 181.867L184.453 175.886C184.085 175.804 183.675 176.009 183.552 176.337Z" fill="#212121"/>
<path d="M217.097 173.592L198.01 168.84C197.806 168.799 197.642 168.554 197.724 168.349C197.765 168.144 198.01 167.98 198.215 168.062L217.302 172.814C217.506 172.855 217.67 173.101 217.588 173.306C217.547 173.51 217.342 173.633 217.097 173.592ZM193.341 167.611L189.573 166.669C189.368 166.628 189.205 166.382 189.286 166.178C189.327 165.973 189.573 165.809 189.778 165.891L193.546 166.833C193.751 166.874 193.915 167.12 193.833 167.325C193.792 167.529 193.546 167.652 193.341 167.611Z" fill="black" fill-opacity="0.4"/>
<path d="M219.431 169.291L211.567 167.324C211.363 167.283 211.199 167.037 211.281 166.833C211.322 166.628 211.567 166.464 211.772 166.546L219.636 168.512C219.841 168.553 220.005 168.799 219.923 169.004C219.882 169.209 219.677 169.332 219.431 169.291ZM195.676 163.269L191.908 162.326C191.703 162.285 191.539 162.04 191.621 161.835C191.662 161.63 191.908 161.466 192.112 161.548L195.881 162.49C196.085 162.531 196.249 162.777 196.167 162.982C196.126 163.228 195.881 163.351 195.676 163.269Z" fill="black" fill-opacity="0.4"/>
<path d="M224.141 165.194C224.059 165.194 224.797 165.358 208.496 161.302C208.291 161.261 208.127 161.016 208.209 160.811C208.25 160.606 208.496 160.442 208.7 160.524L224.264 164.375C224.715 164.498 224.633 165.194 224.141 165.194ZM200.304 159.172L196.536 158.23C196.331 158.189 196.167 157.943 196.249 157.738C196.29 157.534 196.536 157.37 196.741 157.452L200.509 158.394C200.714 158.435 200.877 158.681 200.796 158.885C200.714 159.131 200.509 159.254 200.304 159.172Z" fill="black" fill-opacity="0.4"/>
<path d="M228.647 160.934L217.179 158.066C216.974 158.025 216.81 157.779 216.892 157.575C216.933 157.37 217.179 157.206 217.383 157.288L228.851 160.155C229.056 160.196 229.22 160.442 229.138 160.647C229.097 160.852 228.892 160.975 228.647 160.934ZM204.891 154.953L202.843 154.461C202.639 154.42 202.475 154.174 202.557 153.97C202.598 153.765 202.843 153.601 203.048 153.683L205.096 154.174C205.301 154.215 205.465 154.461 205.383 154.666C205.342 154.871 205.096 154.994 204.891 154.953Z" fill="black" fill-opacity="0.4"/>
<path d="M234.545 157.452C234.463 157.452 235.077 157.574 224.92 155.076C224.715 155.035 224.551 154.789 224.633 154.584C224.674 154.379 224.92 154.215 225.124 154.297L234.627 156.673C234.831 156.714 234.995 156.96 234.913 157.165C234.913 157.329 234.749 157.452 234.545 157.452ZM212.673 151.921L210.625 151.43C210.421 151.389 210.257 151.143 210.339 150.938C210.38 150.733 210.625 150.569 210.83 150.651L212.878 151.143C213.083 151.184 213.247 151.43 213.165 151.634C213.124 151.839 212.878 152.003 212.673 151.921Z" fill="black" fill-opacity="0.4"/>
<path d="M275.423 139.198C275.423 139.198 278.187 138.243 281.709 135.826C282.037 135.581 282.446 135.99 282.241 136.318C281.177 137.998 279.006 139.631 275.033 141.352L275.423 139.198Z" fill="#EE9961"/>
<path d="M273.357 133.877C273.318 133.891 273.28 133.905 273.241 133.919C273.076 134.065 273.03 134.3 273.191 134.503C273.271 134.604 273.899 135.378 274.753 135.331C275.271 135.318 275.691 135.035 276.067 134.507C276.218 134.322 276.173 134.077 275.988 133.927C275.803 133.776 275.558 133.821 275.407 134.006C275.168 134.31 274.965 134.471 274.706 134.477C274.318 134.487 273.906 134.07 273.811 133.93C273.707 133.881 273.549 133.807 273.357 133.877Z" fill="#EE9961"/>
<path d="M311.218 135.985C311.515 136.27 318.546 143.087 324.363 154.089C329.752 164.28 334.993 180.072 329.359 197.428C329.203 197.912 328.687 198.177 328.202 198.019C327.72 197.861 327.456 197.341 327.613 196.857C338.027 164.776 310.23 137.588 309.948 137.317C309.582 136.965 309.569 136.382 309.92 136.014C310.271 135.647 310.852 135.633 311.218 135.985Z" fill="#2884B2" fill-opacity="0.12"/>
<path d="M310.621 124.67C310.859 124.67 311.096 124.756 311.282 124.927C311.653 125.272 320.428 133.505 326.667 146.478C326.89 146.942 326.682 147.492 326.204 147.707C325.728 147.924 325.157 147.723 324.935 147.259C318.845 134.597 310.048 126.345 309.959 126.264C309.339 125.687 309.764 124.67 310.621 124.67Z" fill="#2884B2" fill-opacity="0.12"/>
<path d="M250.502 93.6891C250.001 93.9842 249.374 93.8047 249.103 93.2889L233.119 62.9501C232.847 62.4342 233.033 61.7761 233.533 61.4817C234.034 61.1866 234.661 61.366 234.933 61.8818L250.916 92.2207C251.187 92.7346 251.004 93.3937 250.502 93.6891ZM241.328 101.477C241.067 102.011 240.444 102.233 239.938 101.971C231.711 97.729 223.001 94.4912 214.05 92.3478C213.498 92.2155 213.163 91.6385 213.301 91.0592C213.302 91.0565 213.303 91.0538 213.303 91.0517C213.445 90.4762 214.003 90.1178 214.554 90.2495C223.658 92.4293 232.517 95.723 240.885 100.038C241.395 100.301 241.588 100.948 241.328 101.477ZM269.239 61.6531C269.237 61.6613 269.235 61.6688 269.233 61.6762L262.142 88.0521C261.988 88.6275 261.418 88.9735 260.869 88.8249C260.295 88.6691 260.001 88.0446 260.156 87.5134L267.247 61.1375C267.402 60.5621 267.972 60.2161 268.52 60.3647C269.061 60.5115 269.379 61.085 269.239 61.6531Z" fill="#4285F4"/>
<path d="M189.016 114.5C189.016 119.499 184.966 123.557 179.968 123.557C174.969 123.557 170.919 119.499 170.919 114.5C170.919 109.5 174.969 105.45 179.968 105.45C184.966 105.45 189.016 109.5 189.016 114.5Z" fill="#2884B2" fill-opacity="0.04"/>
<path d="M306.649 53.2869C306.649 55.5091 304.849 57.3123 302.627 57.3123C300.405 57.3123 298.605 55.5091 298.605 53.2869C298.605 51.0649 300.405 49.2649 302.627 49.2649C304.849 49.2649 306.649 51.0649 306.649 53.2869Z" fill="#2884B2" fill-opacity="0.04"/>
<path d="M206.238 182.207L205.256 186.459L204.35 186.282L204.755 184.528L202.917 184.168L202.512 185.922L201.609 185.746L202.591 181.494L203.494 181.671L203.088 183.427L204.927 183.787L205.332 182.03L206.238 182.207ZM201.861 181.351L201.125 184.54L200.234 184.366L200.97 181.177L201.861 181.351ZM200.582 184.864C200.715 184.889 200.818 184.955 200.893 185.061C200.966 185.168 200.988 185.283 200.96 185.406C200.931 185.528 200.861 185.623 200.747 185.692C200.632 185.762 200.508 185.784 200.376 185.758C200.243 185.732 200.14 185.666 200.067 185.559C199.993 185.453 199.97 185.34 199.998 185.218C200.026 185.095 200.098 184.998 200.213 184.928C200.327 184.859 200.45 184.838 200.582 184.864ZM197.058 182.794L197.885 182.904C197.883 182.976 197.898 183.044 197.932 183.108C197.965 183.174 198.015 183.231 198.082 183.279C198.148 183.328 198.233 183.362 198.336 183.383C198.474 183.41 198.597 183.403 198.705 183.364C198.813 183.326 198.878 183.259 198.9 183.163C198.918 183.087 198.902 183.017 198.853 182.952C198.804 182.888 198.708 182.825 198.566 182.764L198.012 182.534C197.714 182.409 197.505 182.261 197.384 182.09C197.264 181.919 197.23 181.718 197.283 181.488C197.331 181.279 197.436 181.108 197.596 180.975C197.755 180.841 197.952 180.751 198.187 180.704C198.421 180.659 198.677 180.663 198.956 180.718C199.381 180.801 199.699 180.955 199.911 181.18C200.121 181.407 200.213 181.676 200.185 181.989L199.299 181.863C199.302 181.729 199.261 181.619 199.175 181.531C199.088 181.445 198.965 181.386 198.806 181.355C198.65 181.324 198.518 181.329 198.409 181.37C198.299 181.412 198.232 181.481 198.209 181.576C198.192 181.657 198.211 181.729 198.266 181.794C198.321 181.859 198.415 181.92 198.548 181.975L199.078 182.193C199.378 182.317 199.586 182.471 199.704 182.654C199.821 182.838 199.851 183.048 199.796 183.286C199.749 183.491 199.652 183.657 199.507 183.783C199.36 183.909 199.175 183.992 198.953 184.033C198.729 184.073 198.48 184.066 198.206 184.012C197.8 183.933 197.501 183.785 197.307 183.57C197.112 183.354 197.029 183.095 197.058 182.794ZM194.505 183.245L194.659 182.581L196.593 182.959L196.44 183.623L194.505 183.245ZM195.824 184.302L194.933 184.127L195.62 181.154C195.639 181.073 195.641 181.007 195.626 180.956C195.611 180.907 195.584 180.869 195.543 180.842C195.501 180.815 195.451 180.796 195.391 180.784C195.349 180.776 195.306 180.771 195.263 180.77C195.219 180.77 195.186 180.77 195.162 180.77L195.174 180.084C195.222 180.079 195.288 180.076 195.373 180.073C195.459 180.07 195.56 180.077 195.676 180.096C195.893 180.129 196.075 180.195 196.221 180.291C196.367 180.388 196.468 180.513 196.526 180.668C196.583 180.822 196.587 181.004 196.537 181.212L195.824 184.302ZM193.259 179.603C193.584 179.667 193.849 179.79 194.054 179.974C194.258 180.158 194.396 180.386 194.467 180.658C194.538 180.93 194.536 181.23 194.46 181.557C194.384 181.886 194.254 182.162 194.069 182.383C193.883 182.605 193.657 182.762 193.389 182.853C193.121 182.945 192.824 182.959 192.499 182.896C192.174 182.832 191.91 182.708 191.706 182.524C191.501 182.34 191.363 182.112 191.292 181.84C191.22 181.568 191.223 181.268 191.299 180.938C191.374 180.612 191.505 180.337 191.69 180.114C191.875 179.893 192.102 179.736 192.371 179.644C192.638 179.553 192.934 179.54 193.259 179.603ZM193.097 180.288C192.949 180.259 192.816 180.276 192.698 180.34C192.579 180.405 192.478 180.505 192.395 180.641C192.31 180.776 192.246 180.936 192.203 181.122C192.16 181.307 192.147 181.478 192.165 181.633C192.182 181.788 192.23 181.918 192.31 182.021C192.389 182.125 192.503 182.191 192.65 182.22C192.8 182.25 192.935 182.232 193.056 182.167C193.176 182.103 193.278 182.003 193.364 181.867C193.447 181.732 193.511 181.571 193.554 181.386C193.596 181.2 193.609 181.03 193.593 180.875C193.575 180.72 193.525 180.59 193.444 180.486C193.362 180.383 193.246 180.317 193.097 180.288ZM191.085 179.243L190.348 182.432L189.485 182.263L189.613 181.706L189.58 181.7C189.476 181.886 189.343 182.017 189.181 182.091C189.02 182.166 188.849 182.186 188.669 182.151C188.625 182.142 188.577 182.13 188.527 182.115C188.477 182.099 188.433 182.082 188.396 182.065L188.577 181.28C188.616 181.301 188.672 181.323 188.743 181.348C188.815 181.372 188.881 181.39 188.943 181.402C189.074 181.427 189.197 181.422 189.314 181.385C189.428 181.35 189.527 181.288 189.61 181.2C189.692 181.112 189.747 181.003 189.777 180.873L190.194 179.069L191.085 179.243ZM188.304 177.449C188.417 177.471 188.521 177.501 188.615 177.538C188.709 177.574 188.785 177.611 188.843 177.65L188.49 178.271C188.393 178.219 188.303 178.183 188.22 178.164C188.135 178.145 188.058 178.15 187.987 178.179C187.914 178.208 187.847 178.269 187.785 178.361L187.702 178.486L188.096 181.991L187.16 181.808L187.035 179.336L187.002 179.33L185.79 181.54L184.847 181.356L186.911 178.066C187.011 177.906 187.127 177.773 187.259 177.666C187.391 177.557 187.543 177.483 187.715 177.445C187.887 177.405 188.084 177.406 188.304 177.449Z" fill="black" fill-opacity="0.87"/>
</svg>
