<svg width="372" height="372" viewBox="0 0 372 372" fill="none" xmlns="http://www.w3.org/2000/svg">
<path opacity="0.1" d="M208.363 126.439C215.49 128.808 223.524 128.362 230.341 125.22C234.336 123.379 237.882 120.618 240.697 117.257L250.284 134.683L130.437 183.232L113.44 153.665L196.946 120.732C200.63 122.92 204.333 125.1 208.363 126.439Z" fill="#4285F4"/>
<path opacity="0.3" d="M151.549 179.993C146.666 179.557 141.242 179.949 137.683 183.3C137.324 183.638 137.001 184.001 136.698 184.376L130.302 183.243L249.995 134.721L288.548 141.472L174.366 187.113C167.383 183.168 159.551 180.706 151.549 179.993Z" fill="#4285F4"/>
<path opacity="0.1" d="M167.918 189.52L188.331 202.594L223.753 225.275L299.435 195.405L344.324 177.686L288.729 141.189L174.737 186.797L167.918 189.52Z" fill="#4285F4"/>
<path d="M151.618 180.139C159.609 180.831 167.43 183.221 174.404 187.051L167.588 189.7L136.788 184.395C137.091 184.03 137.413 183.678 137.772 183.349C141.326 180.096 146.742 179.716 151.618 180.139Z" fill="#4285F4"/>
<path opacity="0.1" d="M137.392 85.563C137.46 91.3257 136.107 96.7738 138.686 102.356C141.333 108.086 146.712 112.554 152.907 114.009C154.013 114.268 155.126 114.43 156.244 114.528L75.6348 146.364L75.2505 146.293L58.3135 117.062L137.392 85.563Z" fill="#4285F4"/>
<path opacity="0.3" d="M181.642 113.514C187.256 114.484 192.163 117.445 197.103 120.392L113.549 153.479L75.8243 146.494L156.299 114.559C164.64 115.291 173.293 112.071 181.642 113.514ZM196.559 98.5825L156.299 114.559C155.183 114.461 154.071 114.299 152.968 114.038C146.783 112.579 141.412 108.097 138.77 102.349C136.196 96.7494 137.546 91.2842 137.478 85.5034L179.345 68.7458L196.559 98.5825Z" fill="#4285F4"/>
<path d="M196.25 98.5242L234.07 105.499L196.776 120.491C191.869 117.52 186.995 114.533 181.418 113.555C173.125 112.101 164.529 115.347 156.244 114.61L196.236 98.4991L196.25 98.5242Z" fill="#4285F4"/>
<path d="M208.442 126.103C215.521 128.47 223.5 128.025 230.27 124.885C234.238 123.045 237.76 120.287 240.556 116.928L234.369 105.614L197.103 120.4C200.762 122.587 204.44 124.764 208.442 126.103Z" fill="#4285F4"/>
<path d="M156.636 104.174C156.747 104.148 156.806 103.993 156.769 103.823C156.732 103.648 156.608 103.523 156.492 103.544C155.54 103.711 154.55 103.765 153.465 103.707C153.348 103.707 153.264 103.838 153.283 104.014C153.302 104.189 153.416 104.338 153.536 104.344C154.627 104.402 155.668 104.346 156.628 104.176C156.631 104.176 156.633 104.175 156.636 104.174ZM159.547 103.185C160.478 102.687 161.343 102.03 162.118 101.232C162.207 101.14 162.213 100.944 162.13 100.794C162.048 100.644 161.907 100.595 161.819 100.689C161.068 101.462 160.229 102.099 159.327 102.582C159.221 102.638 159.185 102.819 159.246 102.986C159.31 103.16 159.45 103.241 159.547 103.185ZM150.36 103.279C149.41 103.078 148.386 102.807 147.227 102.45C147.105 102.41 147.005 102.521 147.003 102.694C147 102.866 147.098 103.035 147.219 103.073C148.388 103.433 149.422 103.706 150.382 103.909C150.678 103.969 150.646 103.339 150.36 103.279ZM164.179 98.3515C164.78 97.1908 165.218 95.9188 165.479 94.5696C165.51 94.4117 165.439 94.2206 165.321 94.144C165.203 94.0693 165.083 94.1337 165.053 94.2916C164.803 95.5804 164.384 96.7976 163.808 97.9096C163.742 98.0361 163.772 98.238 163.875 98.36C163.979 98.4835 164.115 98.4756 164.179 98.3515ZM144.297 101.788C144.303 101.617 144.209 101.444 144.087 101.402C142.865 100.97 141.889 100.623 140.94 100.307C140.818 100.263 140.716 100.371 140.712 100.543C140.707 100.714 140.803 100.886 140.924 100.926C141.9 101.253 142.783 101.567 144.067 102.02C144.19 102.062 144.291 101.957 144.297 101.788ZM123.749 103.648C124.39 102.73 125.144 101.929 125.989 101.267C126.087 101.191 126.106 101.001 126.033 100.842C125.96 100.684 125.819 100.614 125.725 100.693C124.851 101.376 124.073 102.204 123.409 103.154C123.332 103.265 123.345 103.466 123.439 103.603C123.534 103.74 123.673 103.758 123.749 103.648ZM138.004 99.7223C138.003 99.5498 137.903 99.3836 137.781 99.3516C136.633 99.0508 135.599 98.8415 134.619 98.7118C134.499 98.6963 134.411 98.8244 134.423 98.9998C134.436 99.1751 134.545 99.3301 134.666 99.3455C135.632 99.4737 136.653 99.6807 137.787 99.9782C137.906 100.009 138.006 99.8991 138.004 99.7223ZM131.619 99.2142C131.722 99.1892 131.783 99.05 131.756 98.8865C131.728 98.7112 131.608 98.5746 131.49 98.5819C130.337 98.6539 129.308 98.869 128.471 99.1657C128.221 99.2554 128.358 99.8485 128.653 99.7872C129.557 99.463 130.614 99.2794 131.594 99.2182C131.603 99.218 131.611 99.2162 131.619 99.2142Z" fill="#212121"/>
<path d="M167.714 190.022L227.102 166.272C227.257 166.21 227.332 166.035 227.269 165.882C227.207 165.728 227.03 165.654 226.877 165.715L167.489 189.465C167.335 189.527 167.26 189.702 167.322 189.855C167.384 190.009 167.559 190.083 167.714 190.022Z" fill="#212121"/>
<path d="M330.566 183.714L344.664 178.152C344.89 178.063 344.922 177.756 344.719 177.623L318.641 160.512C318.502 160.42 318.315 160.459 318.223 160.597C318.131 160.735 318.169 160.922 318.309 161.013L343.903 177.806L330.344 183.156C330.189 183.217 330.113 183.391 330.174 183.546C330.234 183.695 330.405 183.776 330.566 183.714Z" fill="#212121"/>
<path d="M188.077 202.848L223.608 225.589L299.524 195.64C297.429 191.577 294.248 188.078 290.384 185.612C286.666 183.241 282.024 181.824 277.81 183.127C273.621 184.417 270.699 188.054 267.427 190.953C257.92 199.385 243.577 202.002 231.679 197.483C227.611 195.934 223.856 193.642 219.763 192.165C215.67 190.683 210.974 190.083 207.05 191.955C200.194 195.218 200.004 201.988 188.077 202.848Z" fill="#4285F4"/>
<path d="M234.982 198.541C235.026 198.382 234.931 198.217 234.77 198.173C233.963 197.953 233.158 197.7 232.38 197.421C232.223 197.367 232.05 197.446 231.993 197.602C231.937 197.758 232.018 197.93 232.175 197.986C232.968 198.27 233.788 198.527 234.611 198.752C234.778 198.796 234.939 198.697 234.982 198.541Z" fill="#212121"/>
<path d="M246.156 199.902C254.229 199.396 261.855 196.298 267.628 191.177C270.857 188.315 273.8 184.676 277.899 183.414C281.529 182.292 286.019 183.185 290.221 185.864C290.362 185.954 290.548 185.913 290.638 185.773C290.728 185.634 290.687 185.449 290.547 185.359C286.194 182.584 281.52 181.666 277.72 182.841C273.459 184.153 270.483 187.844 267.227 190.729C261.553 195.761 254.057 198.806 246.118 199.303C245.952 199.313 245.826 199.456 245.836 199.621C245.847 199.792 246.001 199.916 246.156 199.902Z" fill="#212121"/>
<path d="M113.309 153.824C113.346 153.824 113.384 153.817 113.42 153.803L150.195 139.282C150.35 139.221 150.426 139.047 150.365 138.893C150.303 138.738 150.127 138.665 149.973 138.724L113.198 153.245C113.043 153.307 112.967 153.481 113.028 153.635C113.076 153.753 113.189 153.824 113.309 153.824Z" fill="#212121"/>
<path d="M178.238 173.633C178.355 173.628 178.445 173.53 178.44 173.414C178.435 173.298 178.33 173.218 178.22 173.213C177.233 173.256 176.22 173.264 175.218 173.236C175.216 173.236 175.214 173.236 175.212 173.236C175.098 173.236 175.004 173.326 175 173.439C174.997 173.556 175.089 173.652 175.206 173.655C176.27 173.685 177.284 173.675 178.238 173.633ZM172.411 173.272C172.422 173.157 172.338 173.054 172.222 173.042C171.234 172.944 170.233 172.807 169.247 172.638C169.134 172.614 169.023 172.695 169.003 172.809C168.983 172.923 169.06 173.032 169.175 173.051C170.17 173.223 171.181 173.36 172.179 173.461C172.302 173.47 172.399 173.383 172.411 173.272ZM181.262 173.393C182.263 173.276 183.272 173.121 184.259 172.931C184.374 172.909 184.449 172.799 184.427 172.685C184.404 172.571 184.293 172.501 184.179 172.519C183.202 172.707 182.204 172.86 181.213 172.975C180.932 173.008 180.988 173.431 181.262 173.393ZM166.463 172.275C166.491 172.162 166.422 172.049 166.309 172.021C165.342 171.781 164.371 171.504 163.424 171.195C163.313 171.16 163.194 171.219 163.158 171.33C163.121 171.44 163.182 171.559 163.293 171.595C164.249 171.906 165.23 172.186 166.207 172.428C166.32 172.456 166.435 172.389 166.463 172.275ZM187.211 172.205C188.247 171.881 189.198 171.496 190.038 171.061C190.142 171.007 190.182 170.881 190.128 170.777C190.074 170.675 189.947 170.636 189.843 170.688C189.024 171.112 188.096 171.488 187.084 171.804C186.822 171.885 186.94 172.287 187.211 172.205ZM160.723 170.436C160.767 170.329 160.716 170.206 160.608 170.162C159.715 169.795 158.74 169.37 157.9 168.9C157.798 168.841 157.669 168.878 157.612 168.979C157.555 169.081 157.591 169.208 157.692 169.265C158.547 169.744 159.536 170.178 160.447 170.55C160.548 170.593 160.677 170.547 160.723 170.436ZM192.56 169.329C193.345 168.606 193.967 167.784 194.41 166.886C194.462 166.781 194.418 166.655 194.314 166.604C194.209 166.553 194.082 166.597 194.031 166.7C193.611 167.553 193.02 168.333 192.273 169.021C192.187 169.1 192.182 169.232 192.261 169.318C192.34 169.402 192.475 169.408 192.56 169.329ZM155.515 167.465C155.596 167.382 155.595 167.249 155.511 167.168C154.728 166.405 154.21 165.593 153.972 164.755C153.94 164.644 153.825 164.579 153.711 164.61C153.599 164.641 153.533 164.758 153.565 164.869C153.823 165.779 154.378 166.654 155.216 167.468C155.3 167.55 155.433 167.547 155.515 167.465ZM154.177 161.962C154.5 161.206 155.036 160.45 155.864 159.584C155.944 159.5 155.941 159.367 155.857 159.287C155.772 159.207 155.638 159.211 155.558 159.294C154.694 160.199 154.131 160.994 153.788 161.798C153.743 161.904 153.793 162.028 153.9 162.073C154.007 162.117 154.131 162.07 154.177 161.962ZM158.035 157.512C158.79 156.79 159.492 156.051 160.121 155.317C160.197 155.229 160.186 155.096 160.098 155.021C160.009 154.946 159.876 154.955 159.8 155.045C159.179 155.768 158.487 156.497 157.742 157.21C157.658 157.29 157.655 157.423 157.736 157.507C157.815 157.589 157.95 157.593 158.035 157.512ZM161.954 152.902C162.531 152.033 163.03 151.142 163.438 150.255C163.487 150.15 163.44 150.025 163.334 149.977C163.228 149.93 163.102 149.975 163.054 150.081C162.655 150.948 162.166 151.819 161.601 152.671C161.537 152.768 161.564 152.898 161.662 152.962C161.758 153.025 161.89 153 161.954 152.902ZM164.454 147.393C164.699 146.409 164.837 145.396 164.864 144.38C164.867 144.264 164.775 144.168 164.658 144.165C164.656 144.165 164.654 144.165 164.653 144.165C164.539 144.165 164.445 144.255 164.441 144.369C164.415 145.354 164.282 146.338 164.044 147.292C164.016 147.405 164.085 147.518 164.198 147.547C164.311 147.574 164.426 147.505 164.454 147.393ZM117.295 146.151C117.411 146.151 117.505 146.058 117.506 145.942C117.507 145.826 117.412 145.732 117.296 145.731C116.296 145.725 115.29 145.668 114.305 145.561C114.193 145.541 114.085 145.631 114.072 145.747C114.06 145.862 114.143 145.966 114.26 145.978C115.258 146.087 116.279 146.145 117.293 146.151H117.295ZM120.308 146.014C120.315 146.014 120.322 146.014 120.329 146.013C121.333 145.917 122.344 145.767 123.334 145.568C123.449 145.545 123.523 145.434 123.5 145.32C123.477 145.207 123.365 145.132 123.251 145.156C122.274 145.352 121.278 145.5 120.288 145.595C120.172 145.606 120.087 145.708 120.098 145.824C120.109 145.933 120.201 146.014 120.308 146.014ZM111.511 145.335C111.536 145.221 111.463 145.109 111.349 145.085C110.731 144.952 110.117 144.798 109.524 144.627C109.412 144.591 109.295 144.658 109.263 144.77C109.23 144.881 109.294 144.998 109.406 145.03C110.009 145.204 110.632 145.36 111.26 145.495C111.367 145.52 111.485 145.453 111.511 145.335ZM126.277 144.817C127.243 144.517 128.202 144.162 129.126 143.763C129.233 143.716 129.282 143.593 129.235 143.486C129.189 143.379 129.063 143.331 128.957 143.377C128.047 143.771 127.103 144.121 126.151 144.416C126.04 144.451 125.978 144.569 126.013 144.679C126.048 144.791 126.167 144.851 126.277 144.817ZM131.851 142.432C132.649 142.001 133.505 141.506 134.469 140.917C134.568 140.857 134.599 140.727 134.538 140.629C134.478 140.529 134.347 140.499 134.248 140.56C133.29 141.143 132.44 141.636 131.649 142.063C131.546 142.119 131.508 142.246 131.564 142.348C131.62 142.45 131.749 142.487 131.851 142.432ZM164.437 141.598C164.551 141.574 164.625 141.463 164.601 141.35C164.39 140.325 164.057 139.354 163.61 138.467C163.558 138.363 163.431 138.322 163.327 138.372C163.222 138.424 163.18 138.55 163.232 138.654C163.662 139.509 163.984 140.445 164.187 141.434C164.211 141.549 164.324 141.62 164.437 141.598ZM137.025 139.314C137.862 138.781 138.709 138.241 139.572 137.71C139.672 137.65 139.702 137.52 139.641 137.421C139.58 137.322 139.45 137.292 139.35 137.353C138.517 137.866 137.674 138.403 136.797 138.96C136.699 139.023 136.67 139.152 136.733 139.25C136.796 139.349 136.928 139.375 137.025 139.314ZM161.839 136.265C161.923 136.185 161.925 136.052 161.844 135.968C161.145 135.248 160.324 134.625 159.404 134.118C159.302 134.06 159.173 134.098 159.117 134.199C159.06 134.301 159.097 134.428 159.199 134.485C160.083 134.972 160.87 135.569 161.54 136.26C161.62 136.342 161.754 136.346 161.839 136.265ZM142.063 136.221C142.25 136.221 142.728 135.8 144.846 134.857C144.953 134.81 145.001 134.686 144.953 134.58C144.905 134.473 144.78 134.427 144.674 134.474C143.804 134.861 142.917 135.303 141.961 135.827C141.77 135.932 141.845 136.221 142.063 136.221ZM147.641 133.796C148.621 133.491 149.598 133.264 150.546 133.122C150.661 133.105 150.741 132.998 150.723 132.883C150.706 132.768 150.594 132.687 150.483 132.707C149.514 132.852 148.516 133.084 147.515 133.395C147.403 133.43 147.342 133.547 147.376 133.658C147.412 133.77 147.531 133.83 147.641 133.796ZM156.708 133.251C156.737 133.139 156.67 133.024 156.557 132.994C155.591 132.742 154.574 132.591 153.533 132.545C153.423 132.543 153.318 132.63 153.312 132.746C153.307 132.862 153.398 132.96 153.514 132.965C154.525 133.009 155.513 133.156 156.45 133.401C156.558 133.429 156.677 133.366 156.708 133.251Z" fill="#212121"/>
<path d="M165.866 42.4143C154.776 42.4143 145.784 51.4111 145.784 62.5122C145.784 71.422 158.729 86.3649 163.832 91.9101C164.928 93.0993 166.804 93.0993 167.9 91.9101C173.004 86.3649 185.949 71.422 185.949 62.5122C185.949 51.4111 176.956 42.4143 165.866 42.4143ZM165.866 72.0317C160.373 72.0317 155.92 67.577 155.92 62.0793C155.92 56.5798 160.373 52.1251 165.866 52.1251C171.36 52.1251 175.813 56.5798 175.813 62.0793C175.813 67.577 171.36 72.0317 165.866 72.0317Z" fill="#FBBC05"/>
<path d="M185.627 60.1815C185.511 59.1838 185.317 58.1871 185.051 57.2201C185.024 57.1204 185.083 57.0173 185.182 56.9899C185.283 56.9643 185.385 57.0213 185.412 57.1207C185.683 58.1064 185.88 59.1213 185.999 60.1384C186.01 60.241 185.937 60.3339 185.834 60.3459C185.726 60.3568 185.639 60.2799 185.627 60.1815ZM182.429 51.4776C178.725 45.9197 172.533 42.6013 165.866 42.6013C160.727 42.6013 155.848 44.5568 152.132 48.1073C152.056 48.1789 151.938 48.176 151.867 48.1015C151.796 48.0265 151.798 47.9081 151.873 47.8369C155.66 44.2192 160.63 42.227 165.866 42.227C172.658 42.227 178.966 45.6076 182.741 51.27C182.798 51.3559 182.775 51.4721 182.689 51.5295C182.603 51.5865 182.487 51.5642 182.429 51.4776Z" fill="#212121"/>
<path fill-rule="evenodd" clip-rule="evenodd" d="M155.838 62.3351C155.838 56.7824 160.34 52.2811 165.892 52.2811C171.445 52.2811 175.946 56.7824 175.946 62.3351C175.946 67.8882 171.445 72.3892 165.892 72.3892C160.34 72.3892 155.838 67.8882 155.838 62.3351Z" fill="white"/>
<path fill-rule="evenodd" clip-rule="evenodd" d="M164.644 56.7852C164.854 56.6283 165.141 56.627 165.352 56.7822L170.092 60.2754C170.244 60.3871 170.333 60.5642 170.333 60.7525V66.7407C170.333 67.068 170.068 67.3333 169.741 67.3333H166.185C165.858 67.3333 165.593 67.068 165.593 66.7407V64.3327C165.593 64.328 165.591 64.3248 165.59 64.3233H164.41C164.409 64.3248 164.407 64.328 164.407 64.3327V66.7407C164.407 66.8979 164.345 67.0486 164.234 67.1598C164.123 67.2709 163.972 67.3333 163.815 67.3333L160.259 67.3333C159.932 67.3333 159.667 67.068 159.667 66.7407V60.8148C159.667 60.6283 159.754 60.4526 159.904 60.3407L164.644 56.7852ZM165.003 57.9976L160.852 61.1111V66.1481L163.222 66.1481V64.3327C163.222 64.0189 163.345 63.716 163.566 63.4913C163.788 63.2663 164.09 63.1381 164.407 63.1381H165.593C165.91 63.1381 166.212 63.2663 166.434 63.4913C166.655 63.716 166.778 64.0189 166.778 64.3327V66.1481H169.148V61.0519L165.003 57.9976Z" fill="black" fill-opacity="0.87"/>
<path d="M109.565 96.6939C99.0295 96.6939 90.4865 105.1 90.4865 115.472C90.4865 123.797 102.784 137.759 107.633 142.94C108.674 144.051 110.456 144.051 111.497 142.94C116.346 137.759 128.643 123.797 128.643 115.472C128.643 105.1 120.1 96.6939 109.565 96.6939ZM109.565 124.367C104.346 124.367 100.116 120.204 100.116 115.068C100.116 109.929 104.346 105.767 109.565 105.767C114.784 105.767 119.014 109.929 119.014 115.068C119.014 120.204 114.784 124.367 109.565 124.367Z" fill="#FBBC05"/>
<path d="M128.338 113.294C128.227 112.362 128.043 111.431 127.791 110.528C127.765 110.434 127.821 110.338 127.915 110.312C128.011 110.289 128.108 110.342 128.134 110.435C128.391 111.356 128.578 112.304 128.691 113.254C128.702 113.35 128.632 113.437 128.535 113.448C128.431 113.458 128.349 113.386 128.338 113.294ZM125.3 105.162C121.78 99.9691 115.898 96.8686 109.565 96.8686C104.682 96.8686 100.048 98.6957 96.5168 102.013C96.4454 102.08 96.333 102.077 96.2656 102.008C96.1977 101.938 96.2004 101.827 96.2712 101.76C99.8692 98.3802 104.59 96.5189 109.565 96.5189C116.017 96.5189 122.01 99.6775 125.595 104.968C125.65 105.048 125.628 105.157 125.546 105.211C125.465 105.264 125.355 105.243 125.3 105.162Z" fill="#212121"/>
<path fill-rule="evenodd" clip-rule="evenodd" d="M99.5351 115.622C99.5351 110.069 104.037 105.568 109.589 105.568C115.142 105.568 119.643 110.069 119.643 115.622C119.643 121.175 115.142 125.676 109.589 125.676C104.037 125.676 99.5351 121.175 99.5351 115.622Z" fill="white"/>
<path fill-rule="evenodd" clip-rule="evenodd" d="M108.499 111.056C108.653 110.981 108.839 110.981 108.993 111.056L113.556 113.274C114.033 113.487 114.333 113.916 114.333 114.386V116.778C114.333 117.023 114.106 117.222 113.825 117.222C113.545 117.222 113.317 117.023 113.317 116.778V114.386C113.317 114.32 113.297 114.257 113.26 114.203L112.302 114.669V117.074C112.302 117.235 112.202 117.384 112.04 117.463L108.993 118.944C108.839 119.019 108.653 119.019 108.499 118.944L105.452 117.463C105.29 117.384 105.19 117.235 105.19 117.074V114.669L103.928 114.055C103.767 113.977 103.667 113.828 103.667 113.667C103.667 113.505 103.767 113.357 103.928 113.278L108.499 111.056ZM106.206 115.163V116.813L108.746 118.047L111.286 116.813V115.163L108.993 116.277C108.839 116.352 108.653 116.352 108.499 116.277L106.206 115.163ZM111.547 114.019L112.272 113.667L108.746 111.953L105.22 113.667L105.945 114.019L105.945 114.019L108.746 115.38L111.547 114.019L111.547 114.019Z" fill="black" fill-opacity="0.87"/>
<path d="M203.092 123.665C193.653 123.665 186 131.384 186 140.909C186 148.553 197.017 161.374 201.361 166.132C202.294 167.152 203.89 167.152 204.823 166.132C209.167 161.374 220.184 148.553 220.184 140.909C220.184 131.384 212.53 123.665 203.092 123.665ZM203.092 149.076C198.416 149.076 194.626 145.254 194.626 140.537C194.626 135.819 198.416 131.997 203.092 131.997C207.767 131.997 211.557 135.819 211.557 140.537C211.557 145.254 207.767 149.076 203.092 149.076Z" fill="#FBBC05"/>
<path d="M219.867 139.013C219.768 138.16 219.604 137.308 219.378 136.481C219.354 136.396 219.404 136.308 219.489 136.284C219.574 136.263 219.661 136.311 219.684 136.396C219.914 137.239 220.082 138.106 220.183 138.976C220.193 139.064 220.13 139.143 220.043 139.153C219.951 139.163 219.877 139.097 219.867 139.013ZM217.149 131.572C214 126.821 208.737 123.985 203.07 123.985C198.701 123.985 194.555 125.656 191.396 128.691C191.332 128.753 191.231 128.75 191.171 128.686C191.11 128.622 191.112 128.521 191.176 128.46C194.395 125.368 198.619 123.665 203.07 123.665C208.843 123.665 214.205 126.555 217.413 131.395C217.462 131.468 217.442 131.568 217.369 131.617C217.297 131.665 217.198 131.646 217.149 131.572Z" fill="#212121"/>
<path fill-rule="evenodd" clip-rule="evenodd" d="M194 140.049C194 135.051 198.052 131 203.049 131C208.046 131 212.097 135.051 212.097 140.049C212.097 145.046 208.046 149.097 203.049 149.097C198.052 149.097 194 145.046 194 140.049Z" fill="white"/>
<path fill-rule="evenodd" clip-rule="evenodd" d="M198.259 140.556H197.667V139.444H198.259V138.486C198.259 138.091 198.377 137.685 198.629 137.348C198.878 137.015 199.335 136.667 199.974 136.667H200.1C200.739 136.667 201.196 137.015 201.445 137.348C201.697 137.685 201.815 138.091 201.815 138.486V139.444H204.185V138.486C204.185 138.091 204.303 137.685 204.555 137.348C204.804 137.015 205.261 136.667 205.9 136.667H206.026C206.665 136.667 207.122 137.015 207.371 137.348C207.623 137.685 207.741 138.091 207.741 138.486V139.444H208.333V140.556H207.741V141.513C207.741 141.909 207.623 142.315 207.371 142.652C207.122 142.985 206.665 143.333 206.026 143.333H205.9C205.261 143.333 204.804 142.985 204.555 142.652C204.303 142.315 204.185 141.909 204.185 141.513V140.556H201.815V141.513C201.815 141.909 201.697 142.315 201.445 142.652C201.196 142.985 200.739 143.333 200.1 143.333H199.974C199.335 143.333 198.878 142.985 198.629 142.652C198.377 142.315 198.259 141.909 198.259 141.513V140.556ZM200.63 138.487V141.513C200.63 141.904 200.393 142.222 200.1 142.222H199.974C199.681 142.222 199.444 141.905 199.444 141.513V138.487C199.444 138.096 199.681 137.778 199.974 137.778H200.1C200.393 137.778 200.63 138.096 200.63 138.487ZM206.556 138.487V141.513C206.556 141.904 206.318 142.222 206.026 142.222H205.9C205.607 142.222 205.37 141.905 205.37 141.513V140V138.487C205.37 138.096 205.607 137.778 205.9 137.778H206.026C206.318 137.778 206.556 138.096 206.556 138.487Z" fill="black" fill-opacity="0.87"/>
<path d="M187.509 212.367C187.484 212.369 187.47 212.37 187.47 212.37C187.475 212.37 187.488 212.369 187.509 212.367Z" fill="white"/>
<path d="M309.675 202.576C309.675 202.576 310.046 202.763 310.319 203.197C310.592 203.632 310.803 203.903 310.57 204.41C310.338 204.918 306.035 209.319 303.09 210.499C300.146 211.68 288.442 214.275 287.997 214.114C287.554 213.952 287.269 212.832 287.735 212.4C288.202 211.968 309.675 202.576 309.675 202.576Z" fill="black" fill-opacity="0.06"/>
<path d="M309.675 202.576C309.675 202.576 308.738 199.135 306.067 198.358C304.513 197.905 302.75 198.328 301.443 198.751C300.505 199.054 299.801 199.358 299.576 199.337C299.039 199.29 298.394 197.286 297.634 197.37C296.873 197.455 294.758 198.261 294.758 198.261L291.595 198.535L285.662 204.486C285.662 204.486 285.164 204.763 285.379 206.132C285.592 207.501 286.948 212.122 287.735 212.4C288.523 212.678 299.678 210.145 302.934 208.27C306.192 206.393 309.811 203.299 309.675 202.576Z" fill="#212121"/>
<path d="M298.508 203.797L298.58 203.747C298.583 203.738 298.914 202.86 300.116 201.654C301.323 200.441 303.084 199.491 303.102 199.482C303.139 199.462 303.153 199.416 303.133 199.379C303.113 199.342 303.066 199.329 303.03 199.348C303.012 199.358 301.232 200.317 300.008 201.546C298.78 202.779 298.451 203.658 298.437 203.695C298.423 203.734 298.443 203.777 298.482 203.792L298.508 203.797Z" fill="black" fill-opacity="0.87"/>
<path d="M304.612 198.161C305.106 198.161 305.599 198.217 306.073 198.355C306.073 198.355 306.07 198.356 306.066 198.357C305.592 198.219 305.099 198.163 304.605 198.163C303.48 198.163 302.351 198.457 301.443 198.751C301.179 198.836 300.935 198.921 300.714 198.999C300.936 198.92 301.183 198.834 301.448 198.749C302.357 198.455 303.486 198.161 304.612 198.161ZM297.686 197.365C298.427 197.365 299.055 199.288 299.581 199.335C299.589 199.336 299.596 199.336 299.604 199.336C299.683 199.336 299.806 199.306 299.967 199.256C299.803 199.307 299.678 199.338 299.599 199.338C299.59 199.338 299.583 199.338 299.576 199.337C299.049 199.29 298.42 197.367 297.68 197.367C297.665 197.367 297.649 197.368 297.633 197.37C296.873 197.455 294.757 198.26 294.757 198.26L294.757 198.258L294.762 198.258C294.762 198.258 296.878 197.452 297.639 197.367C297.655 197.366 297.671 197.365 297.686 197.365Z" fill="black" fill-opacity="0.87"/>
<path d="M298.508 203.797L298.58 203.747C298.583 203.738 298.914 202.859 300.116 201.654C301.323 200.441 303.084 199.491 303.102 199.482C303.139 199.462 303.153 199.416 303.133 199.379C303.119 199.353 303.093 199.339 303.065 199.339C303.053 199.339 303.041 199.342 303.03 199.348C303.012 199.358 301.232 200.317 300.008 201.546C298.78 202.779 298.451 203.658 298.437 203.695C298.423 203.734 298.443 203.777 298.482 203.792L298.508 203.797ZM297.681 197.367C298.421 197.367 299.05 199.29 299.576 199.337C299.584 199.338 299.591 199.338 299.599 199.338C299.679 199.338 299.804 199.308 299.968 199.257C300.165 199.195 300.418 199.103 300.714 198.999C300.935 198.921 301.18 198.836 301.443 198.751C302.352 198.457 303.48 198.163 304.606 198.163C305.099 198.163 305.593 198.219 306.066 198.357C305.925 198.399 303.643 199.102 301.898 200.727C300.096 202.405 299.311 203.987 298.969 205.078C298.881 205.361 298.704 205.48 298.501 205.48C297.924 205.48 297.137 204.522 297.573 203.688C298.161 202.562 300.126 200.667 300.461 200.069C300.583 199.852 300.443 199.786 300.197 199.786C300.007 199.786 299.755 199.825 299.512 199.865C299.27 199.904 299.037 199.943 298.886 199.943C298.846 199.943 298.811 199.941 298.784 199.934C298.777 199.932 298.768 199.931 298.757 199.931C298.289 199.931 295.204 201.78 294.777 201.958C294.759 201.965 294.747 201.969 294.74 201.969C294.584 201.969 297.397 199.996 297.729 199.419C297.957 199.025 297.084 198.551 296.039 198.551C295.486 198.551 294.886 198.684 294.373 199.031C292.893 200.037 292.633 201.033 292.633 201.033L292.619 201.021C292.452 200.708 292.328 200.377 292.35 200.034C292.417 199.014 294.758 198.261 294.758 198.261C294.758 198.261 296.873 197.455 297.634 197.37C297.65 197.368 297.665 197.367 297.681 197.367Z" fill="#212121"/>
<path d="M303.065 199.339C303.092 199.339 303.119 199.354 303.132 199.379C303.152 199.416 303.138 199.462 303.102 199.482C303.084 199.491 301.323 200.441 300.115 201.653C298.914 202.859 298.583 203.738 298.58 203.746L298.508 203.796L298.482 203.792C298.442 203.777 298.422 203.734 298.437 203.694C298.45 203.658 298.779 202.779 300.007 201.546C301.231 200.318 303.012 199.358 303.03 199.348C303.041 199.342 303.053 199.339 303.065 199.339Z" fill="#61A4C6" fill-opacity="0.04"/>
<path d="M285.66 204.483L285.662 204.486C285.662 204.486 285.164 204.763 285.378 206.132C285.476 206.755 285.81 208.055 286.22 209.31C285.809 208.053 285.475 206.753 285.377 206.128C285.165 204.772 285.652 204.487 285.66 204.483Z" fill="black" fill-opacity="0.87"/>
<path d="M285.662 204.486C285.662 204.486 286.235 204.948 287.37 204.948C287.416 204.948 287.463 204.947 287.512 204.946C287.432 205.014 286.504 205.844 287.029 207.137C287.578 208.488 290.063 207.444 292.652 208.398C294.943 209.241 299.402 209.29 300.399 209.29C300.526 209.29 300.597 209.29 300.6 209.29C296.374 210.839 289.327 212.417 287.934 212.417C287.841 212.417 287.775 212.41 287.734 212.396C287.306 212.245 286.709 210.809 286.22 209.31C285.81 208.055 285.476 206.755 285.378 206.132C285.164 204.763 285.662 204.486 285.662 204.486Z" fill="#212121"/>
<path d="M293.62 195.236L294.757 198.261C294.757 198.261 292.417 199.013 292.35 200.034C292.282 201.054 293.514 201.972 293.315 202.601C293.115 203.23 289.738 204.622 288.112 204.887C286.485 205.15 285.662 204.486 285.662 204.486L283.599 199L293.62 195.236Z" fill="#F4BB96"/>
<path d="M293.802 195.719L294.036 196.341L293.802 195.719Z" fill="black" fill-opacity="0.87"/>
<path d="M293.802 195.719L294.036 196.341C294.032 196.353 293.688 197.364 290.091 199.07C287.438 200.327 285.482 200.495 284.628 200.495C284.317 200.495 284.152 200.473 284.152 200.473L283.802 199.542C286.839 199.451 290.968 198.718 293.729 195.797C293.753 195.771 293.778 195.745 293.802 195.719Z" fill="#EE9961"/>
<path d="M210.497 174.543C210.497 174.543 210.17 174.796 209.65 174.862C209.131 174.927 208.791 175.004 208.409 174.591C208.027 174.178 205.647 168.563 205.738 165.466C205.829 162.37 208.16 150.918 208.492 150.589C208.824 150.26 209.992 150.463 210.208 151.054C210.424 151.643 210.497 174.543 210.497 174.543Z" fill="black" fill-opacity="0.06"/>
<path d="M210.497 174.543C210.497 174.543 214.109 175.111 215.928 173.056C217.746 171.002 217.388 167.349 217.652 166.891C217.916 166.434 220.06 166.678 220.29 165.967C220.521 165.258 220.626 163.05 220.626 163.05L221.656 160.129L218.485 152.435C218.485 152.435 218.427 151.88 217.055 151.513C215.682 151.146 210.791 150.467 210.209 151.054C209.627 151.64 207.462 162.58 207.897 166.237C208.331 169.894 209.763 174.369 210.497 174.543Z" fill="#212121"/>
<path d="M216.157 170.035H216.164C216.206 170.032 216.236 169.995 216.233 169.953C216.231 169.933 216.055 167.96 215.4 166.372C214.742 164.779 214.051 164.129 214.022 164.102L213.915 164.106L213.919 164.213C213.926 164.22 214.616 164.872 215.259 166.43C215.906 167.996 216.08 169.947 216.081 169.966C216.085 170.006 216.119 170.035 216.157 170.035Z" fill="black" fill-opacity="0.87"/>
<path d="M220.515 164.564C220.46 165.115 220.386 165.676 220.289 165.974C220.059 166.684 217.915 166.44 217.651 166.898C217.387 167.356 217.745 171.008 215.928 173.062C215.928 173.062 215.928 173.06 215.928 173.055C217.745 171 217.387 167.349 217.651 166.891C217.915 166.434 220.059 166.678 220.29 165.967C220.386 165.671 220.461 165.113 220.515 164.564ZM220.626 163.051H220.627L220.626 163.055C220.626 163.052 220.626 163.051 220.626 163.051Z" fill="black" fill-opacity="0.87"/>
<path d="M216.164 170.035C216.206 170.032 216.237 169.994 216.233 169.953C216.231 169.933 216.055 167.96 215.4 166.372C214.742 164.779 214.051 164.129 214.022 164.102L213.915 164.106L213.919 164.213C213.926 164.22 214.616 164.872 215.259 166.43C215.906 167.996 216.08 169.947 216.081 169.966C216.085 170.006 216.118 170.036 216.157 170.036L216.164 170.035ZM219.116 160.02C219.406 160.02 219.69 160.061 219.941 160.19C220.872 160.665 220.626 163.05 220.626 163.05C220.626 163.05 220.626 163.052 220.626 163.055L220.625 163.056C220.625 163.056 220.589 163.801 220.515 164.564C220.461 165.113 220.387 165.671 220.291 165.968C220.06 166.678 217.916 166.434 217.652 166.892C217.388 167.349 217.746 171.001 215.929 173.056C215.946 172.914 216.216 170.6 215.401 168.388C214.56 166.104 213.394 164.763 212.508 164.015C211.9 163.501 212.626 162.912 213.406 162.912C213.761 162.912 214.127 163.034 214.382 163.34C215.201 164.321 216.18 166.839 216.604 167.38C216.662 167.454 216.715 167.486 216.764 167.486C217.073 167.486 217.218 166.192 217.414 165.946C217.64 165.661 217.138 162.024 217.146 161.562C217.146 161.534 217.15 161.52 217.155 161.52C217.243 161.52 217.929 164.699 218.327 165.219C218.384 165.293 218.463 165.328 218.556 165.328C219.157 165.328 220.354 163.888 220.058 162.395C219.718 160.671 218.887 160.034 218.887 160.034L218.903 160.027C218.974 160.022 219.045 160.02 219.116 160.02Z" fill="#212121"/>
<path d="M214.022 164.102C214.051 164.129 214.742 164.779 215.4 166.372C216.055 167.96 216.232 169.933 216.233 169.953C216.236 169.995 216.206 170.032 216.164 170.035H216.157C216.118 170.035 216.085 170.006 216.082 169.966C216.08 169.947 215.906 167.996 215.259 166.43C214.616 164.872 213.926 164.219 213.919 164.213L213.915 164.106L214.022 164.102Z" fill="#61A4C6" fill-opacity="0.04"/>
<path d="M212.92 150.888C214.497 151.017 216.306 151.312 217.057 151.514C218.43 151.881 218.488 152.435 218.488 152.435V152.435L218.484 152.435C218.484 152.435 218.427 151.88 217.054 151.513C216.303 151.312 214.497 151.017 212.92 150.888Z" fill="black" fill-opacity="0.87"/>
<path d="M211.549 150.824C211.957 150.824 212.428 150.848 212.92 150.888C214.497 151.017 216.303 151.312 217.055 151.513C218.427 151.88 218.484 152.435 218.484 152.435C218.484 152.435 217.761 152.783 217.299 153.891C217.268 153.792 216.866 152.63 215.438 152.57C215.421 152.569 215.403 152.569 215.387 152.569C213.945 152.568 213.891 155.161 211.964 157.05C210.019 158.957 207.9 163.723 207.889 163.747C208.174 159.073 209.732 151.537 210.213 151.053C210.375 150.889 210.88 150.824 211.549 150.824Z" fill="#212121"/>
<path d="M223.929 163.272L220.626 163.05C220.626 163.05 220.872 160.665 219.941 160.189C219.468 159.948 218.882 160.016 218.354 160.083C217.844 160.149 217.388 160.214 217.137 160.001C216.628 159.567 216.696 156 217.111 154.447C217.526 152.896 218.485 152.435 218.485 152.435L224.476 152.837L223.929 163.272Z" fill="#F4BB96"/>
<path d="M222.868 152.729L223.668 152.783L223.667 152.783L222.867 152.729L222.868 152.729Z" fill="black" fill-opacity="0.87"/>
<path d="M222.867 152.729L223.667 152.783C223.138 155.246 222.592 159.203 223.303 163.23L222.722 163.191C222.722 163.191 221.903 162.488 221.766 158.576C221.63 154.696 222.847 152.761 222.867 152.729Z" fill="#EE9961"/>
<path d="M245.077 153.547C243.603 154.509 241.834 154.499 241.024 154.449C233.057 153.948 224.334 150.262 224.334 150.262C224.334 150.262 224.1 150.944 223.825 152.088C223.011 155.493 221.836 163.011 225.366 168.969C225.366 168.969 228.004 169.643 231.655 170.384L231.658 170.386L231.712 170.397C232.724 170.603 233.815 170.812 234.946 171.017C240.024 171.921 245.684 172.717 249.392 172.148C250.584 171.965 251.325 171.463 251.347 171.459C254.012 164.554 253.434 156.47 245.077 153.547Z" fill="#212121"/>
<path d="M264.028 155.448L268.918 171.616C273.542 168.969 278.492 166.878 283.589 165.195L279.975 155.845L272.141 132.416L252.582 131.903C252.582 131.903 251.788 132.538 250.954 134.039C250.664 134.554 250.371 135.175 250.107 135.907L250.099 135.932C249.558 137.414 249.125 139.357 249.054 141.834C248.94 145.644 248.589 151.342 245.077 153.548C248.228 159.106 249.634 165.346 251.347 171.459C251.812 171.22 252.273 170.932 252.69 170.605H252.692C254.548 169.155 256.427 166.871 258.039 164.599L258.047 164.591C260.675 160.887 263.243 151.914 263.243 151.914L264.028 155.448Z" fill="#212121"/>
<path d="M268.918 171.616L273.061 181.067L279.851 199.315C279.851 199.315 288.892 200.915 293.729 195.797C294.132 195.374 294.512 194.898 294.867 194.374L283.589 165.195C275.707 163.895 270.616 164.85 268.918 171.616Z" fill="#212121"/>
<path d="M265.244 146.347C265.244 146.347 267.456 156.922 271.076 167.278C270.109 168.334 269.385 169.755 268.918 171.616L264.581 156.557C265.286 154.598 264.133 154.291 263.52 152.876L263.243 151.914C264.408 149.597 265.413 148.39 265.244 146.347Z" fill="#212121"/>
<path d="M279.875 199.319C280.064 199.351 281.339 199.552 283.11 199.552C281.339 199.552 280.064 199.351 279.875 199.319Z" fill="black" fill-opacity="0.87"/>
<path d="M271.076 167.278C272.349 170.917 273.795 174.529 275.38 177.646V177.646C275.382 177.646 277.409 182.221 280.544 186.796C283.68 191.372 287.923 195.947 292.356 195.947C292.812 195.947 293.27 195.898 293.728 195.797C290.751 198.947 286.183 199.552 283.109 199.552C281.338 199.552 280.063 199.351 279.875 199.319C279.859 199.316 279.851 199.315 279.851 199.315L273.061 181.067L268.918 171.616C269.385 169.755 270.109 168.334 271.076 167.278Z" fill="#212121"/>
<path d="M230.001 170.096L230.025 170.091L230.052 170.016C225.793 160.756 229.791 152.025 229.832 151.938L229.804 151.863L229.729 151.89C229.688 151.978 225.668 160.753 229.949 170.063L230.001 170.096ZM279.803 195.337C283.16 195.337 291.286 194.902 293.649 190.832L293.628 190.755L293.551 190.775C290.598 195.863 278.464 195.199 278.341 195.191C278.306 195.195 278.283 195.213 278.281 195.244L278.334 195.304C278.36 195.306 278.915 195.337 279.803 195.337Z" fill="black" fill-opacity="0.87"/>
<path d="M257.837 164.884C256.27 167.061 254.471 169.217 252.692 170.606C254.467 169.219 256.263 167.07 257.826 164.897C257.83 164.893 257.833 164.889 257.837 164.884ZM263.243 151.914L263.353 152.408C263.309 152.256 263.272 152.092 263.243 151.914Z" fill="black" fill-opacity="0.87"/>
<path d="M263.243 151.914L263.401 152.563C263.384 152.513 263.368 152.461 263.353 152.408L263.243 151.914Z" fill="#212121"/>
<path d="M252.69 170.605C251.659 171.413 250.638 171.957 249.672 172.105C249.613 172.114 249.553 172.123 249.493 172.131C250.626 171.936 251.326 171.463 251.347 171.459C251.812 171.22 252.273 170.932 252.69 170.605Z" fill="black" fill-opacity="0.87"/>
<path d="M250.843 169.63C251.009 170.241 251.177 170.851 251.347 171.46C251.326 171.463 250.627 171.936 249.494 172.131C248.645 172.249 247.686 172.302 246.652 172.302C243.156 172.302 238.803 171.704 234.946 171.017C237.658 171.42 240.059 171.664 242.226 171.664C245.554 171.664 248.331 171.088 250.843 169.63Z" fill="#212121"/>
<path d="M263.243 151.914C263.243 151.914 260.674 160.887 258.047 164.591L258.039 164.599C257.968 164.698 257.897 164.798 257.825 164.898C255.202 168.144 252.786 170.486 252.692 170.606H252.689C252.273 170.932 251.812 171.22 251.347 171.46C251.176 170.851 251.009 170.241 250.842 169.631C255.284 167.052 258.893 161.714 263.243 151.914Z" fill="#212121"/>
<path d="M264.399 156.677L264.458 156.87C264.456 156.876 264.453 156.882 264.451 156.888L264.399 156.677Z" fill="black" fill-opacity="0.87"/>
<path d="M263.401 152.562C263.437 152.673 263.477 152.777 263.52 152.876L264.581 156.557C264.545 156.657 264.504 156.762 264.458 156.87L264.4 156.677L263.401 152.562Z" fill="#212121"/>
<path d="M261.973 109.64L265.105 135.441C265.105 135.441 265.485 135.556 266.1 135.687C267.499 135.991 270.119 136.387 272.294 135.764L272.871 134.395L273.332 133.299C273.332 133.299 273.385 130.696 273.039 127.055V127.047C272.636 122.752 271.679 117.008 269.439 112.378C269.236 111.955 269.02 111.543 268.794 111.139L261.973 109.64Z" fill="#8EA5C6" fill-opacity="0.16"/>
<path d="M272.052 133.377C272.068 134.165 272.079 134.978 272.084 135.821C271.301 136.019 270.469 136.094 269.662 136.094C268.272 136.094 266.957 135.873 266.1 135.687C266.089 135.622 266.089 135.557 266.089 135.488L266.311 134.726L266.637 133.607H266.638C267.241 133.695 267.829 133.735 268.388 133.735C268.437 133.735 268.487 133.734 268.536 133.734C269.869 133.717 271.046 133.575 272.052 133.377ZM266.817 132.99C266.955 133.009 267.092 133.026 267.229 133.038C267.327 133.06 267.426 133.079 267.526 133.095C267.272 133.073 267.038 133.038 266.814 132.999L266.817 132.99ZM269.269 112.83C269.895 114.326 270.734 117.116 271.333 122.09L270.754 122.42C270.798 122.143 270.818 121.889 270.811 121.66C270.717 118.681 269.336 113.1 269.269 112.83Z" fill="#2884B2" fill-opacity="0.04"/>
<path d="M268.792 111.138L269.179 111.944C269.179 111.944 265.38 112.554 262.597 110.887C262.597 110.887 268.567 111.044 268.792 111.138Z" fill="#8EA5C6" fill-opacity="0.24"/>
<path d="M272.286 113.332L272.275 113.32C270.573 111.059 268.11 109.782 268.11 109.782L268.406 111.266C268.406 111.266 272.156 115.081 272.087 137.656C272.079 140.348 275.753 138.74 276.694 138.21C277.639 137.679 277.063 136.756 277.063 136.756C275.199 128.385 275.392 120.853 275.392 120.853L275.989 120.528C275.356 118.959 274.606 117.442 273.864 115.916L273.409 115.3C273.124 114.581 272.732 113.924 272.286 113.332Z" fill="#34A853"/>
<path d="M260.874 108.509C260.874 108.509 261.7 111.843 268.624 111.559C268.624 111.559 267.749 109.686 268.809 108.136C269.147 107.64 269.685 107.179 270.515 106.821C271.691 106.314 262.223 104.918 262.223 104.918L260.874 108.509Z" fill="#F4BB96"/>
<path d="M273.095 95.0898C273.095 95.0898 275.481 95.011 272.968 98.0272L270.957 97.5244L271.311 95.2388L273.095 95.0898Z" fill="#212121"/>
<path d="M273.174 94.855C273.025 96.0896 271.985 96.7921 271.539 97.1114C268.247 99.3678 265.444 97.601 265.444 97.601C265.975 99.5593 264.276 99.8148 264.276 99.8148C264.935 100.07 265.232 101.39 264.467 103.348L262.556 103.05C262.471 102.88 262.429 102.667 262.301 102.539C257.536 98.0737 259.363 93.0543 262.556 90.9892C264.827 89.5204 267.79 90.2544 269.564 90.5552C271.772 90.917 272.601 92.2794 272.962 93.4076C273.153 94.11 273.174 94.7273 273.174 94.855Z" fill="#212121"/>
<path d="M272.465 96.0164C272.465 96.0164 270.454 99.5353 265.427 97.5245C265.427 98.5299 264.924 99.5353 263.919 99.5353C264.422 101.043 263.569 102.246 263.569 102.246C263.569 102.246 263.554 101.056 262.639 100.676C261.823 100.338 260.252 100.557 260.061 101.8C259.87 103.041 259.872 104.344 261.753 104.917C263.595 105.074 268.856 110.661 271.596 106.752C274.978 103.054 272.465 96.0164 272.465 96.0164Z" fill="#F4BB96"/>
<path d="M272.634 102.451C272.45 102.451 272.301 102.271 272.301 102.049C272.301 101.826 272.45 101.647 272.634 101.647C272.818 101.647 272.968 101.826 272.968 102.049C272.968 102.271 272.818 102.451 272.634 102.451Z" fill="black" fill-opacity="0.87"/>
<path d="M268.946 102.35C268.688 102.35 268.478 102.17 268.478 101.948C268.478 101.726 268.688 101.546 268.946 101.546C269.204 101.546 269.413 101.726 269.413 101.948C269.413 102.17 269.204 102.35 268.946 102.35Z" fill="black" fill-opacity="0.87"/>
<path d="M261.724 104.202C261.738 104.194 262.082 104.005 262.353 103.3C262.625 102.596 262.373 101.839 262.362 101.807L262.271 101.838C262.274 101.845 262.522 102.594 262.264 103.266C262.007 103.933 261.682 104.115 261.679 104.117L261.724 104.202Z" fill="black" fill-opacity="0.87"/>
<path d="M262.308 103.159L262.4 103.132C262.396 103.117 262.289 102.777 261.764 102.531C261.236 102.283 260.701 102.524 260.679 102.534L260.719 102.622C260.724 102.619 261.236 102.389 261.722 102.618C262.207 102.845 262.308 103.157 262.308 103.159Z" fill="black" fill-opacity="0.87"/>
<path d="M271.082 104.266C271.258 104.266 271.494 104.226 271.606 104.032C271.781 103.726 271.279 101.816 271.221 101.599L271.163 101.565L271.129 101.624C271.352 102.46 271.641 103.779 271.523 103.984C271.371 104.248 270.89 104.153 270.885 104.152L270.828 104.19L270.866 104.247C270.874 104.248 270.965 104.266 271.082 104.266ZM269.928 105.867C270.221 105.867 270.438 105.823 270.454 105.82L270.492 105.764L270.436 105.726C270.429 105.727 269.729 105.867 269.141 105.639C268.562 105.415 268.391 105.013 268.389 105.009L268.327 104.983L268.3 105.045C268.308 105.063 268.486 105.489 269.106 105.729C269.385 105.837 269.683 105.867 269.928 105.867Z" fill="black" fill-opacity="0.87"/>
<path d="M250.241 123.798C250.376 123.129 250.549 122.41 250.753 121.66V121.652C252.328 115.773 255.671 107.983 257.062 107.656C258 107.437 260.048 107.348 262.061 108.963H262.065C263.421 110.052 264.762 111.913 265.727 115.035C265.727 115.035 266.472 118.111 267.476 120.533V120.541L267.499 120.587C267.553 120.722 267.611 120.856 267.672 120.987L267.684 121.021C267.958 121.632 268.246 122.175 268.541 122.591C268.159 124.19 267.971 125.878 267.628 127.438C267.233 129.235 267.239 131.154 267.277 133.041C267.128 133.009 266.979 132.976 266.834 132.93L266.311 134.726L265.543 137.355C265.543 137.355 252.639 141.689 246.833 134.125C246.833 134.126 249.042 129.7 250.241 123.798Z" fill="#34A853"/>
<path d="M266.369 128.34C266.594 127.213 269.089 123.943 269.227 123.29L272.886 121.206L272.913 121.191L277.893 118.357L282.689 124.721C282.689 124.721 280.252 127.263 277.048 129.562L276.994 129.597C274.565 131.332 269.924 133.916 266.834 132.931C264.928 130.672 266.036 130.011 266.369 128.34Z" fill="#34A853"/>
<path d="M258.771 129.329C258.921 129.513 259.075 129.69 259.233 129.861C258.107 130.574 254.767 132.475 251.223 132.475C250.098 132.475 248.952 132.283 247.849 131.8C248.429 131.889 249.065 131.942 249.756 131.942C252.125 131.942 255.14 131.315 258.771 129.329Z" fill="#34A853"/>
<path d="M263.991 106.018C265.38 107.908 266.931 108.257 267.889 108.257C268.451 108.257 268.809 108.136 268.809 108.136C268.407 108.724 268.284 109.357 268.284 109.918C268.286 110.836 268.624 111.559 268.624 111.559C268.624 111.559 267.449 110.44 266.872 110.028C266.315 109.632 264.125 106.229 263.991 106.018Z" fill="#EE9961"/>
<path d="M273.101 99.474C273.116 99.5417 273.18 99.8504 273.223 100.331L273.097 99.4759C273.098 99.4751 273.099 99.4748 273.101 99.474Z" fill="#EE9961"/>
<path d="M258.306 99.2121C258.197 99.3778 258.173 99.5536 258.242 99.7885C258.173 99.554 258.197 99.3778 258.306 99.2121ZM258.311 99.2048C258.31 99.2067 258.308 99.2087 258.307 99.2106C258.308 99.2087 258.309 99.2067 258.311 99.2048ZM258.348 99.1544C258.348 99.1544 258.347 99.1548 258.347 99.1552C258.347 99.1548 258.348 99.1548 258.348 99.1544ZM260.187 97.7375L260.185 97.7394C259.548 98.2512 259.049 98.5638 258.711 98.8203C259.05 98.5631 259.549 98.2497 260.187 97.7375ZM260.628 95.813L260.681 96.882V96.8854L260.701 97.3045L260.628 95.813Z" fill="white"/>
<path d="M273.984 117.18L273.984 117.196C273.984 117.192 273.984 117.187 273.984 117.18Z" fill="#34A853"/>
<path d="M278.212 119.375C278.212 119.375 278.55 119.256 278.956 118.609C279.361 117.963 278.15 116.362 278.077 115.763C278.004 115.164 278.89 114.633 279.201 114.64C279.512 114.647 280.445 116.716 281.285 116.713C282.125 116.708 282.917 115.077 283.096 114.34C283.276 113.603 282.988 112.785 283.314 112.49C283.641 112.195 284.124 112.333 284.298 112.465C284.47 112.597 284.601 112.802 284.601 112.802C284.601 112.802 284.967 112.669 285.44 112.835C285.912 113.001 286.181 113.657 286.181 113.657C286.181 113.657 286.701 113.637 287.037 114.089C287.373 114.54 287.425 115.535 287.425 115.535C287.425 115.535 288.35 115.778 288.388 116.66C288.427 117.542 287.389 119.917 286.43 120.944C285.471 121.972 283.942 122.706 283.607 122.792C283.272 122.879 282.094 123.933 282.094 123.933L278.212 119.375Z" fill="#F4BB96"/>
<path d="M283.913 116.885L283.947 116.871C283.965 116.852 284.389 116.404 284.628 115.057C284.866 113.714 284.65 112.799 284.648 112.789L284.59 112.754L284.555 112.812C284.557 112.821 284.767 113.719 284.533 115.04C284.301 116.353 283.883 116.799 283.878 116.804L283.88 116.872L283.913 116.885ZM285.896 117.053L285.928 117.041C285.937 117.032 286.15 116.831 286.364 115.808C286.576 114.789 286.23 113.654 286.227 113.642L286.167 113.611L286.135 113.671C286.138 113.682 286.477 114.794 286.27 115.789C286.065 116.766 285.865 116.968 285.863 116.97L285.861 117.037L285.896 117.053ZM287.191 117.573L287.237 117.537C287.551 116.378 287.474 115.538 287.473 115.53L287.42 115.487L287.377 115.539C287.378 115.547 287.453 116.371 287.145 117.512L287.178 117.571L287.191 117.573Z" fill="black" fill-opacity="0.87"/>
<path d="M278.85 118.761L278.852 118.765C278.724 118.948 278.605 119.079 278.505 119.17L278.472 119.125L278.85 118.761ZM278.472 119.125L278.505 119.17C278.328 119.333 278.212 119.375 278.212 119.375L278.472 119.125Z" fill="#34A853"/>
<path d="M282.177 123.858L282.179 123.86L282.177 123.858V123.858Z" fill="black" fill-opacity="0.87"/>
<path d="M278.853 118.765L282.178 123.858L278.213 119.375C278.213 119.375 278.329 119.334 278.506 119.17C278.605 119.078 278.724 118.948 278.853 118.765Z" fill="#EE9961"/>
<path d="M282.708 115.331C282.358 116.017 281.832 116.709 281.284 116.712C281.284 116.712 281.283 116.712 281.282 116.712C281.251 116.712 281.22 116.709 281.19 116.704C281.188 116.703 281.186 116.702 281.186 116.702L281.185 116.698L281.284 116.712C281.832 116.709 282.358 116.017 282.708 115.331ZM283.101 114.318C283.1 114.325 283.098 114.332 283.096 114.339C283.098 114.332 283.1 114.325 283.101 114.318ZM283.105 114.302C283.105 114.303 283.105 114.304 283.104 114.305C283.104 114.304 283.105 114.303 283.105 114.302Z" fill="#34A853"/>
<path d="M283.187 112.734C283.172 112.966 283.453 113.52 283.295 114.45C283.117 115.492 282.72 116.183 282.168 116.577C281.934 116.744 281.723 116.792 281.557 116.792C281.348 116.792 281.211 116.716 281.19 116.704C281.221 116.709 281.252 116.712 281.283 116.712C281.283 116.712 281.284 116.712 281.285 116.712C281.832 116.709 282.358 116.017 282.709 115.331C282.814 115.124 282.904 114.917 282.974 114.73C283.027 114.585 283.069 114.452 283.097 114.339C283.098 114.332 283.1 114.325 283.102 114.317C283.102 114.313 283.104 114.309 283.104 114.305C283.105 114.304 283.105 114.303 283.105 114.302C283.233 113.726 283.092 113.11 283.187 112.734Z" fill="#EE9961"/>
<path d="M261.527 108.575C261.527 108.575 264.066 109.755 265.727 115.035C267.388 120.315 267.534 121.146 269.113 123.025C270.692 124.904 271.116 133.342 267.278 133.042C263.439 132.741 259.125 129.05 256.839 123.925C254.553 118.8 254.397 107.049 261.527 108.575Z" fill="#34A853"/>
<path d="M275.962 130.322L276.183 131.942C276.183 131.942 276.183 131.942 276.181 131.943C276.1 131.391 276.028 130.85 275.962 130.322Z" fill="black" fill-opacity="0.87"/>
<path d="M272.029 132.411C272.038 132.728 272.045 133.051 272.052 133.378C271.046 133.575 269.869 133.717 268.536 133.734C268.487 133.735 268.438 133.735 268.388 133.735C267.828 133.735 267.241 133.695 266.638 133.607L266.814 132.999C267.038 133.037 267.272 133.072 267.526 133.095C267.846 133.149 268.175 133.175 268.509 133.175C269.635 133.175 270.829 132.885 272.029 132.411Z" fill="#8EA5C6" fill-opacity="0.24"/>
<path d="M275.961 130.308L275.963 130.322C276.028 130.85 276.101 131.39 276.182 131.942C276.125 131.977 274.666 132.864 272.052 133.377C272.046 133.05 272.038 132.728 272.03 132.41C272.756 132.124 273.484 131.77 274.201 131.372C274.627 131.138 275.053 130.888 275.469 130.623C275.553 130.573 275.642 130.515 275.73 130.457C275.806 130.407 275.883 130.357 275.961 130.308ZM259.876 128.694C260.42 129.316 260.994 129.883 261.588 130.389L261.812 131.934C263.368 132.853 265.055 133.387 266.637 133.607C265.055 133.387 263.368 132.853 261.812 131.934C260.887 131.386 260.01 130.701 259.234 129.861C259.494 129.697 259.636 129.596 259.636 129.596L259.198 129.091C259.421 128.964 259.648 128.831 259.876 128.694ZM256.102 121.772C256.309 122.565 256.558 123.294 256.839 123.925C257.056 124.412 257.291 124.886 257.543 125.346L257.758 125.778L257.893 125.958C257.985 126.112 258.079 126.264 258.174 126.414L257.777 125.896C257.777 125.896 257.536 126.13 257.083 126.463C256.537 125.122 256.186 123.565 256.102 121.772Z" fill="#34A853"/>
<path d="M259.198 129.091L259.635 129.597C259.635 129.597 259.493 129.698 259.233 129.861C259.075 129.69 258.921 129.513 258.771 129.329C258.913 129.252 259.055 129.172 259.198 129.091Z" fill="#34A853"/>
<path d="M257.893 125.958L259.909 128.631L261.143 129.777L261.688 130.138C261.589 130.081 261.538 130.05 261.538 130.05L261.587 130.389C260.994 129.883 260.419 129.315 259.875 128.694C259.266 127.998 258.694 127.235 258.173 126.414C258.079 126.264 257.985 126.112 257.893 125.958ZM256.097 121.66L256.838 123.925L257.543 125.346C257.291 124.886 257.056 124.412 256.838 123.925C256.558 123.295 256.309 122.565 256.102 121.772C256.1 121.735 256.099 121.697 256.097 121.66Z" fill="#34A853"/>
<path d="M276.994 129.596C276.656 129.838 276.309 130.073 275.961 130.307C275.96 130.303 275.96 130.3 275.959 130.296C276.335 130.055 276.683 129.819 276.994 129.596Z" fill="black" fill-opacity="0.87"/>
<path d="M267.229 133.038C267.235 133.038 267.24 133.039 267.246 133.039C267.372 133.066 267.498 133.087 267.627 133.104C267.593 133.101 267.559 133.098 267.526 133.095C267.426 133.079 267.327 133.06 267.229 133.038ZM272.027 132.337C272.028 132.349 272.028 132.362 272.028 132.374C271.397 132.61 270.804 132.783 270.249 132.902C270.839 132.762 271.437 132.567 272.027 132.337Z" fill="#8EA5C6" fill-opacity="0.24"/>
<path d="M275.959 130.296C275.959 130.3 275.96 130.304 275.961 130.308C275.884 130.358 275.806 130.408 275.729 130.458C275.641 130.512 275.556 130.569 275.468 130.624C275.053 130.889 274.627 131.139 274.2 131.373C273.431 131.791 272.707 132.12 272.028 132.374C272.028 132.362 272.028 132.349 272.027 132.337C273.451 131.782 274.832 131.018 275.959 130.296Z" fill="#34A853"/>
<path d="M276.994 129.596C276.683 129.818 276.335 130.055 275.959 130.296C274.833 131.018 273.451 131.781 272.028 132.337C271.437 132.567 270.84 132.761 270.25 132.902C269.512 133.061 268.841 133.126 268.238 133.126C268.026 133.126 267.823 133.118 267.628 133.103C267.499 133.087 267.372 133.065 267.247 133.039C267.257 133.039 267.267 133.041 267.278 133.041C267.345 133.047 267.41 133.049 267.475 133.049C268.245 133.049 268.833 132.68 269.264 132.08C271.63 132.064 274.318 131.447 276.994 129.596Z" fill="#34A853"/>
<path d="M266.817 132.989L266.815 132.999H266.814L266.817 132.989Z" fill="#8EA5C6" fill-opacity="0.24"/>
<path d="M266.587 132.952C266.664 132.966 266.74 132.978 266.817 132.99L266.815 132.999C266.737 132.985 266.661 132.969 266.587 132.952Z" fill="#34A853"/>
<path d="M261.689 130.138L261.692 130.143C262.385 130.535 265.345 132.081 269.162 132.081C269.196 132.081 269.23 132.081 269.264 132.081C268.832 132.68 268.245 133.05 267.475 133.05C267.411 133.05 267.345 133.047 267.278 133.042C267.267 133.041 267.257 133.04 267.247 133.039C267.241 133.039 267.235 133.038 267.229 133.038C267.096 133.008 266.965 132.972 266.835 132.93L266.818 132.99C266.741 132.979 266.664 132.966 266.588 132.952C264.871 132.568 264.037 131.693 264.037 131.693L261.693 130.143L261.689 130.138Z" fill="#34A853"/>
<path d="M266.814 132.999H266.814L266.638 133.607H266.637L266.814 132.999Z" fill="black" fill-opacity="0.06"/>
<path d="M261.588 130.389C263.181 131.745 264.914 132.652 266.586 132.952C266.661 132.969 266.736 132.985 266.814 132.999L266.637 133.607C265.054 133.388 263.367 132.853 261.811 131.934L261.588 130.389Z" fill="#34A853"/>
<path d="M272.029 132.374C272.029 132.386 272.029 132.399 272.029 132.411C270.829 132.884 269.635 133.175 268.509 133.175C268.174 133.175 267.846 133.149 267.525 133.095C267.559 133.098 267.593 133.101 267.627 133.103C267.86 133.133 268.098 133.147 268.342 133.147C268.954 133.147 269.597 133.058 270.249 132.902C270.804 132.783 271.397 132.611 272.029 132.374Z" fill="black" fill-opacity="0.06"/>
<path d="M274.2 131.373C273.484 131.771 272.756 132.124 272.03 132.411C272.029 132.399 272.029 132.387 272.029 132.375C272.707 132.12 273.431 131.791 274.2 131.373ZM270.249 132.902C269.597 133.058 268.954 133.148 268.342 133.148C268.099 133.148 267.86 133.134 267.628 133.104C267.823 133.119 268.026 133.127 268.237 133.127C268.841 133.127 269.511 133.061 270.249 132.902ZM261.539 130.05C261.539 130.05 261.589 130.081 261.689 130.138L261.692 130.143L264.037 131.693C264.037 131.693 264.87 132.569 266.587 132.952C264.914 132.652 263.182 131.746 261.588 130.389L261.539 130.05Z" fill="#34A853"/>
<path d="M264.689 132.111C264.725 132.111 264.759 132.09 264.776 132.056C264.798 132.007 264.777 131.95 264.729 131.927C255.775 127.705 255.768 118.765 255.769 118.675C255.77 118.622 255.727 118.579 255.674 118.578C255.624 118.569 255.578 118.62 255.577 118.673C255.576 118.764 255.583 127.827 264.648 132.101L264.689 132.111Z" fill="black" fill-opacity="0.87"/>
<path d="M258.162 107.537C257.765 107.537 257.422 107.58 257.155 107.635C257.422 107.58 257.765 107.537 258.162 107.537Z" fill="white"/>
<path d="M272.886 121.206C271.883 121.787 270.565 123.187 269.946 123.848C269.847 123.956 269.769 124.066 269.706 124.176C269.581 123.816 269.439 123.505 269.283 123.259L272.886 121.206Z" fill="#34A853"/>
<path d="M267.683 121.022C268.167 122.102 268.697 122.982 269.228 123.29L269.283 123.259C269.439 123.505 269.581 123.816 269.706 124.176C269.442 124.632 269.443 125.054 269.315 125.054C269.281 125.054 269.238 125.024 269.178 124.955C269.111 124.879 269.01 124.848 268.891 124.848C268.64 124.848 268.307 124.986 268.052 125.117C268.275 124.925 268.505 124.571 268.505 123.948C268.505 123.098 267.987 121.741 267.683 121.022Z" fill="#34A853"/>
<path fill-rule="evenodd" clip-rule="evenodd" d="M267.295 100.369C266.954 100.453 266.663 100.741 266.5 100.986C266.485 101.009 266.454 101.015 266.431 101C266.408 100.985 266.402 100.954 266.417 100.931C266.587 100.676 266.896 100.364 267.272 100.272C267.461 100.226 267.667 100.236 267.877 100.337C268.086 100.437 268.297 100.626 268.5 100.931C268.515 100.954 268.509 100.985 268.486 101C268.463 101.015 268.432 101.009 268.417 100.986C268.22 100.691 268.022 100.517 267.834 100.427C267.646 100.337 267.464 100.328 267.295 100.369Z" fill="#212121"/>
<path fill-rule="evenodd" clip-rule="evenodd" d="M270.887 100.124C270.546 100.207 270.255 100.495 270.092 100.74C270.076 100.763 270.045 100.769 270.022 100.754C269.999 100.739 269.993 100.708 270.008 100.685C270.178 100.43 270.487 100.118 270.863 100.026C271.053 99.9802 271.258 99.9902 271.469 100.091C271.678 100.191 271.888 100.38 272.092 100.685C272.107 100.708 272.101 100.739 272.078 100.754C272.055 100.769 272.024 100.763 272.008 100.74C271.812 100.445 271.614 100.271 271.425 100.181C271.238 100.091 271.056 100.082 270.887 100.124Z" fill="#212121"/>
<ellipse cx="122" cy="300.5" rx="95" ry="27.5" fill="#2884B2" fill-opacity="0.06"/>
<path d="M102.261 299.075C96.3176 299.075 90.6754 298.049 85.7223 296.319C64.8763 289.053 71.9614 262.258 95.7792 265.827C95.9946 265.122 96.8775 262.515 99.0095 259.822C101.271 256.98 105.449 253.562 112.426 253.369C118.93 253.198 123.344 256.168 125.907 258.69C128.276 261.019 129.546 263.433 129.869 264.075C130.645 263.839 133.681 262.963 137.148 263.049C142.381 263.177 146.171 265.421 148.131 269.523C154.678 268.562 162.446 272.313 165.246 278.296C165.483 278.809 165.698 279.386 165.892 280.005C166.883 283.339 164.878 284.544 161.368 288.049C157.362 292.066 151.555 295.72 144.513 297.28C136.394 299.096 127.522 298.776 118.843 296.361C118.068 296.639 111.478 299.075 102.261 299.075Z" fill="white"/>
<path d="M85.8048 296.082L85.8046 296.082C75.4962 292.49 72.1404 284.103 74.2413 277.082C76.3431 270.058 83.937 264.305 95.7422 266.074L95.9554 266.106L96.0183 265.9C96.2286 265.211 97.0999 262.637 99.2052 259.978C101.432 257.179 105.546 253.809 112.433 253.619C118.849 253.451 123.201 256.378 125.732 258.868L125.732 258.868C128.073 261.17 129.329 263.557 129.646 264.187L129.741 264.375L129.942 264.314C130.709 264.081 133.715 263.214 137.142 263.299L137.142 263.299C142.298 263.425 145.993 265.628 147.906 269.631L147.985 269.797L148.167 269.771C151.383 269.298 154.91 269.983 157.981 271.529C161.053 273.075 163.648 275.471 165.019 278.402C165.25 278.902 165.462 279.468 165.653 280.079C165.892 280.885 165.946 281.546 165.85 282.136C165.754 282.725 165.506 283.263 165.113 283.819C164.719 284.378 164.184 284.948 163.519 285.604C163.245 285.875 162.945 286.164 162.624 286.473C162.18 286.901 161.697 287.366 161.191 287.872L161.191 287.872C157.215 291.859 151.45 295.488 144.459 297.036L144.459 297.036C136.383 298.843 127.553 298.525 118.91 296.12L118.834 296.099L118.759 296.126C118.744 296.131 118.728 296.137 118.709 296.144C117.742 296.492 111.26 298.825 102.261 298.825C96.346 298.825 90.7316 297.804 85.8048 296.082Z" stroke="black" stroke-opacity="0.87" stroke-width="0.5"/>
<path d="M119.226 295.57C119.226 295.57 104.774 301.498 87.4703 296.002C101.944 297.769 111.017 295.053 115.575 292.962C118.232 291.734 121.3 291.281 124.303 291.604C161.545 295.592 165.326 275.481 165.326 275.481C165.563 275.998 165.779 276.559 165.952 277.162C169.106 287.897 146.834 303.352 119.226 295.57Z" fill="#2884B2" fill-opacity="0.06"/>
<path d="M84.7478 274.463C84.6978 274.463 84.6227 274.438 84.5727 274.388C80.8944 270.928 77.1161 273.542 76.966 273.641C76.8409 273.716 76.6907 273.691 76.6157 273.592C76.5406 273.492 76.5656 273.318 76.6657 273.243C76.7158 273.218 80.9195 270.28 84.898 274.015C84.9981 274.114 84.9981 274.264 84.898 274.363C84.8729 274.438 84.8229 274.463 84.7478 274.463Z" fill="#212121"/>
<path d="M95.8826 283.077C95.7825 283.077 95.6825 283.003 95.6324 282.903C94.4314 278.347 92.4046 275.534 89.6521 274.513C85.6736 273.044 81.4199 275.882 81.3698 275.932C81.3448 275.957 79.6433 276.903 78.3672 279.019C78.2921 279.144 78.142 279.169 78.0169 279.094C77.8918 279.019 77.8668 278.87 77.9418 278.745C79.293 276.505 81.0446 275.534 81.0946 275.484C81.2447 275.384 85.5735 272.471 89.8023 274.04C92.7299 275.11 94.8317 278.048 96.0828 282.779C96.1078 282.903 96.0328 283.053 95.9077 283.077H95.8826Z" fill="#212121"/>
<path d="M163.446 293.853C164.532 295.351 165.753 296.941 166.975 298.28C168.106 299.529 169.237 300.551 170.164 301.051C171.25 301.618 172.562 301.323 173.308 300.369C176.385 296.396 183.94 286.11 182.945 285.089C181.248 283.363 177.923 285.043 175.751 286.337C174.733 286.95 173.557 287.177 172.426 287.019C171.793 286.928 171.182 286.723 170.616 286.405L163.446 293.853Z" fill="#212121"/>
<path d="M163.446 293.853C164.532 295.351 165.753 296.941 166.975 298.28C170.978 296.396 172.132 290.424 172.449 287.018C171.815 286.928 171.205 286.723 170.639 286.405L163.446 293.853Z" fill="#F4BB96"/>
<path d="M170.164 300.21C170.074 300.142 170.051 299.983 170.119 299.892L179.303 288.358C179.371 288.267 179.529 288.244 179.619 288.313C179.71 288.381 179.733 288.54 179.665 288.63L170.481 300.165C170.413 300.278 170.255 300.301 170.164 300.21Z" fill="#212121"/>
<path d="M124.425 309.452C123.883 311.223 123.34 313.175 123 314.946C122.684 316.604 122.548 318.102 122.706 319.17C122.91 320.373 123.928 321.281 125.149 321.304C130.171 321.395 142.884 321.327 143.11 319.896C143.494 317.489 140.124 315.832 137.794 314.855C136.708 314.401 135.804 313.607 135.261 312.585C134.944 312.04 134.74 311.404 134.672 310.768L124.425 309.452Z" fill="#212121"/>
<path d="M124.425 309.452C123.883 311.223 123.34 313.175 123 314.946C126.891 317.035 132.343 314.379 135.261 312.608C134.944 312.063 134.74 311.427 134.673 310.791L124.425 309.452Z" fill="#F4BB96"/>
<path d="M138.292 319.374L123.588 318.897C123.453 318.897 123.362 318.783 123.362 318.67C123.362 318.534 123.475 318.443 123.588 318.443L138.292 318.92C138.428 318.92 138.518 319.033 138.518 319.147C138.518 319.283 138.405 319.374 138.292 319.374Z" fill="#212121"/>
<path d="M168.807 290.674C165.617 294.67 161.84 298.167 160.663 297.236L137.138 281.297V278.05H119.766L118.001 267.333C121.01 263.632 118.295 262.315 122.028 259.772C127.095 256.275 138.179 260.362 148.742 265.857C161.478 272.464 173.489 281.138 173.489 281.138C174.711 282.091 172.042 286.632 168.807 290.674Z" fill="#212121"/>
<path d="M168.807 290.674C165.617 294.67 161.84 298.167 160.663 297.236L137.138 281.297V278.05H119.766L118.001 267.333C121.01 263.632 118.295 262.315 122.028 259.772C127.095 256.275 138.179 260.362 148.742 265.857C149.353 267.809 149.557 269.898 149.308 271.942C148.878 275.234 147.34 278.776 148.901 281.705C149.896 283.613 151.977 284.702 154.058 285.179C156.139 285.679 158.311 285.679 160.415 286.019C162.925 286.428 165.414 287.359 167.314 289.039C167.879 289.516 168.377 290.084 168.807 290.674Z" fill="#212121"/>
<path d="M132.637 226.145C132.863 225.418 133.338 224.805 133.994 224.419C136.663 222.807 136.957 221.149 136.346 220.99C135.804 220.854 134.673 221.876 134.673 221.876C134.673 221.876 136.618 219.832 135.939 219.242C135.193 218.606 133.7 221.217 133.7 221.217C133.7 221.217 135.306 218.493 134.446 218.13C133.7 217.789 132.139 220.65 132.139 220.65C132.139 220.65 133.655 217.675 132.637 217.426C131.641 217.176 130.375 220.99 130.375 220.99C130.375 220.99 129.877 218.538 128.701 218.584C127.389 218.652 128.316 221.649 128.316 222.671C128.316 223.67 127.389 226.576 127.389 226.576L132.207 227.484L132.637 226.145Z" fill="#F4BB96"/>
<path d="M130.171 223.511C130.081 223.511 129.967 223.443 129.945 223.329C129.922 223.216 129.99 223.08 130.103 223.057C130.442 222.966 130.623 222.83 130.714 222.626C130.872 222.149 130.397 221.377 130.194 221.104C130.126 221.014 130.126 220.855 130.239 220.786C130.329 220.718 130.488 220.718 130.556 220.832C130.646 220.945 131.415 221.967 131.144 222.762C131.008 223.125 130.714 223.375 130.216 223.488C130.194 223.511 130.194 223.511 130.171 223.511Z" fill="#EE9961"/>
<path d="M111.306 235.318V243.265C111.781 243.606 112.504 244.083 113.568 244.764C120.716 249.327 130.103 252.779 134.627 245.581C136.957 241.88 136.437 231.776 133.451 225.033C131.641 225.85 129.492 225.827 127.117 225.328C127.004 225.532 126.733 226.69 126.529 228.461C126.212 231.186 126.054 235.341 126.778 239.61C123.883 237.294 117.051 235.636 111.306 235.318Z" fill="#4285F4"/>
<path d="M126.552 228.438C127.276 228.937 128.226 229.051 129.04 228.71C130.103 228.279 131.008 227.121 132.139 227.325C132.682 227.439 133.134 227.847 133.406 228.347C133.677 228.846 133.768 229.414 133.858 229.959C134.243 232.161 134.492 234.386 134.605 236.634C134.718 238.746 134.718 240.903 134.265 242.969C133.813 245.035 132.863 247.056 131.325 248.487C131.393 248.509 131.46 248.555 131.528 248.577C132.705 247.919 133.745 246.943 134.627 245.535C136.957 241.834 136.437 231.73 133.451 224.986C131.641 225.804 129.492 225.781 127.117 225.282C127.027 225.531 126.755 226.689 126.552 228.438Z" fill="#4285F4"/>
<path d="M92.915 248.737C92.915 251.393 93.3674 259.885 93.9103 263.609C93.9103 263.609 106.759 261.997 118.589 265.085C122.39 266.084 123.996 263.995 124.855 263.2C126.28 261.883 125.443 257.138 125.443 257.138C125.443 257.138 124.244 236.93 111.464 235.363C100.696 234.023 92.9829 234.387 92.915 248.737Z" fill="#4285F4"/>
<path d="M125.443 257.342C125.33 257.342 125.217 257.251 125.217 257.138C125.217 257.001 124.29 242.924 116.621 237.566C116.508 237.497 116.486 237.361 116.576 237.248C116.644 237.134 116.78 237.111 116.893 237.202C124.742 242.697 125.67 256.979 125.67 257.115C125.692 257.229 125.602 257.319 125.443 257.342C125.466 257.342 125.466 257.342 125.443 257.342ZM113.432 220.082C113.432 220.082 114.337 220.718 113.296 223.216L111.532 220.241L113.432 220.082Z" fill="#212121"/>
<path d="M103.773 226.622L102.664 234.751C102.642 234.864 102.642 235 102.664 235.114C103.117 237.566 109.903 237.521 110.401 235.091L110.672 233.797L111.057 231.913C111.192 231.913 112.369 232.026 112.482 232.026C116.214 231.913 115.807 227.144 113.997 223.784C113.907 223.602 113.816 223.443 113.726 223.284C112.391 220.923 111.554 218.652 111.554 218.652L102.076 221.945L103.773 226.622Z" fill="#F4BB96"/>
<path d="M102.461 235.159C102.438 235.046 102.529 234.909 102.642 234.887C102.755 234.864 102.891 234.955 102.913 235.068C103.32 237.271 109.745 237.225 110.197 235.046C110.22 234.932 110.333 234.841 110.469 234.864C110.582 234.887 110.672 235 110.65 235.136C110.084 237.838 102.959 237.861 102.461 235.159ZM114.11 218.811C113.952 220.128 112.844 220.877 112.369 221.218C108.863 223.625 105.877 221.74 105.877 221.74C106.442 223.829 104.632 224.101 104.632 224.101C105.334 224.374 105.65 225.782 104.836 227.871L102.8 227.553C102.71 227.371 102.664 227.144 102.529 227.008C93.8425 218.856 105.718 213.453 110.265 214.225C112.618 214.611 113.5 216.064 113.884 217.267C114.088 218.016 114.11 218.675 114.11 218.811ZM111.419 223.17C111.509 223.375 111.871 223.125 112.369 222.898C112.866 222.671 113.274 222.535 113.183 222.33C113.093 222.126 112.618 222.171 112.142 222.399C111.645 222.626 111.328 222.966 111.419 223.17Z" fill="#212121"/>
<path d="M108.546 224.465C108.636 224.669 108.998 224.419 109.496 224.215C109.994 223.988 110.401 223.874 110.333 223.67C110.242 223.465 109.767 223.488 109.292 223.715C108.795 223.92 108.455 224.26 108.546 224.465Z" fill="#212121"/>
<path d="M111.509 226.372C111.509 226.236 111.6 226.145 111.713 226.122C112.007 226.099 112.301 226.009 112.55 225.85C112.663 225.782 112.708 225.691 112.708 225.691C112.663 225.6 111.803 225.418 111.192 224.442C111.125 224.328 111.147 224.192 111.26 224.124C111.373 224.056 111.509 224.079 111.577 224.192C111.848 224.624 112.256 224.964 112.708 225.169C112.866 225.237 113.092 225.35 113.16 225.577C113.296 226.145 112.346 226.531 111.735 226.576C111.622 226.599 111.509 226.508 111.509 226.372Z" fill="#EE9961"/>
<path d="M105.379 226.372C105.537 227.348 104.949 228.257 104.067 228.416C103.185 228.552 102.348 227.871 102.189 226.894C102.031 225.918 102.619 225.01 103.501 224.851C104.384 224.715 105.221 225.396 105.379 226.372Z" fill="#F4BB96"/>
<path d="M111.486 228.461C111.396 228.37 111.373 228.234 111.464 228.143C111.554 228.052 111.69 228.029 111.781 228.12C111.826 228.166 112.731 228.892 113.658 228.12C113.749 228.029 113.907 228.052 113.975 228.143C114.065 228.234 114.043 228.393 113.952 228.461C113.16 229.119 112.142 229.006 111.486 228.461Z" fill="#EE9961"/>
<path d="M103.773 226.803L103.547 226.553C103.456 226.462 103.456 226.326 103.547 226.236C103.637 226.145 103.773 226.145 103.863 226.236L104.09 226.485C104.18 226.576 104.18 226.712 104.09 226.803C103.999 226.893 103.863 226.893 103.773 226.803Z" fill="#212121"/>
<path d="M106.917 230.618C107.053 231.39 107.709 232.911 110.672 233.797L111.057 231.912C110.514 231.798 108.908 231.39 107.256 230.391C107.098 230.277 106.872 230.413 106.917 230.618Z" fill="#EE9961"/>
<path d="M110.129 225.554C110.354 225.554 110.536 225.371 110.536 225.146C110.536 224.92 110.354 224.737 110.129 224.737C109.904 224.737 109.722 224.92 109.722 225.146C109.722 225.371 109.904 225.554 110.129 225.554Z" fill="#212121"/>
<path d="M112.957 224.283C113.182 224.283 113.364 224.1 113.364 223.874C113.364 223.649 113.182 223.466 112.957 223.466C112.732 223.466 112.55 223.649 112.55 223.874C112.55 224.1 112.732 224.283 112.957 224.283Z" fill="#212121"/>
<path d="M93.9556 263.518C93.9556 263.518 82.9168 289.107 122.073 280.434L120.467 310.36C120.467 313.198 139.649 313.198 139.649 310.36C139.649 310.36 148.629 263.745 135.532 263.019C119.291 262.133 93.9556 263.518 93.9556 263.518Z" fill="#212121"/>
<path d="M132.783 241.762L132.244 245.021L129.548 261.149C129.406 261.923 128.725 262.503 127.931 262.503H116.806C115.784 262.503 115.018 261.619 115.188 260.652L115.529 258.609L118.423 241.292C118.565 240.519 119.246 239.939 120.041 239.939H131.166C131.604 239.939 132.807 241.147 132.783 241.762Z" fill="white"/>
<path d="M132.005 245.58L129.347 261.193C129.207 261.941 128.378 262.906 127.595 262.906H116.768C115.761 262.906 115.02 261.647 115.188 260.712L115.524 258.733C115.803 258.653 116.083 258.6 116.363 258.573C118.21 258.332 120.113 258.573 121.96 258.225C125.094 257.637 127.64 255.365 129.207 252.745C129.991 251.461 130.578 250.071 131.026 248.654C131.306 247.799 131.53 246.596 132.005 245.58Z" fill="#2884B2" fill-opacity="0.12"/>
<path d="M127.806 263.309H117.032C115.878 263.309 114.999 262.249 115.191 261.105L118.352 241.528C118.489 240.608 119.286 239.939 120.193 239.939H130.939C132.094 239.939 132.973 240.998 132.781 242.142L129.648 261.719C129.483 262.639 128.713 263.309 127.806 263.309ZM120.166 240.496C119.506 240.496 118.956 240.971 118.874 241.612L115.713 261.189C115.576 261.998 116.208 262.751 117.005 262.751H127.779C128.438 262.751 128.988 262.277 129.07 261.635L132.231 242.058C132.368 241.249 131.736 240.496 130.939 240.496H120.166Z" fill="#212121"/>
<path d="M127.004 247.147C126.812 248.248 125.771 249.156 124.676 249.156C123.581 249.156 122.842 248.248 123.006 247.147C123.198 246.047 124.238 245.139 125.333 245.139C126.429 245.139 127.195 246.047 127.004 247.147Z" fill="#212121"/>
<path d="M127.003 247.148C126.812 248.249 125.771 249.156 124.676 249.156C123.909 249.156 123.334 248.744 123.088 248.111C123.334 248.276 123.663 248.359 124.019 248.359C125.114 248.359 126.155 247.451 126.346 246.35C126.401 245.992 126.374 245.662 126.264 245.387C126.812 245.745 127.14 246.405 127.003 247.148Z" fill="#212121"/>
<path d="M124.676 249.431C123.417 249.431 122.54 248.386 122.732 247.093C122.924 245.854 124.101 244.864 125.333 244.864C126.593 244.864 127.469 245.91 127.277 247.203C127.058 248.441 125.908 249.431 124.676 249.431ZM125.333 245.414C124.348 245.414 123.444 246.212 123.28 247.203C123.115 248.138 123.745 248.881 124.676 248.881C125.662 248.881 126.565 248.083 126.73 247.093C126.894 246.157 126.264 245.414 125.333 245.414Z" fill="#212121"/>
<path d="M142.612 284.68C142.477 284.68 142.386 284.566 142.386 284.453C142.68 274.916 141.73 263.495 135.532 263.268C119.856 262.655 94.227 263.745 93.9782 263.768C93.8651 263.768 93.752 263.677 93.752 263.541C93.752 263.404 93.8425 263.314 93.9782 263.314C94.227 263.314 119.879 262.224 135.577 262.814C140.848 263.018 143.314 270.307 142.861 284.475C142.839 284.566 142.725 284.68 142.612 284.68Z" fill="#212121"/>
<path d="M121.643 258.568C121.62 258.977 121.372 259.159 120.512 259.068C120.897 259.204 121.236 259.408 121.326 259.613C121.462 259.908 121.168 260.294 120.195 260.112C120.444 260.226 120.625 260.362 120.693 260.521C120.829 260.884 120.014 261.179 119.223 261.066C119.381 261.134 120.874 261.883 117.865 261.929C117.323 261.929 115.717 262.178 115.355 260.657C114.947 258.5 115.581 257.319 116.78 256.547C117.277 256.184 118.567 255.367 119.064 255.73C119.517 256.048 118.725 257.047 118.205 257.615C119.223 257.637 121.666 257.774 121.643 258.568Z" fill="#F4BB96"/>
<path d="M90.5625 254.776C90.7661 257.138 91.5578 259.045 93.096 260.021C102.755 266.106 115.92 262.11 115.92 262.11C115.355 259.771 115.287 257.637 116.734 256.048C115.422 255.367 114.043 254.89 112.663 254.572C107.189 253.3 101.782 254.481 101.782 254.481C105.628 240.472 99.475 239.45 99.475 239.45L97.9594 236.271C92.5983 238.315 89.997 248.282 90.5625 254.776Z" fill="#4285F4"/>
<path d="M90.5625 254.776C90.7661 257.138 91.5578 259.045 93.096 260.021C102.755 266.107 115.92 262.11 115.92 262.11C115.355 259.772 115.287 257.637 116.734 256.048C115.422 255.367 114.043 254.89 112.663 254.572C112.459 256.161 113.681 257.66 113.07 259.09C112.55 260.317 110.989 260.657 109.654 260.725C107.256 260.839 104.859 260.634 102.484 260.43C100.018 260.226 97.4844 259.999 95.1997 259.022C93.2091 258.205 91.4221 256.729 90.5625 254.776Z" fill="#4285F4"/>
<path d="M106.239 263.609C102.054 263.609 97.1677 262.859 92.9829 260.226C92.6662 260.021 92.3721 259.794 92.1233 259.522C92.0328 259.431 92.0328 259.295 92.1233 259.204C92.2138 259.113 92.3495 259.113 92.44 259.204C92.6662 259.454 92.9377 259.658 93.2091 259.84C102.031 265.38 113.929 262.428 115.649 261.951C115.219 260.112 114.97 257.864 116.373 256.139C110.061 252.983 101.918 254.685 101.85 254.708C101.669 254.754 101.533 254.595 101.579 254.436C103.637 246.875 102.755 243.196 101.647 241.448C100.674 239.927 99.4524 239.7 99.4297 239.7C99.3166 239.677 99.2262 239.564 99.2488 239.427C99.2714 239.314 99.3845 239.223 99.4976 239.246C99.5655 239.246 100.923 239.495 102.008 241.176C103.162 242.969 104.09 246.693 102.099 254.209C103.795 253.913 111.102 252.869 116.825 255.889C116.961 255.957 116.983 256.139 116.893 256.252C115.694 257.546 115.468 259.34 116.146 262.087C116.169 262.201 116.101 262.314 115.988 262.36C115.897 262.36 111.667 263.609 106.239 263.609Z" fill="#212121"/>
<path d="M120.769 213.096C121.037 213.538 121.691 213.534 121.917 213.083L125.063 206.713C129.211 205.914 133.12 203.938 136.224 200.78C144.449 192.41 143.891 178.941 134.983 170.689C126.07 162.432 112.193 162.527 103.968 170.896C95.7431 179.266 96.2854 192.74 105.198 200.997C108.622 204.169 112.774 206.106 117.065 206.81L120.769 213.096Z" fill="white"/>
<path d="M124.97 206.225L124.722 206.273L124.612 206.497L121.467 212.864C121.467 212.864 121.466 212.865 121.466 212.865C121.447 212.903 121.413 212.927 121.357 212.927C121.298 212.928 121.239 212.901 121.202 212.841C121.201 212.84 121.201 212.839 121.2 212.839L117.5 206.558L117.382 206.358L117.15 206.32C112.954 205.631 108.893 203.737 105.543 200.634C96.8211 192.553 96.3123 179.398 104.328 171.242C112.348 163.08 125.912 162.968 134.638 171.053C143.355 179.129 143.879 192.279 135.864 200.434C132.837 203.515 129.022 205.444 124.97 206.225Z" stroke="black" stroke-opacity="0.87"/>
<path d="M138.269 174.158C138.386 174.024 138.384 173.809 138.263 173.679C132.006 166.08 123.508 163.453 115.027 165.472C114.861 165.512 114.756 165.692 114.792 165.875C114.827 166.057 114.99 166.169 115.155 166.135C123.437 164.162 132.006 166.911 137.836 174.164C137.956 174.294 138.15 174.293 138.269 174.158Z" fill="#212121"/>
<path d="M110.677 192.038H128.507C129.518 192.038 130.126 190.862 129.574 189.974L120.658 175.636C120.156 174.828 119.027 174.828 118.525 175.636L109.61 189.974C109.058 190.862 109.665 192.038 110.677 192.038Z" fill="#D32F2F"/>
<path d="M119.592 186.764C119.976 186.764 120.289 186.444 120.301 186.042L120.489 179.155C120.501 178.737 120.18 178.391 119.781 178.391H119.403C119.004 178.391 118.683 178.736 118.695 179.155L118.884 186.042C118.895 186.444 119.208 186.764 119.592 186.764Z" fill="white"/>
<path d="M119.592 189.712C119 189.712 118.521 189.209 118.521 188.589C118.521 187.969 119 187.466 119.592 187.466C120.184 187.466 120.663 187.969 120.663 188.589C120.663 189.209 120.184 189.712 119.592 189.712Z" fill="white"/>
<path d="M320.236 224.505C319.9 224.742 311.867 230.343 299.957 233.955C288.925 237.3 272.423 239.431 256.461 230.589C256.015 230.343 255.854 229.786 256.101 229.34C256.348 228.897 256.909 228.737 257.354 228.984C286.859 245.328 318.851 223.23 319.171 223.004C319.587 222.712 320.161 222.811 320.456 223.225C320.749 223.64 320.651 224.212 320.236 224.505Z" fill="#2884B2" fill-opacity="0.12"/>
<path d="M331.422 227.453C331.376 227.687 331.247 227.904 331.043 228.053C330.634 228.351 320.878 235.394 306.952 239.043C306.455 239.174 305.955 238.865 305.834 238.354C305.712 237.845 306.019 237.324 306.516 237.194C320.108 233.632 329.887 226.571 329.984 226.5C330.668 226.001 331.585 226.612 331.422 227.453Z" fill="#2884B2" fill-opacity="0.12"/>
<path d="M87.9961 171.443C87.7578 171.955 87.1521 172.17 86.6435 171.923L56.7277 157.382C56.2188 157.135 55.9991 156.519 56.2377 156.007C56.476 155.494 57.0817 155.279 57.5903 155.527L87.5061 170.067C88.0132 170.313 88.2352 170.929 87.9961 171.443ZM84.9707 182.682C85.0594 183.245 84.6818 183.769 84.1271 183.852C75.1121 185.207 66.2719 187.616 57.8518 191.011C57.3321 191.22 56.7379 190.961 56.5248 190.433C56.5238 190.43 56.5228 190.428 56.5221 190.426C56.3137 189.898 56.5625 189.304 57.0803 189.095C65.6443 185.642 74.6363 183.192 83.8052 181.814C84.3639 181.73 84.883 182.123 84.9707 182.682ZM85.1239 135.951C85.1269 135.959 85.1296 135.965 85.132 135.972L94.2183 160.48C94.4166 161.014 94.1511 161.606 93.6256 161.8C93.0751 162.004 92.4872 161.685 92.3148 161.184L83.2285 136.677C83.0301 136.142 83.2957 135.551 83.8212 135.356C84.34 135.164 84.9182 135.43 85.1239 135.951Z" fill="#4285F4"/>
<path d="M260.4 265.423C260.4 270.42 256.35 274.476 251.351 274.476C246.352 274.476 242.303 270.42 242.303 265.423C242.303 260.426 246.352 256.378 251.351 256.378C256.35 256.378 260.4 260.426 260.4 265.423Z" fill="#2884B2" fill-opacity="0.04"/>
<path d="M183.989 225.209C183.989 227.43 182.189 229.232 179.968 229.232C177.746 229.232 175.946 227.43 175.946 225.209C175.946 222.988 177.746 221.189 179.968 221.189C182.189 221.189 183.989 222.988 183.989 225.209Z" fill="#2884B2" fill-opacity="0.04"/>
<path d="M240.292 71.3821C240.292 73.6031 238.492 75.4054 236.27 75.4054C234.049 75.4054 232.249 73.6031 232.249 71.3821C232.249 69.1613 234.049 67.3622 236.27 67.3622C238.492 67.3622 240.292 69.1613 240.292 71.3821Z" fill="#2884B2" fill-opacity="0.04"/>
</svg>
