<svg width="180" height="228" viewBox="0 0 180 228" fill="none" xmlns="http://www.w3.org/2000/svg">
<path fill-rule="evenodd" clip-rule="evenodd" d="M131.167 114.462L131.165 114.465C131.059 114.625 130.952 114.788 130.842 114.955C130.952 114.787 131.061 114.623 131.167 114.462Z" fill="#212121"/>
<path fill-rule="evenodd" clip-rule="evenodd" d="M105 68C105 76.2843 98.2843 83 90 83C81.7157 83 75 76.2843 75 68C75 59.7157 81.7157 53 90 53C98.2843 53 105 59.7157 105 68ZM85.955 63.9549C87.7123 62.1976 88.0685 59.7045 86.7504 58.3865C85.4324 57.0684 82.9393 57.4246 81.182 59.1819C79.4246 60.9393 79.0685 63.4324 80.3865 64.7504C81.7045 66.0684 84.1976 65.7123 85.955 63.9549Z" fill="#1679AB"/>
<path fill-rule="evenodd" clip-rule="evenodd" d="M90 83C98.2843 83 105 76.2843 105 68C105 59.7157 98.2843 53 90 53C81.7157 53 75 59.7157 75 68C75 76.2843 81.7157 83 90 83ZM85.955 63.9549C87.7123 62.1976 88.0685 59.7045 86.7504 58.3865C85.4324 57.0684 82.9393 57.4246 81.182 59.1819C79.4246 60.9393 79.0685 63.4324 80.3865 64.7504C81.7045 66.0684 84.1976 65.7123 85.955 63.9549Z" fill="#212121"/>
<path d="M39 70.7366C39 42.7294 61.8196 20 90 20C118.18 20 141 42.7294 141 70.7366C141 78.4224 139.284 85.7015 136.215 92.2226C135.51 93.7217 136.153 95.5089 137.652 96.2144C139.151 96.9199 140.939 96.2766 141.644 94.7774C145.081 87.4745 147 79.3246 147 70.7366C147 39.388 121.466 14 90 14C58.5336 14 33 39.388 33 70.7366C33 79.3246 34.919 87.4745 38.3558 94.7774C39.0613 96.2766 40.8485 96.9199 42.3477 96.2144C43.8468 95.5089 44.4902 93.7217 43.7847 92.2226C40.7158 85.7015 39 78.4224 39 70.7366Z" fill="#1679AB"/>
<path fill-rule="evenodd" clip-rule="evenodd" d="M90 26C64.7605 26 44.25 46.2708 44.25 71.3373C44.25 77.48 46.8194 85.0284 50.416 92.7062C54.0573 100.479 58.9372 108.764 63.9329 116.497C73.9286 131.969 84.5461 145.475 87.0903 148.667C88.5887 150.546 91.4114 150.546 92.9097 148.667C95.4539 145.475 106.071 131.969 116.067 116.497C121.063 108.764 125.943 100.479 129.584 92.7062C133.181 85.0284 135.75 77.48 135.75 71.3373C135.75 46.2708 115.24 26 90 26ZM90 32C68.0192 32 50.25 49.6393 50.25 71.3373C50.25 76.0924 52.3238 82.6349 55.8494 90.1609C59.3305 97.5919 64.052 105.624 68.9727 113.241C77.2317 126.025 85.9407 137.47 90 142.666C94.0593 137.47 102.768 126.025 111.027 113.241C115.948 105.624 120.67 97.5919 124.151 90.1609C127.676 82.6349 129.75 76.0924 129.75 71.3373C129.75 49.6393 111.981 32 90 32Z" fill="#1679AB"/>
<path d="M48.3196 102.452C47.4645 101.033 45.6208 100.575 44.2017 101.43C42.7826 102.286 42.3253 104.129 43.1804 105.548C45.0729 108.689 46.4604 110.787 47.9571 113.051C49.105 114.787 50.3171 116.62 51.8707 119.095C52.7516 120.498 54.6032 120.922 56.0066 120.041C57.4099 119.16 57.8335 117.308 56.9527 115.905C55.1888 113.095 53.964 111.249 52.8431 109.559C51.4523 107.463 50.2215 105.608 48.3196 102.452Z" fill="#1679AB"/>
<path d="M136.82 105.548C137.675 104.129 137.217 102.286 135.798 101.43C134.379 100.575 132.536 101.033 131.68 102.452C129.357 106.307 128.133 108.164 126.208 111.082L126.206 111.085L126.205 111.087C125.351 112.382 124.359 113.885 123.073 115.865C122.17 117.255 122.564 119.113 123.954 120.016C125.343 120.918 127.201 120.524 128.104 119.135C129.188 117.466 130.069 116.127 130.842 114.955L131.165 114.465L131.167 114.462C133.127 111.489 134.431 109.512 136.82 105.548Z" fill="#1679AB"/>
<path d="M140.147 142.845C141.304 141.659 141.281 139.76 140.095 138.603C138.909 137.446 137.01 137.469 135.853 138.655C118.719 156.216 96.2083 161.461 78.123 160.969C69.0768 160.723 61.3003 159.043 56.0256 156.872C53.3672 155.778 51.517 154.63 50.4459 153.618C49.5924 152.812 49.5089 152.384 49.5032 152.297C49.9747 150.077 51.8513 148.286 54.6501 147.093C57.485 145.885 60.4231 145.67 61.7411 145.951C63.3616 146.296 64.955 145.262 65.3001 143.641C65.6452 142.021 64.6112 140.427 62.9907 140.082C60.1696 139.481 55.9555 140.015 52.298 141.573C48.6128 143.144 44.6598 146.13 43.6254 151.092C43.0344 153.926 44.5716 156.324 46.3267 157.981C48.1366 159.69 50.7253 161.179 53.7421 162.42C59.8178 164.921 68.3371 166.705 77.9599 166.967C97.2126 167.49 121.533 161.923 140.147 142.845Z" fill="#1679AB"/>
<path fill-rule="evenodd" clip-rule="evenodd" d="M111 68C111 79.598 101.598 89 90 89C78.402 89 69 79.598 69 68C69 56.402 78.402 47 90 47C101.598 47 111 56.402 111 68ZM90 83C98.2843 83 105 76.2843 105 68C105 59.7157 98.2843 53 90 53C81.7157 53 75 59.7157 75 68C75 76.2843 81.7157 83 90 83Z" fill="#1679AB"/>
<path d="M34.4165 208.703C34.2872 208.254 34.1057 207.857 33.8718 207.512C33.6379 207.161 33.3516 206.866 33.0131 206.626C32.6807 206.379 32.2991 206.192 31.8682 206.062C31.4435 205.933 30.9726 205.869 30.4556 205.869C29.4892 205.869 28.6398 206.109 27.9073 206.589C27.1809 207.069 26.6147 207.768 26.2084 208.685C25.8022 209.596 25.599 210.71 25.599 212.027C25.599 213.344 25.7991 214.464 26.1992 215.388C26.5993 216.311 27.1656 217.016 27.898 217.502C28.6305 217.982 29.4953 218.222 30.4925 218.222C31.3973 218.222 32.1698 218.062 32.81 217.742C33.4563 217.416 33.9487 216.957 34.2872 216.366C34.6319 215.776 34.8043 215.077 34.8043 214.271L35.6168 214.391H30.7418V211.381H38.6544V213.763C38.6544 215.425 38.3036 216.853 37.6019 218.047C36.9002 219.235 35.9338 220.152 34.7027 220.798C33.4717 221.438 32.0621 221.759 30.474 221.759C28.7013 221.759 27.144 221.368 25.8022 220.586C24.4603 219.798 23.4139 218.681 22.663 217.234C21.9182 215.782 21.5458 214.058 21.5458 212.064C21.5458 210.531 21.7674 209.165 22.2105 207.964C22.6599 206.758 23.2877 205.736 24.0941 204.899C24.9004 204.062 25.8391 203.425 26.9101 202.988C27.9811 202.551 29.1414 202.332 30.3909 202.332C31.462 202.332 32.4591 202.489 33.3824 202.803C34.3057 203.111 35.1244 203.548 35.8384 204.114C36.5586 204.681 37.1464 205.355 37.6019 206.136C38.0574 206.912 38.3497 207.768 38.479 208.703H34.4165ZM40.5436 221.5V207.318H44.3568V209.793H44.5045C44.763 208.912 45.197 208.248 45.8064 207.798C46.4157 207.343 47.1174 207.115 47.9115 207.115C48.1085 207.115 48.3208 207.127 48.5486 207.152C48.7763 207.177 48.9764 207.21 49.1487 207.254V210.744C48.964 210.688 48.7086 210.639 48.3824 210.596C48.0561 210.553 47.7576 210.531 47.4868 210.531C46.9082 210.531 46.3911 210.657 45.9356 210.91C45.4863 211.156 45.1293 211.501 44.8646 211.944C44.6061 212.387 44.4768 212.898 44.4768 213.477V221.5H40.5436ZM55.8898 221.777C54.4556 221.777 53.2153 221.472 52.1689 220.863C51.1286 220.247 50.3254 219.392 49.7591 218.296C49.1928 217.194 48.9097 215.917 48.9097 214.464C48.9097 213 49.1928 211.719 49.7591 210.624C50.3254 209.522 51.1286 208.666 52.1689 208.057C53.2153 207.441 54.4556 207.134 55.8898 207.134C57.324 207.134 58.5612 207.441 59.6014 208.057C60.6478 208.666 61.4542 209.522 62.0205 210.624C62.5867 211.719 62.8699 213 62.8699 214.464C62.8699 215.917 62.5867 217.194 62.0205 218.296C61.4542 219.392 60.6478 220.247 59.6014 220.863C58.5612 221.472 57.324 221.777 55.8898 221.777ZM55.9082 218.73C56.5607 218.73 57.1054 218.545 57.5425 218.176C57.9795 217.801 58.3088 217.29 58.5304 216.643C58.7581 215.997 58.872 215.262 58.872 214.437C58.872 213.612 58.7581 212.876 58.5304 212.23C58.3088 211.584 57.9795 211.073 57.5425 210.697C57.1054 210.322 56.5607 210.134 55.9082 210.134C55.2496 210.134 54.6956 210.322 54.2463 210.697C53.8031 211.073 53.4677 211.584 53.2399 212.23C53.0183 212.876 52.9075 213.612 52.9075 214.437C52.9075 215.262 53.0183 215.997 53.2399 216.643C53.4677 217.29 53.8031 217.801 54.2463 218.176C54.6956 218.545 55.2496 218.73 55.9082 218.73ZM73.4819 215.462V207.318H77.4151V221.5H73.6388V218.924H73.4911C73.171 219.755 72.6386 220.423 71.8938 220.928C71.1552 221.432 70.2534 221.685 69.1886 221.685C68.2406 221.685 67.4066 221.469 66.6864 221.038C65.9663 220.607 65.403 219.995 64.9968 219.201C64.5967 218.407 64.3936 217.456 64.3874 216.348V207.318H68.3207V215.646C68.3268 216.483 68.5515 217.145 68.9947 217.631C69.4378 218.118 70.0318 218.361 70.7766 218.361C71.2506 218.361 71.6938 218.253 72.1062 218.038C72.5186 217.816 72.851 217.49 73.1033 217.059C73.3618 216.628 73.488 216.096 73.4819 215.462ZM79.5212 226.818V207.318H83.3991V209.7H83.5745C83.7469 209.319 83.9961 208.931 84.3224 208.537C84.6548 208.137 85.0856 207.804 85.615 207.54C86.1505 207.269 86.8153 207.134 87.6093 207.134C88.6434 207.134 89.5975 207.404 90.4715 207.946C91.3456 208.482 92.0442 209.291 92.5674 210.374C93.0906 211.451 93.3522 212.803 93.3522 214.428C93.3522 216.009 93.0968 217.345 92.5859 218.435C92.0811 219.518 91.3917 220.34 90.5177 220.9C89.6498 221.454 88.6773 221.731 87.6001 221.731C86.8368 221.731 86.1874 221.605 85.6519 221.352C85.1226 221.1 84.6886 220.783 84.3501 220.401C84.0115 220.013 83.753 219.623 83.5745 219.229H83.4545V226.818H79.5212ZM83.3714 214.409C83.3714 215.252 83.4883 215.988 83.7222 216.616C83.9561 217.244 84.2947 217.733 84.7379 218.084C85.181 218.429 85.7196 218.601 86.3536 218.601C86.9938 218.601 87.5354 218.425 87.9786 218.075C88.4218 217.718 88.7573 217.225 88.985 216.597C89.2189 215.963 89.3359 215.234 89.3359 214.409C89.3359 213.59 89.222 212.87 88.9943 212.249C88.7665 211.627 88.431 211.141 87.9879 210.79C87.5447 210.439 86.9999 210.263 86.3536 210.263C85.7135 210.263 85.1718 210.433 84.7286 210.771C84.2916 211.11 83.9561 211.59 83.7222 212.212C83.4883 212.833 83.3714 213.566 83.3714 214.409ZM93.247 205.887V202.591H108.777V205.887H102.988V221.5H99.0361V205.887H93.247ZM108.748 221.5V207.318H112.561V209.793H112.709C112.967 208.912 113.401 208.248 114.011 207.798C114.62 207.343 115.322 207.115 116.116 207.115C116.313 207.115 116.525 207.127 116.753 207.152C116.981 207.177 117.181 207.21 117.353 207.254V210.744C117.168 210.688 116.913 210.639 116.587 210.596C116.26 210.553 115.962 210.531 115.691 210.531C115.112 210.531 114.595 210.657 114.14 210.91C113.691 211.156 113.334 211.501 113.069 211.944C112.81 212.387 112.681 212.898 112.681 213.477V221.5H108.748ZM121.984 221.768C121.08 221.768 120.273 221.611 119.565 221.297C118.857 220.977 118.297 220.506 117.885 219.884C117.479 219.256 117.276 218.475 117.276 217.539C117.276 216.751 117.42 216.089 117.709 215.554C117.999 215.018 118.393 214.588 118.891 214.261C119.39 213.935 119.956 213.689 120.59 213.523C121.23 213.357 121.901 213.24 122.603 213.172C123.428 213.086 124.093 213.006 124.597 212.932C125.102 212.852 125.468 212.735 125.696 212.581C125.924 212.427 126.038 212.199 126.038 211.898V211.842C126.038 211.258 125.853 210.805 125.484 210.485C125.12 210.165 124.603 210.005 123.932 210.005C123.225 210.005 122.661 210.162 122.243 210.476C121.824 210.784 121.547 211.171 121.412 211.639L117.774 211.344C117.959 210.482 118.322 209.737 118.864 209.109C119.405 208.475 120.104 207.989 120.959 207.651C121.821 207.306 122.818 207.134 123.951 207.134C124.739 207.134 125.493 207.226 126.213 207.411C126.939 207.595 127.583 207.881 128.143 208.269C128.709 208.657 129.155 209.156 129.482 209.765C129.808 210.368 129.971 211.091 129.971 211.935V221.5H126.241V219.533H126.13C125.902 219.977 125.598 220.367 125.216 220.706C124.834 221.038 124.376 221.3 123.84 221.491C123.305 221.675 122.686 221.768 121.984 221.768ZM123.111 219.053C123.689 219.053 124.2 218.939 124.643 218.712C125.087 218.478 125.434 218.164 125.687 217.77C125.939 217.376 126.065 216.93 126.065 216.431V214.926C125.942 215.006 125.773 215.08 125.557 215.148C125.348 215.209 125.111 215.268 124.847 215.323C124.582 215.372 124.317 215.419 124.053 215.462C123.788 215.499 123.548 215.532 123.332 215.563C122.871 215.631 122.468 215.739 122.123 215.886C121.778 216.034 121.51 216.234 121.32 216.487C121.129 216.733 121.033 217.04 121.033 217.41C121.033 217.945 121.227 218.355 121.615 218.638C122.009 218.915 122.508 219.053 123.111 219.053ZM138.39 221.777C136.937 221.777 135.688 221.469 134.641 220.854C133.601 220.232 132.801 219.37 132.241 218.268C131.687 217.167 131.41 215.899 131.41 214.464C131.41 213.012 131.69 211.738 132.25 210.642C132.816 209.54 133.62 208.682 134.66 208.066C135.7 207.444 136.937 207.134 138.372 207.134C139.609 207.134 140.692 207.358 141.622 207.808C142.551 208.257 143.287 208.888 143.828 209.7C144.37 210.513 144.668 211.467 144.724 212.562H141.012C140.908 211.855 140.631 211.285 140.181 210.854C139.738 210.417 139.156 210.199 138.436 210.199C137.827 210.199 137.294 210.365 136.839 210.697C136.39 211.024 136.039 211.501 135.786 212.129C135.534 212.756 135.408 213.517 135.408 214.409C135.408 215.314 135.531 216.083 135.777 216.717C136.029 217.351 136.383 217.835 136.839 218.167C137.294 218.499 137.827 218.665 138.436 218.665C138.886 218.665 139.289 218.573 139.646 218.388C140.009 218.204 140.307 217.936 140.541 217.585C140.781 217.228 140.938 216.8 141.012 216.302H144.724C144.662 217.385 144.367 218.339 143.837 219.164C143.314 219.983 142.591 220.623 141.668 221.085C140.744 221.546 139.652 221.777 138.39 221.777ZM149.766 217.419L149.775 212.701H150.348L154.89 207.318H159.405L153.302 214.446H152.37L149.766 217.419ZM146.202 221.5V202.591H150.135V221.5H146.202ZM155.066 221.5L150.892 215.323L153.515 212.544L159.673 221.5H155.066Z" fill="#1679AB"/>
</svg>
