<svg width="147" height="232" viewBox="0 0 147 232" fill="none" xmlns="http://www.w3.org/2000/svg">
<path fill-rule="evenodd" clip-rule="evenodd" d="M73.0001 80.2745C82.7378 80.2745 90.6317 72.4614 90.6317 62.8235C90.6317 53.1856 82.7378 45.3725 73.0001 45.3725C63.2625 45.3725 55.3686 53.1856 55.3686 62.8235C55.3686 72.4614 63.2625 80.2745 73.0001 80.2745ZM73.0001 87.2549C86.6328 87.2549 97.6843 76.3166 97.6843 62.8235C97.6843 49.3304 86.6328 38.3921 73.0001 38.3921C59.3674 38.3921 48.3159 49.3304 48.3159 62.8235C48.3159 76.3166 59.3674 87.2549 73.0001 87.2549Z" fill="#1679AB"/>
<path fill-rule="evenodd" clip-rule="evenodd" d="M131.884 144.963C133.278 146.309 133.305 148.519 131.945 149.898C110.065 172.094 81.478 178.57 58.8476 177.961C47.5366 177.657 37.5227 175.581 30.3811 172.672C26.835 171.228 23.7922 169.495 21.6647 167.507C19.6017 165.579 17.7948 162.79 18.4895 159.492C19.7055 153.72 24.352 150.246 28.6837 148.419C32.9828 146.606 37.9363 145.985 41.2522 146.684C43.1571 147.085 44.3724 148.939 43.9668 150.824C43.5612 152.71 41.6883 153.913 39.7834 153.511C38.2342 153.185 34.7806 153.435 31.4484 154.84C28.1585 156.228 25.9528 158.312 25.3985 160.894C25.4052 160.996 25.5034 161.494 26.5066 162.432C27.7657 163.608 29.9404 164.944 33.0652 166.217C39.2653 168.743 48.4061 170.697 59.0393 170.984C80.2976 171.556 106.757 165.454 126.897 145.024C128.257 143.644 130.49 143.617 131.884 144.963ZM25.3988 160.875C25.3992 160.875 25.3994 160.88 25.3983 160.89C25.3979 160.88 25.3984 160.875 25.3988 160.875Z" fill="#1679AB"/>
<path fill-rule="evenodd" clip-rule="evenodd" d="M73 20.9412C47.1629 20.9412 26.2763 41.4628 26.2763 66.7062C26.2763 72.2383 28.714 79.8498 32.8581 88.6056C36.9499 97.2508 42.4998 106.595 48.2837 115.457C57.9917 130.33 68.2285 143.645 73 149.69C77.7715 143.645 88.0084 130.33 97.7163 115.457C103.5 106.595 109.05 97.2508 113.142 88.6056C117.286 79.8498 119.724 72.2383 119.724 66.7062C119.724 41.4628 98.8371 20.9412 73 20.9412ZM19.2237 66.7062C19.2237 37.5439 43.3325 13.9608 73 13.9608C102.668 13.9608 126.776 37.5439 126.776 66.7062C126.776 73.8526 123.756 82.6344 119.529 91.5668C115.249 100.61 109.512 110.248 103.64 119.245C91.891 137.245 79.4108 152.958 76.4202 156.671C74.659 158.858 71.3411 158.858 69.5799 156.671C66.5892 152.958 54.1091 137.245 42.3598 119.245C36.4875 110.248 30.7515 100.61 26.4715 91.5668C22.2438 82.6344 19.2237 73.8526 19.2237 66.7062Z" fill="#1679AB"/>
<path fill-rule="evenodd" clip-rule="evenodd" d="M73 6.9804C39.8757 6.9804 13.0526 33.4237 13.0526 66.0073C13.0526 74.9489 15.0694 83.4174 18.6767 91.0041C19.506 92.7482 18.7498 94.8274 16.9876 95.6482C15.2255 96.469 13.1247 95.7205 12.2954 93.9764C8.25563 85.4801 6 75.9986 6 66.0073C6 29.5364 36.0132 0 73 0C109.987 0 140 29.5364 140 66.0073C140 75.9986 137.744 85.4801 133.705 93.9764C132.875 95.7205 130.775 96.469 129.012 95.6482C127.25 94.8274 126.494 92.7482 127.323 91.0041C130.931 83.4174 132.947 74.9489 132.947 66.0073C132.947 33.4237 106.124 6.9804 73 6.9804Z" fill="#1679AB"/>
<path fill-rule="evenodd" clip-rule="evenodd" d="M19.1669 101.717C20.835 100.722 23.0021 101.254 24.0072 102.905C26.2429 106.577 27.6895 108.735 29.3244 111.174C30.6419 113.139 32.0816 115.287 34.1549 118.556C35.1902 120.189 34.6923 122.343 33.0428 123.368C31.3933 124.393 29.2168 123.9 28.1814 122.267C26.3553 119.388 24.9304 117.255 23.5812 115.235C21.8219 112.602 20.191 110.161 17.9665 106.507C16.9614 104.856 17.4988 102.711 19.1669 101.717ZM126.833 101.717C128.501 102.711 129.039 104.856 128.034 106.507C125.226 111.118 123.694 113.419 121.389 116.877C120.39 118.377 119.245 120.095 117.789 122.314C116.728 123.93 114.543 124.389 112.91 123.338C111.277 122.288 110.814 120.126 111.875 118.51C113.389 116.204 114.556 114.453 115.56 112.945C117.823 109.55 119.262 107.39 121.993 102.905C122.998 101.254 125.165 100.722 126.833 101.717Z" fill="#1679AB"/>
<path fill-rule="evenodd" clip-rule="evenodd" d="M90.6317 62.8236C90.6317 72.4615 82.7378 80.2746 73.0001 80.2746C63.2625 80.2746 55.3685 72.4615 55.3685 62.8236C55.3685 53.1857 63.2625 45.3726 73.0001 45.3726C82.7378 45.3726 90.6317 53.1857 90.6317 62.8236ZM68.2454 58.1175C70.3111 56.073 70.7297 53.1725 69.1804 51.6391C67.6312 50.1058 64.7007 50.5201 62.635 52.5646C60.5694 54.6091 60.1507 57.5096 61.7 59.043C63.2492 60.5764 66.1797 60.162 68.2454 58.1175Z" fill="#1679AB"/>
<path d="M8.74164 208.8C8.74164 208.38 9.22164 208.04 10.1816 207.78C11.1416 207.52 12.1816 207.39 13.3016 207.39C14.4216 207.39 15.2716 207.84 15.8516 208.74C16.4516 209.64 16.7516 210.64 16.7516 211.74C16.7516 212.84 16.2816 214.74 15.3416 217.44C14.4216 220.12 13.6216 221.46 12.9416 221.46C12.6616 221.46 12.4216 221.37 12.2216 221.19C12.0416 221.03 11.9516 220.82 11.9516 220.56C11.9516 219.12 12.3516 217.06 13.1516 214.38C12.2116 215.58 11.1816 216.55 10.0616 217.29C8.96164 218.03 7.82164 218.4 6.64164 218.4C5.48164 218.4 4.26164 217.89 2.98164 216.87C1.70164 215.85 1.06164 214.73 1.06164 213.51C1.06164 211.35 1.70164 208.96 2.98164 206.34C4.26164 203.7 5.88164 201.45 7.84164 199.59C9.80164 197.73 11.6516 196.8 13.3916 196.8C13.9916 196.8 14.6116 197.27 15.2516 198.21C15.9116 199.15 16.2416 200.01 16.2416 200.79C16.2416 201.15 16.1116 201.33 15.8516 201.33C15.8116 201.33 15.6216 201.29 15.2816 201.21C14.9416 201.13 14.5216 201.09 14.0216 201.09C12.6816 201.09 11.3116 201.78 9.91164 203.16C8.51164 204.52 7.37164 206.2 6.49164 208.2C5.61164 210.2 5.17164 212.08 5.17164 213.84C5.17164 214.36 5.51164 214.62 6.19164 214.62C7.13164 214.62 8.28164 214.2 9.64164 213.36C11.0216 212.52 12.0816 211.58 12.8216 210.54C12.3816 210.56 11.8416 210.57 11.2016 210.57C10.5816 210.57 10.0116 210.38 9.49164 210C8.99164 209.62 8.74164 209.22 8.74164 208.8ZM20.732 208.23L20.552 204.84C20.552 203.72 20.902 203.16 21.602 203.16C22.002 203.16 22.392 203.31 22.772 203.61C23.172 203.91 23.472 204.38 23.672 205.02C24.352 204.42 25.092 203.94 25.892 203.58C26.712 203.2 27.432 203.01 28.052 203.01C29.512 203.01 30.242 203.36 30.242 204.06C30.242 204.42 30.172 204.69 30.032 204.87C29.912 205.03 29.812 205.15 29.732 205.23C29.672 205.31 29.552 205.42 29.372 205.56C29.212 205.68 29.092 205.77 29.012 205.83C28.552 206.13 28.222 206.34 28.022 206.46C27.122 207.02 26.352 207.7 25.712 208.5C25.072 209.28 24.592 210.37 24.272 211.77C23.732 214.07 23.202 215.79 22.682 216.93C22.182 218.05 21.612 218.61 20.972 218.61C20.352 218.61 19.882 218.31 19.562 217.71C19.262 217.11 19.112 216.55 19.112 216.03C19.112 215.49 19.302 214.69 19.682 213.63C20.082 212.57 20.352 211.66 20.492 210.9C20.652 210.12 20.732 209.23 20.732 208.23ZM34.1812 215.58C35.2612 215.1 36.2012 214.13 37.0012 212.67C37.8012 211.21 38.2012 209.84 38.2012 208.56C38.2012 207.28 38.0212 206.4 37.6612 205.92C36.8012 206.42 35.9412 207.47 35.0812 209.07C34.2412 210.67 33.8212 212.08 33.8212 213.3C33.8212 214.5 33.9412 215.26 34.1812 215.58ZM29.8012 213.6C29.8012 211.1 30.5712 208.73 32.1112 206.49C33.6712 204.25 35.2112 203.13 36.7312 203.13C38.2512 203.13 39.5312 203.67 40.5712 204.75C41.6112 205.81 42.1312 207.1 42.1312 208.62C42.1312 210.12 41.7712 211.65 41.0512 213.21C40.3312 214.77 39.3212 216.07 38.0212 217.11C36.7212 218.13 35.3312 218.64 33.8512 218.64C32.7512 218.64 31.8012 218.15 31.0012 217.17C30.2012 216.19 29.8012 215 29.8012 213.6ZM54.1628 203.91C54.3228 203.41 54.6428 203.16 55.1228 203.16C55.6028 203.16 56.1528 203.57 56.7728 204.39C57.4128 205.21 57.7328 205.92 57.7328 206.52C57.7328 206.74 57.2728 208.21 56.3528 210.93C55.4328 213.65 54.7228 215.8 54.2228 217.38C53.9428 218.22 53.4728 218.64 52.8128 218.64C52.4128 218.64 52.0728 218.5 51.7928 218.22C51.5328 217.92 51.4028 217.46 51.4028 216.84C51.4028 216.22 51.5228 215.34 51.7628 214.2C49.7028 217.16 48.0628 218.64 46.8428 218.64C46.2028 218.64 45.4328 218.23 44.5328 217.41C43.6328 216.57 43.1828 215.76 43.1828 214.98C43.1828 213.06 43.7228 210.61 44.8028 207.63C45.9028 204.65 46.9328 203.16 47.8928 203.16C48.4728 203.16 48.9828 203.42 49.4228 203.94C49.8828 204.46 50.1128 205.03 50.1128 205.65C50.1128 205.89 49.8628 206.56 49.3628 207.66C47.8428 210.96 47.0828 213.29 47.0828 214.65C47.0828 214.77 47.1328 214.83 47.2328 214.83C47.5328 214.83 48.0928 214.36 48.9128 213.42C49.7528 212.46 50.6828 211.1 51.7028 209.34C52.7428 207.56 53.5628 205.75 54.1628 203.91ZM69.1127 203.19C69.8527 203.19 70.6427 203.85 71.4827 205.17C72.3427 206.49 72.7727 207.81 72.7727 209.13C72.7727 209.93 72.4327 210.88 71.7527 211.98C71.0727 213.08 70.2127 214.12 69.1727 215.1C68.1527 216.06 66.9627 216.88 65.6027 217.56C64.2627 218.24 62.9827 218.58 61.7627 218.58H61.4027C60.1427 223.82 59.2527 226.44 58.7327 226.44C58.3127 226.44 57.8727 226.09 57.4127 225.39C56.9327 224.69 56.6927 224.11 56.6927 223.65C56.6927 223.19 56.9827 221.78 57.5627 219.42C59.2827 212.42 60.1427 207.14 60.1427 203.58C60.1427 202.98 60.4327 202.68 61.0127 202.68C61.4927 202.68 62.1027 202.95 62.8427 203.49C63.5827 204.03 64.0427 204.73 64.2227 205.59C65.9227 203.99 67.5527 203.19 69.1127 203.19ZM62.3327 215.01C63.8927 214.71 65.3627 213.85 66.7427 212.43C68.1427 211.01 68.8427 209.78 68.8427 208.74C68.8427 207.7 68.5527 207.18 67.9727 207.18C67.1327 207.18 66.2427 207.66 65.3027 208.62C64.9227 209.02 64.5027 209.61 64.0427 210.39C63.5827 211.17 63.1827 212.08 62.8427 213.12L62.3327 215.01ZM80.9652 200.91C78.8052 201.03 77.6252 201.09 77.4252 201.09C76.9452 201.09 76.4652 200.8 75.9852 200.22C75.5052 199.62 75.2652 199 75.2652 198.36C75.2652 197.38 78.1152 196.89 83.8152 196.89C86.7352 196.89 88.8852 197.19 90.2652 197.79C91.6452 198.39 92.3352 199.12 92.3352 199.98C92.3352 200.24 92.1852 200.49 91.8852 200.73C91.5852 200.95 91.2052 201.06 90.7452 201.06C90.2852 201.06 89.4452 201.03 88.2252 200.97C87.0052 200.91 85.8952 200.87 84.8952 200.85C84.9752 201.09 85.0152 201.37 85.0152 201.69C85.0152 202.01 84.8952 202.64 84.6552 203.58C84.4352 204.52 84.1152 205.83 83.6952 207.51C83.2752 209.17 82.8152 211.19 82.3152 213.57C81.8152 215.93 81.4652 217.34 81.2652 217.8C81.0852 218.24 80.9052 218.46 80.7252 218.46C80.3052 218.46 79.7752 218.08 79.1352 217.32C78.5152 216.54 78.2052 215.91 78.2052 215.43C78.2052 214.95 78.6152 212.97 79.4352 209.49C80.2552 205.99 80.7652 203.13 80.9652 200.91ZM92.3336 208.23L92.1536 204.84C92.1536 203.72 92.5036 203.16 93.2036 203.16C93.6036 203.16 93.9936 203.31 94.3736 203.61C94.7736 203.91 95.0736 204.38 95.2736 205.02C95.9536 204.42 96.6936 203.94 97.4936 203.58C98.3136 203.2 99.0336 203.01 99.6536 203.01C101.114 203.01 101.844 203.36 101.844 204.06C101.844 204.42 101.774 204.69 101.634 204.87C101.514 205.03 101.414 205.15 101.334 205.23C101.274 205.31 101.154 205.42 100.974 205.56C100.814 205.68 100.694 205.77 100.614 205.83C100.154 206.13 99.8236 206.34 99.6236 206.46C98.7236 207.02 97.9536 207.7 97.3136 208.5C96.6736 209.28 96.1936 210.37 95.8736 211.77C95.3336 214.07 94.8036 215.79 94.2836 216.93C93.7836 218.05 93.2136 218.61 92.5736 218.61C91.9536 218.61 91.4836 218.31 91.1636 217.71C90.8636 217.11 90.7136 216.55 90.7136 216.03C90.7136 215.49 90.9036 214.69 91.2836 213.63C91.6836 212.57 91.9536 211.66 92.0936 210.9C92.2536 210.12 92.3336 209.23 92.3336 208.23ZM114.303 210.12C114.663 210.44 114.843 210.73 114.843 210.99C114.843 211.25 114.723 211.79 114.483 212.61C114.243 213.43 114.083 214.07 114.003 214.53C113.923 214.97 113.853 215.32 113.793 215.58C113.753 215.84 113.723 216.05 113.703 216.21C113.683 216.35 113.643 216.53 113.583 216.75C113.543 216.97 113.503 217.15 113.463 217.29C113.443 217.41 113.403 217.56 113.343 217.74C113.303 217.9 113.253 218.03 113.193 218.13C113.133 218.21 113.063 218.3 112.983 218.4C112.863 218.56 112.663 218.64 112.383 218.64C112.103 218.64 111.753 218.36 111.333 217.8C110.933 217.24 110.633 216.56 110.433 215.76C108.553 217.68 106.973 218.64 105.693 218.64C104.833 218.64 103.903 218.17 102.903 217.23C101.903 216.27 101.403 215.32 101.403 214.38C101.403 213.42 101.833 212.06 102.693 210.3C103.553 208.54 104.723 206.91 106.203 205.41C107.703 203.91 109.183 203.16 110.643 203.16C111.483 203.16 112.453 203.65 113.553 204.63C114.653 205.61 115.203 206.51 115.203 207.33C115.203 208.13 114.903 209.06 114.303 210.12ZM105.573 214.86C106.373 214.86 107.433 214.32 108.753 213.24C110.093 212.14 110.923 210.76 111.243 209.1C111.263 208.86 111.433 208.72 111.753 208.68C111.693 207.54 111.503 206.97 111.183 206.97C110.383 206.97 109.483 207.49 108.483 208.53C107.503 209.57 106.693 210.68 106.053 211.86C105.433 213.04 105.123 213.91 105.123 214.47C105.123 214.63 105.143 214.74 105.183 214.8C105.243 214.84 105.373 214.86 105.573 214.86ZM116.846 213.93C116.846 212.53 117.286 210.99 118.166 209.31C119.046 207.63 120.196 206.19 121.616 204.99C123.056 203.79 124.466 203.19 125.846 203.19C126.546 203.19 127.266 203.65 128.006 204.57C128.746 205.47 129.116 206.28 129.116 207C129.116 207.52 128.876 207.78 128.396 207.78C128.156 207.78 127.826 207.67 127.406 207.45C126.986 207.23 126.556 207.12 126.116 207.12C125.676 207.12 125.046 207.5 124.226 208.26C123.426 209 122.706 209.9 122.066 210.96C121.446 212 121.136 212.82 121.136 213.42C121.136 214.02 121.246 214.41 121.466 214.59C121.706 214.77 122.266 214.86 123.146 214.86C124.046 214.86 124.856 214.78 125.576 214.62C126.316 214.46 126.856 214.3 127.196 214.14C127.556 213.96 127.876 213.87 128.156 213.87C128.716 213.87 128.996 214.11 128.996 214.59C128.996 215.47 128.226 216.37 126.686 217.29C125.146 218.19 123.606 218.64 122.066 218.64C121.086 218.64 119.966 218.1 118.706 217.02C117.466 215.92 116.846 214.89 116.846 213.93ZM134.313 218.64C133.853 218.64 133.273 218.27 132.573 217.53C131.893 216.79 131.553 216.2 131.553 215.76C131.553 215.64 131.883 214.45 132.543 212.19C133.223 209.93 133.893 207.21 134.553 204.03C135.233 200.85 135.573 198.07 135.573 195.69C135.573 195.07 135.853 194.76 136.413 194.76C136.893 194.76 137.523 195.2 138.303 196.08C139.103 196.94 139.503 197.75 139.503 198.51C139.503 199.61 139.103 201.69 138.303 204.75C137.523 207.81 136.743 210.22 135.963 211.98C136.223 211.64 136.573 211.19 137.013 210.63C137.473 210.05 137.843 209.58 138.123 209.22C138.403 208.86 138.743 208.42 139.143 207.9C139.563 207.38 139.913 206.96 140.193 206.64C140.473 206.3 140.783 205.93 141.123 205.53C141.463 205.11 141.753 204.78 141.993 204.54C142.253 204.28 142.513 204.04 142.773 203.82C143.253 203.38 143.623 203.16 143.883 203.16C144.383 203.16 144.933 203.5 145.533 204.18C146.133 204.84 146.433 205.42 146.433 205.92C146.433 206.12 146.003 206.58 145.143 207.3C144.303 208.02 143.453 208.82 142.593 209.7C141.753 210.58 141.333 211.37 141.333 212.07C141.333 212.75 141.533 213.42 141.933 214.08C142.353 214.72 142.803 215.21 143.283 215.55C143.763 215.89 144.203 216.24 144.603 216.6C145.023 216.94 145.233 217.23 145.233 217.47C145.233 218.25 144.703 218.64 143.643 218.64C142.383 218.64 140.713 217.58 138.633 215.46L137.913 214.74C136.113 217.34 134.913 218.64 134.313 218.64Z" fill="#1679AB"/>
</svg>
