<svg width="134" height="232" viewBox="0 0 134 232" fill="none" xmlns="http://www.w3.org/2000/svg">
<path fill-rule="evenodd" clip-rule="evenodd" d="M67.0001 80.2745C76.7378 80.2745 84.6317 72.4614 84.6317 62.8235C84.6317 53.1856 76.7378 45.3725 67.0001 45.3725C57.2625 45.3725 49.3686 53.1856 49.3686 62.8235C49.3686 72.4614 57.2625 80.2745 67.0001 80.2745ZM67.0001 87.2549C80.6328 87.2549 91.6843 76.3166 91.6843 62.8235C91.6843 49.3304 80.6328 38.3921 67.0001 38.3921C53.3674 38.3921 42.3159 49.3304 42.3159 62.8235C42.3159 76.3166 53.3674 87.2549 67.0001 87.2549Z" fill="#1679AB"/>
<path d="M84.6317 62.8236C84.6317 72.4615 76.7378 80.2746 67.0001 80.2746C57.2625 80.2746 49.3685 72.4615 49.3685 62.8236C49.3685 53.1857 57.2625 45.3726 67.0001 45.3726C76.7378 45.3726 84.6317 53.1857 84.6317 62.8236Z" fill="#1679AB"/>
<path fill-rule="evenodd" clip-rule="evenodd" d="M125.884 144.963C127.278 146.309 127.305 148.519 125.945 149.898C104.065 172.094 75.478 178.57 52.8476 177.961C41.5366 177.657 31.5227 175.581 24.3811 172.672C20.835 171.228 17.7922 169.495 15.6647 167.507C13.6017 165.579 11.7948 162.79 12.4895 159.492C13.7055 153.72 18.352 150.246 22.6837 148.419C26.9828 146.606 31.9363 145.985 35.2522 146.684C37.1571 147.085 38.3724 148.939 37.9668 150.824C37.5612 152.71 35.6883 153.913 33.7834 153.511C32.2342 153.185 28.7806 153.435 25.4484 154.84C22.1585 156.228 19.9528 158.312 19.3985 160.894C19.4052 160.996 19.5034 161.494 20.5066 162.432C21.7657 163.608 23.9404 164.944 27.0652 166.217C33.2653 168.743 42.4061 170.697 53.0393 170.984C74.2976 171.556 100.757 165.454 120.897 145.024C122.257 143.644 124.49 143.617 125.884 144.963ZM19.3988 160.875C19.3992 160.875 19.3994 160.88 19.3983 160.89C19.3979 160.88 19.3984 160.875 19.3988 160.875Z" fill="#1679AB"/>
<path fill-rule="evenodd" clip-rule="evenodd" d="M67 20.9412C41.1629 20.9412 20.2763 41.4628 20.2763 66.7062C20.2763 72.2383 22.714 79.8498 26.8581 88.6056C30.9499 97.2508 36.4998 106.595 42.2837 115.457C51.9917 130.33 62.2285 143.645 67 149.69C71.7715 143.645 82.0084 130.33 91.7163 115.457C97.5003 106.595 103.05 97.2508 107.142 88.6056C111.286 79.8498 113.724 72.2383 113.724 66.7062C113.724 41.4628 92.8371 20.9412 67 20.9412ZM13.2237 66.7062C13.2237 37.5439 37.3325 13.9608 67 13.9608C96.6675 13.9608 120.776 37.5439 120.776 66.7062C120.776 73.8526 117.756 82.6344 113.529 91.5668C109.249 100.61 103.512 110.248 97.6403 119.245C85.891 137.245 73.4108 152.958 70.4202 156.671C68.659 158.858 65.3411 158.858 63.5799 156.671C60.5892 152.958 48.1091 137.245 36.3598 119.245C30.4875 110.248 24.7515 100.61 20.4715 91.5668C16.2438 82.6344 13.2237 73.8526 13.2237 66.7062Z" fill="#1679AB"/>
<path fill-rule="evenodd" clip-rule="evenodd" d="M67 6.9804C33.8757 6.9804 7.05263 33.4237 7.05263 66.0073C7.05263 74.9489 9.06944 83.4174 12.6767 91.0041C13.506 92.7482 12.7498 94.8274 10.9876 95.6482C9.22547 96.469 7.1247 95.7205 6.29542 93.9764C2.25563 85.4801 0 75.9986 0 66.0073C0 29.5364 30.0132 0 67 0C103.987 0 134 29.5364 134 66.0073C134 75.9986 131.744 85.4801 127.705 93.9764C126.875 95.7205 124.775 96.469 123.012 95.6482C121.25 94.8274 120.494 92.7482 121.323 91.0041C124.931 83.4174 126.947 74.9489 126.947 66.0073C126.947 33.4237 100.124 6.9804 67 6.9804Z" fill="#1679AB"/>
<path fill-rule="evenodd" clip-rule="evenodd" d="M13.1669 101.717C14.835 100.722 17.0021 101.254 18.0072 102.905C20.2429 106.577 21.6895 108.735 23.3244 111.174C24.6419 113.139 26.0816 115.287 28.1549 118.556C29.1902 120.189 28.6923 122.343 27.0428 123.368C25.3933 124.393 23.2168 123.9 22.1814 122.267C20.3553 119.388 18.9304 117.255 17.5812 115.235C15.8219 112.602 14.191 110.161 11.9665 106.507C10.9614 104.856 11.4988 102.711 13.1669 101.717ZM120.833 101.717C122.501 102.711 123.039 104.856 122.034 106.507C119.226 111.118 117.694 113.419 115.389 116.877C114.39 118.377 113.245 120.095 111.789 122.314C110.728 123.93 108.543 124.389 106.91 123.338C105.277 122.288 104.814 120.126 105.875 118.51C107.389 116.204 108.556 114.453 109.56 112.945C111.823 109.55 113.262 107.39 115.993 102.905C116.998 101.254 119.165 100.722 120.833 101.717Z" fill="#1679AB"/>
<path d="M63.1804 51.6391C64.7297 53.1725 64.3111 56.073 62.2454 58.1175C60.1797 60.162 57.2493 60.5764 55.7 59.043C54.1508 57.5096 54.5694 54.6091 56.6351 52.5646C58.7007 50.5201 61.6312 50.1058 63.1804 51.6391Z" fill="white"/>
<path d="M9.42426 206.88C9.78426 206.88 10.4143 206.02 11.3143 204.3C12.2343 202.58 13.1643 200.87 14.1043 199.17C15.0443 197.45 15.7443 196.59 16.2043 196.59C16.8843 196.59 17.4443 196.9 17.8843 197.52C18.3443 198.14 18.5743 198.88 18.5743 199.74C18.5743 200.34 18.0543 201.5 17.0143 203.22C15.9743 204.92 14.6543 207.03 13.0543 209.55C11.4543 212.07 10.2243 214.21 9.36426 215.97C9.10426 216.53 8.68426 217.11 8.10426 217.71C7.52426 218.31 6.96426 218.61 6.42426 218.61C5.62426 218.61 5.22426 217.97 5.22426 216.69C5.22426 215.93 5.98426 214.16 7.50426 211.38C7.74426 210.94 7.91426 210.61 8.01426 210.39C7.13426 210.05 6.33426 209.49 5.61426 208.71C4.89426 207.93 4.32426 207.05 3.90426 206.07C3.02426 204.01 2.58426 202.01 2.58426 200.07C2.58426 198.87 2.71426 197.99 2.97426 197.43C3.25426 196.87 3.81426 196.59 4.65426 196.59C5.09426 196.59 5.42426 196.9 5.64426 197.52C5.86426 198.12 6.06426 198.99 6.24426 200.13C6.42426 201.27 6.67426 202.28 6.99426 203.16C7.33426 204.02 7.74426 204.86 8.22426 205.68C8.72426 206.48 9.12426 206.88 9.42426 206.88ZM22.1607 215.58C23.2407 215.1 24.1807 214.13 24.9807 212.67C25.7807 211.21 26.1807 209.84 26.1807 208.56C26.1807 207.28 26.0007 206.4 25.6407 205.92C24.7807 206.42 23.9207 207.47 23.0607 209.07C22.2207 210.67 21.8007 212.08 21.8007 213.3C21.8007 214.5 21.9207 215.26 22.1607 215.58ZM17.7807 213.6C17.7807 211.1 18.5507 208.73 20.0907 206.49C21.6507 204.25 23.1907 203.13 24.7107 203.13C26.2307 203.13 27.5107 203.67 28.5507 204.75C29.5907 205.81 30.1107 207.1 30.1107 208.62C30.1107 210.12 29.7507 211.65 29.0307 213.21C28.3107 214.77 27.3007 216.07 26.0007 217.11C24.7007 218.13 23.3107 218.64 21.8307 218.64C20.7307 218.64 19.7807 218.15 18.9807 217.17C18.1807 216.19 17.7807 215 17.7807 213.6ZM42.1423 203.91C42.3023 203.41 42.6223 203.16 43.1023 203.16C43.5823 203.16 44.1323 203.57 44.7523 204.39C45.3923 205.21 45.7123 205.92 45.7123 206.52C45.7123 206.74 45.2523 208.21 44.3323 210.93C43.4123 213.65 42.7023 215.8 42.2023 217.38C41.9223 218.22 41.4523 218.64 40.7923 218.64C40.3923 218.64 40.0523 218.5 39.7723 218.22C39.5123 217.92 39.3823 217.46 39.3823 216.84C39.3823 216.22 39.5023 215.34 39.7423 214.2C37.6823 217.16 36.0423 218.64 34.8223 218.64C34.1823 218.64 33.4123 218.23 32.5123 217.41C31.6123 216.57 31.1623 215.76 31.1623 214.98C31.1623 213.06 31.7023 210.61 32.7823 207.63C33.8823 204.65 34.9123 203.16 35.8723 203.16C36.4523 203.16 36.9623 203.42 37.4023 203.94C37.8623 204.46 38.0923 205.03 38.0923 205.65C38.0923 205.89 37.8423 206.56 37.3423 207.66C35.8223 210.96 35.0623 213.29 35.0623 214.65C35.0623 214.77 35.1123 214.83 35.2123 214.83C35.5123 214.83 36.0723 214.36 36.8923 213.42C37.7323 212.46 38.6623 211.1 39.6823 209.34C40.7223 207.56 41.5423 205.75 42.1423 203.91ZM47.8521 208.23L47.6721 204.84C47.6721 203.72 48.0221 203.16 48.7221 203.16C49.1221 203.16 49.5121 203.31 49.8921 203.61C50.2921 203.91 50.5921 204.38 50.7921 205.02C51.4721 204.42 52.2121 203.94 53.0121 203.58C53.8321 203.2 54.5521 203.01 55.1721 203.01C56.6321 203.01 57.3621 203.36 57.3621 204.06C57.3621 204.42 57.2921 204.69 57.1521 204.87C57.0321 205.03 56.9321 205.15 56.8521 205.23C56.7921 205.31 56.6721 205.42 56.4921 205.56C56.3321 205.68 56.2121 205.77 56.1321 205.83C55.6721 206.13 55.3421 206.34 55.1421 206.46C54.2421 207.02 53.4721 207.7 52.8321 208.5C52.1921 209.28 51.7121 210.37 51.3921 211.77C50.8521 214.07 50.3221 215.79 49.8021 216.93C49.3021 218.05 48.7321 218.61 48.0921 218.61C47.4721 218.61 47.0021 218.31 46.6821 217.71C46.3821 217.11 46.2321 216.55 46.2321 216.03C46.2321 215.49 46.4221 214.69 46.8021 213.63C47.2021 212.57 47.4721 211.66 47.6121 210.9C47.7721 210.12 47.8521 209.23 47.8521 208.23ZM71.2913 212.4C71.2913 214.1 70.4813 215.56 68.8613 216.78C67.2413 218 65.3913 218.61 63.3113 218.61C61.2313 218.61 59.5513 218.1 58.2713 217.08C57.0113 216.04 56.3813 214.97 56.3813 213.87C56.3813 212.77 56.6913 212.22 57.3113 212.22C57.7913 212.22 58.2913 212.46 58.8113 212.94C59.3313 213.42 59.9113 213.9 60.5513 214.38C61.2113 214.86 61.9513 215.1 62.7713 215.1C63.5913 215.1 64.5213 214.76 65.5613 214.08C66.6013 213.4 67.1213 212.83 67.1213 212.37C67.1213 211.91 66.5513 211.14 65.4113 210.06C64.2913 208.98 63.1613 207.87 62.0213 206.73C60.9013 205.57 60.3413 204.68 60.3413 204.06C60.3413 203.42 60.4513 202.73 60.6713 201.99C60.9113 201.25 61.2013 200.74 61.5413 200.46C62.6213 199.4 64.0113 198.49 65.7113 197.73C67.4313 196.95 68.9413 196.56 70.2413 196.56C71.0013 196.56 71.6313 196.89 72.1313 197.55C72.6313 198.19 72.8813 198.86 72.8813 199.56C72.8813 199.84 72.6513 200.07 72.1913 200.25C71.7513 200.41 71.1013 200.58 70.2413 200.76C69.4013 200.94 68.5413 201.2 67.6613 201.54C65.6213 202.3 64.6013 202.94 64.6013 203.46C64.6013 203.7 64.9513 204.14 65.6513 204.78C66.3513 205.4 67.1113 206.06 67.9313 206.76C68.7713 207.44 69.5413 208.31 70.2413 209.37C70.9413 210.41 71.2913 211.42 71.2913 212.4ZM84.514 203.19C85.254 203.19 86.044 203.85 86.884 205.17C87.744 206.49 88.174 207.81 88.174 209.13C88.174 209.93 87.834 210.88 87.154 211.98C86.474 213.08 85.614 214.12 84.574 215.1C83.554 216.06 82.364 216.88 81.004 217.56C79.664 218.24 78.384 218.58 77.164 218.58H76.804C75.544 223.82 74.654 226.44 74.134 226.44C73.714 226.44 73.274 226.09 72.814 225.39C72.334 224.69 72.094 224.11 72.094 223.65C72.094 223.19 72.384 221.78 72.964 219.42C74.684 212.42 75.544 207.14 75.544 203.58C75.544 202.98 75.834 202.68 76.414 202.68C76.894 202.68 77.504 202.95 78.244 203.49C78.984 204.03 79.444 204.73 79.624 205.59C81.324 203.99 82.954 203.19 84.514 203.19ZM77.734 215.01C79.294 214.71 80.764 213.85 82.144 212.43C83.544 211.01 84.244 209.78 84.244 208.74C84.244 207.7 83.954 207.18 83.374 207.18C82.534 207.18 81.644 207.66 80.704 208.62C80.324 209.02 79.904 209.61 79.444 210.39C78.984 211.17 78.584 212.08 78.244 213.12L77.734 215.01ZM102.517 210.12C102.877 210.44 103.057 210.73 103.057 210.99C103.057 211.25 102.937 211.79 102.697 212.61C102.457 213.43 102.297 214.07 102.217 214.53C102.137 214.97 102.067 215.32 102.007 215.58C101.967 215.84 101.937 216.05 101.917 216.21C101.897 216.35 101.857 216.53 101.797 216.75C101.757 216.97 101.717 217.15 101.677 217.29C101.657 217.41 101.617 217.56 101.557 217.74C101.517 217.9 101.467 218.03 101.407 218.13C101.347 218.21 101.277 218.3 101.197 218.4C101.077 218.56 100.877 218.64 100.597 218.64C100.317 218.64 99.9666 218.36 99.5466 217.8C99.1466 217.24 98.8466 216.56 98.6466 215.76C96.7666 217.68 95.1866 218.64 93.9066 218.64C93.0466 218.64 92.1166 218.17 91.1166 217.23C90.1166 216.27 89.6166 215.32 89.6166 214.38C89.6166 213.42 90.0466 212.06 90.9066 210.3C91.7666 208.54 92.9366 206.91 94.4166 205.41C95.9166 203.91 97.3966 203.16 98.8566 203.16C99.6966 203.16 100.667 203.65 101.767 204.63C102.867 205.61 103.417 206.51 103.417 207.33C103.417 208.13 103.117 209.06 102.517 210.12ZM93.7866 214.86C94.5866 214.86 95.6466 214.32 96.9666 213.24C98.3066 212.14 99.1366 210.76 99.4566 209.1C99.4766 208.86 99.6466 208.72 99.9666 208.68C99.9066 207.54 99.7166 206.97 99.3966 206.97C98.5966 206.97 97.6966 207.49 96.6966 208.53C95.7166 209.57 94.9066 210.68 94.2666 211.86C93.6466 213.04 93.3366 213.91 93.3366 214.47C93.3366 214.63 93.3566 214.74 93.3966 214.8C93.4566 214.84 93.5866 214.86 93.7866 214.86ZM105.06 213.93C105.06 212.53 105.5 210.99 106.38 209.31C107.26 207.63 108.41 206.19 109.83 204.99C111.27 203.79 112.68 203.19 114.06 203.19C114.76 203.19 115.48 203.65 116.22 204.57C116.96 205.47 117.33 206.28 117.33 207C117.33 207.52 117.09 207.78 116.61 207.78C116.37 207.78 116.04 207.67 115.62 207.45C115.2 207.23 114.77 207.12 114.33 207.12C113.89 207.12 113.26 207.5 112.44 208.26C111.64 209 110.92 209.9 110.28 210.96C109.66 212 109.35 212.82 109.35 213.42C109.35 214.02 109.46 214.41 109.68 214.59C109.92 214.77 110.48 214.86 111.36 214.86C112.26 214.86 113.07 214.78 113.79 214.62C114.53 214.46 115.07 214.3 115.41 214.14C115.77 213.96 116.09 213.87 116.37 213.87C116.93 213.87 117.21 214.11 117.21 214.59C117.21 215.47 116.44 216.37 114.9 217.29C113.36 218.19 111.82 218.64 110.28 218.64C109.3 218.64 108.18 218.1 106.92 217.02C105.68 215.92 105.06 214.89 105.06 213.93ZM133.177 208.77C133.177 209.75 132.507 210.63 131.167 211.41C129.847 212.19 128.487 212.58 127.087 212.58C125.687 212.58 124.537 212.48 123.637 212.28C123.457 212.82 123.367 213.36 123.367 213.9C123.367 214.44 123.457 214.83 123.637 215.07C123.817 215.29 124.267 215.4 124.987 215.4C126.487 215.4 127.767 215.26 128.827 214.98C129.907 214.7 130.467 214.56 130.507 214.56C131.327 214.56 131.737 214.83 131.737 215.37C131.737 216.15 131.087 216.89 129.787 217.59C128.507 218.29 127.017 218.64 125.317 218.64C123.637 218.64 122.287 218.11 121.267 217.05C120.247 215.99 119.737 214.74 119.737 213.3C119.737 211.84 120.157 210.32 120.997 208.74C121.857 207.16 122.927 205.84 124.207 204.78C125.487 203.7 126.757 203.16 128.017 203.16C129.297 203.16 130.477 203.79 131.557 205.05C132.637 206.29 133.177 207.53 133.177 208.77ZM129.697 208.29C129.697 208.09 129.487 207.8 129.067 207.42C128.647 207.04 128.247 206.85 127.867 206.85C127.507 206.85 127.037 207.12 126.457 207.66C125.877 208.18 125.327 208.86 124.807 209.7C124.987 209.72 125.247 209.73 125.587 209.73C128.327 209.73 129.697 209.25 129.697 208.29Z" fill="#1679AB"/>
</svg>
